<?xml version="1.0" encoding="UTF-8"?>
<svg xmlns="http://www.w3.org/2000/svg" xmlns:xlink="http://www.w3.org/1999/xlink" width="512px" height="512px" viewBox="0 0 512 512" version="1.1">
<g id="surface1">
<path style=" stroke:none;fill-rule:nonzero;fill:rgb(100%,100%,100%);fill-opacity:1;" d="M 404.210938 188.632812 L 269.472656 188.632812 L 269.472656 123.957031 C 274.46875 121.136719 278.433594 116.792969 280.792969 111.5625 L 417.683594 94.316406 C 425.125 94.316406 431.15625 88.28125 431.15625 80.84375 C 431.15625 73.402344 425.125 67.367188 417.683594 67.367188 L 277.019531 84.882812 C 272.042969 78.246094 264.292969 74.273438 256 74.105469 C 245.121094 74.160156 235.34375 80.75 231.207031 90.8125 L 94.316406 107.789062 C 86.875 107.789062 80.84375 113.824219 80.84375 121.261719 C 80.84375 128.703125 86.875 134.738281 94.316406 134.738281 L 234.980469 117.222656 C 237.046875 119.925781 239.609375 122.210938 242.527344 123.957031 L 242.527344 188.632812 L 107.789062 188.632812 C 92.90625 188.632812 80.84375 200.695312 80.84375 215.578125 L 80.84375 404.210938 C 80.84375 419.09375 92.90625 431.15625 107.789062 431.15625 L 404.210938 431.15625 C 419.09375 431.15625 431.15625 419.09375 431.15625 404.210938 L 431.15625 215.578125 C 431.15625 200.695312 419.09375 188.632812 404.210938 188.632812 Z M 242.527344 350.316406 L 134.738281 350.316406 L 134.738281 242.527344 L 242.527344 242.527344 Z M 377.261719 350.316406 L 269.472656 350.316406 L 269.472656 242.527344 L 377.261719 242.527344 Z M 377.261719 350.316406 "/>
</g>
</svg>
