<?xml version="1.0" encoding="UTF-8"?>
<svg xmlns="http://www.w3.org/2000/svg" xmlns:xlink="http://www.w3.org/1999/xlink" width="512px" height="512px" viewBox="0 0 512 512" version="1.1">
<g id="surface1">
<path style=" stroke:none;fill-rule:nonzero;fill:rgb(100%,100%,100%);fill-opacity:1;" d="M 237.628906 72.265625 L 182.507812 72.265625 C 164.132812 72.265625 164.132812 53.894531 182.507812 53.894531 L 329.492188 53.894531 C 347.863281 53.894531 347.863281 72.265625 329.492188 72.265625 L 274.371094 72.265625 C 274.371094 72.265625 296.421875 88.191406 296.421875 124.9375 L 296.421875 161.683594 L 458.105469 161.683594 L 458.105469 215.578125 L 296.421875 269.472656 L 282.949219 404.210938 L 350.316406 439.734375 L 350.316406 458.105469 L 161.683594 458.105469 L 161.683594 439.734375 L 229.050781 404.210938 L 215.578125 269.472656 L 53.894531 215.578125 L 53.894531 161.683594 L 215.578125 161.683594 L 215.578125 124.9375 C 215.578125 88.191406 237.628906 72.265625 237.628906 72.265625 Z M 237.628906 72.265625 "/>
</g>
</svg>
