<?xml version="1.0" encoding="UTF-8"?>
<svg xmlns="http://www.w3.org/2000/svg" xmlns:xlink="http://www.w3.org/1999/xlink" width="512px" height="512px" viewBox="0 0 512 512" version="1.1">
<g id="surface1">
<path style=" stroke:none;fill-rule:nonzero;fill:rgb(100%,100%,100%);fill-opacity:1;" d="M 431.15625 161.683594 L 323.367188 161.683594 L 323.367188 254.382812 C 323.367188 254.382812 323.367188 254.382812 323.367188 256 C 323.449219 280.511719 340.058594 301.878906 363.789062 308.007812 L 363.789062 404.210938 L 350.316406 404.210938 C 342.875 404.210938 336.84375 410.242188 336.84375 417.683594 C 336.84375 425.125 342.875 431.15625 350.316406 431.15625 L 404.210938 431.15625 C 411.652344 431.15625 417.683594 425.125 417.683594 417.683594 C 417.683594 410.242188 411.652344 404.210938 404.210938 404.210938 L 390.738281 404.210938 L 390.738281 308.007812 C 414.46875 301.878906 431.078125 280.511719 431.15625 256 C 431.15625 256 431.15625 256 431.15625 254.382812 Z M 404.210938 256 C 404.210938 270.882812 392.144531 282.949219 377.261719 282.949219 C 362.378906 282.949219 350.316406 270.882812 350.316406 256 L 350.316406 188.632812 L 404.210938 188.632812 Z M 202.105469 121.261719 L 202.105469 107.789062 C 209.546875 107.789062 215.578125 101.757812 215.578125 94.316406 C 215.578125 86.875 209.546875 80.84375 202.105469 80.84375 L 202.105469 67.367188 C 202.105469 59.929688 196.070312 53.894531 188.632812 53.894531 L 161.683594 53.894531 C 154.242188 53.894531 148.210938 59.929688 148.210938 67.367188 L 148.210938 80.84375 C 140.769531 80.84375 134.738281 86.875 134.738281 94.316406 C 134.738281 101.757812 140.769531 107.789062 148.210938 107.789062 L 148.210938 121.261719 C 148.210938 159.796875 80.84375 203.992188 80.84375 242.527344 L 80.84375 404.210938 C 80.84375 419.09375 92.90625 431.15625 107.789062 431.15625 L 242.527344 431.15625 C 256.855469 429.90625 268.21875 418.542969 269.472656 404.210938 L 269.472656 242.527344 C 269.472656 206.148438 202.105469 157.640625 202.105469 121.261719 Z M 175.15625 377.261719 C 137.953125 377.261719 107.789062 347.101562 107.789062 309.894531 C 107.789062 272.6875 137.953125 242.527344 175.15625 242.527344 C 212.363281 242.527344 242.527344 272.6875 242.527344 309.894531 C 242.527344 347.101562 212.363281 377.261719 175.15625 377.261719 Z M 175.15625 377.261719 "/>
</g>
</svg>
