<?xml version="1.0" encoding="UTF-8"?>
<svg xmlns="http://www.w3.org/2000/svg" xmlns:xlink="http://www.w3.org/1999/xlink" width="512px" height="512px" viewBox="0 0 512 512" version="1.1">
<g id="surface1">
<path style=" stroke:none;fill-rule:nonzero;fill:rgb(100%,100%,100%);fill-opacity:1;" d="M 256.808594 134.738281 C 137.160156 134.738281 80.84375 256 80.84375 256 C 80.84375 256 137.160156 377.261719 256.808594 377.261719 C 376.453125 377.261719 431.15625 256 431.15625 256 C 431.15625 256 377.261719 134.738281 256.808594 134.738281 Z M 350.316406 242.527344 L 350.316406 282.949219 C 350.316406 290.386719 344.28125 296.421875 336.84375 296.421875 C 329.402344 296.421875 323.367188 290.386719 323.367188 282.949219 L 323.367188 269.472656 L 269.472656 269.472656 L 269.472656 282.949219 C 269.472656 290.386719 263.441406 296.421875 256 296.421875 C 248.558594 296.421875 242.527344 290.386719 242.527344 282.949219 L 242.527344 269.472656 L 188.632812 269.472656 L 188.632812 282.949219 C 188.632812 290.386719 182.597656 296.421875 175.15625 296.421875 C 167.71875 296.421875 161.683594 290.386719 161.683594 282.949219 L 161.683594 229.050781 C 161.683594 221.613281 167.71875 215.578125 175.15625 215.578125 C 182.597656 215.578125 188.632812 221.613281 188.632812 229.050781 L 188.632812 242.527344 L 242.527344 242.527344 L 242.527344 229.050781 C 242.527344 221.613281 248.558594 215.578125 256 215.578125 C 263.441406 215.578125 269.472656 221.613281 269.472656 229.050781 L 269.472656 242.527344 L 323.367188 242.527344 L 323.367188 229.050781 C 323.367188 221.613281 329.402344 215.578125 336.84375 215.578125 C 344.28125 215.578125 350.316406 221.613281 350.316406 229.050781 Z M 350.316406 242.527344 "/>
</g>
</svg>
