<?xml version="1.0" encoding="UTF-8"?>
<svg xmlns="http://www.w3.org/2000/svg" xmlns:xlink="http://www.w3.org/1999/xlink" width="512px" height="512px" viewBox="0 0 512 512" version="1.1">
<g id="surface1">
<path style=" stroke:none;fill-rule:nonzero;fill:rgb(100%,100%,100%);fill-opacity:1;" d="M 417.683594 242.527344 C 417.683594 297.175781 390.574219 345.492188 349.0625 374.757812 L 377.261719 431.15625 L 134.738281 431.15625 L 162.9375 374.757812 C 121.429688 345.492188 94.316406 297.175781 94.316406 242.527344 C 94.316406 153.230469 166.703125 80.84375 256 80.84375 C 345.296875 80.84375 417.683594 153.230469 417.683594 242.527344 Z M 385.304688 245.894531 L 296.28125 245.894531 C 295.570312 254.527344 292.148438 262.386719 286.863281 268.628906 L 349.816406 331.578125 C 371.117188 309.140625 384.457031 279.070312 385.304688 245.894531 Z M 345.050781 336.339844 L 282.101562 273.390625 C 278.402344 276.523438 274.132812 279 269.472656 280.648438 L 269.472656 371.179688 C 298.632812 368.164062 324.914062 355.457031 345.050781 336.339844 Z M 215.71875 245.894531 L 126.695312 245.894531 C 127.542969 279.070312 140.882812 309.140625 162.1875 331.578125 L 225.136719 268.628906 C 219.851562 262.386719 216.429688 254.527344 215.71875 245.894531 Z M 166.949219 336.339844 C 187.085938 355.457031 213.367188 368.164062 242.527344 371.179688 L 242.527344 280.648438 C 237.867188 279 233.597656 276.523438 229.898438 273.390625 Z M 385.304688 239.15625 C 384.457031 205.980469 371.117188 175.910156 349.816406 153.476562 L 286.863281 216.425781 C 292.148438 222.664062 295.570312 230.527344 296.28125 239.15625 Z M 345.050781 148.710938 C 322.613281 127.410156 292.542969 114.070312 259.367188 113.222656 L 259.367188 202.242188 C 268 202.957031 275.863281 206.378906 282.101562 211.660156 Z M 252.632812 202.242188 L 252.632812 113.222656 C 219.457031 114.070312 189.386719 127.410156 166.949219 148.710938 L 229.898438 211.660156 C 236.136719 206.378906 244 202.957031 252.632812 202.242188 Z M 225.136719 216.425781 L 162.1875 153.476562 C 140.882812 175.910156 127.542969 205.980469 126.695312 239.15625 L 215.71875 239.15625 C 216.429688 230.527344 219.851562 222.664062 225.136719 216.425781 Z M 225.136719 216.425781 "/>
</g>
</svg>
