<?xml version="1.0" encoding="UTF-8"?>
<svg xmlns="http://www.w3.org/2000/svg" xmlns:xlink="http://www.w3.org/1999/xlink" width="512px" height="512px" viewBox="0 0 512 512" version="1.1">
<g id="surface1">
<path style=" stroke:none;fill-rule:nonzero;fill:rgb(100%,100%,100%);fill-opacity:1;" d="M 256.753906 78.011719 L 296.421875 107.789062 L 323.367188 107.789062 L 363.0625 78.039062 C 368.894531 73.667969 377.261719 77.835938 377.261719 85.125 L 377.261719 175.15625 C 377.261719 194.613281 363.195312 207.0625 350.316406 217.546875 L 350.316406 323.367188 L 371.875 388.042969 L 390.898438 397.554688 C 399.0625 401.636719 404.214844 409.984375 404.210938 419.113281 C 404.210938 425.769531 398.820312 431.15625 392.164062 431.15625 L 168.421875 431.15625 C 135.195312 431.15625 107.789062 404.210938 107.789062 369.527344 C 107.789062 311.039062 120 267.589844 127.867188 238.347656 C 131.800781 223.71875 135.6875 212.738281 138.457031 205.175781 C 140.007812 200.9375 141.5625 197.015625 143.628906 193.078125 C 155.722656 170.050781 190.636719 187.433594 179.792969 211.078125 C 178.476562 213.945312 177.253906 216.957031 176.207031 219.621094 C 173.75 225.875 170.441406 235.601562 166.886719 248.832031 C 160.257812 273.488281 152.898438 310.460938 149.773438 360.207031 C 159.691406 304.695312 215.039062 248.964844 259.636719 209.058594 C 250.339844 200.273438 242.554688 189.65625 242.554688 175.15625 L 242.554688 85.101562 C 242.554688 77.808594 250.921875 73.636719 256.753906 78.011719 Z M 256.753906 78.011719 "/>
</g>
</svg>
