<?xml version="1.0" encoding="UTF-8"?>
<svg xmlns="http://www.w3.org/2000/svg" xmlns:xlink="http://www.w3.org/1999/xlink" width="512px" height="512px" viewBox="0 0 512 512" version="1.1">
<g id="surface1">
<path style=" stroke:none;fill-rule:nonzero;fill:rgb(100%,100%,100%);fill-opacity:1;" d="M 84.480469 285.035156 C 107.5 219.550781 181.105469 107.789062 323.367188 107.789062 C 394.828125 107.789062 431.15625 134.738281 431.15625 134.738281 C 431.15625 134.738281 368.816406 134.738281 340.082031 146.730469 C 337.921875 147.636719 336.160156 149.21875 335.035156 151.277344 C 329.921875 160.605469 316.699219 189.910156 332.074219 220.835938 C 334.609375 225.933594 340.519531 228.121094 345.957031 226.441406 C 359.675781 222.203125 386.160156 212.8125 406.261719 198.257812 C 412.222656 193.945312 420.78125 195.578125 422.527344 202.722656 C 429.542969 231.488281 429.542969 280.511719 422.527344 309.277344 C 420.78125 316.421875 412.222656 318.054688 406.261719 313.742188 C 386.160156 299.1875 359.675781 289.796875 345.957031 285.558594 C 340.519531 283.878906 334.609375 286.066406 332.074219 291.164062 C 316.699219 322.089844 329.921875 351.394531 335.035156 360.726562 C 336.160156 362.78125 337.921875 364.367188 340.082031 365.269531 C 368.816406 377.261719 431.15625 377.261719 431.15625 377.261719 C 417.683594 386.246094 371.875 404.210938 296.421875 404.210938 C 175.621094 404.210938 108.527344 332.601562 87.839844 306.117188 C 83.144531 300.105469 81.953125 292.230469 84.480469 285.035156 Z M 188.632812 296.421875 C 207.234375 296.421875 222.316406 281.339844 222.316406 262.738281 C 222.316406 244.132812 207.234375 229.050781 188.632812 229.050781 C 170.027344 229.050781 154.949219 244.132812 154.949219 262.738281 C 154.949219 281.339844 170.027344 296.421875 188.632812 296.421875 Z M 188.632812 296.421875 "/>
</g>
</svg>
