<?xml version="1.0" encoding="UTF-8"?>
<svg xmlns="http://www.w3.org/2000/svg" xmlns:xlink="http://www.w3.org/1999/xlink" width="512px" height="512px" viewBox="0 0 512 512" version="1.1">
<g id="surface1">
<path style=" stroke:none;fill-rule:nonzero;fill:rgb(100%,100%,100%);fill-opacity:1;" d="M 277.367188 115.683594 C 287.890625 105.160156 304.953125 105.160156 315.476562 115.683594 L 436.738281 236.945312 C 447.261719 247.46875 447.261719 264.53125 436.738281 275.054688 L 315.476562 396.316406 C 304.953125 406.839844 287.890625 406.839844 277.367188 396.316406 C 266.84375 385.792969 266.84375 368.730469 277.367188 358.207031 L 350.316406 282.949219 L 94.316406 282.949219 C 79.433594 282.949219 67.367188 270.882812 67.367188 256 C 67.367188 241.117188 79.433594 229.050781 94.316406 229.050781 L 350.316406 229.050781 L 277.367188 153.792969 C 266.84375 143.269531 266.84375 126.207031 277.367188 115.683594 Z M 277.367188 115.683594 "/>
</g>
</svg>
