<?xml version="1.0" encoding="UTF-8"?>
<svg xmlns="http://www.w3.org/2000/svg" xmlns:xlink="http://www.w3.org/1999/xlink" width="512px" height="512px" viewBox="0 0 512 512" version="1.1">
<g id="surface1">
<path style=" stroke:none;fill-rule:nonzero;fill:rgb(100%,100%,100%);fill-opacity:1;" d="M 342.5 134.738281 L 265.429688 57.9375 C 260.191406 52.652344 251.660156 52.617188 246.378906 57.859375 C 246.351562 57.886719 246.324219 57.910156 246.300781 57.9375 L 169.5 134.738281 L 94.316406 134.738281 C 86.875 134.738281 80.84375 140.769531 80.84375 148.210938 L 80.84375 390.738281 C 80.84375 398.175781 86.875 404.210938 94.316406 404.210938 L 417.683594 404.210938 C 425.125 404.210938 431.15625 398.175781 431.15625 390.738281 L 431.15625 148.210938 C 431.15625 140.769531 425.125 134.738281 417.683594 134.738281 Z M 256 86.5 L 304.234375 134.738281 L 207.765625 134.738281 Z M 404.210938 377.261719 L 107.789062 377.261719 L 107.789062 161.683594 L 404.210938 161.683594 Z M 188.632812 242.527344 C 173.75 242.527344 161.683594 230.460938 161.683594 215.578125 C 161.683594 200.695312 173.75 188.632812 188.632812 188.632812 C 203.515625 188.632812 215.578125 200.695312 215.578125 215.578125 C 215.578125 230.460938 203.515625 242.527344 188.632812 242.527344 Z M 377.261719 350.316406 L 175.15625 350.316406 L 215.578125 269.472656 L 249.261719 336.84375 L 309.894531 215.578125 Z M 377.261719 350.316406 "/>
</g>
</svg>
