<?xml version="1.0" encoding="UTF-8"?>
<svg xmlns="http://www.w3.org/2000/svg" xmlns:xlink="http://www.w3.org/1999/xlink" width="512px" height="512px" viewBox="0 0 512 512" version="1.1">
<g id="surface1">
<path style=" stroke:none;fill-rule:nonzero;fill:rgb(100%,100%,100%);fill-opacity:1;" d="M 215.578125 107.789062 C 200.648438 107.789062 195.308594 121.382812 188.632812 134.738281 L 175.15625 161.683594 L 121.261719 161.683594 C 98.871094 161.683594 80.84375 179.710938 80.84375 202.105469 L 80.84375 336.84375 C 80.84375 359.234375 98.871094 377.261719 121.261719 377.261719 L 390.738281 377.261719 C 413.128906 377.261719 431.15625 359.234375 431.15625 336.84375 L 431.15625 202.105469 C 431.15625 179.710938 413.128906 161.683594 390.738281 161.683594 L 336.84375 161.683594 L 323.367188 134.738281 C 316.632812 121.261719 311.351562 107.789062 296.421875 107.789062 Z M 121.261719 188.632812 C 128.703125 188.632812 134.738281 194.664062 134.738281 202.105469 C 134.738281 209.546875 128.703125 215.578125 121.261719 215.578125 C 113.824219 215.578125 107.789062 209.546875 107.789062 202.105469 C 107.789062 194.664062 113.824219 188.632812 121.261719 188.632812 Z M 256 188.632812 C 300.648438 188.632812 336.84375 224.824219 336.84375 269.472656 C 336.84375 314.121094 300.648438 350.316406 256 350.316406 C 211.351562 350.316406 175.15625 314.121094 175.15625 269.472656 C 175.15625 224.824219 211.351562 188.632812 256 188.632812 Z M 256 229.050781 C 233.675781 229.050781 215.578125 247.152344 215.578125 269.472656 C 215.578125 291.796875 233.675781 309.894531 256 309.894531 C 278.324219 309.894531 296.421875 291.796875 296.421875 269.472656 C 296.421875 247.152344 278.324219 229.050781 256 229.050781 Z M 256 229.050781 "/>
</g>
</svg>
