<?xml version="1.0" encoding="UTF-8"?>
<svg xmlns="http://www.w3.org/2000/svg" xmlns:xlink="http://www.w3.org/1999/xlink" width="512px" height="512px" viewBox="0 0 512 512" version="1.1">
<g id="surface1">
<path style=" stroke:none;fill-rule:nonzero;fill:rgb(100%,100%,100%);fill-opacity:1;" d="M 196.554688 171.976562 L 215.578125 309.894531 C 215.421875 317.089844 218.210938 324.035156 223.300781 329.121094 C 228.386719 334.210938 235.332031 337 242.527344 336.84375 L 269.472656 336.84375 C 276.667969 337 283.613281 334.210938 288.699219 329.121094 C 293.789062 324.035156 296.578125 317.089844 296.421875 309.894531 L 315.445312 171.976562 C 315.445312 134.738281 256 134.738281 256 134.738281 C 256 134.738281 196.472656 134.738281 196.554688 171.976562 Z M 148.210938 188.632812 C 107.789062 188.632812 107.789062 215.578125 107.789062 215.578125 L 134.738281 323.367188 L 175.15625 323.367188 C 186.683594 323.390625 196.148438 314.269531 196.554688 302.753906 L 175.15625 188.632812 Z M 94.316406 256 C 83.730469 255.910156 73.515625 259.882812 65.777344 267.101562 C 58.996094 273.269531 54.757812 281.742188 53.894531 290.871094 L 53.894531 350.316406 L 77.664062 350.316406 C 85.304688 351.054688 92.90625 348.5625 98.628906 343.445312 C 104.355469 338.324219 107.675781 331.046875 107.789062 323.367188 Z M 363.789062 188.632812 C 404.210938 188.632812 404.210938 215.578125 404.210938 215.578125 L 377.261719 323.367188 L 336.84375 323.367188 C 325.316406 323.390625 315.851562 314.269531 315.445312 302.753906 L 336.84375 188.632812 Z M 417.683594 256 C 428.269531 255.910156 438.484375 259.882812 446.222656 267.101562 C 453.003906 273.269531 457.242188 281.742188 458.105469 290.871094 L 458.105469 350.316406 L 434.335938 350.316406 C 426.695312 351.054688 419.09375 348.5625 413.371094 343.445312 C 407.644531 338.324219 404.324219 331.046875 404.210938 323.367188 Z M 417.683594 256 "/>
</g>
</svg>
