<?xml version="1.0" encoding="UTF-8"?>
<svg xmlns="http://www.w3.org/2000/svg" xmlns:xlink="http://www.w3.org/1999/xlink" width="512px" height="512px" viewBox="0 0 512 512" version="1.1">
<g id="surface1">
<path style=" stroke:none;fill-rule:nonzero;fill:rgb(100%,100%,100%);fill-opacity:1;" d="M 80.84375 134.738281 C 65.914062 134.738281 53.894531 146.753906 53.894531 161.683594 L 53.894531 350.316406 C 53.894531 365.246094 65.914062 377.261719 80.84375 377.261719 L 431.15625 377.261719 C 446.085938 377.261719 458.105469 365.246094 458.105469 350.316406 L 458.105469 161.683594 C 458.105469 146.753906 446.085938 134.738281 431.15625 134.738281 Z M 80.84375 161.683594 L 121.261719 161.683594 C 128.703125 161.683594 134.738281 167.71875 134.738281 175.15625 C 134.738281 182.597656 128.703125 188.632812 121.261719 188.632812 C 113.824219 188.632812 107.789062 182.597656 107.789062 175.15625 L 94.316406 188.632812 C 101.757812 188.632812 107.789062 194.664062 107.789062 202.105469 C 107.789062 209.546875 101.757812 215.578125 94.316406 215.578125 C 86.875 215.578125 80.84375 209.546875 80.84375 202.105469 Z M 256 161.683594 C 293.207031 161.683594 323.367188 203.910156 323.367188 256 C 323.367188 308.089844 293.207031 350.316406 256 350.316406 C 218.792969 350.316406 188.632812 308.089844 188.632812 256 C 188.632812 203.910156 218.792969 161.683594 256 161.683594 Z M 390.738281 161.683594 L 431.15625 161.683594 L 431.15625 202.105469 C 431.15625 209.546875 425.125 215.578125 417.683594 215.578125 C 410.242188 215.578125 404.210938 209.546875 404.210938 202.105469 C 404.210938 194.664062 410.242188 188.632812 417.683594 188.632812 L 404.210938 175.15625 C 404.210938 182.597656 398.175781 188.632812 390.738281 188.632812 C 383.296875 188.632812 377.261719 182.597656 377.261719 175.15625 C 377.261719 167.71875 383.296875 161.683594 390.738281 161.683594 Z M 256 202.105469 C 247.296875 202.105469 241.621094 205.039062 237.632812 208.84375 L 274.371094 208.84375 C 270.378906 205.039062 264.703125 202.105469 256 202.105469 Z M 232.421875 215.578125 C 231.195312 218.03125 230.757812 220.191406 230.261719 222.316406 L 281.738281 222.316406 C 281.242188 220.191406 280.804688 218.03125 279.578125 215.578125 Z M 229.050781 229.050781 L 229.050781 235.789062 L 282.949219 235.789062 L 282.949219 229.050781 Z M 229.050781 242.527344 L 229.050781 249.261719 L 282.949219 249.261719 L 282.949219 242.527344 Z M 229.050781 256 L 229.050781 262.738281 L 282.949219 262.738281 L 282.949219 256 Z M 229.050781 269.472656 L 222.316406 276.210938 L 276.210938 276.210938 L 282.949219 269.472656 Z M 215.578125 282.949219 C 215.578125 282.949219 216.53125 285.707031 218.316406 289.683594 L 279.578125 289.683594 L 269.472656 282.949219 Z M 94.316406 296.421875 C 101.757812 296.421875 107.789062 302.453125 107.789062 309.894531 C 107.789062 317.335938 101.757812 323.367188 94.316406 323.367188 L 107.789062 336.84375 C 107.789062 329.402344 113.824219 323.367188 121.261719 323.367188 C 128.703125 323.367188 134.738281 329.402344 134.738281 336.84375 C 134.738281 344.28125 128.703125 350.316406 121.261719 350.316406 L 80.84375 350.316406 L 80.84375 309.894531 C 80.84375 302.453125 86.875 296.421875 94.316406 296.421875 Z M 222 296.421875 C 223.238281 298.726562 224.050781 300.707031 225.683594 303.15625 L 286.789062 303.15625 C 288.585938 299.441406 289.683594 296.421875 289.683594 296.421875 Z M 417.683594 296.421875 C 425.125 296.421875 431.15625 302.453125 431.15625 309.894531 L 431.15625 350.316406 L 390.738281 350.316406 C 383.296875 350.316406 377.261719 344.28125 377.261719 336.84375 C 377.261719 329.402344 383.296875 323.367188 390.738281 323.367188 C 398.175781 323.367188 404.210938 329.402344 404.210938 336.84375 L 417.683594 323.367188 C 410.242188 323.367188 404.210938 317.335938 404.210938 309.894531 C 404.210938 302.453125 410.242188 296.421875 417.683594 296.421875 Z M 230.84375 309.894531 C 232.960938 312.351562 235.28125 314.644531 237.84375 316.632812 L 276.105469 316.632812 C 278.804688 314.546875 281.164062 312.273438 282.949219 309.894531 Z M 230.84375 309.894531 "/>
</g>
</svg>
