<?xml version="1.0" encoding="UTF-8"?>
<svg xmlns="http://www.w3.org/2000/svg" xmlns:xlink="http://www.w3.org/1999/xlink" width="512px" height="512px" viewBox="0 0 512 512" version="1.1">
<g id="surface1">
<path style=" stroke:none;fill-rule:nonzero;fill:rgb(100%,100%,100%);fill-opacity:1;" d="M 384.828125 144.878906 L 306.683594 242.5625 L 357.050781 242.5625 C 368.214844 242.5625 377.261719 251.609375 377.261719 262.773438 C 377.261719 273.933594 368.214844 282.980469 357.050781 282.980469 L 282.949219 282.980469 L 282.949219 309.929688 L 357.050781 309.929688 C 368.214844 309.929688 377.261719 318.976562 377.261719 330.140625 C 377.261719 341.300781 368.214844 350.351562 357.050781 350.351562 L 282.949219 350.351562 L 282.949219 384.035156 C 282.949219 398.917969 270.882812 410.980469 256 410.980469 C 241.117188 410.980469 229.050781 398.917969 229.050781 384.035156 L 229.050781 350.351562 L 154.949219 350.351562 C 143.785156 350.351562 134.738281 341.300781 134.738281 330.140625 C 134.738281 318.976562 143.785156 309.929688 154.949219 309.929688 L 229.050781 309.929688 L 229.050781 282.980469 L 154.949219 282.980469 C 143.785156 282.980469 134.738281 273.933594 134.738281 262.773438 C 134.738281 251.609375 143.785156 242.5625 154.949219 242.5625 L 205.320312 242.5625 L 127.171875 144.878906 C 117.835938 133.285156 119.664062 116.320312 131.257812 106.980469 C 142.847656 97.644531 159.816406 99.472656 169.152344 111.066406 L 169.25 111.191406 L 256 219.621094 L 342.75 111.183594 C 352.015625 99.535156 368.96875 97.605469 380.617188 106.875 C 392.265625 116.140625 394.195312 133.09375 384.929688 144.742188 Z M 384.828125 144.878906 "/>
</g>
</svg>
