<?xml version="1.0" encoding="UTF-8"?>
<svg xmlns="http://www.w3.org/2000/svg" xmlns:xlink="http://www.w3.org/1999/xlink" width="512px" height="512px" viewBox="0 0 512 512" version="1.1">
<g id="surface1">
<path style=" stroke:none;fill-rule:nonzero;fill:rgb(100%,100%,100%);fill-opacity:1;" d="M 256 80.84375 C 202.105469 80.84375 67.367188 87.578125 80.84375 101.050781 L 242.527344 269.472656 L 242.527344 377.261719 C 242.527344 404.210938 161.683594 390.738281 161.683594 431.15625 L 350.316406 431.15625 C 350.316406 390.738281 269.472656 404.210938 269.472656 377.261719 L 269.472656 269.472656 L 431.15625 101.050781 C 444.632812 87.578125 309.894531 80.84375 256 80.84375 Z M 256 107.789062 C 323.367188 107.789062 384 114.527344 384 114.527344 L 363.789062 134.738281 L 148.210938 134.738281 L 128 114.527344 C 128 114.527344 188.632812 107.789062 256 107.789062 Z M 256 107.789062 "/>
</g>
</svg>
