<?xml version="1.0" encoding="UTF-8"?>
<svg xmlns="http://www.w3.org/2000/svg" xmlns:xlink="http://www.w3.org/1999/xlink" width="512px" height="512px" viewBox="0 0 512 512" version="1.1">
<g id="surface1">
<path style=" stroke:none;fill-rule:nonzero;fill:rgb(100%,100%,100%);fill-opacity:1;" d="M 404.210938 107.789062 L 107.789062 107.789062 C 100.640625 107.789062 93.789062 110.628906 88.734375 115.683594 C 83.679688 120.734375 80.84375 127.589844 80.84375 134.738281 L 80.84375 296.421875 C 80.84375 303.566406 83.679688 310.421875 88.734375 315.476562 C 93.789062 320.527344 100.640625 323.367188 107.789062 323.367188 L 134.738281 323.367188 L 134.738281 390.738281 C 134.738281 394.308594 136.15625 397.738281 138.683594 400.265625 C 141.210938 402.789062 144.636719 404.210938 148.210938 404.210938 C 151.785156 404.210938 155.210938 402.789062 157.738281 400.265625 C 160.265625 397.738281 161.683594 394.308594 161.683594 390.738281 L 161.683594 377.261719 L 350.316406 377.261719 L 350.316406 390.738281 C 350.316406 394.308594 351.734375 397.738281 354.261719 400.265625 C 356.789062 402.789062 360.214844 404.210938 363.789062 404.210938 C 367.363281 404.210938 370.789062 402.789062 373.316406 400.265625 C 375.84375 397.738281 377.261719 394.308594 377.261719 390.738281 L 377.261719 323.367188 L 404.210938 323.367188 C 411.355469 323.367188 418.210938 320.527344 423.265625 315.476562 C 428.316406 310.421875 431.15625 303.566406 431.15625 296.421875 L 431.15625 134.738281 C 431.15625 127.589844 428.316406 120.734375 423.265625 115.683594 C 418.210938 110.628906 411.355469 107.789062 404.210938 107.789062 Z M 404.210938 134.738281 L 404.210938 188.632812 L 350.316406 134.738281 Z M 309.894531 134.738281 L 404.210938 229.050781 L 404.210938 296.421875 L 242.527344 134.738281 Z M 202.105469 296.421875 L 107.789062 202.105469 L 107.789062 134.738281 L 269.472656 296.421875 Z M 107.789062 296.421875 L 107.789062 242.527344 L 161.683594 296.421875 Z M 350.316406 350.316406 L 161.683594 350.316406 L 161.683594 323.367188 L 350.316406 323.367188 Z M 344.738281 296.421875 L 309.894531 296.421875 L 148.210938 134.738281 L 202.105469 134.738281 L 363.789062 296.421875 Z M 344.738281 296.421875 "/>
</g>
</svg>
