<?xml version="1.0" encoding="UTF-8"?>
<svg xmlns="http://www.w3.org/2000/svg" xmlns:xlink="http://www.w3.org/1999/xlink" width="512px" height="512px" viewBox="0 0 512 512" version="1.1">
<g id="surface1">
<path style=" stroke:none;fill-rule:nonzero;fill:rgb(100%,100%,100%);fill-opacity:1;" d="M 296.421875 148.210938 C 296.421875 170.535156 278.324219 188.632812 256 188.632812 C 233.675781 188.632812 215.578125 170.535156 215.578125 148.210938 C 215.578125 125.886719 233.675781 107.789062 256 107.789062 C 278.324219 107.789062 296.421875 125.886719 296.421875 148.210938 Z M 215.578125 61.441406 C 215.578125 57.273438 212.199219 53.894531 208.035156 53.894531 C 205.394531 54.601562 203.042969 56.105469 201.296875 58.207031 L 134.738281 177.582031 C 134.578125 178.746094 134.578125 179.925781 134.738281 181.085938 C 134.738281 185.253906 138.117188 188.632812 142.28125 188.632812 C 145.019531 187.976562 147.472656 186.46875 149.289062 184.320312 L 215.578125 64.941406 C 215.742188 63.78125 215.742188 62.601562 215.578125 61.441406 Z M 374.570312 436.546875 L 296.421875 226.089844 C 295.144531 219.964844 289.746094 215.578125 283.488281 215.578125 L 148.75 215.578125 C 141.308594 215.578125 135.277344 221.613281 135.277344 229.050781 C 135.277344 236.492188 141.308594 242.527344 148.75 242.527344 L 215.578125 242.527344 L 254.652344 310.164062 L 139.589844 434.390625 C 136.511719 436.902344 134.730469 440.664062 134.738281 444.632812 C 134.738281 452.070312 140.769531 458.105469 148.210938 458.105469 C 151.507812 458.089844 154.679688 456.839844 157.105469 454.601562 L 277.019531 342.769531 L 351.394531 450.558594 C 353.804688 454.851562 358.328125 457.523438 363.25 457.566406 C 370.785156 457.570312 376.972656 451.617188 377.261719 444.09375 C 377.148438 441.363281 376.210938 438.730469 374.570312 436.546875 Z M 374.570312 436.546875 "/>
</g>
</svg>
