<?xml version="1.0" encoding="UTF-8"?>
<svg xmlns="http://www.w3.org/2000/svg" xmlns:xlink="http://www.w3.org/1999/xlink" width="512px" height="512px" viewBox="0 0 512 512" version="1.1">
<g id="surface1">
<path style=" stroke:none;fill-rule:nonzero;fill:rgb(100%,100%,100%);fill-opacity:1;" d="M 152.523438 242.527344 L 108.597656 242.527344 C 110.757812 216.136719 120.175781 190.054688 135.816406 168.691406 C 145.257812 191.980469 150.898438 217.445312 152.523438 242.527344 Z M 181.492188 242.527344 L 242.527344 242.527344 L 242.527344 107.789062 C 209.914062 110.648438 181.210938 124.304688 157.238281 146.59375 C 171.515625 176.390625 179.761719 209.527344 181.492188 242.527344 Z M 269.472656 107.789062 L 269.472656 242.527344 L 330.507812 242.527344 C 332.238281 209.527344 340.484375 176.390625 354.761719 146.59375 C 330.785156 124.304688 302.082031 110.648438 269.472656 107.789062 Z M 376.183594 168.691406 C 366.742188 191.980469 361.101562 217.445312 359.476562 242.527344 L 403.402344 242.527344 C 401.242188 216.136719 391.824219 190.054688 376.183594 168.691406 Z M 431.15625 282.925781 C 431.15625 290.355469 425.136719 296.378906 417.707031 296.378906 L 369.71875 296.378906 L 349.238281 337.339844 L 349.238281 401.472656 C 349.179688 403.5 348.539062 405.464844 347.390625 407.140625 C 346.242188 408.808594 344.640625 410.117188 342.769531 410.902344 C 341.539062 411.234375 340.273438 411.417969 338.996094 411.441406 C 337.683594 411.503906 336.371094 411.269531 335.15625 410.753906 C 333.945312 410.242188 332.863281 409.464844 331.992188 408.480469 L 304.503906 381.261719 L 261.660156 409.828125 C 259.960938 410.882812 258 411.441406 256 411.441406 C 254 411.441406 252.039062 410.882812 250.339844 409.828125 L 207.496094 381.261719 L 180.007812 408.480469 C 178.648438 409.894531 176.902344 410.886719 174.984375 411.316406 C 173.066406 411.746094 171.066406 411.605469 169.230469 410.902344 C 167.359375 410.117188 165.757812 408.808594 164.609375 407.140625 C 163.460938 405.464844 162.820312 403.5 162.761719 401.472656 L 162.761719 337.339844 L 142.28125 296.378906 L 94.292969 296.378906 C 86.863281 296.378906 80.84375 290.355469 80.84375 282.925781 C 80.84375 275.496094 86.863281 269.472656 94.292969 269.472656 L 417.707031 269.472656 C 425.136719 269.472656 431.15625 275.496094 431.15625 282.925781 Z M 238.753906 296.378906 L 164.917969 296.378906 L 181.894531 330.601562 C 182.628906 331.917969 183 333.40625 182.972656 334.914062 L 182.972656 376.949219 L 198.0625 362.128906 Z M 292.109375 365.09375 L 256 306.886719 L 219.890625 365.09375 L 256 389.347656 Z M 347.351562 296.378906 L 273.246094 296.378906 L 313.9375 362.128906 L 329.027344 376.949219 L 329.027344 334.914062 C 329 333.40625 329.371094 331.917969 330.105469 330.601562 Z M 347.351562 296.378906 "/>
</g>
</svg>
