<?xml version="1.0" encoding="UTF-8"?>
<svg xmlns="http://www.w3.org/2000/svg" xmlns:xlink="http://www.w3.org/1999/xlink" width="512px" height="512px" viewBox="0 0 512 512" version="1.1">
<g id="surface1">
<path style=" stroke:none;fill-rule:nonzero;fill:rgb(100%,100%,100%);fill-opacity:1;" d="M 305.042969 260.175781 C 347.035156 245.4375 375.835938 206.164062 377.261719 161.683594 L 134.738281 161.683594 C 136.164062 205.605469 164.320312 244.488281 205.609375 259.53125 L 186.554688 297.605469 C 149.988281 291.261719 115.195312 315.761719 108.847656 352.332031 C 102.503906 388.902344 127.003906 423.695312 163.574219 430.039062 C 188.433594 434.355469 213.621094 424.378906 228.78125 404.210938 L 342.582031 404.210938 L 351.609375 423.53125 C 353.863281 428.207031 358.597656 431.175781 363.789062 431.15625 C 365.765625 431.164062 367.714844 430.730469 369.503906 429.890625 C 376.230469 426.738281 379.136719 418.734375 375.996094 412 Z M 175.15625 397.472656 C 156.554688 397.472656 141.472656 382.394531 141.472656 363.789062 C 141.472656 345.183594 156.554688 330.105469 175.15625 330.105469 C 193.761719 330.105469 208.84375 345.183594 208.84375 363.789062 C 208.800781 382.375 193.742188 397.429688 175.15625 397.472656 Z M 241.179688 377.261719 C 246.746094 350.128906 235.066406 322.359375 211.78125 307.363281 L 231.746094 267.398438 C 247.296875 270.207031 263.222656 270.207031 278.769531 267.398438 L 329.96875 377.074219 Z M 181.894531 80.84375 C 178.171875 80.84375 175.15625 83.859375 175.15625 87.578125 C 175.15625 101.050781 161.683594 101.050781 161.683594 101.050781 C 134.738281 101.050781 134.738281 128 134.738281 128 C 134.738281 131.722656 137.753906 134.738281 141.472656 134.738281 C 145.195312 134.738281 148.210938 131.722656 148.210938 128 C 148.210938 114.527344 161.683594 114.527344 161.683594 114.527344 C 188.632812 114.527344 188.632812 87.578125 188.632812 87.578125 C 188.632812 83.859375 185.617188 80.84375 181.894531 80.84375 Z M 235.789062 80.84375 C 232.066406 80.84375 229.050781 83.859375 229.050781 87.578125 C 229.050781 101.050781 215.578125 101.050781 215.578125 101.050781 C 188.632812 101.050781 188.632812 128 188.632812 128 C 188.632812 131.722656 191.648438 134.738281 195.367188 134.738281 C 199.089844 134.738281 202.105469 131.722656 202.105469 128 C 202.105469 114.527344 215.578125 114.527344 215.578125 114.527344 C 242.527344 114.527344 242.527344 87.578125 242.527344 87.578125 C 242.527344 83.859375 239.511719 80.84375 235.789062 80.84375 Z M 289.683594 80.84375 C 285.960938 80.84375 282.949219 83.859375 282.949219 87.578125 C 282.949219 101.050781 269.472656 101.050781 269.472656 101.050781 C 242.527344 101.050781 242.527344 128 242.527344 128 C 242.527344 131.722656 245.542969 134.738281 249.261719 134.738281 C 252.984375 134.738281 256 131.722656 256 128 C 256 114.527344 269.472656 114.527344 269.472656 114.527344 C 296.421875 114.527344 296.421875 87.578125 296.421875 87.578125 C 296.421875 83.859375 293.40625 80.84375 289.683594 80.84375 Z M 343.578125 80.84375 C 339.859375 80.84375 336.84375 83.859375 336.84375 87.578125 C 336.84375 101.050781 323.367188 101.050781 323.367188 101.050781 C 296.421875 101.050781 296.421875 128 296.421875 128 C 296.421875 131.722656 299.4375 134.738281 303.15625 134.738281 C 306.878906 134.738281 309.894531 131.722656 309.894531 128 C 309.894531 114.527344 323.367188 114.527344 323.367188 114.527344 C 350.316406 114.527344 350.316406 87.578125 350.316406 87.578125 C 350.316406 83.859375 347.300781 80.84375 343.578125 80.84375 Z M 397.472656 80.84375 C 393.753906 80.84375 390.738281 83.859375 390.738281 87.578125 C 390.738281 101.050781 377.261719 101.050781 377.261719 101.050781 C 350.316406 101.050781 350.316406 128 350.316406 128 C 350.316406 131.722656 353.332031 134.738281 357.050781 134.738281 C 360.773438 134.738281 363.789062 131.722656 363.789062 128 C 363.789062 114.527344 377.261719 114.527344 377.261719 114.527344 C 404.210938 114.527344 404.210938 87.578125 404.210938 87.578125 C 404.210938 83.859375 401.195312 80.84375 397.472656 80.84375 Z M 397.472656 80.84375 "/>
</g>
</svg>
