<?xml version="1.0" encoding="UTF-8"?>
<svg xmlns="http://www.w3.org/2000/svg" xmlns:xlink="http://www.w3.org/1999/xlink" width="512px" height="512px" viewBox="0 0 512 512" version="1.1">
<g id="surface1">
<path style=" stroke:none;fill-rule:nonzero;fill:rgb(100%,100%,100%);fill-opacity:1;" d="M 198.355469 98.898438 L 198.085938 207.226562 C 188.367188 205.007812 178.40625 204.015625 168.441406 204.261719 C 158.472656 206.957031 148.5 221.238281 138.800781 224.742188 C 127.472656 174.101562 152.011719 122.242188 198.355469 98.898438 Z M 263.296875 81.652344 L 318 174.617188 C 324.59375 167.9375 332.242188 162.386719 340.636719 158.179688 C 350.335938 155.484375 365.96875 162.761719 376.746094 161.144531 C 361.441406 111.90625 314.800781 79.226562 263.296875 81.652344 Z M 80.863281 404.210938 L 431.179688 404.210938 C 413.394531 386.425781 360.039062 374.300781 314.226562 368.371094 L 263.835938 179.738281 C 277.847656 178.390625 294.824219 180.546875 305.066406 179.738281 L 248.207031 82.726562 L 247.9375 82.726562 C 241.582031 83.621094 235.285156 84.878906 229.074219 86.5 C 223.179688 88.03125 217.414062 90.011719 211.828125 92.429688 L 211.558594 204.261719 C 220.988281 199.679688 234.195312 189.710938 246.589844 184.320312 L 295.09375 365.945312 C 279.464844 364.597656 265.722656 363.789062 256.023438 363.789062 C 216.410156 363.789062 107.8125 377.261719 80.863281 404.210938 Z M 80.863281 404.210938 "/>
</g>
</svg>
