<?xml version="1.0" encoding="UTF-8"?>
<svg xmlns="http://www.w3.org/2000/svg" xmlns:xlink="http://www.w3.org/1999/xlink" width="512px" height="512px" viewBox="0 0 512 512" version="1.1">
<g id="surface1">
<path style=" stroke:none;fill-rule:nonzero;fill:rgb(100%,100%,100%);fill-opacity:1;" d="M 377.261719 188.632812 L 377.261719 107.789062 C 377.261719 107.789062 350.316406 80.84375 256 80.84375 C 161.683594 80.84375 134.738281 107.789062 134.738281 107.789062 L 134.738281 188.632812 C 135.511719 226.128906 144.722656 262.96875 161.683594 296.421875 C 178.539062 335.085938 178.539062 379.019531 161.683594 417.683594 C 161.683594 417.683594 161.683594 444.632812 256 444.632812 C 350.316406 444.632812 350.316406 417.683594 350.316406 417.683594 C 333.460938 379.019531 333.460938 335.085938 350.316406 296.421875 C 367.277344 262.96875 376.488281 226.128906 377.261719 188.632812 Z M 256 417.683594 C 234.535156 418.628906 213.054688 416.078125 192.402344 410.140625 C 197.875 390.671875 200.597656 370.535156 200.488281 350.316406 L 311.511719 350.316406 C 311.402344 370.535156 314.125 390.671875 319.597656 410.140625 C 298.945312 416.078125 277.464844 418.628906 256 417.683594 Z M 256 188.632812 C 224.03125 189.4375 192.152344 184.882812 161.683594 175.15625 L 161.683594 121.261719 C 192.160156 111.589844 224.03125 107.039062 256 107.789062 C 287.96875 107.039062 319.839844 111.589844 350.316406 121.261719 L 350.316406 175.15625 C 319.847656 184.882812 287.96875 189.4375 256 188.632812 Z M 256 188.632812 "/>
</g>
</svg>
