<?xml version="1.0" encoding="UTF-8"?>
<svg xmlns="http://www.w3.org/2000/svg" xmlns:xlink="http://www.w3.org/1999/xlink" width="512px" height="512px" viewBox="0 0 512 512" version="1.1">
<g id="surface1">
<path style=" stroke:none;fill-rule:nonzero;fill:rgb(100%,100%,100%);fill-opacity:1;" d="M 256 107.789062 C 237.78125 107.519531 237.78125 134.996094 256 134.738281 L 296.421875 134.738281 L 296.421875 168.839844 L 220.894531 231.738281 L 194.628906 161.683594 L 202.105469 161.683594 C 220.324219 161.953125 220.324219 134.476562 202.105469 134.738281 L 148.210938 134.738281 C 129.992188 134.46875 129.992188 161.941406 148.210938 161.683594 L 165.789062 161.683594 L 189.789062 225.683594 C 177.183594 219.417969 163.191406 215.578125 148.210938 215.578125 C 96.28125 215.578125 53.894531 257.964844 53.894531 309.894531 C 53.894531 361.824219 96.28125 404.210938 148.210938 404.210938 C 200.140625 404.210938 242.527344 361.824219 242.527344 309.894531 C 242.527344 291.84375 237.128906 275.101562 228.261719 260.738281 L 304.261719 197.421875 L 316.738281 228.6875 C 288.644531 245.050781 269.472656 275.164062 269.472656 309.894531 C 269.472656 361.824219 311.859375 404.210938 363.789062 404.210938 C 415.71875 404.210938 458.105469 361.824219 458.105469 309.894531 C 458.105469 257.964844 415.71875 215.578125 363.789062 215.578125 C 356.160156 215.578125 348.851562 216.75 341.734375 218.472656 L 323.367188 172.523438 L 323.367188 121.261719 C 323.367188 113.824219 317.335938 107.789062 309.894531 107.789062 Z M 148.210938 242.527344 C 164.171875 242.527344 178.597656 248.238281 190.105469 257.421875 L 139.578125 299.523438 C 125.8125 311.039062 143.023438 331.714844 156.839844 320.261719 L 207.367188 278.15625 C 212.441406 287.636719 215.578125 298.335938 215.578125 309.894531 C 215.578125 347.261719 185.574219 377.261719 148.210938 377.261719 C 110.84375 377.261719 80.84375 347.261719 80.84375 309.894531 C 80.84375 272.53125 110.84375 242.527344 148.210938 242.527344 Z M 363.789062 242.527344 C 401.15625 242.527344 431.15625 272.53125 431.15625 309.894531 C 431.15625 347.261719 401.15625 377.261719 363.789062 377.261719 C 326.425781 377.261719 296.421875 347.261719 296.421875 309.894531 C 296.421875 286.261719 308.460938 265.644531 326.738281 253.632812 L 351.265625 314.894531 C 357.894531 331.683594 383.074219 321.632812 376.316406 304.894531 L 351.84375 243.734375 C 355.730469 243.046875 359.695312 242.527344 363.789062 242.527344 Z M 363.789062 242.527344 "/>
</g>
</svg>
