<?xml version="1.0" encoding="UTF-8"?>
<svg xmlns="http://www.w3.org/2000/svg" xmlns:xlink="http://www.w3.org/1999/xlink" width="512px" height="512px" viewBox="0 0 512 512" version="1.1">
<g id="surface1">
<path style=" stroke:none;fill-rule:nonzero;fill:rgb(100%,100%,100%);fill-opacity:1;" d="M 323.367188 80.84375 C 308.484375 80.84375 296.421875 92.90625 296.421875 107.789062 C 296.421875 122.671875 308.484375 134.738281 323.367188 134.738281 C 338.25 134.738281 350.316406 122.671875 350.316406 107.789062 C 350.316406 92.90625 338.25 80.84375 323.367188 80.84375 Z M 273.367188 134.578125 C 269.863281 134.589844 266.503906 135.972656 263.996094 138.421875 L 192.839844 205.789062 C 186.761719 211.523438 187.3125 221.351562 194 226.367188 L 242.527344 262.738281 L 242.527344 336.84375 C 242.257812 355.0625 269.730469 355.0625 269.472656 336.84375 L 269.472656 256 C 269.480469 251.757812 267.492188 247.761719 264.105469 245.210938 L 243.421875 229.683594 L 292.410156 183.300781 L 312.578125 210.207031 C 315.128906 213.597656 319.125 215.585938 323.367188 215.578125 L 363.789062 215.578125 C 382.007812 215.847656 382.007812 188.371094 363.789062 188.632812 L 330.105469 188.632812 L 309.894531 161.683594 L 293.738281 140.105469 C 291.308594 136.773438 287.488281 134.738281 283.367188 134.578125 Z M 134.738281 242.527344 C 90.085938 242.527344 53.894531 278.722656 53.894531 323.367188 C 53.894531 368.015625 90.085938 404.210938 134.738281 404.210938 C 179.386719 404.210938 215.578125 368.015625 215.578125 323.367188 C 215.578125 278.722656 179.386719 242.527344 134.738281 242.527344 Z M 377.261719 242.527344 C 332.613281 242.527344 296.421875 278.722656 296.421875 323.367188 C 296.421875 368.015625 332.613281 404.210938 377.261719 404.210938 C 421.914062 404.210938 458.105469 368.015625 458.105469 323.367188 C 458.105469 278.722656 421.914062 242.527344 377.261719 242.527344 Z M 134.738281 269.472656 C 164.503906 269.472656 188.632812 293.601562 188.632812 323.367188 C 188.632812 353.132812 164.503906 377.261719 134.738281 377.261719 C 104.972656 377.261719 80.84375 353.132812 80.84375 323.367188 C 80.84375 293.601562 104.972656 269.472656 134.738281 269.472656 Z M 377.261719 269.472656 C 407.027344 269.472656 431.15625 293.601562 431.15625 323.367188 C 431.15625 353.132812 407.027344 377.261719 377.261719 377.261719 C 347.496094 377.261719 323.367188 353.132812 323.367188 323.367188 C 323.367188 293.601562 347.496094 269.472656 377.261719 269.472656 Z M 377.261719 269.472656 "/>
</g>
</svg>
