<?xml version="1.0" encoding="UTF-8"?>
<svg xmlns="http://www.w3.org/2000/svg" xmlns:xlink="http://www.w3.org/1999/xlink" width="512px" height="512px" viewBox="0 0 512 512" version="1.1">
<g id="surface1">
<path style=" stroke:none;fill-rule:nonzero;fill:rgb(100%,100%,100%);fill-opacity:1;" d="M 348.214844 139.210938 C 348.214844 166.320312 339.1875 189.25 329.539062 213.855469 C 318.382812 242.203125 306.363281 272.734375 306.363281 314.367188 C 306.363281 372.734375 324.878906 431.132812 344.332031 431.132812 L 383.246094 431.132812 C 402.726562 431.132812 421.214844 372.761719 421.214844 314.367188 C 421.214844 272.734375 409.195312 242.203125 398.039062 213.855469 C 388.390625 189.277344 379.363281 166.320312 379.363281 139.210938 C 379.363281 119.753906 383.246094 119.726562 383.246094 100.269531 C 382.949219 89.652344 374.410156 81.109375 363.789062 80.816406 C 353.167969 81.109375 344.628906 89.652344 344.332031 100.269531 C 344.332031 119.753906 348.214844 119.753906 348.214844 139.210938 Z M 279.445312 314.367188 C 279.445312 281.113281 286.289062 254.113281 294.265625 231.074219 C 261.671875 192.96875 208.984375 178.855469 161.707031 195.566406 C 114.429688 212.277344 82.3125 256.359375 80.902344 306.484375 C 79.488281 356.609375 109.074219 402.433594 155.335938 421.773438 C 201.601562 441.117188 254.996094 429.992188 289.683594 393.78125 C 283.296875 370.472656 279.445312 342.3125 279.445312 314.367188 Z M 195.097656 245.761719 C 195.097656 254.988281 187.617188 262.46875 178.390625 262.46875 C 169.164062 262.46875 161.683594 254.988281 161.683594 245.761719 C 161.683594 236.53125 169.164062 229.050781 178.390625 229.050781 C 187.617188 229.050781 195.097656 236.53125 195.097656 245.761719 Z M 168.152344 299.65625 C 168.152344 308.882812 160.671875 316.363281 151.445312 316.363281 C 142.21875 316.363281 134.738281 308.882812 134.738281 299.65625 C 134.738281 290.425781 142.21875 282.949219 151.445312 282.949219 C 160.671875 282.949219 168.152344 290.425781 168.152344 299.65625 Z M 222.046875 299.65625 C 222.046875 308.882812 214.566406 316.363281 205.339844 316.363281 C 196.113281 316.363281 188.632812 308.882812 188.632812 299.65625 C 188.632812 290.425781 196.113281 282.949219 205.339844 282.949219 C 214.566406 282.949219 222.046875 290.425781 222.046875 299.65625 Z M 222.046875 299.65625 "/>
</g>
</svg>
