<?xml version="1.0" encoding="UTF-8"?>
<svg xmlns="http://www.w3.org/2000/svg" xmlns:xlink="http://www.w3.org/1999/xlink" width="512px" height="512px" viewBox="0 0 512 512" version="1.1">
<g id="surface1">
<path style=" stroke:none;fill-rule:nonzero;fill:rgb(100%,100%,100%);fill-opacity:1;" d="M 53.894531 238.269531 L 53.894531 350.316406 L 107.789062 350.316406 L 107.789062 323.367188 C 108.757812 294.023438 132.339844 270.445312 161.683594 269.472656 C 191.03125 270.445312 214.609375 294.023438 215.578125 323.367188 L 215.578125 350.316406 L 296.421875 350.316406 L 296.421875 323.367188 C 297.390625 294.023438 320.96875 270.445312 350.316406 269.472656 C 379.660156 270.445312 403.242188 294.023438 404.210938 323.367188 L 404.210938 350.316406 L 458.105469 350.316406 L 458.105469 238.269531 C 339.535156 83.050781 136.648438 118.570312 53.894531 238.269531 Z M 309.894531 154.515625 C 323.746094 157.777344 337.273438 162.304688 350.316406 167.988281 L 350.316406 242.527344 L 309.894531 242.527344 Z M 296.421875 151.820312 L 296.421875 242.527344 L 256 242.527344 L 256 148.371094 C 269.554688 148.371094 283.082031 149.53125 296.421875 151.820312 Z M 148.210938 174.539062 C 161.144531 167.855469 174.671875 162.386719 188.632812 158.207031 L 188.632812 242.527344 L 148.210938 242.527344 Z M 202.105469 242.527344 L 202.105469 154.410156 C 215.390625 151.308594 228.917969 149.371094 242.527344 148.613281 L 242.527344 242.527344 Z M 134.738281 181.734375 L 134.738281 242.527344 L 67.367188 242.527344 C 85.585938 218.113281 108.652344 197.46875 134.738281 181.734375 Z M 363.789062 242.527344 L 363.789062 175.15625 L 362.359375 173.730469 C 394.753906 189.980469 422.910156 213.53125 444.632812 242.527344 Z M 363.789062 242.527344 "/>
</g>
</svg>
