<?xml version="1.0" encoding="UTF-8"?>
<svg xmlns="http://www.w3.org/2000/svg" xmlns:xlink="http://www.w3.org/1999/xlink" width="512px" height="512px" viewBox="0 0 512 512" version="1.1">
<g id="surface1">
<path style=" stroke:none;fill-rule:nonzero;fill:rgb(100%,100%,100%);fill-opacity:1;" d="M 134.738281 107.789062 L 134.738281 404.210938 L 269.472656 404.210938 L 269.472656 323.367188 L 350.316406 323.367188 L 350.316406 404.210938 L 377.261719 404.210938 L 377.261719 107.789062 Z M 242.527344 377.261719 L 161.683594 377.261719 L 161.683594 323.367188 L 242.527344 323.367188 Z M 242.527344 296.421875 L 161.683594 296.421875 L 161.683594 242.527344 L 242.527344 242.527344 Z M 242.527344 215.578125 L 161.683594 215.578125 L 161.683594 161.683594 L 242.527344 161.683594 Z M 350.316406 296.421875 L 269.472656 296.421875 L 269.472656 242.527344 L 350.316406 242.527344 Z M 350.316406 215.578125 L 269.472656 215.578125 L 269.472656 161.683594 L 350.316406 161.683594 Z M 350.316406 215.578125 "/>
</g>
</svg>
