<?xml version="1.0" encoding="UTF-8"?>
<svg xmlns="http://www.w3.org/2000/svg" xmlns:xlink="http://www.w3.org/1999/xlink" width="512px" height="512px" viewBox="0 0 512 512" version="1.1">
<g id="surface1">
<path style=" stroke:none;fill-rule:nonzero;fill:rgb(100%,100%,100%);fill-opacity:1;" d="M 107.789062 134.738281 C 107.789062 105.09375 132.042969 80.84375 161.683594 80.84375 L 350.316406 80.84375 C 379.957031 80.84375 404.210938 105.09375 404.210938 134.738281 L 404.210938 350.316406 C 404.210938 377.261719 377.261719 377.261719 377.261719 377.261719 L 377.261719 404.210938 C 377.261719 419.03125 365.136719 431.15625 350.316406 431.15625 C 335.496094 431.15625 323.367188 419.03125 323.367188 404.210938 L 323.367188 377.261719 L 188.632812 377.261719 L 188.632812 404.210938 C 188.632812 419.03125 176.503906 431.15625 161.683594 431.15625 C 146.863281 431.15625 134.738281 419.03125 134.738281 404.210938 L 134.738281 377.261719 C 107.789062 377.261719 107.789062 350.316406 107.789062 350.316406 Z M 148.210938 161.683594 C 140.664062 161.683594 134.738281 167.613281 134.738281 175.15625 L 134.738281 256 C 134.738281 263.546875 140.664062 269.472656 148.210938 269.472656 L 363.789062 269.472656 C 371.335938 269.472656 377.261719 263.546875 377.261719 256 L 377.261719 175.15625 C 377.261719 167.613281 371.335938 161.683594 363.789062 161.683594 Z M 161.683594 296.421875 C 146.863281 296.421875 134.738281 308.546875 134.738281 323.367188 C 134.738281 338.191406 146.863281 350.316406 161.683594 350.316406 C 176.503906 350.316406 188.632812 338.191406 188.632812 323.367188 C 188.632812 308.546875 176.503906 296.421875 161.683594 296.421875 Z M 350.316406 296.421875 C 335.496094 296.421875 323.367188 308.546875 323.367188 323.367188 C 323.367188 338.191406 335.496094 350.316406 350.316406 350.316406 C 365.136719 350.316406 377.261719 338.191406 377.261719 323.367188 C 377.261719 308.546875 365.136719 296.421875 350.316406 296.421875 Z M 161.683594 121.261719 C 161.683594 128.808594 167.613281 134.738281 175.15625 134.738281 L 336.84375 134.738281 C 344.386719 134.738281 350.316406 128.808594 350.316406 121.261719 C 350.316406 113.71875 344.386719 107.789062 336.84375 107.789062 L 175.15625 107.789062 C 167.613281 107.789062 161.683594 113.71875 161.683594 121.261719 Z M 161.683594 121.261719 "/>
</g>
</svg>
