<?xml version="1.0" encoding="UTF-8"?>
<svg xmlns="http://www.w3.org/2000/svg" xmlns:xlink="http://www.w3.org/1999/xlink" width="512px" height="512px" viewBox="0 0 512 512" version="1.1">
<g id="surface1">
<path style=" stroke:none;fill-rule:nonzero;fill:rgb(100%,100%,100%);fill-opacity:1;" d="M 377.261719 188.632812 L 323.367188 188.632812 L 323.367188 134.738281 L 107.789062 134.738281 L 107.789062 242.527344 C 108.148438 302.054688 156.695312 350.023438 216.226562 349.664062 C 254.234375 349.433594 289.3125 329.207031 308.546875 296.421875 L 377.261719 296.421875 C 407.027344 296.421875 431.15625 272.292969 431.15625 242.527344 C 431.15625 212.761719 407.027344 188.632812 377.261719 188.632812 Z M 377.261719 269.472656 L 319.597656 269.472656 C 321.984375 260.6875 323.253906 251.632812 323.367188 242.527344 L 323.367188 215.578125 L 377.261719 215.578125 C 392.144531 215.578125 404.210938 227.644531 404.210938 242.527344 C 404.210938 257.410156 392.144531 269.472656 377.261719 269.472656 Z M 323.367188 390.738281 C 323.367188 398.175781 317.335938 404.210938 309.894531 404.210938 L 121.261719 404.210938 C 113.824219 404.210938 107.789062 398.175781 107.789062 390.738281 C 107.789062 383.296875 113.824219 377.261719 121.261719 377.261719 L 309.894531 377.261719 C 317.335938 377.261719 323.367188 383.296875 323.367188 390.738281 Z M 323.367188 390.738281 "/>
</g>
</svg>
