<?xml version="1.0" encoding="UTF-8"?>
<svg xmlns="http://www.w3.org/2000/svg" xmlns:xlink="http://www.w3.org/1999/xlink" width="512px" height="512px" viewBox="0 0 512 512" version="1.1">
<g id="surface1">
<path style=" stroke:none;fill-rule:nonzero;fill:rgb(100%,100%,100%);fill-opacity:1;" d="M 336.84375 80.84375 C 321.960938 80.84375 309.894531 92.90625 309.894531 107.789062 L 107.789062 107.789062 L 107.789062 134.738281 L 134.738281 161.683594 L 161.683594 134.738281 L 188.632812 161.683594 L 215.578125 134.738281 L 242.527344 161.683594 L 309.894531 161.683594 C 309.894531 176.566406 321.960938 188.632812 336.84375 188.632812 L 390.738281 188.632812 C 398.175781 188.632812 404.210938 182.597656 404.210938 175.15625 L 404.210938 94.316406 C 404.210938 86.875 398.175781 80.84375 390.738281 80.84375 Z M 350.316406 121.261719 C 350.316406 113.820312 356.347656 107.789062 363.789062 107.789062 C 371.230469 107.789062 377.261719 113.820312 377.261719 121.261719 L 377.261719 148.210938 C 377.261719 155.652344 371.230469 161.683594 363.789062 161.683594 C 356.347656 161.683594 350.316406 155.652344 350.316406 148.210938 Z M 111.734375 305.949219 C 109.210938 308.476562 107.789062 311.902344 107.789062 315.476562 L 107.789062 417.683594 C 107.789062 425.125 113.820312 431.15625 121.261719 431.15625 L 161.683594 431.15625 C 169.125 431.15625 175.15625 425.125 175.15625 417.683594 L 175.15625 404.210938 L 336.84375 404.210938 L 336.84375 417.683594 C 336.84375 425.125 342.875 431.15625 350.316406 431.15625 L 390.738281 431.15625 C 398.175781 431.15625 404.210938 425.125 404.210938 417.683594 L 404.210938 315.476562 C 404.210938 311.902344 402.789062 308.476562 400.265625 305.949219 L 377.261719 282.949219 L 340.769531 222.121094 C 338.332031 218.0625 333.945312 215.578125 329.214844 215.578125 L 182.785156 215.578125 C 178.054688 215.578125 173.667969 218.0625 171.234375 222.121094 L 134.738281 282.949219 Z M 353.921875 296.421875 L 158.078125 296.421875 L 190.414062 242.527344 L 321.585938 242.527344 Z M 202.105469 345.679688 L 202.105469 355.707031 C 202.105469 360.171875 198.484375 363.789062 194.019531 363.789062 L 142.820312 363.789062 C 138.355469 363.789062 134.738281 360.171875 134.738281 355.707031 L 134.738281 333.226562 C 134.738281 328.128906 139.402344 324.300781 144.40625 325.304688 L 193.441406 335.109375 C 198.480469 336.117188 202.105469 340.539062 202.105469 345.679688 Z M 377.261719 336.515625 L 377.261719 355.707031 C 377.261719 360.171875 373.644531 363.789062 369.179688 363.789062 L 317.980469 363.789062 C 313.515625 363.789062 309.894531 360.171875 309.894531 355.707031 L 309.894531 343.46875 C 309.894531 339.613281 312.613281 336.296875 316.394531 335.542969 L 364.371094 325.949219 C 371.039062 324.613281 377.261719 329.714844 377.261719 336.515625 Z M 377.261719 336.515625 "/>
</g>
</svg>
