<?xml version="1.0" encoding="UTF-8"?>
<svg xmlns="http://www.w3.org/2000/svg" xmlns:xlink="http://www.w3.org/1999/xlink" width="512px" height="512px" viewBox="0 0 512 512" version="1.1">
<g id="surface1">
<path style=" stroke:none;fill-rule:nonzero;fill:rgb(100%,100%,100%);fill-opacity:1;" d="M 426.847656 238.539062 L 393.429688 207.496094 L 363.789062 148.210938 C 358.613281 139.792969 349.417969 134.683594 339.535156 134.738281 L 172.464844 134.738281 C 162.582031 134.683594 153.386719 139.792969 148.210938 148.210938 L 118.570312 207.496094 L 85.152344 238.539062 C 82.402344 241.089844 80.839844 244.675781 80.84375 248.429688 L 80.84375 363.789062 C 80.84375 371.230469 86.875 377.261719 94.316406 377.261719 L 148.210938 377.261719 C 153.601562 377.261719 161.683594 371.875 161.683594 366.484375 L 161.683594 350.316406 L 350.316406 350.316406 L 350.316406 363.789062 C 350.316406 369.179688 355.707031 377.261719 361.09375 377.261719 L 417.683594 377.261719 C 425.125 377.261719 431.15625 371.230469 431.15625 363.789062 L 431.15625 248.429688 C 431.160156 244.675781 429.597656 241.089844 426.847656 238.539062 Z M 175.15625 161.683594 L 336.84375 161.683594 L 363.789062 215.578125 L 148.210938 215.578125 Z M 188.632812 285.640625 C 188.632812 291.03125 180.546875 296.421875 175.15625 296.421875 L 118.570312 296.421875 C 113.179688 296.421875 107.789062 288.335938 107.789062 282.949219 L 107.789062 253.304688 C 110.484375 245.222656 115.875 239.832031 123.957031 242.527344 L 177.851562 253.304688 C 183.242188 253.304688 188.632812 261.390625 188.632812 266.777344 Z M 404.210938 282.949219 C 404.210938 288.335938 398.820312 296.421875 393.429688 296.421875 L 336.84375 296.421875 C 331.453125 296.421875 323.367188 291.03125 323.367188 285.640625 L 323.367188 266.777344 C 323.367188 261.390625 328.757812 253.304688 334.148438 253.304688 L 388.042969 242.527344 C 396.125 239.832031 401.515625 245.222656 404.210938 253.304688 Z M 404.210938 282.949219 "/>
</g>
</svg>
