<?xml version="1.0" encoding="UTF-8"?>
<svg xmlns="http://www.w3.org/2000/svg" xmlns:xlink="http://www.w3.org/1999/xlink" width="512px" height="512px" viewBox="0 0 512 512" version="1.1">
<g id="surface1">
<path style=" stroke:none;fill-rule:nonzero;fill:rgb(100%,100%,100%);fill-opacity:1;" d="M 282.949219 323.367188 C 295.238281 339.730469 314.800781 350.316406 336.84375 350.316406 C 374.046875 350.316406 404.210938 320.152344 404.210938 282.949219 C 404.210938 267.742188 398.988281 253.875 390.496094 242.597656 L 390.738281 242.527344 L 256 80.84375 L 121.261719 242.527344 L 121.503906 242.597656 C 113.011719 253.875 107.789062 267.742188 107.789062 282.949219 C 107.789062 320.152344 137.953125 350.316406 175.15625 350.316406 C 197.199219 350.316406 216.761719 339.730469 229.050781 323.367188 C 231.738281 319.789062 236.871094 312.953125 242.527344 305.414062 L 242.527344 363.789062 C 242.527344 404.210938 175.15625 404.210938 175.15625 404.210938 C 167.71875 404.210938 161.683594 410.242188 161.683594 417.683594 C 161.683594 425.125 167.71875 431.15625 175.15625 431.15625 L 336.84375 431.15625 C 344.28125 431.15625 350.316406 425.125 350.316406 417.683594 C 350.316406 410.242188 344.28125 404.210938 336.84375 404.210938 C 336.84375 404.210938 269.472656 404.210938 269.472656 363.789062 L 269.472656 305.414062 C 275.128906 312.953125 280.261719 319.789062 282.949219 323.367188 Z M 282.949219 323.367188 "/>
</g>
</svg>
