<?xml version="1.0" encoding="UTF-8"?>
<svg xmlns="http://www.w3.org/2000/svg" xmlns:xlink="http://www.w3.org/1999/xlink" width="512px" height="512px" viewBox="0 0 512 512" version="1.1">
<g id="surface1">
<path style=" stroke:none;fill-rule:nonzero;fill:rgb(100%,100%,100%);fill-opacity:1;" d="M 350.316406 161.683594 L 161.683594 161.683594 C 146.800781 161.683594 134.738281 149.621094 134.738281 134.738281 L 134.738281 67.367188 C 134.738281 59.929688 140.769531 53.894531 148.210938 53.894531 C 155.652344 53.894531 161.683594 59.929688 161.683594 67.367188 L 161.683594 107.789062 L 188.632812 107.789062 L 188.632812 80.84375 C 188.632812 65.960938 200.695312 53.894531 215.578125 53.894531 C 230.460938 53.894531 242.527344 65.960938 242.527344 80.84375 L 242.527344 107.789062 L 269.472656 107.789062 L 269.472656 80.84375 C 269.472656 65.960938 281.539062 53.894531 296.421875 53.894531 C 311.304688 53.894531 323.367188 65.960938 323.367188 80.84375 L 323.367188 107.789062 L 350.316406 107.789062 L 350.316406 67.367188 C 350.316406 59.929688 356.347656 53.894531 363.789062 53.894531 C 371.230469 53.894531 377.261719 59.929688 377.261719 67.367188 L 377.261719 134.738281 C 377.261719 149.621094 365.199219 161.683594 350.316406 161.683594 Z M 431.15625 444.632812 C 431.15625 452.070312 425.125 458.105469 417.683594 458.105469 L 94.316406 458.105469 C 86.875 458.105469 80.84375 452.070312 80.84375 444.632812 C 80.84375 437.191406 86.875 431.15625 94.316406 431.15625 L 107.789062 431.15625 C 122.671875 431.15625 134.738281 419.09375 134.738281 404.210938 C 134.738281 404.210938 161.683594 242.527344 161.683594 215.578125 C 161.683594 200.695312 173.75 188.632812 188.632812 188.632812 L 323.367188 188.632812 C 338.25 188.632812 350.316406 200.695312 350.316406 215.578125 C 350.316406 242.527344 377.261719 404.210938 377.261719 404.210938 C 377.261719 419.09375 389.328125 431.15625 404.210938 431.15625 L 417.683594 431.15625 C 425.023438 431.15625 431.011719 437.027344 431.15625 444.363281 Z M 296.421875 336.84375 C 296.421875 314.519531 278.324219 296.421875 256 296.421875 C 233.675781 296.421875 215.578125 314.519531 215.578125 336.84375 L 215.578125 431.15625 L 296.421875 431.15625 Z M 296.421875 336.84375 "/>
</g>
</svg>
