<?xml version="1.0" encoding="UTF-8"?>
<svg xmlns="http://www.w3.org/2000/svg" xmlns:xlink="http://www.w3.org/1999/xlink" width="512px" height="512px" viewBox="0 0 512 512" version="1.1">
<g id="surface1">
<path style=" stroke:none;fill-rule:nonzero;fill:rgb(100%,100%,100%);fill-opacity:1;" d="M 390.738281 397.472656 C 375.859375 397.472656 363.796875 385.417969 363.789062 370.539062 L 363.789062 249.261719 L 323.367188 249.261719 C 308.484375 249.261719 296.421875 237.199219 296.421875 222.316406 L 296.421875 168.421875 L 215.578125 168.421875 L 215.578125 222.316406 C 215.578125 237.199219 203.515625 249.261719 188.632812 249.261719 L 148.210938 249.261719 L 148.210938 370.527344 C 148.210938 385.410156 136.144531 397.472656 121.261719 397.472656 C 106.378906 397.472656 94.316406 385.410156 94.316406 370.527344 L 94.316406 222.316406 C 94.316406 207.433594 106.378906 195.367188 121.261719 195.367188 L 161.683594 195.367188 L 161.683594 141.472656 C 161.683594 126.589844 173.75 114.527344 188.632812 114.527344 L 323.367188 114.527344 C 338.25 114.527344 350.316406 126.589844 350.316406 141.472656 L 350.316406 195.367188 L 390.738281 195.367188 C 405.621094 195.367188 417.683594 207.433594 417.683594 222.316406 L 417.683594 370.527344 C 417.683594 385.402344 405.628906 397.464844 390.75 397.472656 Z M 390.738281 397.472656 "/>
</g>
</svg>
