<?xml version="1.0" encoding="UTF-8"?>
<svg xmlns="http://www.w3.org/2000/svg" xmlns:xlink="http://www.w3.org/1999/xlink" width="512px" height="512px" viewBox="0 0 512 512" version="1.1">
<g id="surface1">
<path style=" stroke:none;fill-rule:nonzero;fill:rgb(100%,100%,100%);fill-opacity:1;" d="M 83.347656 374.363281 L 238.226562 91.363281 C 245.90625 77.335938 266.09375 77.335938 273.773438 91.363281 L 428.652344 374.363281 C 436.023438 387.832031 426.253906 404.261719 410.878906 404.261719 L 101.121094 404.261719 C 85.746094 404.261719 75.976562 387.832031 83.347656 374.363281 Z M 277.558594 269.472656 L 288.417969 204.320312 C 289.785156 196.109375 283.453125 188.632812 275.125 188.632812 L 236.875 188.632812 C 228.546875 188.632812 222.214844 196.109375 223.582031 204.320312 L 234.441406 269.472656 Z M 285.640625 320.671875 C 285.640625 304.304688 272.371094 291.03125 256 291.03125 C 239.628906 291.03125 226.359375 304.304688 226.359375 320.671875 C 226.359375 337.042969 239.628906 350.316406 256 350.316406 C 272.371094 350.316406 285.640625 337.042969 285.640625 320.671875 Z M 285.640625 320.671875 "/>
</g>
</svg>
