<?xml version="1.0" encoding="UTF-8"?>
<svg xmlns="http://www.w3.org/2000/svg" xmlns:xlink="http://www.w3.org/1999/xlink" width="512px" height="512px" viewBox="0 0 512 512" version="1.1">
<g id="surface1">
<path style=" stroke:none;fill-rule:nonzero;fill:rgb(100%,100%,100%);fill-opacity:1;" d="M 362.710938 377.261719 L 344.386719 377.261719 L 377.261719 149.558594 C 377.734375 141.832031 371.851562 135.191406 364.128906 134.71875 C 363.476562 134.679688 362.820312 134.6875 362.171875 134.738281 L 330.375 134.738281 C 330.375 109.945312 297.230469 80.84375 256.269531 80.84375 C 215.308594 80.84375 182.433594 109.945312 182.433594 134.738281 L 149.289062 134.738281 C 141.554688 134.425781 135.035156 140.441406 134.722656 148.175781 C 134.703125 148.636719 134.710938 149.097656 134.738281 149.558594 L 167.074219 377.261719 L 149.558594 377.261719 C 141.765625 376.957031 135.171875 382.953125 134.738281 390.738281 L 134.738281 431.15625 L 377.261719 431.15625 L 377.261719 390.46875 C 376.828125 382.832031 370.351562 376.957031 362.710938 377.261719 Z M 175.15625 188.632812 L 336.84375 188.632812 L 336.84375 215.578125 L 175.15625 215.578125 Z M 175.15625 188.632812 "/>
</g>
</svg>
