<?xml version="1.0" encoding="UTF-8"?>
<svg xmlns="http://www.w3.org/2000/svg" xmlns:xlink="http://www.w3.org/1999/xlink" width="512px" height="512px" viewBox="0 0 512 512" version="1.1">
<g id="surface1">
<path style=" stroke:none;fill-rule:nonzero;fill:rgb(100%,100%,100%);fill-opacity:1;" d="M 363.789062 350.316406 L 282.949219 350.316406 L 282.949219 121.261719 C 283.386719 113.992188 280.6875 106.878906 275.535156 101.726562 C 270.382812 96.574219 263.273438 93.875 256 94.316406 C 248.726562 93.875 241.617188 96.574219 236.464844 101.726562 C 231.3125 106.878906 228.613281 113.992188 229.050781 121.261719 L 229.050781 350.316406 L 148.210938 350.316406 C 133.328125 350.316406 121.261719 362.378906 121.261719 377.261719 C 121.261719 392.144531 133.328125 404.210938 148.210938 404.210938 L 363.789062 404.210938 C 371.0625 404.648438 378.175781 401.953125 383.324219 396.800781 C 388.476562 391.648438 391.175781 384.535156 390.738281 377.261719 C 390.703125 362.394531 378.660156 350.347656 363.789062 350.316406 Z M 363.789062 350.316406 "/>
</g>
</svg>
