<?xml version="1.0" encoding="UTF-8"?>
<svg xmlns="http://www.w3.org/2000/svg" xmlns:xlink="http://www.w3.org/1999/xlink" width="512px" height="512px" viewBox="0 0 512 512" version="1.1">
<g id="surface1">
<path style=" stroke:none;fill-rule:nonzero;fill:rgb(100%,100%,100%);fill-opacity:1;" d="M 431.15625 256 L 431.15625 309.894531 C 431.15625 317.335938 425.125 323.367188 417.683594 323.367188 C 410.242188 323.367188 404.210938 317.335938 404.210938 309.894531 C 404.210938 309.894531 405.828125 296.421875 377.261719 296.421875 L 350.316406 296.421875 L 350.316406 363.789062 C 350.316406 371.230469 344.28125 377.261719 336.84375 377.261719 L 121.261719 377.261719 C 113.824219 377.261719 107.789062 371.230469 107.789062 363.789062 L 107.789062 256 C 107.789062 248.558594 113.824219 242.527344 121.261719 242.527344 L 336.84375 242.527344 C 344.28125 242.527344 350.316406 248.558594 350.316406 256 L 350.316406 269.472656 L 377.261719 269.472656 C 405.828125 269.472656 404.210938 256 404.210938 256 C 404.210938 248.558594 410.242188 242.527344 417.683594 242.527344 C 425.125 242.527344 431.15625 248.558594 431.15625 256 Z M 161.683594 134.738281 C 131.917969 134.738281 107.789062 158.867188 107.789062 188.632812 C 107.789062 218.398438 131.917969 242.527344 161.683594 242.527344 C 191.449219 242.527344 215.578125 218.398438 215.578125 188.632812 C 215.578125 158.867188 191.449219 134.738281 161.683594 134.738281 Z M 161.683594 215.578125 C 146.800781 215.578125 134.738281 203.515625 134.738281 188.632812 C 134.738281 173.75 146.800781 161.683594 161.683594 161.683594 C 176.566406 161.683594 188.632812 173.75 188.632812 188.632812 C 188.632812 203.515625 176.566406 215.578125 161.683594 215.578125 Z M 282.949219 107.789062 C 245.742188 107.789062 215.578125 137.953125 215.578125 175.15625 C 215.578125 212.363281 245.742188 242.527344 282.949219 242.527344 C 320.152344 242.527344 350.316406 212.363281 350.316406 175.15625 C 350.316406 137.953125 320.152344 107.789062 282.949219 107.789062 Z M 282.949219 215.578125 C 260.625 215.578125 242.527344 197.480469 242.527344 175.15625 C 242.527344 152.835938 260.625 134.738281 282.949219 134.738281 C 305.269531 134.738281 323.367188 152.835938 323.367188 175.15625 C 323.367188 197.480469 305.269531 215.578125 282.949219 215.578125 Z M 282.949219 215.578125 "/>
</g>
</svg>
