<?xml version="1.0" encoding="UTF-8"?>
<svg xmlns="http://www.w3.org/2000/svg" xmlns:xlink="http://www.w3.org/1999/xlink" width="512px" height="512px" viewBox="0 0 512 512" version="1.1">
<g id="surface1">
<path style=" stroke:none;fill-rule:nonzero;fill:rgb(100%,100%,100%);fill-opacity:1;" d="M 394.421875 161.667969 L 350.265625 161.667969 L 350.265625 117.511719 C 350.261719 112.140625 345.90625 107.789062 340.535156 107.789062 L 333.046875 107.789062 C 327.675781 107.789062 323.320312 112.144531 323.320312 117.515625 L 323.320312 161.667969 L 279.175781 161.667969 C 273.804688 161.667969 269.449219 166.023438 269.449219 171.394531 L 269.449219 323.324219 L 171.441406 323.324219 C 166.042969 323.324219 161.664062 327.703125 161.664062 333.105469 L 161.664062 394.394531 C 161.675781 399.785156 166.050781 404.148438 171.441406 404.148438 L 394.421875 404.148438 C 399.792969 404.148438 404.148438 399.792969 404.148438 394.421875 L 404.148438 171.386719 C 404.148438 166.015625 399.792969 161.667969 394.421875 161.667969 Z M 215.550781 377.210938 L 188.601562 377.210938 L 188.601562 350.265625 L 215.550781 350.265625 Z M 269.445312 377.210938 L 242.496094 377.210938 L 242.496094 350.265625 L 269.445312 350.265625 Z M 323.339844 377.210938 L 296.390625 377.210938 L 296.390625 350.265625 L 323.339844 350.265625 Z M 323.339844 323.316406 L 296.390625 323.316406 L 296.390625 296.371094 L 323.339844 296.371094 Z M 323.339844 269.421875 L 296.390625 269.421875 L 296.390625 242.476562 L 323.339844 242.476562 Z M 323.339844 215.527344 L 296.390625 215.527344 L 296.390625 188.582031 L 323.339844 188.582031 Z M 377.234375 377.183594 L 350.285156 377.183594 L 350.285156 350.238281 L 377.234375 350.238281 Z M 377.234375 323.289062 L 350.285156 323.289062 L 350.285156 296.34375 L 377.234375 296.34375 Z M 377.234375 269.394531 L 350.285156 269.394531 L 350.285156 242.449219 L 377.234375 242.449219 Z M 377.234375 215.5 L 350.285156 215.5 L 350.285156 188.554688 L 377.234375 188.554688 Z M 242.492188 117.511719 C 242.488281 112.140625 238.136719 107.789062 232.765625 107.789062 L 171.386719 107.789062 C 166.015625 107.789062 161.660156 112.144531 161.660156 117.515625 L 161.660156 161.683594 L 117.492188 161.683594 C 112.136719 161.699219 107.800781 166.03125 107.789062 171.386719 L 107.789062 394.707031 C 107.789062 399.917969 112.011719 404.140625 117.222656 404.140625 L 134.71875 404.140625 L 134.71875 296.382812 L 242.492188 296.382812 Z M 161.683594 269.421875 L 134.738281 269.421875 L 134.738281 242.476562 L 161.683594 242.476562 Z M 161.683594 215.527344 L 134.738281 215.527344 L 134.738281 188.582031 L 161.683594 188.582031 Z M 215.578125 269.421875 L 188.632812 269.421875 L 188.632812 242.476562 L 215.578125 242.476562 Z M 215.578125 215.527344 L 188.632812 215.527344 L 188.632812 188.582031 L 215.578125 188.582031 Z M 215.578125 161.632812 L 188.632812 161.632812 L 188.632812 134.738281 L 215.578125 134.738281 L 215.578125 161.683594 Z M 215.578125 161.632812 "/>
</g>
</svg>
