<?xml version="1.0" encoding="UTF-8"?>
<svg xmlns="http://www.w3.org/2000/svg" xmlns:xlink="http://www.w3.org/1999/xlink" width="512px" height="512px" viewBox="0 0 512 512" version="1.1">
<g id="surface1">
<path style=" stroke:none;fill-rule:nonzero;fill:rgb(100%,100%,100%);fill-opacity:1;" d="M 256 80.84375 L 53.894531 175.15625 L 107.789062 199.410156 L 107.789062 245.222656 C 91.621094 250.609375 80.84375 266.777344 80.84375 282.949219 C 80.84375 299.117188 91.621094 315.285156 107.789062 320.671875 L 107.789062 323.367188 L 83.535156 379.957031 C 75.453125 404.210938 80.84375 431.15625 121.261719 431.15625 C 161.683594 431.15625 167.074219 404.210938 158.988281 379.957031 L 134.738281 323.367188 C 150.90625 315.285156 161.683594 301.808594 161.683594 282.949219 C 161.683594 264.085938 150.90625 250.609375 134.738281 245.222656 L 134.738281 212.882812 L 256 269.472656 L 458.105469 175.15625 Z M 374.570312 256 L 253.304688 309.894531 L 188.632812 280.253906 L 188.632812 282.949219 C 188.632812 301.808594 180.546875 317.980469 167.074219 331.453125 L 183.242188 369.179688 L 183.242188 371.875 C 185.9375 382.652344 188.632812 393.429688 185.9375 404.210938 C 204.800781 412.292969 226.359375 417.683594 253.304688 417.683594 C 342.230469 417.683594 374.570312 363.789062 374.570312 336.84375 Z M 374.570312 256 "/>
</g>
</svg>
