<?xml version="1.0" encoding="UTF-8"?>
<svg xmlns="http://www.w3.org/2000/svg" xmlns:xlink="http://www.w3.org/1999/xlink" width="512px" height="512px" viewBox="0 0 512 512" version="1.1">
<g id="surface1">
<path style=" stroke:none;fill-rule:nonzero;fill:rgb(100%,100%,100%);fill-opacity:1;" d="M 373.34375 227.261719 L 362.210938 219.683594 C 388.734375 180.601562 391.644531 130.109375 369.789062 88.238281 L 367.539062 84.105469 L 379.277344 77.472656 L 381.722656 81.972656 C 405.890625 128.253906 402.671875 184.070312 373.34375 227.261719 Z M 404.386719 419.441406 L 404.386719 431.15625 L 107.96875 431.15625 L 107.96875 419.441406 L 175.027344 419.441406 L 216.761719 226.359375 C 218.101562 220.15625 223.585938 215.726562 229.933594 215.726562 L 249.484375 215.726562 L 249.484375 177.890625 C 235.648438 174.683594 225.816406 162.410156 225.699219 148.210938 C 225.699219 130.996094 239.65625 117.039062 256.875 117.039062 C 274.089844 117.039062 288.046875 130.996094 288.046875 148.210938 C 287.921875 162.910156 277.40625 175.460938 262.957031 178.15625 L 262.957031 215.738281 L 282.421875 215.738281 C 288.765625 215.738281 294.246094 220.160156 295.589844 226.359375 L 337.300781 419.429688 Z M 281.714844 289.710938 L 230.636719 289.710938 L 221.9375 329.945312 L 290.410156 329.945312 Z M 219.027344 343.421875 L 210.3125 383.710938 L 302.03125 383.710938 L 293.324219 343.421875 Z M 240.800781 242.683594 L 233.550781 276.238281 L 278.804688 276.238281 L 271.550781 242.683594 Z M 202.585938 419.441406 L 309.753906 419.441406 L 304.941406 397.183594 L 207.390625 397.183594 Z M 194.289062 189 C 177.832031 164.011719 178.003906 131.578125 194.722656 106.761719 L 183.566406 99.238281 C 163.785156 128.554688 163.585938 166.894531 183.054688 196.421875 Z M 343.761719 148.210938 C 343.777344 131.105469 338.773438 114.371094 329.371094 100.078125 L 318.105469 107.5 C 334.519531 132.480469 334.332031 164.871094 317.632812 189.660156 L 328.789062 197.183594 C 338.574219 182.726562 343.789062 165.667969 343.761719 148.210938 Z M 149.132812 218.765625 C 122.519531 178.320312 120.925781 126.34375 145.011719 84.34375 L 133.332031 77.609375 C 106.703125 124.03125 108.46875 181.488281 137.894531 226.1875 Z M 149.132812 218.765625 "/>
</g>
</svg>
