<?xml version="1.0" encoding="UTF-8"?>
<svg xmlns="http://www.w3.org/2000/svg" xmlns:xlink="http://www.w3.org/1999/xlink" width="512px" height="512px" viewBox="0 0 512 512" version="1.1">
<g id="surface1">
<path style=" stroke:none;fill-rule:nonzero;fill:rgb(100%,100%,100%);fill-opacity:1;" d="M 404.210938 161.683594 C 404.210938 146.800781 392.144531 134.738281 377.261719 134.738281 C 377.261719 119.855469 365.199219 107.789062 350.316406 107.789062 C 335.433594 107.789062 323.367188 119.855469 323.367188 134.738281 L 323.367188 190.445312 C 291.398438 157.121094 239.929688 152.027344 202.046875 178.4375 C 164.164062 204.84375 151.136719 254.894531 171.339844 296.421875 L 107.789062 296.421875 C 92.90625 296.421875 80.84375 308.484375 80.84375 323.367188 C 80.84375 338.25 92.90625 350.316406 107.789062 350.316406 C 107.789062 365.199219 119.855469 377.261719 134.738281 377.261719 C 134.738281 392.144531 146.800781 404.210938 161.683594 404.210938 C 176.566406 404.210938 188.632812 392.144531 188.632812 377.261719 L 188.632812 321.550781 C 220.601562 354.882812 272.074219 359.980469 309.960938 333.570312 C 347.84375 307.164062 360.871094 257.105469 340.660156 215.578125 L 404.210938 215.578125 C 419.09375 215.578125 431.15625 203.515625 431.15625 188.632812 C 431.15625 173.75 419.09375 161.683594 404.210938 161.683594 Z M 256 323.167969 C 225.265625 323.269531 198.410156 302.433594 190.878906 272.636719 C 183.34375 242.839844 197.070312 211.742188 224.160156 197.226562 C 229.773438 198.472656 234.890625 201.351562 238.871094 205.5 C 246.570312 216.359375 250.246094 229.566406 249.261719 242.839844 L 249.289062 268.605469 C 248.074219 285.335938 252.945312 301.945312 263.007812 315.367188 C 265.089844 317.71875 267.429688 319.828125 269.988281 321.65625 C 265.390625 322.648438 260.703125 323.15625 256 323.167969 Z M 287.839844 314.773438 C 282.226562 313.527344 277.109375 310.648438 273.128906 306.5 C 265.429688 295.640625 261.753906 282.433594 262.738281 269.160156 L 262.710938 243.394531 C 263.925781 226.664062 259.054688 210.054688 248.992188 196.632812 C 246.910156 194.28125 244.566406 192.171875 242.007812 190.34375 C 274.640625 183.25 307.503906 201.289062 319.046875 232.625 C 330.585938 263.957031 317.273438 299.003906 287.839844 314.773438 Z M 287.839844 314.773438 "/>
</g>
</svg>
