<?xml version="1.0" encoding="UTF-8"?>
<svg xmlns="http://www.w3.org/2000/svg" xmlns:xlink="http://www.w3.org/1999/xlink" width="512px" height="512px" viewBox="0 0 512 512" version="1.1">
<g id="surface1">
<path style=" stroke:none;fill-rule:nonzero;fill:rgb(100%,100%,100%);fill-opacity:1;" d="M 417.683594 350.316406 L 369.179688 350.316406 L 274.863281 67.367188 C 269.472656 48.503906 242.527344 48.503906 237.136719 67.367188 L 142.820312 350.316406 L 94.316406 350.316406 C 86.230469 350.316406 80.84375 355.707031 80.84375 363.789062 L 80.84375 390.738281 C 80.84375 398.820312 86.230469 404.210938 94.316406 404.210938 L 417.683594 404.210938 C 425.769531 404.210938 431.15625 398.820312 431.15625 390.738281 L 431.15625 363.789062 C 431.15625 355.707031 425.769531 350.316406 417.683594 350.316406 Z M 242.527344 134.738281 L 269.472656 134.738281 L 288.335938 188.632812 L 226.359375 188.632812 Z M 207.496094 242.527344 L 304.503906 242.527344 L 323.367188 296.421875 L 188.632812 296.421875 Z M 207.496094 242.527344 "/>
</g>
</svg>
