<?xml version="1.0" encoding="UTF-8"?>
<svg xmlns="http://www.w3.org/2000/svg" xmlns:xlink="http://www.w3.org/1999/xlink" width="512px" height="512px" viewBox="0 0 512 512" version="1.1">
<g id="surface1">
<path style=" stroke:none;fill-rule:nonzero;fill:rgb(100%,100%,100%);fill-opacity:1;" d="M 134.6875 136.589844 C 134.6875 136.589844 139.742188 107.96875 161.636719 107.96875 L 188.746094 107.96875 L 188.746094 100.449219 C 188.746094 93.007812 194.78125 86.976562 202.222656 86.976562 L 309.578125 86.976562 C 317.019531 86.976562 323.050781 93.007812 323.050781 100.449219 L 323.050781 107.96875 L 350.265625 107.96875 C 356.878906 107.949219 363.164062 110.84375 367.441406 115.882812 C 372.339844 121.882812 375.699219 128.992188 377.214844 136.589844 C 377.214844 136.589844 385.589844 178.945312 393.171875 215.222656 L 367.894531 215.222656 L 350.316406 134.738281 L 161.199219 134.617188 L 143.726562 215.222656 L 118.082031 215.222656 Z M 431.109375 269.019531 C 431.109375 283.890625 419.058594 295.953125 404.183594 295.964844 L 377.214844 403.027344 C 377.214844 403.027344 372.160156 431.097656 350.265625 431.097656 L 161.636719 431.097656 C 139.742188 431.097656 134.6875 403.027344 134.6875 403.027344 L 107.308594 295.882812 C 92.574219 295.59375 80.816406 283.503906 80.933594 268.765625 C 81.050781 254.027344 93.003906 242.128906 107.742188 242.074219 L 404.160156 242.074219 C 419.042969 242.074219 431.109375 254.136719 431.109375 269.019531 Z M 189.511719 380.765625 L 189.441406 350.453125 L 178.910156 309.046875 C 177.832031 301.125 170.539062 295.570312 162.613281 296.648438 C 154.691406 297.722656 149.136719 305.019531 150.210938 312.941406 L 155.753906 350.519531 L 160.804688 384.664062 C 161.882812 392.59375 169.183594 398.144531 177.109375 397.070312 C 185.035156 395.992188 190.589844 388.695312 189.511719 380.765625 Z M 243.40625 310.792969 C 243.410156 302.855469 236.972656 296.417969 229.035156 296.421875 L 228.929688 296.441406 L 228.746094 296.421875 C 225.117188 296.421875 221.644531 297.886719 219.113281 300.488281 C 216.28125 303.171875 214.675781 306.902344 214.671875 310.804688 L 214.671875 383.023438 C 214.601562 388.203125 217.324219 393.019531 221.796875 395.628906 C 226.269531 398.238281 231.804688 398.238281 236.277344 395.628906 C 240.753906 393.019531 243.476562 388.203125 243.40625 383.023438 Z M 297.25 310.792969 C 297.234375 304.917969 293.640625 299.652344 288.175781 297.5 C 284.792969 296.050781 280.964844 296.050781 277.585938 297.5 C 272.121094 299.652344 268.523438 304.921875 268.515625 310.792969 L 268.515625 383.015625 C 268.515625 390.949219 274.945312 397.378906 282.878906 397.378906 C 290.8125 397.378906 297.246094 390.949219 297.246094 383.015625 Z M 361.535156 312.949219 C 362.613281 305.023438 357.058594 297.726562 349.136719 296.652344 C 341.210938 295.578125 333.914062 301.128906 332.839844 309.054688 L 322.289062 350.148438 L 322.234375 380.765625 C 321.15625 388.691406 326.710938 395.988281 334.632812 397.0625 C 342.558594 398.140625 349.855469 392.585938 350.929688 384.664062 Z M 361.535156 312.949219 "/>
</g>
</svg>
