<?xml version="1.0" encoding="UTF-8"?>
<svg xmlns="http://www.w3.org/2000/svg" xmlns:xlink="http://www.w3.org/1999/xlink" width="512px" height="512px" viewBox="0 0 512 512" version="1.1">
<g id="surface1">
<path style=" stroke:none;fill-rule:nonzero;fill:rgb(100%,100%,100%);fill-opacity:1;" d="M 269.472656 94.316406 C 269.472656 116.640625 251.375 134.738281 229.050781 134.738281 C 206.730469 134.738281 188.632812 116.640625 188.632812 94.316406 C 188.632812 71.992188 206.730469 53.894531 229.050781 53.894531 C 251.375 53.894531 269.472656 71.992188 269.472656 94.316406 Z M 347.082031 247.375 L 293.1875 193.480469 C 290.53125 190.292969 286.554688 188.503906 282.410156 188.632812 L 154.949219 188.632812 C 144.804688 188.402344 136.105469 195.824219 134.738281 205.878906 L 107.789062 413.371094 C 107.605469 414.621094 107.605469 415.894531 107.789062 417.144531 C 107.789062 424.585938 113.824219 430.617188 121.261719 430.617188 C 127.328125 431.03125 132.890625 427.246094 134.738281 421.457031 L 167.074219 316.632812 L 174.078125 294.265625 L 184.859375 306.121094 L 215.578125 339.535156 L 215.578125 417.683594 C 215.578125 425.125 221.613281 431.15625 229.050781 431.15625 C 236.492188 431.15625 242.527344 425.125 242.527344 417.683594 L 242.527344 336.84375 C 242.308594 334.71875 241.566406 332.679688 240.371094 330.914062 L 201.566406 282.949219 L 228.515625 215.578125 L 274.59375 215.578125 L 328.488281 265.160156 C 330.988281 268.0625 334.628906 269.734375 338.457031 269.742188 C 345.367188 268.910156 350.503906 262.957031 350.316406 256 C 350.308594 252.832031 349.160156 249.769531 347.082031 247.375 Z M 431.15625 357.589844 C 419.996094 357.589844 410.949219 366.640625 410.949219 377.800781 C 410.949219 388.964844 419.996094 398.011719 431.15625 398.011719 C 442.320312 398.011719 451.367188 388.964844 451.367188 377.800781 C 451.367188 366.640625 442.320312 357.589844 431.15625 357.589844 Z M 343.847656 316.363281 L 343.847656 296.421875 C 343.847656 292.699219 340.832031 289.683594 337.113281 289.683594 C 333.390625 289.683594 330.375 292.699219 330.375 296.421875 L 330.375 316.363281 C 326.273438 318.667969 323.707031 322.976562 323.636719 327.679688 L 323.636719 417.683594 C 323.636719 425.125 329.671875 431.15625 337.113281 431.15625 C 344.550781 431.15625 350.585938 425.125 350.585938 417.683594 L 350.585938 327.679688 C 350.515625 322.976562 347.949219 318.667969 343.847656 316.363281 Z M 343.847656 316.363281 "/>
</g>
</svg>
