<?xml version="1.0" encoding="UTF-8"?>
<svg xmlns="http://www.w3.org/2000/svg" xmlns:xlink="http://www.w3.org/1999/xlink" width="512px" height="512px" viewBox="0 0 512 512" version="1.1">
<g id="surface1">
<path style=" stroke:none;fill-rule:nonzero;fill:rgb(100%,100%,100%);fill-opacity:1;" d="M 151.984375 115.066406 L 256 219.082031 L 359.476562 115.605469 C 364.097656 110.6875 370.519531 107.867188 377.261719 107.789062 C 392.144531 107.789062 404.210938 119.855469 404.210938 134.738281 C 404.335938 141.414062 401.703125 147.847656 396.933594 152.523438 L 292.109375 256 L 396.933594 360.824219 C 401.375 365.167969 403.980469 371.054688 404.210938 377.261719 C 404.210938 392.144531 392.144531 404.210938 377.261719 404.210938 C 370.320312 404.5 363.574219 401.859375 358.667969 396.933594 L 256 292.917969 L 152.253906 396.664062 C 147.652344 401.417969 141.347656 404.132812 134.738281 404.210938 C 119.855469 404.210938 107.789062 392.144531 107.789062 377.261719 C 107.664062 370.585938 110.296875 364.152344 115.066406 359.476562 L 219.890625 256 L 115.066406 151.175781 C 110.625 146.832031 108.019531 140.945312 107.789062 134.738281 C 107.789062 119.855469 119.855469 107.789062 134.738281 107.789062 C 141.214844 107.867188 147.40625 110.480469 151.984375 115.066406 Z M 151.984375 115.066406 "/>
</g>
</svg>
