<?xml version="1.0" encoding="UTF-8"?>
<svg xmlns="http://www.w3.org/2000/svg" xmlns:xlink="http://www.w3.org/1999/xlink" width="512px" height="512px" viewBox="0 0 512 512" version="1.1">
<g id="surface1">
<path style=" stroke:none;fill-rule:nonzero;fill:rgb(100%,100%,100%);fill-opacity:1;" d="M 429.542969 309.894531 C 429.542969 317.335938 423.507812 323.367188 416.066406 323.367188 C 409.089844 323.957031 402.609375 327.246094 398.011719 332.53125 C 390.699219 340.308594 381.371094 345.90625 371.066406 348.699219 C 354.585938 353.59375 336.75 349.839844 323.636719 338.726562 L 313.128906 329.296875 C 305.109375 321.109375 291.972656 320.976562 283.785156 328.996094 C 283.6875 329.097656 283.585938 329.195312 283.484375 329.296875 C 279.714844 332.53125 276.210938 336.035156 272.167969 339.265625 C 252.554688 354.855469 224.570312 354.058594 205.878906 337.382812 L 196.714844 328.488281 L 194.019531 326.871094 L 202.105469 359.746094 L 215.308594 413.640625 C 217.542969 420.738281 213.601562 428.304688 206.503906 430.539062 C 205.082031 430.988281 203.59375 431.195312 202.105469 431.15625 L 94.316406 431.15625 C 86.875 431.15625 80.84375 425.125 80.84375 417.683594 L 80.84375 94.316406 C 80.84375 86.875 86.875 80.84375 94.316406 80.84375 L 123.957031 80.84375 C 130.28125 80.8125 135.773438 85.183594 137.160156 91.351562 L 161.683594 190.25 L 161.683594 194.019531 C 179.386719 185.558594 200.382812 188.078125 215.578125 200.488281 C 219.890625 203.992188 223.933594 208.035156 228.246094 211.535156 C 235.917969 218.398438 247.519531 218.398438 255.191406 211.535156 C 259.503906 208.035156 263.546875 203.992188 267.855469 200.488281 C 286.925781 184.40625 314.808594 184.40625 333.878906 200.488281 C 337.921875 203.992188 341.691406 207.765625 345.734375 210.996094 C 353.40625 217.859375 365.011719 217.859375 372.683594 210.996094 L 385.347656 199.949219 C 393.871094 192.75 404.640625 188.746094 415.796875 188.632812 C 423.238281 188.632812 429.273438 194.664062 429.273438 202.105469 C 429.273438 209.546875 423.238281 215.578125 415.796875 215.578125 C 408.820312 216.167969 402.339844 219.457031 397.742188 224.742188 C 390.429688 232.519531 381.101562 238.117188 370.796875 240.910156 C 354.316406 245.804688 336.480469 242.050781 323.367188 230.9375 L 314.476562 221.777344 C 306.457031 213.589844 293.320312 213.457031 285.132812 221.476562 C 285.03125 221.578125 284.933594 221.675781 284.832031 221.777344 C 281.0625 225.011719 277.558594 228.515625 273.515625 231.746094 C 253.902344 247.332031 225.917969 246.539062 207.226562 229.859375 L 196.714844 220.699219 C 189.042969 213.839844 177.441406 213.839844 169.769531 220.699219 L 168.152344 222.046875 L 186.746094 296.421875 C 197.324219 297.203125 207.402344 301.253906 215.578125 308.007812 C 219.890625 311.511719 223.933594 315.554688 228.246094 319.058594 C 235.917969 325.917969 247.519531 325.917969 255.191406 319.058594 C 259.503906 315.554688 263.546875 311.511719 267.855469 308.007812 C 286.925781 291.925781 314.808594 291.925781 333.878906 308.007812 C 337.921875 311.511719 341.691406 315.285156 345.734375 318.519531 C 353.40625 325.378906 365.011719 325.378906 372.683594 318.519531 L 385.347656 307.46875 C 393.910156 300.367188 404.675781 296.460938 415.796875 296.421875 C 423.238281 296.273438 429.390625 302.183594 429.539062 309.621094 C 429.542969 309.714844 429.542969 309.804688 429.542969 309.894531 Z M 429.542969 309.894531 "/>
</g>
</svg>
