<?xml version="1.0" encoding="UTF-8"?>
<svg xmlns="http://www.w3.org/2000/svg" xmlns:xlink="http://www.w3.org/1999/xlink" width="512px" height="512px" viewBox="0 0 512 512" version="1.1">
<g id="surface1">
<path style=" stroke:none;fill-rule:nonzero;fill:rgb(100%,100%,100%);fill-opacity:1;" d="M 429.542969 449.480469 C 427.523438 454.710938 422.480469 458.144531 416.875 458.105469 C 415.273438 458.394531 413.628906 458.394531 412.023438 458.105469 L 256 392.355469 L 99.707031 458.105469 C 92.773438 460.8125 84.960938 457.386719 82.253906 450.457031 C 82.234375 450.402344 82.210938 450.347656 82.191406 450.289062 C 78.710938 443.710938 81.226562 435.558594 87.804688 432.082031 C 88.507812 431.710938 89.246094 431.402344 90.003906 431.15625 L 220.699219 377.261719 L 90.003906 323.367188 C 82.882812 321.203125 78.867188 313.679688 81.03125 306.558594 C 83.195312 299.4375 90.722656 295.421875 97.839844 297.585938 C 98.480469 297.777344 99.101562 298.023438 99.707031 298.308594 L 256 363.25 L 412.292969 298.308594 C 419.015625 295.113281 427.054688 297.972656 430.246094 304.695312 C 433.441406 311.414062 430.582031 319.453125 423.859375 322.644531 C 423.257812 322.933594 422.632812 323.175781 421.996094 323.367188 L 291.03125 377.261719 L 421.726562 431.15625 C 428.75 433.609375 432.460938 441.292969 430.011719 448.316406 C 429.871094 448.714844 429.714844 449.101562 429.542969 449.480469 Z M 377.261719 167.882812 L 377.261719 180.007812 C 377.207031 185.746094 375.316406 191.316406 371.875 195.90625 C 356.820312 212.570312 340.613281 228.148438 323.367188 242.527344 L 323.367188 273.785156 C 323.410156 279.390625 319.972656 284.433594 314.746094 286.449219 L 256.539062 309.894531 L 254.652344 309.894531 L 196.175781 286.449219 C 191.371094 284.101562 188.40625 279.132812 188.632812 273.785156 L 188.632812 242.527344 C 171.191406 228.175781 154.800781 212.597656 139.585938 195.90625 C 136.335938 191.25 134.636719 185.6875 134.738281 180.007812 L 134.738281 167.882812 C 139.234375 108.105469 185.867188 60.113281 245.492188 53.894531 L 265.699219 53.894531 C 325.691406 59.636719 372.8125 107.78125 377.261719 167.882812 Z M 215.578125 161.683594 C 215.578125 146.800781 203.515625 134.738281 188.632812 134.738281 C 173.75 134.738281 161.683594 146.800781 161.683594 161.683594 C 161.683594 176.566406 173.75 188.632812 188.632812 188.632812 C 203.515625 188.632812 215.578125 176.566406 215.578125 161.683594 Z M 242.527344 242.527344 C 242.527344 235.085938 236.492188 229.050781 229.050781 229.050781 C 221.613281 229.050781 215.578125 235.085938 215.578125 242.527344 L 215.578125 256 C 215.578125 263.441406 221.613281 269.472656 229.050781 269.472656 C 236.492188 269.472656 242.527344 263.441406 242.527344 256 Z M 296.421875 242.527344 C 296.421875 235.085938 290.386719 229.050781 282.949219 229.050781 C 275.507812 229.050781 269.472656 235.085938 269.472656 242.527344 L 269.472656 256 C 269.472656 263.441406 275.507812 269.472656 282.949219 269.472656 C 290.386719 269.472656 296.421875 263.441406 296.421875 256 Z M 350.316406 161.683594 C 350.316406 146.800781 338.25 134.738281 323.367188 134.738281 C 308.484375 134.738281 296.421875 146.800781 296.421875 161.683594 C 296.421875 176.566406 308.484375 188.632812 323.367188 188.632812 C 338.25 188.632812 350.316406 176.566406 350.316406 161.683594 Z M 350.316406 161.683594 "/>
</g>
</svg>
