<?xml version="1.0" encoding="UTF-8"?>
<svg xmlns="http://www.w3.org/2000/svg" xmlns:xlink="http://www.w3.org/1999/xlink" width="512px" height="512px" viewBox="0 0 512 512" version="1.1">
<g id="surface1">
<path style=" stroke:none;fill-rule:nonzero;fill:rgb(100%,100%,100%);fill-opacity:1;" d="M 95.660156 251.636719 C 31.34375 127.773438 193.480469 45.195312 256.050781 169.058594 C 318.609375 45.195312 480.761719 127.769531 416.453125 251.636719 C 414.109375 256.140625 410.988281 260.949219 408.0625 265.683594 L 359.34375 265.683594 L 310.445312 192.34375 C 308.742188 189.789062 306.375 187.75 303.597656 186.445312 C 300.820312 185.140625 297.738281 184.617188 294.683594 184.9375 C 291.632812 185.253906 288.726562 186.402344 286.277344 188.25 C 283.828125 190.101562 281.929688 192.585938 280.789062 195.433594 L 236.371094 306.457031 L 200.53125 270.617188 C 197.371094 267.460938 193.09375 265.6875 188.628906 265.683594 L 104.046875 265.683594 C 101.117188 260.949219 97.996094 256.140625 95.660156 251.636719 Z M 350.316406 299.371094 C 347.539062 299.367188 344.808594 298.683594 342.363281 297.375 C 339.917969 296.066406 337.832031 294.175781 336.289062 291.871094 L 300.15625 237.675781 L 258.15625 342.683594 C 257.121094 345.269531 255.460938 347.5625 253.320312 349.351562 C 251.183594 351.136719 248.632812 352.367188 245.902344 352.925781 C 244.792969 353.15625 243.660156 353.269531 242.523438 353.265625 C 238.058594 353.265625 233.777344 351.496094 230.617188 348.34375 L 181.65625 299.371094 L 127.617188 299.371094 C 164.4375 344.324219 204.613281 386.417969 247.800781 425.300781 C 250.101562 427.375 253.085938 428.523438 256.183594 428.523438 C 259.28125 428.523438 262.269531 427.375 264.566406 425.300781 C 307.625 386.367188 347.710938 344.273438 384.5 299.371094 Z M 350.316406 299.371094 "/>
</g>
</svg>
