<?xml version="1.0" encoding="UTF-8"?>
<svg xmlns="http://www.w3.org/2000/svg" xmlns:xlink="http://www.w3.org/1999/xlink" width="512px" height="512px" viewBox="0 0 512 512" version="1.1">
<g id="surface1">
<path style=" stroke:none;fill-rule:nonzero;fill:rgb(100%,100%,100%);fill-opacity:1;" d="M 171.386719 431.15625 C 144.4375 431.15625 156.292969 359.207031 148.210938 296.421875 C 145.515625 275.941406 121.261719 256.269531 118.03125 240.910156 C 107.789062 188.632812 91.351562 92.699219 152.523438 80.84375 C 213.691406 68.984375 215.578125 134.738281 257.078125 134.738281 C 298.578125 134.738281 299.386719 71.140625 360.824219 80.84375 C 422.265625 90.542969 403.671875 185.9375 395.585938 239.832031 C 392.894531 251.957031 365.945312 279.714844 363.789062 295.34375 C 354.898438 360.015625 372.414062 430.078125 342.230469 430.078125 C 317.171875 430.078125 306.660156 356.78125 288.335938 308.816406 C 281.0625 286.449219 271.089844 269.472656 257.078125 269.472656 C 215.578125 269.472656 208.84375 431.15625 171.386719 431.15625 Z M 171.386719 431.15625 "/>
</g>
</svg>
