<?xml version="1.0" encoding="UTF-8"?>
<svg xmlns="http://www.w3.org/2000/svg" xmlns:xlink="http://www.w3.org/1999/xlink" width="512px" height="512px" viewBox="0 0 512 512" version="1.1">
<g id="surface1">
<path style=" stroke:none;fill-rule:nonzero;fill:rgb(100%,100%,100%);fill-opacity:1;" d="M 243.527344 86.269531 L 111.167969 234.441406 C 109.125 236.703125 107.941406 239.5625 107.804688 242.527344 C 107.664062 245.488281 108.578125 248.1875 110.402344 250.609375 L 242.703125 424.691406 C 244.207031 426.691406 246.199219 428.320312 248.511719 429.445312 C 250.828125 430.570312 253.394531 431.15625 256 431.15625 C 258.605469 431.15625 261.171875 430.570312 263.488281 429.445312 C 265.800781 428.320312 267.792969 426.691406 269.296875 424.691406 L 401.597656 250.609375 C 403.421875 248.1875 404.335938 245.488281 404.195312 242.527344 C 404.058594 239.5625 402.875 236.703125 400.832031 234.441406 L 268.472656 86.269531 C 266.9375 84.570312 265.027344 83.203125 262.875 82.265625 C 260.71875 81.328125 258.375 80.84375 256 80.84375 C 253.625 80.84375 251.28125 81.328125 249.125 82.265625 C 246.972656 83.203125 245.0625 84.570312 243.527344 86.269531 Z M 243.527344 86.269531 "/>
</g>
</svg>
