<?xml version="1.0" encoding="UTF-8"?>
<svg xmlns="http://www.w3.org/2000/svg" xmlns:xlink="http://www.w3.org/1999/xlink" width="512px" height="512px" viewBox="0 0 512 512" version="1.1">
<g id="surface1">
<path style=" stroke:none;fill-rule:nonzero;fill:rgb(100%,100%,100%);fill-opacity:1;" d="M 202.105469 242.527344 C 164.898438 242.527344 134.738281 212.363281 134.738281 175.15625 L 134.738281 121.261719 C 134.738281 113.824219 140.769531 107.789062 148.210938 107.789062 L 161.683594 107.789062 C 169.125 107.789062 175.15625 101.757812 175.15625 94.316406 C 175.15625 86.875 169.125 80.84375 161.683594 80.84375 L 148.210938 80.84375 C 125.886719 80.84375 107.789062 98.941406 107.789062 121.261719 L 107.789062 175.15625 C 107.824219 206.054688 123.035156 234.96875 148.480469 252.496094 C 172.816406 273.953125 187.320312 304.425781 188.632812 336.84375 C 188.632812 388.929688 230.859375 431.15625 282.949219 431.15625 C 335.035156 431.15625 377.261719 388.929688 377.261719 336.84375 L 377.261719 321.480469 C 406.082031 314.042969 423.414062 284.644531 415.972656 255.824219 C 408.53125 227.003906 379.136719 209.675781 350.316406 217.113281 C 321.496094 224.558594 304.164062 253.953125 311.605469 282.773438 C 316.507812 301.757812 331.332031 316.582031 350.316406 321.480469 L 350.316406 336.84375 C 350.316406 374.046875 320.152344 404.210938 282.949219 404.210938 C 245.742188 404.210938 215.578125 374.046875 215.578125 336.84375 C 216.957031 304.382812 231.5625 273.902344 256 252.496094 C 281.339844 234.90625 296.449219 206.007812 296.421875 175.15625 L 296.421875 121.261719 C 296.421875 98.941406 278.324219 80.84375 256 80.84375 L 242.527344 80.84375 C 235.085938 80.84375 229.050781 86.875 229.050781 94.316406 C 229.050781 101.757812 235.085938 107.789062 242.527344 107.789062 L 256 107.789062 C 263.441406 107.789062 269.472656 113.824219 269.472656 121.261719 L 269.472656 175.15625 C 269.472656 212.363281 239.3125 242.527344 202.105469 242.527344 M 363.789062 296.421875 C 348.90625 296.421875 336.84375 284.355469 336.84375 269.472656 C 336.84375 254.589844 348.90625 242.527344 363.789062 242.527344 C 378.671875 242.527344 390.738281 254.589844 390.738281 269.472656 C 390.738281 284.355469 378.671875 296.421875 363.789062 296.421875 Z M 363.789062 296.421875 "/>
</g>
</svg>
