<?xml version="1.0" encoding="UTF-8"?>
<svg xmlns="http://www.w3.org/2000/svg" xmlns:xlink="http://www.w3.org/1999/xlink" width="512px" height="512px" viewBox="0 0 512 512" version="1.1">
<g id="surface1">
<path style=" stroke:none;fill-rule:nonzero;fill:rgb(100%,100%,100%);fill-opacity:1;" d="M 331.472656 86.789062 C 321.0625 86.789062 312.589844 86.230469 309.894531 107.789062 L 299.105469 175.738281 L 363.789062 229.050781 L 417.683594 229.050781 C 455.410156 229.050781 458.105469 203.210938 458.105469 203.210938 L 406.894531 143.421875 C 388.03125 124.558594 369.179688 121.261719 350.316406 121.261719 L 350.316406 107.789062 C 350.316406 107.789062 352.132812 86.785156 331.472656 86.789062 Z M 181.894531 94.316406 C 181.894531 94.316406 156.273438 94.871094 140.105469 100.261719 C 123.9375 105.652344 107.789062 124.527344 107.789062 151.472656 L 107.789062 256.578125 C 107.789062 302.390625 88.925781 309.894531 80.84375 309.894531 C 80.84375 309.894531 53.894531 310.472656 53.894531 337.421875 L 53.894531 396.683594 C 53.894531 396.683594 53.914062 418.261719 75.472656 418.261719 L 107.789062 418.261719 L 107.789062 399.421875 C 107.789062 388.640625 102.398438 383.222656 94.316406 380.527344 L 94.316406 350.894531 C 121.261719 350.894531 123.957031 345.484375 134.738281 342.789062 L 149.578125 402 C 152.273438 410.085938 154.96875 415.464844 163.050781 418.15625 L 190 418.15625 L 215.578125 417.683594 L 215.578125 396.105469 C 215.578125 377.878906 188.632812 377.261719 188.632812 377.261719 L 188.632812 309.894531 L 282.949219 309.894531 L 301.789062 380.527344 C 312.570312 418.253906 336.84375 417.683594 336.84375 417.683594 L 377.261719 417.683594 L 377.261719 396.105469 C 377.261719 376.925781 350.316406 377.261719 350.316406 377.261719 L 353 267.367188 L 269.472656 202.105469 L 148.210938 202.105469 L 148.210938 148.210938 C 148.210938 137.429688 155.660156 134.878906 161.683594 134.738281 C 175 134.417969 181.894531 134.738281 181.894531 134.738281 C 193.054688 134.738281 202.105469 125.6875 202.105469 114.527344 C 202.105469 103.363281 193.054688 94.316406 181.894531 94.316406 Z M 370.527344 161.683594 C 374.246094 161.683594 377.261719 164.699219 377.261719 168.421875 C 377.261719 172.140625 374.246094 175.15625 370.527344 175.15625 C 366.804688 175.15625 363.789062 172.140625 363.789062 168.421875 C 363.789062 164.699219 366.804688 161.683594 370.527344 161.683594 Z M 370.527344 161.683594 "/>
</g>
</svg>
