<?xml version="1.0" encoding="UTF-8"?>
<svg xmlns="http://www.w3.org/2000/svg" xmlns:xlink="http://www.w3.org/1999/xlink" width="512px" height="512px" viewBox="0 0 512 512" version="1.1">
<g id="surface1">
<path style=" stroke:none;fill-rule:nonzero;fill:rgb(100%,100%,100%);fill-opacity:1;" d="M 215.578125 80.84375 C 185.8125 80.84375 161.683594 104.972656 161.683594 134.738281 L 161.683594 229.050781 C 161.683594 236.492188 167.714844 242.527344 175.15625 242.527344 L 229.050781 242.527344 C 236.492188 242.527344 242.527344 236.492188 242.527344 229.050781 L 242.527344 175.15625 C 242.527344 167.714844 248.558594 161.683594 256 161.683594 L 431.15625 161.683594 L 431.15625 80.84375 Z M 242.527344 458.105469 L 161.683594 458.105469 C 155.542969 458.039062 150.222656 453.828125 148.75 447.867188 L 107.789062 286.179688 C 105.992188 278.953125 110.398438 271.640625 117.625 269.851562 C 118.816406 269.578125 120.039062 269.449219 121.261719 269.472656 L 282.949219 269.472656 C 290.378906 269.261719 296.578125 275.109375 296.796875 282.542969 C 296.847656 283.769531 296.722656 284.992188 296.421875 286.179688 L 256 447.867188 C 254.480469 454.023438 248.867188 458.289062 242.527344 458.105469 Z M 152.253906 350.316406 L 252.226562 350.316406 L 265.699219 296.421875 L 138.507812 296.421875 Z M 152.253906 350.316406 "/>
</g>
</svg>
