<?xml version="1.0" encoding="UTF-8"?>
<svg xmlns="http://www.w3.org/2000/svg" xmlns:xlink="http://www.w3.org/1999/xlink" width="512px" height="512px" viewBox="0 0 512 512" version="1.1">
<g id="surface1">
<path style=" stroke:none;fill-rule:nonzero;fill:rgb(100%,100%,100%);fill-opacity:1;" d="M 233.09375 107.789062 C 200.21875 107.789062 174.617188 144.976562 164.648438 156.832031 C 162.667969 159.265625 161.617188 162.324219 161.683594 165.457031 L 161.683594 284.023438 C 161.371094 290.566406 166.421875 296.121094 172.960938 296.433594 C 175.914062 296.574219 178.808594 295.609375 181.085938 293.726562 C 193.65625 276.847656 212.316406 265.535156 233.09375 262.199219 C 271.089844 262.199219 285.640625 296.421875 325.253906 296.421875 C 352.0625 293.789062 377.574219 283.605469 398.820312 267.046875 C 402.25 264.53125 404.253906 260.523438 404.210938 256.269531 L 404.210938 119.914062 C 404.953125 113.410156 400.277344 107.535156 393.769531 106.792969 C 391.632812 106.550781 389.460938 106.894531 387.503906 107.789062 C 369.144531 121.835938 347.875 131.59375 325.253906 136.355469 C 285.640625 136.894531 272.707031 107.789062 233.09375 107.789062 Z M 121.261719 134.738281 C 106.378906 134.738281 94.316406 122.671875 94.316406 107.789062 C 94.316406 92.90625 106.378906 80.84375 121.261719 80.84375 C 136.144531 80.84375 148.210938 92.90625 148.210938 107.789062 C 148.210938 122.671875 136.144531 134.738281 121.261719 134.738281 Z M 134.738281 161.683594 L 134.738281 417.144531 C 134.738281 424.585938 128.703125 430.617188 121.261719 430.617188 C 113.824219 430.617188 107.789062 424.585938 107.789062 417.144531 L 107.789062 161.683594 C 107.789062 154.242188 113.824219 148.210938 121.261719 148.210938 C 128.703125 148.210938 134.738281 154.242188 134.738281 161.683594 Z M 134.738281 161.683594 "/>
</g>
</svg>
