<?xml version="1.0" encoding="UTF-8"?>
<svg xmlns="http://www.w3.org/2000/svg" xmlns:xlink="http://www.w3.org/1999/xlink" width="512px" height="512px" viewBox="0 0 512 512" version="1.1">
<g id="surface1">
<path style=" stroke:none;fill-rule:nonzero;fill:rgb(100%,100%,100%);fill-opacity:1;" d="M 266.105469 363.519531 C 271.46875 368.863281 280.144531 368.863281 285.507812 363.519531 L 304.910156 344.117188 L 363.65625 402.324219 L 353.683594 412.292969 C 343.515625 423.148438 329.695312 429.867188 314.878906 431.15625 L 275.941406 431.15625 C 261.027344 429.929688 247.105469 423.207031 236.867188 412.292969 L 100.246094 275.671875 C 89.132812 265.519531 82.210938 251.585938 80.84375 236.597656 L 80.84375 197.523438 C 82.210938 182.535156 89.132812 168.601562 100.246094 158.449219 L 109.945312 148.75 L 168.691406 207.226562 L 149.019531 226.898438 C 143.675781 232.261719 143.675781 240.9375 149.019531 246.300781 Z M 393.296875 373.761719 C 404.089844 363.507812 404.523438 346.445312 394.265625 335.65625 L 373.894531 315.285156 C 363.640625 304.492188 346.578125 304.058594 335.792969 314.3125 L 334.820312 315.285156 Z M 197.121094 178.390625 C 207.914062 168.136719 208.347656 151.078125 198.089844 140.289062 L 177.71875 119.914062 C 167.464844 109.125 150.402344 108.6875 139.613281 118.945312 L 138.507812 119.914062 Z M 323.367188 107.789062 L 323.367188 161.683594 L 269.472656 161.683594 L 269.472656 188.632812 L 323.367188 188.632812 L 323.367188 242.527344 L 350.316406 242.527344 L 350.316406 188.632812 L 404.210938 188.632812 L 404.210938 161.683594 L 350.316406 161.683594 L 350.316406 107.789062 Z M 323.367188 107.789062 "/>
</g>
</svg>
