<?xml version="1.0" encoding="UTF-8"?>
<svg xmlns="http://www.w3.org/2000/svg" xmlns:xlink="http://www.w3.org/1999/xlink" width="512px" height="512px" viewBox="0 0 512 512" version="1.1">
<g id="surface1">
<path style=" stroke:none;fill-rule:nonzero;fill:rgb(100%,100%,100%);fill-opacity:1;" d="M 230.507812 313.640625 C 225.402344 318.925781 225.476562 327.332031 230.671875 332.527344 C 235.871094 337.726562 244.273438 337.796875 249.558594 332.691406 L 321.429688 260.554688 C 322.695312 259.289062 323.40625 257.574219 323.40625 255.785156 C 323.40625 253.996094 322.695312 252.277344 321.429688 251.015625 L 249.558594 178.902344 C 244.273438 173.796875 235.871094 173.871094 230.671875 179.066406 C 225.476562 184.265625 225.402344 192.667969 230.507812 197.957031 L 274.863281 242.527344 L 94.316406 242.527344 C 86.875 242.527344 80.84375 248.558594 80.84375 256 C 80.84375 263.441406 86.875 269.472656 94.316406 269.472656 L 274.863281 269.472656 Z M 377.261719 80.84375 L 202.105469 80.84375 C 194.664062 80.84375 188.632812 86.875 188.632812 94.316406 C 188.632812 101.757812 194.664062 107.789062 202.105469 107.789062 L 363.789062 107.789062 C 371.230469 107.789062 377.261719 113.820312 377.261719 121.261719 L 377.261719 390.738281 C 377.261719 398.179688 371.230469 404.210938 363.789062 404.210938 L 195.367188 404.210938 C 187.925781 404.210938 181.894531 410.242188 181.894531 417.683594 C 181.894531 425.125 187.925781 431.15625 195.367188 431.15625 L 377.261719 431.15625 C 392.144531 431.15625 404.210938 419.09375 404.210938 404.210938 L 404.210938 107.789062 C 404.210938 92.90625 392.144531 80.84375 377.261719 80.84375 Z M 377.261719 80.84375 "/>
</g>
</svg>
