<?xml version="1.0" encoding="UTF-8"?>
<svg xmlns="http://www.w3.org/2000/svg" xmlns:xlink="http://www.w3.org/1999/xlink" width="512px" height="512px" viewBox="0 0 512 512" version="1.1">
<g id="surface1">
<path style=" stroke:none;fill-rule:nonzero;fill:rgb(100%,100%,100%);fill-opacity:1;" d="M 269.472656 229.050781 L 269.472656 202.105469 C 269.472656 194.957031 266.632812 188.105469 261.582031 183.050781 C 256.527344 177.996094 249.671875 175.15625 242.527344 175.15625 C 235.378906 175.15625 228.523438 177.996094 223.472656 183.050781 C 218.417969 188.105469 215.578125 194.957031 215.578125 202.105469 L 215.578125 282.949219 Z M 215.578125 134.738281 C 215.578125 129.40625 217.160156 124.195312 220.121094 119.765625 C 223.082031 115.335938 227.289062 111.878906 232.214844 109.839844 C 237.136719 107.800781 242.554688 107.265625 247.785156 108.308594 C 253.011719 109.347656 257.8125 111.914062 261.582031 115.683594 C 265.351562 119.449219 267.917969 124.253906 268.957031 129.480469 C 269.996094 134.707031 269.460938 140.125 267.421875 145.050781 C 265.382812 149.972656 261.929688 154.183594 257.496094 157.144531 C 253.066406 160.105469 247.855469 161.683594 242.527344 161.683594 C 235.378906 161.683594 228.523438 158.84375 223.472656 153.792969 C 218.417969 148.738281 215.578125 141.882812 215.578125 134.738281 Z M 458.105469 215.578125 C 458.105469 222.726562 455.265625 229.578125 450.210938 234.632812 C 445.160156 239.6875 438.304688 242.527344 431.15625 242.527344 L 388.582031 242.527344 C 385.035156 242.503906 381.519531 243.183594 378.234375 244.527344 C 374.953125 245.867188 371.964844 247.84375 369.449219 250.339844 L 223.394531 396.394531 C 218.375 401.371094 211.601562 404.179688 204.53125 404.210938 L 134.738281 404.210938 C 127.589844 404.210938 120.734375 401.371094 115.683594 396.316406 C 110.628906 391.265625 107.789062 384.410156 107.789062 377.261719 C 107.789062 370.117188 110.628906 363.261719 115.683594 358.207031 C 120.734375 353.15625 127.589844 350.316406 134.738281 350.316406 L 177.582031 350.316406 C 184.652344 350.285156 191.425781 347.476562 196.445312 342.5 L 342.5 196.445312 C 345.019531 193.949219 348.007812 191.972656 351.289062 190.632812 C 354.570312 189.289062 358.085938 188.609375 361.632812 188.632812 L 431.15625 188.632812 C 438.304688 188.632812 445.160156 191.472656 450.210938 196.523438 C 455.265625 201.578125 458.105469 208.433594 458.105469 215.578125 Z M 458.105469 215.578125 "/>
</g>
</svg>
