<?xml version="1.0" encoding="UTF-8"?>
<svg xmlns="http://www.w3.org/2000/svg" xmlns:xlink="http://www.w3.org/1999/xlink" width="512px" height="512px" viewBox="0 0 512 512" version="1.1">
<g id="surface1">
<path style=" stroke:none;fill-rule:nonzero;fill:rgb(100%,100%,100%);fill-opacity:1;" d="M 269.472656 215.578125 L 188.632812 161.683594 L 107.789062 215.578125 L 80.84375 269.472656 L 80.84375 377.261719 L 134.738281 377.261719 L 134.738281 323.367188 L 242.527344 323.367188 L 242.527344 377.261719 L 296.421875 377.261719 L 296.421875 269.472656 Z M 215.578125 269.472656 L 161.683594 269.472656 L 161.683594 215.578125 L 215.578125 215.578125 Z M 431.15625 377.261719 L 350.316406 377.261719 L 350.316406 121.261719 C 350.316406 110.542969 354.574219 100.261719 362.152344 92.679688 C 369.734375 85.101562 380.015625 80.84375 390.738281 80.84375 C 401.457031 80.84375 411.738281 85.101562 419.320312 92.679688 C 426.898438 100.261719 431.15625 110.542969 431.15625 121.261719 Z M 431.15625 377.261719 "/>
</g>
</svg>
