<?xml version="1.0" encoding="UTF-8"?>
<svg xmlns="http://www.w3.org/2000/svg" xmlns:xlink="http://www.w3.org/1999/xlink" width="512px" height="512px" viewBox="0 0 512 512" version="1.1">
<g id="surface1">
<path style=" stroke:none;fill-rule:nonzero;fill:rgb(100%,100%,100%);fill-opacity:1;" d="M 431.15625 269.472656 C 431.15625 284.355469 419.09375 296.421875 404.210938 296.421875 L 107.789062 296.421875 C 92.90625 296.421875 80.84375 284.355469 80.84375 269.472656 C 80.84375 254.589844 92.90625 242.527344 107.789062 242.527344 L 404.210938 242.527344 C 419.09375 242.527344 431.15625 254.589844 431.15625 269.472656 Z M 148.210938 323.367188 L 107.789062 323.367188 C 107.789062 368.015625 143.984375 404.210938 188.632812 404.210938 L 323.367188 404.210938 C 368.015625 404.210938 404.210938 368.015625 404.210938 323.367188 Z M 134.738281 215.578125 L 107.789062 215.578125 L 107.789062 161.683594 C 107.789062 131.917969 131.917969 107.789062 161.683594 107.789062 L 350.316406 107.789062 C 380.082031 107.789062 404.210938 131.917969 404.210938 161.683594 L 404.210938 215.578125 Z M 350.316406 175.15625 C 350.316406 182.597656 356.347656 188.632812 363.789062 188.632812 C 371.230469 188.632812 377.261719 182.597656 377.261719 175.15625 C 377.261719 167.71875 371.230469 161.683594 363.789062 161.683594 C 356.347656 161.683594 350.316406 167.71875 350.316406 175.15625 Z M 296.421875 148.210938 C 296.421875 155.652344 302.453125 161.683594 309.894531 161.683594 C 317.335938 161.683594 323.367188 155.652344 323.367188 148.210938 C 323.367188 140.769531 317.335938 134.738281 309.894531 134.738281 C 302.453125 134.738281 296.421875 140.769531 296.421875 148.210938 Z M 242.527344 175.15625 C 242.527344 182.597656 248.558594 188.632812 256 188.632812 C 263.441406 188.632812 269.472656 182.597656 269.472656 175.15625 C 269.472656 167.71875 263.441406 161.683594 256 161.683594 C 248.558594 161.683594 242.527344 167.71875 242.527344 175.15625 Z M 188.632812 148.210938 C 188.632812 155.652344 194.664062 161.683594 202.105469 161.683594 C 209.546875 161.683594 215.578125 155.652344 215.578125 148.210938 C 215.578125 140.769531 209.546875 134.738281 202.105469 134.738281 C 194.664062 134.738281 188.632812 140.769531 188.632812 148.210938 Z M 134.738281 175.15625 C 134.738281 182.597656 140.769531 188.632812 148.210938 188.632812 C 155.652344 188.632812 161.683594 182.597656 161.683594 175.15625 C 161.683594 167.71875 155.652344 161.683594 148.210938 161.683594 C 140.769531 161.683594 134.738281 167.71875 134.738281 175.15625 Z M 134.738281 175.15625 "/>
</g>
</svg>
