<?xml version="1.0" encoding="UTF-8"?>
<svg xmlns="http://www.w3.org/2000/svg" xmlns:xlink="http://www.w3.org/1999/xlink" width="512px" height="512px" viewBox="0 0 512 512" version="1.1">
<g id="surface1">
<path style=" stroke:none;fill-rule:nonzero;fill:rgb(100%,100%,100%);fill-opacity:1;" d="M 417.683594 296.421875 L 404.210938 296.421875 L 404.210938 215.578125 L 417.683594 215.578125 C 421.257812 215.578125 424.683594 214.160156 427.210938 211.632812 C 429.738281 209.105469 431.15625 205.679688 431.15625 202.105469 C 431.15625 198.53125 429.738281 195.105469 427.210938 192.578125 C 424.683594 190.050781 421.257812 188.632812 417.683594 188.632812 L 404.210938 188.632812 L 404.210938 134.738281 L 396.503906 119.296875 C 395.917969 118.3125 395.089844 117.496094 394.09375 116.921875 C 393.101562 116.347656 391.980469 116.039062 390.835938 116.023438 C 389.691406 116.007812 388.558594 116.285156 387.550781 116.828125 C 386.542969 117.375 385.691406 118.167969 385.078125 119.132812 L 377.261719 134.738281 L 377.261719 188.632812 L 350.316406 188.632812 L 350.316406 134.738281 L 342.609375 119.296875 C 342.019531 118.3125 341.195312 117.496094 340.199219 116.921875 C 339.207031 116.347656 338.085938 116.039062 336.941406 116.023438 C 335.796875 116.007812 334.664062 116.285156 333.65625 116.828125 C 332.648438 117.375 331.796875 118.167969 331.183594 119.132812 L 323.367188 134.738281 L 323.367188 188.632812 L 296.421875 188.632812 L 296.421875 134.738281 L 288.714844 119.296875 C 288.128906 118.3125 287.296875 117.496094 286.304688 116.921875 C 285.3125 116.347656 284.191406 116.039062 283.046875 116.023438 C 281.902344 116.007812 280.769531 116.285156 279.761719 116.828125 C 278.753906 117.375 277.902344 118.167969 277.289062 119.132812 L 269.472656 134.738281 L 269.472656 188.632812 L 242.527344 188.632812 L 242.527344 134.738281 L 234.820312 119.296875 C 234.234375 118.3125 233.402344 117.496094 232.410156 116.921875 C 231.417969 116.347656 230.296875 116.039062 229.152344 116.023438 C 228.007812 116.007812 226.875 116.285156 225.867188 116.828125 C 224.859375 117.375 224.007812 118.167969 223.394531 119.132812 L 215.578125 134.738281 L 215.578125 188.632812 L 188.632812 188.632812 L 188.632812 134.738281 L 180.925781 119.296875 C 180.335938 118.3125 179.507812 117.496094 178.515625 116.921875 C 177.523438 116.347656 176.402344 116.039062 175.257812 116.023438 C 174.113281 116.007812 172.980469 116.285156 171.972656 116.828125 C 170.964844 117.375 170.113281 118.167969 169.5 119.132812 L 161.683594 134.738281 L 161.683594 188.632812 L 134.738281 188.632812 L 134.738281 134.738281 L 127.03125 119.296875 C 126.441406 118.3125 125.613281 117.496094 124.621094 116.921875 C 123.628906 116.347656 122.507812 116.039062 121.363281 116.023438 C 120.214844 116.007812 119.085938 116.285156 118.078125 116.828125 C 117.070312 117.375 116.21875 118.167969 115.605469 119.132812 L 107.789062 134.738281 L 107.789062 188.632812 L 94.316406 188.632812 C 90.742188 188.632812 87.316406 190.050781 84.789062 192.578125 C 82.261719 195.105469 80.84375 198.53125 80.84375 202.105469 C 80.84375 205.679688 82.261719 209.105469 84.789062 211.632812 C 87.316406 214.160156 90.742188 215.578125 94.316406 215.578125 L 107.789062 215.578125 L 107.789062 296.421875 L 94.316406 296.421875 C 90.742188 296.421875 87.316406 297.839844 84.789062 300.367188 C 82.261719 302.894531 80.84375 306.320312 80.84375 309.894531 C 80.84375 313.46875 82.261719 316.894531 84.789062 319.421875 C 87.316406 321.949219 90.742188 323.367188 94.316406 323.367188 L 107.789062 323.367188 L 107.789062 363.789062 C 107.789062 367.363281 109.210938 370.789062 111.734375 373.316406 C 114.261719 375.84375 117.691406 377.261719 121.261719 377.261719 C 124.835938 377.261719 128.265625 375.84375 130.789062 373.316406 C 133.316406 370.789062 134.738281 367.363281 134.738281 363.789062 L 134.738281 323.367188 L 161.683594 323.367188 L 161.683594 363.789062 C 161.683594 367.363281 163.105469 370.789062 165.628906 373.316406 C 168.15625 375.84375 171.585938 377.261719 175.15625 377.261719 C 178.730469 377.261719 182.160156 375.84375 184.683594 373.316406 C 187.210938 370.789062 188.632812 367.363281 188.632812 363.789062 L 188.632812 323.367188 L 215.578125 323.367188 L 215.578125 363.789062 C 215.578125 367.363281 217 370.789062 219.523438 373.316406 C 222.050781 375.84375 225.480469 377.261719 229.050781 377.261719 C 232.625 377.261719 236.054688 375.84375 238.578125 373.316406 C 241.105469 370.789062 242.527344 367.363281 242.527344 363.789062 L 242.527344 323.367188 L 269.472656 323.367188 L 269.472656 363.789062 C 269.472656 367.363281 270.894531 370.789062 273.421875 373.316406 C 275.945312 375.84375 279.375 377.261719 282.949219 377.261719 C 286.519531 377.261719 289.949219 375.84375 292.476562 373.316406 C 295 370.789062 296.421875 367.363281 296.421875 363.789062 L 296.421875 323.367188 L 323.367188 323.367188 L 323.367188 363.789062 C 323.367188 367.363281 324.789062 370.789062 327.3125 373.316406 C 329.839844 375.84375 333.269531 377.261719 336.84375 377.261719 C 340.414062 377.261719 343.84375 375.84375 346.371094 373.316406 C 348.894531 370.789062 350.316406 367.363281 350.316406 363.789062 L 350.316406 323.367188 L 377.261719 323.367188 L 377.261719 363.789062 C 377.261719 367.363281 378.683594 370.789062 381.207031 373.316406 C 383.734375 375.84375 387.164062 377.261719 390.738281 377.261719 C 394.308594 377.261719 397.738281 375.84375 400.265625 373.316406 C 402.789062 370.789062 404.210938 367.363281 404.210938 363.789062 L 404.210938 323.367188 L 417.683594 323.367188 C 421.257812 323.367188 424.683594 321.949219 427.210938 319.421875 C 429.738281 316.894531 431.15625 313.46875 431.15625 309.894531 C 431.15625 306.320312 429.738281 302.894531 427.210938 300.367188 C 424.683594 297.839844 421.257812 296.421875 417.683594 296.421875 Z M 134.738281 296.421875 L 134.738281 215.578125 L 161.683594 215.578125 L 161.683594 296.421875 Z M 188.632812 296.421875 L 188.632812 215.578125 L 215.578125 215.578125 L 215.578125 296.421875 Z M 242.527344 296.421875 L 242.527344 215.578125 L 269.472656 215.578125 L 269.472656 296.421875 Z M 296.421875 296.421875 L 296.421875 215.578125 L 323.367188 215.578125 L 323.367188 296.421875 Z M 350.316406 296.421875 L 350.316406 215.578125 L 377.261719 215.578125 L 377.261719 296.421875 Z M 350.316406 296.421875 "/>
</g>
</svg>
