<?xml version="1.0" encoding="UTF-8"?>
<svg xmlns="http://www.w3.org/2000/svg" xmlns:xlink="http://www.w3.org/1999/xlink" width="512px" height="512px" viewBox="0 0 512 512" version="1.1">
<g id="surface1">
<path style=" stroke:none;fill-rule:nonzero;fill:rgb(100%,100%,100%);fill-opacity:1;" d="M 197.523438 350.316406 C 215.699219 350.558594 233.261719 356.917969 247.375 368.371094 L 254.382812 374.570312 L 255.730469 374.570312 L 264.085938 367.023438 C 290.539062 345.15625 328.191406 343.183594 356.78125 362.171875 L 417.683594 242.527344 L 377.261719 215.578125 L 377.261719 119.914062 C 376.007812 98.359375 358.429688 81.367188 336.84375 80.84375 L 323.367188 80.84375 C 324.292969 66.882812 313.722656 54.820312 299.765625 53.894531 C 298.652344 53.820312 297.535156 53.820312 296.421875 53.894531 L 215.578125 53.894531 C 201.621094 52.96875 189.554688 63.539062 188.632812 77.496094 C 188.558594 78.609375 188.558594 79.730469 188.632812 80.84375 L 175.15625 80.84375 C 153.570312 81.367188 135.992188 98.359375 134.738281 119.914062 L 134.738281 215.578125 L 94.316406 242.527344 L 154.949219 364.597656 C 167.460938 355.816406 182.246094 350.855469 197.523438 350.316406 Z M 161.683594 119.914062 C 161.96875 112.925781 167.863281 107.492188 174.851562 107.773438 C 174.953125 107.777344 175.054688 107.785156 175.15625 107.789062 L 336.84375 107.789062 C 343.820312 107.328125 349.855469 112.609375 350.316406 119.589844 C 350.355469 120.148438 350.355469 120.707031 350.316406 121.261719 L 350.316406 202.105469 L 256 148.210938 L 161.683594 200.757812 C 161.683594 200.757812 161.683594 119.914062 161.683594 119.914062 Z M 431.15625 404.210938 L 431.15625 431.15625 C 424.082031 431.679688 417.5 434.972656 412.832031 440.320312 C 405.511719 448.089844 396.1875 453.683594 385.886719 456.488281 C 369.320312 461.378906 351.40625 457.632812 338.191406 446.519531 L 327.679688 437.085938 C 319.480469 428.933594 306.238281 428.933594 298.039062 437.085938 C 294.265625 440.320312 290.761719 443.824219 286.71875 447.058594 C 266.972656 462.835938 238.714844 462.039062 219.890625 445.171875 L 209.382812 435.738281 C 201.664062 428.996094 190.152344 428.996094 182.433594 435.738281 C 177.3125 439.78125 172.734375 444.363281 167.613281 448.402344 C 148.632812 462.457031 122.523438 461.792969 104.285156 446.789062 L 95.933594 439.511719 C 92.035156 435.046875 86.695312 432.089844 80.84375 431.15625 L 80.84375 404.210938 C 87.808594 403.347656 94.867188 404.664062 101.050781 407.984375 C 108.550781 412.625 115.667969 417.847656 122.339844 423.613281 C 127.867188 429.636719 136.210938 432.207031 144.167969 430.347656 C 147.199219 429.453125 150.035156 427.988281 152.523438 426.039062 C 156.832031 422.804688 160.335938 419.03125 164.648438 415.527344 C 183.796875 399.660156 211.519531 399.660156 230.667969 415.527344 C 234.980469 419.03125 239.023438 423.074219 243.335938 426.578125 C 251.050781 433.320312 262.5625 433.320312 270.28125 426.578125 C 274.59375 423.074219 278.636719 419.03125 282.949219 415.527344 C 302.140625 399.511719 330.042969 399.511719 349.238281 415.527344 C 353.28125 419.03125 357.050781 422.804688 361.09375 426.039062 C 368.8125 432.78125 380.324219 432.78125 388.042969 426.039062 L 400.707031 414.988281 C 409.316406 408.003906 420.070312 404.195312 431.15625 404.210938 Z M 431.15625 404.210938 "/>
</g>
</svg>
