<?xml version="1.0" encoding="UTF-8"?>
<svg xmlns="http://www.w3.org/2000/svg" xmlns:xlink="http://www.w3.org/1999/xlink" width="512px" height="512px" viewBox="0 0 512 512" version="1.1">
<g id="surface1">
<path style=" stroke:none;fill-rule:nonzero;fill:rgb(100%,100%,100%);fill-opacity:1;" d="M 309.894531 390.738281 L 202.105469 390.738281 L 202.105469 269.472656 C 202.105469 240.140625 217.730469 200.707031 238.589844 165.40625 C 244.507812 155.390625 250.472656 146.335938 256 138.648438 C 261.527344 146.335938 267.492188 155.390625 273.410156 165.40625 C 294.269531 200.707031 309.894531 240.140625 309.894531 269.472656 Z M 256 80.84375 C 242.527344 80.84375 161.683594 188.632812 161.683594 269.472656 L 161.683594 390.738281 C 161.683594 413.058594 179.78125 431.15625 202.105469 431.15625 L 309.894531 431.15625 C 332.21875 431.15625 350.316406 413.078125 350.316406 390.753906 L 350.316406 269.472656 C 350.316406 188.632812 269.472656 80.84375 256 80.84375 Z M 256 80.84375 "/>
</g>
</svg>
