<?xml version="1.0" encoding="UTF-8"?>
<svg xmlns="http://www.w3.org/2000/svg" xmlns:xlink="http://www.w3.org/1999/xlink" width="512px" height="512px" viewBox="0 0 512 512" version="1.1">
<g id="surface1">
<path style=" stroke:none;fill-rule:nonzero;fill:rgb(100%,100%,100%);fill-opacity:1;" d="M 282.949219 273.484375 L 282.949219 370.527344 C 282.949219 385.410156 270.882812 397.472656 256 397.472656 C 241.117188 397.472656 229.050781 385.410156 229.050781 370.527344 L 229.050781 273.484375 C 166.371094 260.601562 121.351562 205.46875 121.261719 141.472656 C 121.261719 126.589844 133.328125 114.527344 148.210938 114.527344 C 163.09375 114.527344 175.15625 126.589844 175.15625 141.472656 C 175.15625 186.121094 211.351562 222.316406 256 222.316406 C 300.648438 222.316406 336.84375 186.121094 336.84375 141.472656 C 336.84375 126.589844 348.90625 114.527344 363.789062 114.527344 C 378.671875 114.527344 390.738281 126.589844 390.738281 141.472656 C 390.648438 205.46875 345.632812 260.601562 282.949219 273.484375 Z M 282.949219 273.484375 "/>
</g>
</svg>
