<?xml version="1.0" encoding="UTF-8"?>
<svg xmlns="http://www.w3.org/2000/svg" xmlns:xlink="http://www.w3.org/1999/xlink" width="512px" height="512px" viewBox="0 0 512 512" version="1.1">
<g id="surface1">
<path style=" stroke:none;fill-rule:nonzero;fill:rgb(100%,100%,100%);fill-opacity:1;" d="M 256 431.15625 C 352.738281 431.15625 431.15625 350.316406 431.15625 256 C 431.15625 175.15625 363.789062 107.789062 363.789062 107.789062 L 336.84375 202.105469 L 256 80.84375 L 175.15625 202.105469 L 148.210938 107.789062 C 148.210938 107.789062 80.84375 175.15625 80.84375 256 C 80.84375 350.316406 159.261719 431.15625 256 431.15625 Z M 256 390.738281 C 218.792969 390.738281 188.632812 360.574219 188.632812 323.367188 C 188.632812 286.160156 256 202.105469 256 202.105469 C 256 202.105469 323.367188 286.160156 323.367188 323.367188 C 323.367188 360.574219 293.207031 390.738281 256 390.738281 Z M 256 390.738281 "/>
</g>
</svg>
