<?xml version="1.0" encoding="UTF-8"?>
<svg xmlns="http://www.w3.org/2000/svg" xmlns:xlink="http://www.w3.org/1999/xlink" width="512px" height="512px" viewBox="0 0 512 512" version="1.1">
<g id="surface1">
<path style=" stroke:none;fill-rule:nonzero;fill:rgb(100%,100%,100%);fill-opacity:1;" d="M 444.632812 242.527344 L 444.632812 269.472656 L 417.683594 269.472656 L 417.683594 323.367188 L 390.738281 323.367188 L 390.738281 350.316406 L 350.316406 350.316406 L 350.316406 269.472656 L 161.683594 269.472656 L 161.683594 350.316406 L 121.261719 350.316406 L 121.261719 323.367188 L 94.316406 323.367188 L 94.316406 269.472656 L 67.367188 269.472656 L 67.367188 242.527344 L 94.316406 242.527344 L 94.316406 188.632812 L 121.261719 188.632812 L 121.261719 161.683594 L 161.683594 161.683594 L 161.683594 242.527344 L 350.316406 242.527344 L 350.316406 161.683594 L 390.738281 161.683594 L 390.738281 188.632812 L 417.683594 188.632812 L 417.683594 242.527344 Z M 444.632812 242.527344 "/>
</g>
</svg>
