<?xml version="1.0" encoding="UTF-8"?>
<svg xmlns="http://www.w3.org/2000/svg" xmlns:xlink="http://www.w3.org/1999/xlink" width="512px" height="512px" viewBox="0 0 512 512" version="1.1">
<g id="surface1">
<path style=" stroke:none;fill-rule:nonzero;fill:rgb(100%,100%,100%);fill-opacity:1;" d="M 94.316406 80.84375 C 126.148438 82.121094 153.449219 103.960938 161.683594 134.738281 L 175.15625 53.894531 L 188.632812 134.738281 C 196.867188 103.960938 224.167969 82.121094 256 80.84375 C 250.609375 81.652344 229.050781 87.847656 229.050781 134.738281 L 229.050781 136.972656 C 228.433594 166.121094 204.304688 189.25 175.15625 188.632812 L 172.921875 188.632812 C 143.773438 188.011719 120.644531 163.882812 121.261719 134.738281 C 121.261719 87.875 99.707031 81.652344 94.316406 80.84375 Z M 377.585938 350.316406 L 458.429688 336.84375 L 377.585938 323.367188 C 408.304688 315.121094 430.042969 287.789062 431.15625 256 C 430.347656 261.390625 424.476562 282.949219 377.585938 282.949219 C 347.820312 282.949219 323.691406 307.078125 323.691406 336.84375 C 323.691406 366.605469 347.820312 390.738281 377.585938 390.738281 C 424.449219 390.738281 430.347656 412.292969 431.15625 417.683594 C 430.042969 385.898438 408.304688 358.5625 377.585938 350.316406 Z M 314.960938 203.398438 C 300.078125 203.398438 288.011719 191.335938 288.011719 176.453125 C 288.011719 161.570312 300.078125 149.503906 314.960938 149.503906 C 300.078125 149.503906 288.011719 137.4375 288.011719 122.554688 C 288.011719 107.675781 300.078125 95.609375 314.960938 95.609375 C 324.511719 95.703125 333.28125 100.921875 337.921875 109.273438 L 338.539062 108.949219 C 336.5625 105.265625 335.492188 101.164062 335.414062 96.984375 C 335.414062 82.101562 347.480469 70.035156 362.359375 70.035156 C 377.242188 70.035156 389.308594 82.101562 389.308594 96.984375 C 389.230469 101.164062 388.160156 105.265625 386.183594 108.949219 L 386.695312 109.21875 C 391.375 100.957031 400.105469 95.820312 409.601562 95.742188 C 424.484375 95.558594 436.699219 107.472656 436.882812 122.355469 C 437.070312 137.238281 425.15625 149.453125 410.273438 149.640625 C 425.15625 149.824219 437.070312 162.039062 436.882812 176.921875 C 436.699219 191.804688 424.484375 203.71875 409.601562 203.535156 C 400.105469 203.457031 391.375 198.320312 386.695312 190.058594 L 386.261719 190.300781 C 388.195312 193.960938 389.238281 198.023438 389.308594 202.160156 C 389.308594 217.042969 377.242188 229.105469 362.359375 229.105469 C 347.480469 229.105469 335.414062 217.042969 335.414062 202.160156 C 335.484375 198.023438 336.527344 193.960938 338.457031 190.300781 L 337.921875 190.007812 C 333.28125 198.355469 324.511719 203.574219 314.960938 203.667969 Z M 334.09375 149.640625 C 334.125 165.273438 346.816406 177.925781 362.449219 177.90625 C 378.085938 177.886719 390.746094 165.203125 390.738281 149.566406 C 390.726562 133.933594 378.050781 121.261719 362.414062 121.261719 C 346.773438 121.292969 334.117188 133.996094 334.148438 149.640625 Z M 187.175781 362.28125 L 173.273438 348.402344 L 293.511719 228.378906 C 289.132812 226.707031 285.027344 224.390625 281.332031 221.507812 L 163.730469 338.863281 L 149.746094 324.90625 C 166.742188 290.253906 179.019531 253.488281 186.261719 215.578125 C 182.582031 216.121094 178.875 216.433594 175.15625 216.523438 C 174.054688 216.523438 173.191406 216.304688 172.140625 216.253906 C 164.542969 249.816406 153.183594 282.414062 138.265625 313.425781 L 128.269531 303.425781 C 126.707031 301.875 124.476562 301.203125 122.3125 301.628906 C 120.152344 302.054688 118.347656 303.527344 117.492188 305.554688 L 60.121094 443.148438 C 59.851562 443.921875 59.703125 444.730469 59.6875 445.546875 C 59.6875 449.269531 62.703125 452.285156 66.425781 452.285156 C 67.347656 452.273438 68.257812 452.101562 69.121094 451.773438 L 206.550781 394.535156 C 208.582031 393.679688 210.054688 391.875 210.480469 389.710938 C 210.90625 387.550781 210.230469 385.320312 208.679688 383.757812 L 198.65625 373.734375 C 229.714844 358.800781 262.367188 347.445312 295.988281 339.886719 C 295.988281 338.296875 295.585938 337.03125 295.585938 335.414062 C 295.691406 332.183594 295.96875 328.964844 296.421875 325.765625 C 258.542969 333.019531 221.804688 345.300781 187.175781 362.28125 Z M 187.175781 362.28125 "/>
</g>
</svg>
