<?xml version="1.0" encoding="UTF-8"?>
<svg xmlns="http://www.w3.org/2000/svg" xmlns:xlink="http://www.w3.org/1999/xlink" width="512px" height="512px" viewBox="0 0 512 512" version="1.1">
<g id="surface1">
<path style=" stroke:none;fill-rule:nonzero;fill:rgb(100%,100%,100%);fill-opacity:1;" d="M 431.15625 215.578125 L 431.15625 363.789062 C 431.15625 371.230469 425.125 377.261719 417.683594 377.261719 C 410.242188 377.261719 404.210938 371.230469 404.210938 363.789062 L 404.210938 309.894531 C 404.210938 287.570312 386.113281 269.472656 363.789062 269.472656 L 323.367188 269.472656 L 323.367188 107.789062 C 323.367188 92.90625 311.304688 80.84375 296.421875 80.84375 L 134.738281 80.84375 C 119.855469 80.84375 107.789062 92.90625 107.789062 107.789062 L 107.789062 404.210938 C 107.789062 419.09375 119.855469 431.15625 134.738281 431.15625 L 296.421875 431.15625 C 311.304688 431.15625 323.367188 419.09375 323.367188 404.210938 L 323.367188 296.421875 L 363.789062 296.421875 C 371.230469 296.421875 377.261719 302.453125 377.261719 309.894531 L 377.261719 363.789062 C 377.261719 386.113281 395.359375 404.210938 417.683594 404.210938 C 440.007812 404.210938 458.105469 386.113281 458.105469 363.789062 L 458.105469 188.632812 C 458.105469 173.75 446.039062 161.683594 431.15625 161.683594 L 431.15625 120.992188 C 431.011719 113.660156 425.023438 107.785156 417.683594 107.789062 C 410.097656 107.917969 404.042969 114.167969 404.171875 121.757812 C 404.175781 122.042969 404.1875 122.328125 404.210938 122.609375 L 404.210938 188.632812 C 404.210938 203.515625 416.273438 215.578125 431.15625 215.578125 C 446.039062 215.578125 458.105469 203.515625 458.105469 188.632812 C 458.105469 173.75 446.039062 161.683594 431.15625 161.683594 Z M 296.421875 229.050781 C 296.421875 236.492188 290.386719 242.527344 282.949219 242.527344 L 148.210938 242.527344 C 140.769531 242.527344 134.738281 236.492188 134.738281 229.050781 L 134.738281 148.210938 C 134.738281 140.769531 140.769531 134.738281 148.210938 134.738281 L 282.949219 134.738281 C 290.386719 134.738281 296.421875 140.769531 296.421875 148.210938 Z M 296.421875 229.050781 "/>
</g>
</svg>
