<?xml version="1.0" encoding="UTF-8"?>
<svg xmlns="http://www.w3.org/2000/svg" xmlns:xlink="http://www.w3.org/1999/xlink" width="512px" height="512px" viewBox="0 0 512 512" version="1.1">
<g id="surface1">
<path style=" stroke:none;fill-rule:nonzero;fill:rgb(100%,100%,100%);fill-opacity:1;" d="M 288.09375 327.195312 L 288.09375 282.949219 C 288.09375 279.375 286.675781 275.945312 284.148438 273.421875 C 281.621094 270.894531 278.195312 269.472656 274.621094 269.472656 L 247.671875 269.472656 C 244.097656 269.472656 240.671875 270.894531 238.144531 273.421875 C 235.617188 275.945312 234.199219 279.375 234.199219 282.949219 L 234.199219 327.167969 C 213.722656 332.410156 195.246094 343.566406 181.074219 359.25 C 166.902344 374.929688 157.664062 394.4375 154.515625 415.339844 C 154.207031 417.289062 154.328125 419.28125 154.863281 421.179688 C 155.398438 423.078125 156.335938 424.835938 157.617188 426.335938 C 158.898438 427.839844 160.488281 429.042969 162.277344 429.871094 C 164.070312 430.695312 166.015625 431.128906 167.988281 431.132812 L 354.519531 431.132812 C 356.492188 431.128906 358.441406 430.695312 360.230469 429.871094 C 362.023438 429.042969 363.613281 427.839844 364.890625 426.335938 C 366.171875 424.835938 367.113281 423.078125 367.644531 421.179688 C 368.183594 419.28125 368.300781 417.289062 367.992188 415.339844 C 364.824219 394.414062 355.554688 374.890625 341.34375 359.214844 C 327.128906 343.53125 308.605469 332.394531 288.09375 327.195312 Z M 413.101562 223.097656 L 345.734375 88.359375 C 344.625 86.109375 342.910156 84.214844 340.78125 82.886719 C 338.652344 81.558594 336.199219 80.851562 333.6875 80.84375 L 188.605469 80.84375 C 186.109375 80.847656 183.664062 81.546875 181.542969 82.859375 C 179.417969 84.171875 177.703125 86.046875 176.585938 88.28125 L 109.21875 223.015625 C 108.191406 225.0625 107.703125 227.339844 107.800781 229.628906 C 107.898438 231.917969 108.578125 234.144531 109.777344 236.097656 C 110.976562 238.050781 112.652344 239.664062 114.644531 240.789062 C 116.640625 241.914062 118.890625 242.511719 121.183594 242.527344 L 341.988281 242.527344 L 341.988281 282.949219 C 341.988281 286.519531 343.410156 289.949219 345.933594 292.476562 C 348.460938 295 351.890625 296.421875 355.460938 296.421875 C 359.035156 296.421875 362.464844 295 364.988281 292.476562 C 367.515625 289.949219 368.9375 286.519531 368.9375 282.949219 L 368.9375 242.527344 L 401.113281 242.527344 C 403.394531 242.511719 405.632812 241.914062 407.621094 240.796875 C 409.609375 239.675781 411.285156 238.070312 412.484375 236.128906 C 413.679688 234.1875 414.367188 231.972656 414.476562 229.695312 C 414.582031 227.414062 414.109375 225.144531 413.101562 223.097656 Z M 413.101562 223.097656 "/>
</g>
</svg>
