<?xml version="1.0" encoding="UTF-8"?>
<svg xmlns="http://www.w3.org/2000/svg" xmlns:xlink="http://www.w3.org/1999/xlink" width="512px" height="512px" viewBox="0 0 512 512" version="1.1">
<g id="surface1">
<path style=" stroke:none;fill-rule:nonzero;fill:rgb(100%,100%,100%);fill-opacity:1;" d="M 406.90625 363.789062 C 390.738281 371.875 369.179688 366.484375 358.398438 350.316406 L 328.757812 312.589844 L 183.242188 312.589844 L 153.597656 350.316406 C 140.125 369.179688 115.875 371.875 97.011719 358.398438 C 83.535156 347.621094 78.148438 331.453125 80.839844 317.980469 L 99.703125 218.273438 C 105.09375 185.9375 134.734375 161.683594 167.074219 161.683594 L 242.527344 161.683594 L 242.527344 121.261719 C 242.527344 99.707031 258.695312 80.84375 280.253906 80.84375 L 363.789062 80.84375 C 371.875 80.84375 377.261719 86.230469 377.261719 94.316406 C 377.261719 102.398438 371.875 107.789062 363.789062 107.789062 L 282.945312 107.789062 C 274.863281 107.789062 269.472656 113.179688 269.472656 118.570312 L 269.472656 161.683594 L 344.925781 161.683594 C 377.261719 161.683594 406.90625 185.9375 412.292969 218.273438 L 431.15625 317.980469 C 433.851562 336.84375 425.769531 355.707031 406.90625 363.789062 Z M 215.578125 229.050781 C 215.578125 207.496094 196.714844 188.632812 175.15625 188.632812 C 153.597656 188.632812 134.734375 207.496094 134.734375 229.050781 C 134.734375 250.609375 153.597656 269.472656 175.15625 269.472656 C 196.714844 269.472656 215.578125 250.609375 215.578125 229.050781 Z M 377.261719 229.050781 C 377.261719 220.96875 371.875 215.578125 363.789062 215.578125 L 350.316406 215.578125 L 350.316406 202.105469 C 350.316406 194.019531 344.925781 188.632812 336.84375 188.632812 C 328.757812 188.632812 323.367188 194.019531 323.367188 202.105469 L 323.367188 215.578125 L 309.894531 215.578125 C 301.808594 215.578125 296.421875 220.96875 296.421875 229.050781 C 296.421875 237.136719 301.808594 242.527344 309.894531 242.527344 L 323.367188 242.527344 L 323.367188 256 C 323.367188 264.085938 328.757812 269.472656 336.84375 269.472656 C 344.925781 269.472656 350.316406 264.085938 350.316406 256 L 350.316406 242.527344 L 363.789062 242.527344 C 371.875 242.527344 377.261719 237.136719 377.261719 229.050781 Z M 377.261719 229.050781 "/>
</g>
</svg>
