<?xml version="1.0" encoding="UTF-8"?>
<svg xmlns="http://www.w3.org/2000/svg" xmlns:xlink="http://www.w3.org/1999/xlink" width="512px" height="512px" viewBox="0 0 512 512" version="1.1">
<g id="surface1">
<path style=" stroke:none;fill-rule:nonzero;fill:rgb(100%,100%,100%);fill-opacity:1;" d="M 161.683594 188.632812 L 161.683594 175.15625 C 161.683594 137.96875 191.867188 107.789062 229.050781 107.789062 C 266.238281 107.789062 296.421875 137.96875 296.421875 175.15625 L 296.421875 331.265625 L 360.152344 267.535156 L 350.800781 232.636719 C 350.800781 232.582031 350.773438 232.527344 350.773438 232.476562 L 350.746094 232.476562 C 349.589844 228 350.746094 223.015625 354.277344 219.511719 C 359.53125 214.257812 368.074219 214.257812 373.328125 219.511719 L 427.222656 273.40625 C 432.476562 278.664062 432.476562 287.203125 427.222656 292.460938 C 423.71875 295.964844 418.789062 297.148438 414.316406 295.988281 C 414.234375 295.964844 414.152344 295.9375 414.046875 295.910156 L 379.203125 286.585938 L 296.421875 369.367188 L 296.421875 377.261719 C 296.421875 392.136719 284.347656 404.210938 269.472656 404.210938 L 188.632812 404.210938 C 173.757812 404.210938 161.683594 392.136719 161.683594 377.261719 L 161.683594 364.757812 L 100.566406 303.644531 C 74.292969 277.34375 74.292969 234.65625 100.566406 208.355469 C 113.71875 195.207031 130.964844 188.632812 148.210938 188.632812 Z M 161.683594 215.578125 L 148.210938 215.578125 C 137.863281 215.578125 127.515625 219.539062 119.621094 227.410156 C 103.855469 243.199219 103.855469 268.800781 119.621094 284.589844 L 161.683594 326.628906 Z M 269.472656 188.632812 L 269.472656 175.15625 C 269.472656 152.84375 251.363281 134.738281 229.050781 134.738281 C 206.738281 134.738281 188.632812 152.84375 188.632812 175.15625 L 188.632812 188.632812 Z M 269.472656 188.632812 "/>
</g>
</svg>
