<?xml version="1.0" encoding="UTF-8"?>
<svg xmlns="http://www.w3.org/2000/svg" xmlns:xlink="http://www.w3.org/1999/xlink" width="512px" height="512px" viewBox="0 0 512 512" version="1.1">
<g id="surface1">
<path style=" stroke:none;fill-rule:nonzero;fill:rgb(100%,100%,100%);fill-opacity:1;" d="M 404.210938 269.472656 C 404.210938 358.667969 345.195312 431.15625 256 431.15625 C 166.804688 431.15625 107.789062 358.667969 107.789062 269.472656 C 168.804688 269.988281 222.839844 308.996094 242.527344 366.753906 L 242.527344 242.527344 L 175.15625 242.527344 C 152.835938 242.527344 134.738281 224.429688 134.738281 202.105469 L 134.738281 121.261719 C 134.738281 113.824219 140.769531 107.789062 148.210938 107.789062 C 152.453125 107.789062 156.445312 109.785156 158.988281 113.179688 L 200.21875 167.074219 L 244.683594 86.230469 C 248.71875 79.980469 257.058594 78.1875 263.3125 82.222656 C 264.914062 83.261719 266.28125 84.625 267.316406 86.230469 L 311.78125 167.074219 L 353.011719 113.179688 C 357.476562 107.226562 365.921875 106.019531 371.875 110.484375 C 375.265625 113.027344 377.261719 117.023438 377.261719 121.261719 L 377.261719 202.105469 C 377.261719 224.429688 359.164062 242.527344 336.84375 242.527344 L 269.472656 242.527344 L 269.472656 366.753906 C 289.160156 308.996094 343.195312 269.988281 404.210938 269.472656 Z M 404.210938 269.472656 "/>
</g>
</svg>
