<?xml version="1.0" encoding="UTF-8"?>
<svg xmlns="http://www.w3.org/2000/svg" xmlns:xlink="http://www.w3.org/1999/xlink" width="512px" height="512px" viewBox="0 0 512 512" version="1.1">
<g id="surface1">
<path style=" stroke:none;fill-rule:nonzero;fill:rgb(100%,100%,100%);fill-opacity:1;" d="M 80.84375 128 C 80.84375 116.839844 89.890625 107.789062 101.050781 107.789062 L 131.070312 107.789062 C 133.496094 107.789062 135.921875 108.21875 138.160156 109.082031 L 229.402344 143.304688 C 237.292969 146.261719 242.523438 153.796875 242.527344 162.222656 L 242.527344 322.828125 C 242.523438 331.253906 237.292969 338.792969 229.402344 341.746094 L 134.738281 377.261719 L 134.738281 384 C 134.738281 395.160156 125.6875 404.210938 114.527344 404.210938 L 101.050781 404.210938 C 89.890625 404.210938 80.84375 395.160156 80.84375 384 Z M 161.683594 282.570312 L 161.683594 151.335938 C 161.683594 148.53125 159.945312 146.019531 157.320312 145.03125 L 143.84375 139.992188 C 141.777344 139.214844 139.457031 139.5 137.640625 140.757812 C 135.820312 142.015625 134.738281 144.085938 134.738281 146.296875 L 134.738281 287.070312 C 134.738281 291.652344 139.238281 294.910156 143.628906 293.457031 L 157.101562 288.984375 C 159.851562 288.054688 161.699219 285.472656 161.683594 282.570312 Z M 188.632812 166.535156 L 188.632812 269.125 C 188.621094 271.300781 189.664062 273.34375 191.425781 274.617188 C 193.191406 275.890625 195.464844 276.234375 197.523438 275.535156 L 210.996094 271.035156 C 213.746094 270.109375 215.59375 267.523438 215.578125 264.625 L 215.578125 171.546875 C 215.578125 168.742188 213.839844 166.230469 211.214844 165.242188 L 197.738281 160.203125 C 195.671875 159.425781 193.351562 159.710938 191.535156 160.96875 C 189.714844 162.226562 188.632812 164.296875 188.632812 166.507812 Z M 431.15625 128 C 431.15625 116.839844 422.109375 107.789062 410.949219 107.789062 L 380.929688 107.789062 C 378.507812 107.792969 376.105469 108.230469 373.839844 109.082031 L 282.597656 143.304688 C 274.707031 146.261719 269.476562 153.796875 269.472656 162.222656 L 269.472656 322.828125 C 269.476562 331.253906 274.707031 338.792969 282.597656 341.746094 L 377.261719 377.261719 L 377.261719 384 C 377.261719 395.15625 386.316406 404.210938 397.472656 404.210938 L 410.949219 404.210938 C 422.109375 404.210938 431.15625 395.160156 431.15625 384 Z M 354.898438 288.984375 C 352.148438 288.054688 350.300781 285.472656 350.316406 282.570312 L 350.316406 151.335938 C 350.316406 148.53125 352.054688 146.019531 354.679688 145.03125 L 368.15625 139.992188 C 370.222656 139.214844 372.542969 139.5 374.359375 140.757812 C 376.179688 142.015625 377.261719 144.085938 377.261719 146.296875 L 377.261719 287.070312 C 377.265625 289.242188 376.21875 291.28125 374.457031 292.546875 C 372.691406 293.8125 370.425781 294.152344 368.371094 293.457031 Z M 323.367188 166.507812 L 323.367188 269.097656 C 323.378906 271.273438 322.335938 273.320312 320.574219 274.589844 C 318.808594 275.863281 316.535156 276.207031 314.476562 275.511719 L 301.003906 271.007812 C 298.261719 270.085938 296.417969 267.515625 296.421875 264.625 L 296.421875 171.546875 C 296.421875 168.742188 298.160156 166.230469 300.785156 165.242188 L 314.261719 160.203125 C 316.328125 159.425781 318.648438 159.710938 320.464844 160.96875 C 322.285156 162.226562 323.367188 164.296875 323.367188 166.507812 Z M 323.367188 166.507812 "/>
</g>
</svg>
