<?xml version="1.0" encoding="UTF-8"?>
<svg xmlns="http://www.w3.org/2000/svg" xmlns:xlink="http://www.w3.org/1999/xlink" width="512px" height="512px" viewBox="0 0 512 512" version="1.1">
<g id="surface1">
<path style=" stroke:none;fill-rule:nonzero;fill:rgb(100%,100%,100%);fill-opacity:1;" d="M 336.84375 80.882812 C 299.027344 79.6875 265.441406 104.878906 256 141.515625 C 246.558594 104.878906 212.972656 79.6875 175.15625 80.882812 C 128.480469 79.414062 114.125 129.277344 129.839844 161.683594 L 94.316406 161.683594 C 86.875 161.683594 80.84375 167.714844 80.84375 175.15625 L 80.84375 202.105469 C 80.84375 209.546875 86.875 215.578125 94.316406 215.578125 L 417.683594 215.578125 C 425.125 215.578125 431.15625 209.546875 431.15625 202.105469 L 431.15625 175.15625 C 431.15625 167.714844 425.125 161.683594 417.683594 161.683594 L 382.484375 161.683594 C 398.820312 129.757812 385.136719 80.878906 337.929688 80.871094 C 337.566406 80.871094 337.207031 80.875 336.84375 80.882812 Z M 341.777344 161.683594 L 282.949219 161.683594 C 282.96875 131.9375 307.089844 107.832031 336.84375 107.832031 C 368.503906 107.832031 374.101562 158.292969 341.777344 161.683594 Z M 229.050781 161.683594 L 169.550781 161.683594 C 141.65625 158.519531 140.011719 110.632812 170.640625 107.832031 C 172.140625 107.691406 173.652344 107.691406 175.15625 107.832031 C 204.910156 107.832031 229.03125 131.9375 229.050781 161.683594 Z M 107.789062 242.566406 L 107.789062 363.828125 C 107.789062 386.152344 125.886719 404.25 148.210938 404.25 L 229.050781 404.25 L 229.050781 242.566406 Z M 282.949219 242.566406 L 282.949219 404.25 L 363.789062 404.25 C 386.113281 404.25 404.210938 386.152344 404.210938 363.828125 L 404.210938 242.566406 Z M 282.949219 242.566406 "/>
</g>
</svg>
