<?xml version="1.0" encoding="UTF-8"?>
<svg xmlns="http://www.w3.org/2000/svg" xmlns:xlink="http://www.w3.org/1999/xlink" width="512px" height="512px" viewBox="0 0 512 512" version="1.1">
<g id="surface1">
<path style=" stroke:none;fill-rule:nonzero;fill:rgb(100%,100%,100%);fill-opacity:1;" d="M 376.75 309.382812 L 357.320312 289.953125 C 324.542969 328.285156 273.039062 344.996094 224.003906 333.210938 C 174.964844 321.429688 136.675781 283.140625 124.894531 234.101562 C 113.109375 185.066406 129.820312 133.5625 168.152344 100.78125 L 148.722656 81.355469 C 100.308594 124.226562 82.148438 191.855469 102.578125 253.210938 C 123.003906 314.570312 178.074219 357.816406 242.527344 363.117188 L 242.527344 404.210938 L 229.050781 404.210938 C 221.609375 404.210938 215.578125 410.242188 215.578125 417.683594 C 215.578125 425.125 221.609375 431.15625 229.050781 431.15625 L 282.949219 431.15625 C 290.390625 431.15625 296.421875 425.125 296.421875 417.683594 C 296.421875 410.242188 290.390625 404.210938 282.949219 404.210938 L 269.472656 404.210938 L 269.472656 363.0625 C 310.804688 359.632812 349.226562 340.40625 376.75 309.382812 Z M 256 296.421875 C 308.089844 296.421875 350.316406 254.195312 350.316406 202.105469 C 350.316406 150.015625 308.089844 107.789062 256 107.789062 C 203.910156 107.789062 161.683594 150.015625 161.683594 202.105469 C 161.683594 254.195312 203.910156 296.421875 256 296.421875 Z M 282.949219 161.683594 L 292.757812 145.730469 C 302.039062 151.859375 309.65625 160.191406 314.933594 169.984375 L 309.894531 188.632812 L 282.949219 188.632812 Z M 233.257812 138.941406 L 256 161.683594 L 256 188.632812 L 269.472656 215.578125 L 321.75 215.578125 C 317.296875 237.605469 302.128906 255.949219 281.332031 264.460938 L 269.472656 242.527344 L 229.050781 242.527344 L 189.980469 188.632812 C 194.765625 165.660156 211.160156 146.835938 233.257812 138.941406 Z M 233.257812 138.941406 "/>
</g>
</svg>
