<?xml version="1.0" encoding="UTF-8"?>
<svg xmlns="http://www.w3.org/2000/svg" xmlns:xlink="http://www.w3.org/1999/xlink" width="512px" height="512px" viewBox="0 0 512 512" version="1.1">
<g id="surface1">
<path style=" stroke:none;fill-rule:nonzero;fill:rgb(100%,100%,100%);fill-opacity:1;" d="M 145.511719 83.535156 C 145.511719 86.230469 145.511719 88.925781 145.511719 88.925781 C 145.511719 99.707031 153.597656 107.789062 164.375 107.789062 C 172.460938 107.789062 177.851562 102.398438 180.542969 94.316406 L 185.9375 80.84375 L 336.84375 142.820312 L 231.746094 215.578125 C 220.96875 223.664062 220.96875 234.441406 223.664062 245.222656 L 247.914062 301.808594 L 212.882812 406.90625 C 207.496094 420.378906 218.273438 431.15625 229.050781 431.15625 C 237.136719 431.15625 242.527344 428.464844 245.222656 417.683594 L 282.949219 309.894531 L 285.640625 317.980469 L 285.640625 412.292969 C 285.640625 412.292969 285.640625 431.15625 304.503906 431.15625 C 323.367188 431.15625 323.367188 412.292969 323.367188 412.292969 L 323.367188 323.367188 C 323.367188 317.980469 323.367188 315.285156 320.671875 309.894531 L 282.949219 218.273438 L 355.707031 167.074219 C 361.09375 161.683594 366.484375 158.988281 366.484375 150.90625 C 366.484375 142.820312 361.09375 137.429688 355.707031 134.738281 L 161.683594 56.589844 C 159.316406 56.589844 158.503906 57.070312 156.292969 59.285156 Z M 202.105469 134.738281 C 180.546875 134.738281 161.683594 153.601562 161.683594 175.15625 C 161.683594 196.714844 180.546875 215.578125 202.105469 215.578125 C 223.664062 215.578125 242.527344 196.714844 242.527344 175.15625 C 242.527344 153.601562 223.660156 134.738281 202.105469 134.738281 Z M 202.105469 134.738281 "/>
</g>
</svg>
