<?xml version="1.0" encoding="UTF-8"?>
<svg xmlns="http://www.w3.org/2000/svg" xmlns:xlink="http://www.w3.org/1999/xlink" width="512px" height="512px" viewBox="0 0 512 512" version="1.1">
<g id="surface1">
<path style=" stroke:none;fill-rule:nonzero;fill:rgb(100%,100%,100%);fill-opacity:1;" d="M 409.578125 94.316406 C 409.578125 94.316406 372.109375 93.207031 357.15625 107.789062 C 342.78125 121.808594 336.84375 132.519531 336.84375 161.683594 L 86.210938 161.683594 L 123.789062 291.421875 C 123.882812 291.617188 124.054688 291.804688 124.15625 292 C 130.472656 309.710938 146.984375 322.46875 166.683594 323.210938 C 166.765625 323.246094 167.050781 323.367188 167.050781 323.367188 L 342.210938 323.367188 L 342.210938 328.738281 C 342.210938 328.738281 342.230469 336.851562 336.84375 347.632812 C 331.453125 358.410156 328.769531 363.789062 307.210938 363.789062 L 132.050781 363.789062 C 105.105469 363.789062 105.105469 404.210938 132.050781 404.210938 L 304.527344 404.210938 C 336.863281 404.210938 361.074219 385.335938 369.15625 366.472656 C 377.242188 347.609375 377.261719 331.472656 377.261719 331.472656 L 377.261719 161.683594 C 377.261719 147.574219 383.425781 134.738281 396.105469 134.738281 L 410.949219 134.738281 C 422.109375 134.738281 431.15625 125.6875 431.15625 114.527344 C 431.15625 103.363281 422.109375 94.316406 410.949219 94.316406 Z M 301.789062 404.210938 C 285.621094 404.210938 274.84375 414.988281 274.84375 431.15625 C 274.84375 447.328125 285.621094 458.105469 301.789062 458.105469 C 317.957031 458.105469 328.738281 447.328125 328.738281 431.15625 C 328.738281 414.988281 317.957031 404.210938 301.789062 404.210938 Z M 167.050781 404.210938 C 150.882812 404.210938 140.105469 414.988281 140.105469 431.15625 C 140.105469 447.328125 150.882812 458.105469 167.050781 458.105469 C 183.222656 458.105469 194 447.328125 194 431.15625 C 194 414.988281 183.222656 404.210938 167.050781 404.210938 Z M 167.050781 404.210938 "/>
</g>
</svg>
