<?xml version="1.0" encoding="UTF-8"?>
<svg xmlns="http://www.w3.org/2000/svg" xmlns:xlink="http://www.w3.org/1999/xlink" width="512px" height="512px" viewBox="0 0 512 512" version="1.1">
<g id="surface1">
<path style=" stroke:none;fill-rule:nonzero;fill:rgb(100%,100%,100%);fill-opacity:1;" d="M 458.105469 134.738281 C 458.105469 134.738281 404.210938 118.570312 363.789062 148.210938 L 247.914062 229.050781 C 226.359375 212.882812 194.019531 194.019531 161.683594 183.242188 L 161.683594 161.683594 C 161.683594 132.042969 137.429688 107.789062 107.789062 107.789062 C 78.148438 107.789062 53.894531 132.042969 53.894531 161.683594 L 53.894531 202.105469 C 53.894531 215.578125 67.367188 215.578125 67.367188 215.578125 L 121.261719 215.578125 C 175.15625 215.578125 215.578125 256 215.578125 256 C 215.578125 256 175.15625 296.421875 121.261719 296.421875 L 67.367188 296.421875 C 67.367188 296.421875 53.894531 296.421875 53.894531 309.894531 L 53.894531 350.316406 C 53.894531 379.957031 78.148438 404.210938 107.789062 404.210938 C 137.429688 404.210938 161.683594 379.957031 161.683594 350.316406 L 161.683594 328.757812 C 194.019531 317.980469 226.359375 299.117188 247.914062 282.949219 L 363.789062 363.789062 C 404.210938 393.429688 458.105469 377.261719 458.105469 377.261719 L 282.949219 256 Z M 134.738281 188.632812 L 80.84375 188.632812 L 80.84375 161.683594 C 80.84375 145.515625 91.621094 134.738281 107.789062 134.738281 C 123.957031 134.738281 134.738281 145.515625 134.738281 161.683594 Z M 134.738281 350.316406 C 134.738281 366.484375 123.957031 377.261719 107.789062 377.261719 C 91.621094 377.261719 80.84375 366.484375 80.84375 350.316406 L 80.84375 323.367188 L 134.738281 323.367188 Z M 249.261719 269.472656 C 241.824219 269.472656 235.789062 263.441406 235.789062 256 C 235.789062 248.558594 241.824219 242.527344 249.261719 242.527344 C 256.703125 242.527344 262.738281 248.558594 262.738281 256 C 262.738281 263.441406 256.703125 269.472656 249.261719 269.472656 Z M 249.261719 269.472656 "/>
</g>
</svg>
