<?xml version="1.0" encoding="UTF-8"?>
<svg xmlns="http://www.w3.org/2000/svg" xmlns:xlink="http://www.w3.org/1999/xlink" width="512px" height="512px" viewBox="0 0 512 512" version="1.1">
<g id="surface1">
<path style=" stroke:none;fill-rule:nonzero;fill:rgb(100%,100%,100%);fill-opacity:1;" d="M 256 53.894531 C 202.105469 53.894531 161.683594 96.121094 161.683594 148.210938 C 161.75 190.328125 189.703125 226.410156 229.050781 238.15625 L 229.050781 400.894531 C 203.976562 396.457031 178.511719 386.085938 157.683594 366.6875 C 129.324219 340.273438 107.84375 298.242188 107.84375 229 C 108.050781 213.785156 95.632812 201.414062 80.421875 201.683594 C 65.558594 201.917969 53.691406 214.136719 53.894531 229 C 53.894531 309.917969 81.164062 369.003906 121 406.105469 C 160.835938 443.207031 211.210938 458.105469 256 458.105469 C 300.882812 458.105469 351.257812 443.027344 391.050781 405.839844 C 430.84375 368.65625 458.050781 309.539062 458.050781 229 C 459.796875 191.398438 402.464844 191.398438 404.210938 229 C 404.210938 297.796875 382.660156 339.882812 354.261719 366.417969 C 333.421875 385.894531 307.976562 396.351562 282.949219 400.84375 L 282.949219 238.261719 C 322.308594 226.515625 350.277344 190.363281 350.316406 148.210938 C 350.316406 96.121094 309.894531 53.894531 256 53.894531 Z M 256 107.789062 C 278.324219 107.789062 296.421875 125.886719 296.421875 148.210938 C 296.421875 170.535156 278.324219 188.632812 256 188.632812 C 233.675781 188.632812 215.578125 170.535156 215.578125 148.210938 C 215.578125 125.886719 233.675781 107.789062 256 107.789062 Z M 256 107.789062 "/>
</g>
</svg>
