<?xml version="1.0" encoding="UTF-8"?>
<svg xmlns="http://www.w3.org/2000/svg" xmlns:xlink="http://www.w3.org/1999/xlink" width="512px" height="512px" viewBox="0 0 512 512" version="1.1">
<g id="surface1">
<path style=" stroke:none;fill-rule:nonzero;fill:rgb(100%,100%,100%);fill-opacity:1;" d="M 425.550781 141.792969 C 425.550781 141.792969 380.386719 186.929688 368.519531 198.945312 C 366.230469 201.265625 363.972656 202.003906 360.921875 201.535156 C 356.929688 200.925781 352.90625 200.511719 348.898438 200.03125 C 337.925781 198.722656 326.949219 197.425781 315.773438 196.101562 C 313.910156 180.148438 312.015625 164.511719 310.371094 148.847656 C 310.21875 147.371094 311.265625 145.363281 312.386719 144.226562 C 326.050781 130.394531 364.289062 92.253906 369.894531 86.667969 C 357.746094 80.929688 336.902344 78.671875 321.367188 81.195312 C 262.621094 90.742188 226.75 149.480469 245.359375 205.828125 C 246.386719 208.921875 245.742188 210.730469 243.535156 212.9375 C 193.726562 262.613281 143.996094 312.359375 94.261719 362.101562 C 92.601562 363.761719 90.945312 365.445312 89.46875 367.257812 C 75.28125 384.699219 79.03125 411.085938 97.480469 423.902344 C 113.769531 435.210938 134.285156 433.175781 148.824219 418.652344 C 198.769531 368.746094 248.6875 318.820312 298.542969 268.828125 C 301.019531 266.347656 302.988281 265.5 306.605469 266.734375 C 323.28125 272.417969 340.351562 273.078125 357.492188 269.117188 C 409.730469 257.046875 441.707031 205.164062 429.035156 153.148438 C 428.179688 149.644531 426.925781 146.171875 425.550781 141.792969 Z M 425.550781 141.792969 "/>
</g>
</svg>
