<?xml version="1.0" encoding="UTF-8"?>
<svg xmlns="http://www.w3.org/2000/svg" xmlns:xlink="http://www.w3.org/1999/xlink" width="512px" height="512px" viewBox="0 0 512 512" version="1.1">
<g id="surface1">
<path style=" stroke:none;fill-rule:nonzero;fill:rgb(100%,100%,100%);fill-opacity:1;" d="M 161.683594 107.789062 C 134.738281 107.789062 134.738281 134.738281 161.683594 134.738281 L 269.472656 134.738281 L 269.472656 161.683594 C 262.007812 161.683594 256 167.695312 256 175.15625 L 256 188.632812 L 159.839844 188.632812 C 153.710938 164.921875 132.371094 148.238281 107.789062 148.210938 C 78.023438 148.210938 53.894531 172.339844 53.894531 202.105469 C 53.894531 231.871094 78.023438 256 107.789062 256 C 117.820312 255.972656 127.644531 253.148438 136.15625 247.84375 L 202.105469 336.84375 C 229.253906 375.929688 278.046875 377.261719 296.421875 377.261719 L 431.15625 377.261719 C 431.15625 377.261719 458.105469 377.261719 458.105469 350.316406 L 458.105469 323.527344 C 458.105469 303.789062 454.710938 293.027344 444.632812 282.949219 L 363.789062 202.105469 C 363.789062 202.105469 347.847656 188.632812 329.476562 188.632812 L 309.894531 188.632812 L 309.894531 175.15625 C 309.894531 167.695312 303.886719 161.683594 296.421875 161.683594 L 296.421875 134.738281 L 404.210938 134.738281 C 431.15625 134.738281 431.15625 107.789062 404.210938 107.789062 C 404.210938 107.789062 161.683594 107.789062 161.683594 107.789062 Z M 107.789062 175.15625 C 122.671875 175.15625 134.738281 187.222656 134.738281 202.105469 C 134.738281 216.988281 122.671875 229.050781 107.789062 229.050781 C 92.90625 229.050781 80.84375 216.988281 80.84375 202.105469 C 80.84375 187.222656 92.90625 175.15625 107.789062 175.15625 Z M 323.367188 215.578125 C 336.84375 215.578125 344.644531 224.285156 350.316406 229.050781 L 417.683594 296.421875 L 323.367188 296.421875 C 323.367188 296.421875 296.421875 296.421875 296.421875 269.472656 L 296.421875 242.527344 C 296.421875 242.527344 296.421875 215.578125 323.367188 215.578125 Z M 323.367188 215.578125 "/>
</g>
</svg>
