<?xml version="1.0" encoding="UTF-8"?>
<svg xmlns="http://www.w3.org/2000/svg" xmlns:xlink="http://www.w3.org/1999/xlink" width="512px" height="512px" viewBox="0 0 512 512" version="1.1">
<g id="surface1">
<path style=" stroke:none;fill-rule:nonzero;fill:rgb(100%,100%,100%);fill-opacity:1;" d="M 417.683594 404.210938 L 336.84375 404.210938 L 336.84375 296.421875 L 417.683594 296.421875 C 422.710938 296.417969 427.316406 293.621094 429.632812 289.164062 C 431.953125 284.703125 431.597656 279.324219 428.710938 275.210938 L 368.101562 188.632812 L 390.738281 188.632812 C 395.960938 188.628906 400.714844 185.601562 402.929688 180.871094 C 405.144531 176.136719 404.421875 170.550781 401.078125 166.535156 L 333.710938 85.691406 C 331.074219 82.753906 327.316406 81.074219 323.367188 81.074219 C 319.421875 81.074219 315.660156 82.753906 313.027344 85.691406 L 245.65625 166.535156 C 242.3125 170.550781 241.59375 176.136719 243.808594 180.871094 C 246.023438 185.601562 250.773438 188.628906 256 188.632812 L 278.636719 188.632812 L 218.027344 275.210938 C 215.140625 279.324219 214.785156 284.703125 217.101562 289.164062 C 219.421875 293.621094 224.027344 296.417969 229.050781 296.421875 L 309.894531 296.421875 L 309.894531 404.210938 L 161.683594 404.210938 L 161.683594 350.316406 L 202.105469 350.316406 C 209.546875 350.316406 215.578125 344.285156 215.578125 336.84375 C 215.578125 329.402344 209.546875 323.367188 202.105469 323.367188 L 94.316406 323.367188 C 86.875 323.367188 80.84375 329.402344 80.84375 336.84375 C 80.84375 344.285156 86.875 350.316406 94.316406 350.316406 L 134.738281 350.316406 L 134.738281 404.210938 L 94.316406 404.210938 C 86.875 404.210938 80.84375 410.242188 80.84375 417.683594 C 80.84375 425.125 86.875 431.15625 94.316406 431.15625 L 417.683594 431.15625 C 425.125 431.15625 431.15625 425.125 431.15625 417.683594 C 431.15625 410.242188 425.125 404.210938 417.683594 404.210938 Z M 417.683594 404.210938 "/>
</g>
</svg>
