<?xml version="1.0" encoding="UTF-8"?>
<svg xmlns="http://www.w3.org/2000/svg" xmlns:xlink="http://www.w3.org/1999/xlink" width="512px" height="512px" viewBox="0 0 512 512" version="1.1">
<g id="surface1">
<path style=" stroke:none;fill-rule:nonzero;fill:rgb(100%,100%,100%);fill-opacity:1;" d="M 256 80.84375 C 229.050781 80.84375 229.050781 107.789062 202.105469 107.789062 L 107.789062 107.789062 C 93.113281 107.789062 80.84375 120.058594 80.84375 134.738281 L 80.84375 323.367188 C 80.84375 338.046875 93.113281 350.316406 107.789062 350.316406 L 242.527344 350.316406 L 242.527344 417.683594 C 242.527344 417.683594 242.527344 431.15625 256 431.15625 C 269.472656 431.15625 269.472656 417.683594 269.472656 417.683594 L 269.472656 350.316406 L 404.210938 350.316406 C 418.890625 350.316406 431.15625 338.046875 431.15625 323.367188 L 431.15625 134.738281 C 431.15625 120.058594 418.890625 107.789062 404.210938 107.789062 L 309.894531 107.789062 C 282.949219 107.789062 282.949219 80.84375 256 80.84375 Z M 134.738281 188.632812 L 134.738281 161.683594 L 377.261719 161.683594 L 377.261719 188.632812 Z M 134.738281 215.578125 L 242.527344 215.578125 L 242.527344 242.527344 L 134.738281 242.527344 Z M 134.738281 269.472656 L 323.367188 269.472656 L 323.367188 296.421875 L 134.738281 296.421875 Z M 134.738281 269.472656 "/>
</g>
</svg>
