<?xml version="1.0" encoding="UTF-8"?>
<svg xmlns="http://www.w3.org/2000/svg" xmlns:xlink="http://www.w3.org/1999/xlink" width="512px" height="512px" viewBox="0 0 512 512" version="1.1">
<g id="surface1">
<path style=" stroke:none;fill-rule:nonzero;fill:rgb(100%,100%,100%);fill-opacity:1;" d="M 107.789062 424.363281 C 107.789062 428.082031 110.804688 431.097656 114.527344 431.097656 L 215.550781 431.097656 L 215.550781 350.257812 L 296.394531 350.257812 L 296.394531 431.097656 L 397.417969 431.097656 C 401.140625 431.097656 404.15625 428.082031 404.15625 424.363281 L 404.15625 269.4375 L 107.789062 269.4375 C 107.789062 269.4375 107.789062 424.363281 107.789062 424.363281 Z M 429.273438 231.148438 L 404.160156 209.082031 L 404.160156 107.789062 C 404.160156 92.90625 392.09375 80.84375 377.210938 80.84375 C 362.328125 80.84375 350.265625 92.90625 350.265625 107.789062 L 350.265625 161.683594 L 260.871094 83.265625 C 258.324219 80.566406 254.070312 80.433594 251.363281 82.972656 L 251.066406 83.265625 L 82.667969 230.480469 C 80.125 233.195312 80.265625 237.460938 82.980469 240.003906 C 84.203125 241.152344 85.8125 241.800781 87.492188 241.824219 L 134.738281 242.496094 L 424.335938 242.496094 C 428.054688 242.507812 431.082031 239.503906 431.09375 235.78125 C 431.101562 234.0625 430.449219 232.40625 429.273438 231.152344 Z M 429.273438 231.148438 "/>
</g>
</svg>
