<?xml version="1.0" encoding="UTF-8"?>
<svg xmlns="http://www.w3.org/2000/svg" xmlns:xlink="http://www.w3.org/1999/xlink" width="512px" height="512px" viewBox="0 0 512 512" version="1.1">
<g id="surface1">
<path style=" stroke:none;fill-rule:nonzero;fill:rgb(100%,100%,100%);fill-opacity:1;" d="M 215.578125 80.84375 C 215.578125 65.960938 227.644531 53.894531 242.527344 53.894531 C 257.410156 53.894531 269.472656 65.960938 269.472656 80.84375 C 269.472656 95.726562 257.410156 107.789062 242.527344 107.789062 C 227.644531 107.789062 215.578125 95.726562 215.578125 80.84375 Z M 269.472656 148.210938 C 269.503906 147.691406 269.503906 147.167969 269.472656 146.648438 C 269.039062 139.636719 263.007812 134.308594 256 134.738281 L 229.050781 134.738281 C 228.53125 134.707031 228.011719 134.707031 227.488281 134.738281 C 220.480469 135.171875 215.148438 141.203125 215.578125 148.210938 L 215.578125 242.527344 L 269.472656 242.527344 Z M 454.0625 246.40625 L 398.820312 183.242188 L 401.113281 169.527344 C 401.222656 168.964844 401.292969 168.398438 401.328125 167.828125 C 401.328125 164.109375 398.3125 161.089844 394.589844 161.089844 C 393.070312 161.238281 391.605469 161.757812 390.332031 162.601562 L 296.421875 242.527344 L 269.472656 242.527344 L 296.421875 269.472656 L 296.421875 309.894531 C 296.421875 317.335938 290.390625 323.367188 282.949219 323.367188 C 275.507812 323.367188 269.472656 317.335938 269.472656 309.894531 L 269.472656 282.949219 L 215.578125 242.527344 L 161.683594 242.527344 C 148.253906 242.53125 135.699219 249.203125 128.1875 260.339844 C 121.050781 249.464844 109.015625 242.804688 96.011719 242.527344 L 94.316406 242.527344 C 83.949219 242.15625 73.859375 245.925781 66.277344 253.003906 C 58.695312 260.082031 54.238281 269.886719 53.894531 280.253906 L 53.894531 282.570312 C 54.210938 300.800781 59.414062 318.613281 68.957031 334.148438 C 70.242188 335.703125 72.097656 336.671875 74.105469 336.84375 C 77.824219 336.84375 80.84375 333.824219 80.84375 330.105469 L 80.84375 296.421875 C 80.84375 296.421875 80.304688 271.523438 101.132812 269.472656 C 114.605469 268.179688 121.261719 276.292969 121.261719 282.949219 L 121.261719 350.316406 L 107.789062 404.210938 L 107.789062 451.367188 C 107.789062 455.089844 110.804688 458.105469 114.527344 458.105469 C 118.0625 458.058594 120.984375 455.328125 121.261719 451.800781 L 121.261719 404.210938 L 161.683594 350.316406 L 161.683594 377.261719 L 175.15625 452.714844 C 175.847656 455.835938 178.59375 458.066406 181.785156 458.105469 C 185.507812 458.164062 188.574219 455.195312 188.632812 451.476562 L 184.722656 385.347656 L 202.105469 350.316406 L 269.472656 350.316406 L 269.472656 377.261719 L 283.164062 453.066406 C 283.992188 455.996094 286.640625 458.042969 289.683594 458.105469 C 293.40625 458.105469 296.421875 455.089844 296.421875 451.367188 L 296.421875 377.261719 L 306.3125 350.316406 C 312.976562 346.867188 318.175781 341.125 320.941406 334.148438 L 379.175781 232.636719 C 384.597656 242.367188 396.160156 246.890625 406.742188 243.414062 L 435.46875 265.457031 C 438.136719 267.664062 441.445312 268.941406 444.902344 269.097656 C 451.203125 269.042969 456.574219 264.515625 457.699219 258.316406 C 458.289062 254.007812 456.960938 249.652344 454.0625 246.40625 Z M 454.0625 246.40625 "/>
</g>
</svg>
