<?xml version="1.0" encoding="UTF-8"?>
<svg xmlns="http://www.w3.org/2000/svg" xmlns:xlink="http://www.w3.org/1999/xlink" width="512px" height="512px" viewBox="0 0 512 512" version="1.1">
<g id="surface1">
<path style=" stroke:none;fill-rule:nonzero;fill:rgb(100%,100%,100%);fill-opacity:1;" d="M 390.839844 134.738281 L 121.15625 134.738281 C 113.976562 134.800781 107.117188 137.710938 102.085938 142.832031 C 97.050781 147.949219 94.257812 154.859375 94.316406 162.039062 L 94.316406 312.421875 C 94.300781 317.464844 95.675781 322.414062 98.296875 326.722656 C 100.914062 331.03125 104.671875 334.535156 109.15625 336.84375 L 237.964844 413.355469 C 243.550781 416.203125 249.726562 417.683594 255.996094 417.683594 C 262.261719 417.683594 268.441406 416.203125 274.027344 413.355469 L 402.84375 336.84375 C 407.328125 334.535156 411.085938 331.035156 413.707031 326.722656 C 416.324219 322.414062 417.703125 317.464844 417.683594 312.421875 L 417.683594 162.039062 C 417.714844 158.480469 417.046875 154.957031 415.710938 151.660156 C 414.378906 148.363281 412.410156 145.363281 409.917969 142.828125 C 407.425781 140.292969 404.457031 138.273438 401.183594 136.882812 C 397.910156 135.496094 394.394531 134.765625 390.839844 134.738281 Z M 336.84375 282.949219 L 282.949219 282.949219 L 282.949219 336.84375 L 229.054688 336.84375 L 229.054688 282.949219 L 175.160156 282.949219 L 175.160156 229.050781 L 229.054688 229.050781 L 229.054688 175.15625 L 282.949219 175.15625 L 282.949219 229.050781 L 336.84375 229.050781 Z M 336.84375 282.949219 "/>
</g>
</svg>
