<?xml version="1.0" encoding="UTF-8"?>
<svg xmlns="http://www.w3.org/2000/svg" xmlns:xlink="http://www.w3.org/1999/xlink" width="512px" height="512px" viewBox="0 0 512 512" version="1.1">
<g id="surface1">
<path style=" stroke:none;fill-rule:nonzero;fill:rgb(100%,100%,100%);fill-opacity:1;" d="M 242.527344 80.84375 C 226.359375 80.84375 215.578125 91.621094 215.578125 107.789062 L 215.578125 215.578125 L 107.789062 215.578125 C 91.621094 215.578125 80.84375 226.359375 80.84375 242.527344 L 80.84375 269.472656 C 80.84375 285.640625 91.621094 296.421875 107.789062 296.421875 L 215.578125 296.421875 L 215.578125 404.210938 C 215.578125 420.378906 226.359375 431.15625 242.527344 431.15625 L 269.472656 431.15625 C 285.640625 431.15625 296.421875 420.378906 296.421875 404.210938 L 296.421875 296.421875 L 404.210938 296.421875 C 420.378906 296.421875 431.15625 285.640625 431.15625 269.472656 L 431.15625 242.527344 C 431.15625 226.359375 420.378906 215.578125 404.210938 215.578125 L 296.421875 215.578125 L 296.421875 107.789062 C 296.421875 91.621094 285.640625 80.84375 269.472656 80.84375 Z M 242.527344 80.84375 "/>
</g>
</svg>
