<?xml version="1.0" encoding="UTF-8"?>
<svg xmlns="http://www.w3.org/2000/svg" xmlns:xlink="http://www.w3.org/1999/xlink" width="512px" height="512px" viewBox="0 0 512 512" version="1.1">
<g id="surface1">
<path style=" stroke:none;fill-rule:nonzero;fill:rgb(100%,100%,100%);fill-opacity:1;" d="M 233.957031 209.085938 C 220.347656 189.546875 212.910156 178.875 216.980469 145.058594 C 220.726562 113.90625 235.25 101.511719 249.261719 89.574219 C 260.148438 80.277344 270.738281 71.25 275.699219 53.894531 C 283.808594 73.351562 274.726562 93.507812 266.292969 112.207031 C 257.914062 130.828125 250.152344 148.023438 260.609375 161.683594 C 286.773438 195.933594 313.503906 239.292969 286.773438 285.265625 C 281.007812 295.855469 272.25 303.617188 263.570312 311.351562 C 252.199219 321.457031 240.910156 331.480469 236.515625 347.675781 C 229.269531 329.429688 236.734375 310.863281 244.195312 292.378906 C 252.441406 271.925781 260.636719 251.527344 248.832031 231.71875 C 243.363281 222.558594 238.347656 215.363281 233.984375 209.085938 Z M 324.796875 177.449219 C 322.15625 160.417969 325.710938 142.929688 334.714844 128.699219 C 344.601562 116.574219 353.601562 111.402344 361.417969 106.875 C 370.714844 101.511719 378.3125 97.117188 383.785156 83.242188 C 391.570312 101.671875 383.785156 115.253906 375.59375 129.535156 C 372.386719 135.113281 369.125 140.800781 366.726562 146.917969 C 361.578125 163.355469 369.449219 170.980469 379.3125 180.519531 C 388.957031 189.84375 400.492188 201 403.535156 224.09375 C 405.773438 241.207031 402.566406 255.246094 393.511719 269.472656 C 383.917969 281.222656 375.160156 287.125 367.507812 292.269531 C 357.914062 298.738281 350.046875 304.046875 344.441406 318.273438 C 336.574219 299.734375 345.277344 284.347656 353.953125 269.015625 C 357.269531 263.167969 360.582031 257.320312 362.953125 251.285156 C 364.921875 236.246094 356.648438 227.921875 347.296875 218.488281 C 337.675781 208.789062 326.898438 197.929688 324.824219 177.449219 Z M 108.734375 177.449219 C 106.089844 160.417969 108.867188 142.417969 118.648438 128.699219 C 128.78125 114.472656 138.292969 109.378906 146.539062 104.960938 C 155.242188 100.296875 162.546875 96.390625 167.71875 83.242188 C 175.507812 101.644531 167.34375 115.792969 158.960938 130.371094 C 155.675781 136.085938 152.332031 141.878906 149.910156 148.023438 C 145.8125 158.398438 153.4375 175.347656 163.410156 181.492188 C 190.410156 203.074219 196.472656 243.09375 178.148438 271.84375 C 168.285156 283.917969 159.179688 289.308594 151.230469 294.023438 C 141.714844 299.65625 133.847656 304.316406 128.351562 318.222656 C 120.859375 300.542969 128.566406 286.421875 136.433594 272.035156 C 139.964844 265.566406 143.523438 259.070312 145.730469 252.171875 C 150.554688 237.164062 142.121094 228.351562 131.988281 217.761719 C 122.582031 207.925781 111.722656 196.609375 108.734375 177.394531 Z M 404.210938 296.394531 C 423.074219 366.886719 310.59375 377.234375 256 377.234375 C 201.40625 377.234375 88.925781 364.195312 107.789062 296.394531 C 90.730469 304.910156 80.84375 322.289062 80.84375 336.816406 C 80.84375 377.75 159.257812 414.960938 256 414.960938 C 352.742188 414.960938 431.15625 377.75 431.15625 336.816406 C 431.15625 322.289062 421.269531 304.910156 404.210938 296.394531 Z M 404.210938 296.394531 "/>
</g>
</svg>
