<?xml version="1.0" encoding="UTF-8"?>
<svg xmlns="http://www.w3.org/2000/svg" xmlns:xlink="http://www.w3.org/1999/xlink" width="512px" height="512px" viewBox="0 0 512 512" version="1.1">
<g id="surface1">
<path style=" stroke:none;fill-rule:nonzero;fill:rgb(100%,100%,100%);fill-opacity:1;" d="M 200.488281 274.054688 C 219.773438 274.082031 238.597656 268.15625 254.382812 257.078125 C 266.882812 265.785156 281.308594 271.332031 296.421875 273.246094 L 308.277344 273.246094 L 269.472656 423.074219 C 267.355469 428.042969 262.476562 431.265625 257.078125 431.265625 C 251.675781 431.265625 246.796875 428.042969 244.683594 423.074219 Z M 362.171875 180.464844 C 362.171875 210.230469 338.042969 234.359375 308.277344 234.359375 C 278.511719 234.359375 254.382812 210.230469 254.382812 180.464844 C 254.382812 210.230469 230.253906 234.359375 200.488281 234.359375 C 170.722656 234.359375 146.59375 210.230469 146.59375 180.464844 C 146.59375 150.703125 170.722656 126.570312 200.488281 126.570312 L 203.722656 126.570312 C 195.40625 104.167969 202.835938 78.964844 221.972656 64.65625 C 241.109375 50.34375 267.386719 50.34375 286.523438 64.65625 C 305.660156 78.964844 313.089844 104.167969 304.773438 126.570312 L 308.277344 126.570312 C 322.582031 126.578125 336.292969 132.269531 346.398438 142.394531 C 356.503906 152.519531 362.167969 166.246094 362.144531 180.546875 Z M 362.171875 180.464844 "/>
</g>
</svg>
