<?xml version="1.0" encoding="UTF-8"?>
<svg xmlns="http://www.w3.org/2000/svg" xmlns:xlink="http://www.w3.org/1999/xlink" width="512px" height="512px" viewBox="0 0 512 512" version="1.1">
<g id="surface1">
<path style=" stroke:none;fill-rule:nonzero;fill:rgb(100%,100%,100%);fill-opacity:1;" d="M 256 80.84375 C 234.441406 80.84375 215.578125 99.707031 215.578125 121.261719 C 215.578125 142.820312 234.441406 161.683594 256 161.683594 C 277.558594 161.683594 296.421875 142.820312 296.421875 121.261719 C 296.421875 99.707031 277.558594 80.84375 256 80.84375 Z M 161.683594 188.632812 L 161.683594 215.578125 C 161.683594 215.578125 215.578125 215.578125 215.578125 269.472656 L 215.578125 323.367188 C 215.578125 377.261719 161.683594 377.261719 161.683594 377.261719 L 161.683594 404.210938 L 350.316406 404.210938 L 350.316406 377.261719 C 350.316406 377.261719 296.421875 377.261719 296.421875 323.367188 L 296.421875 215.578125 C 296.421875 202.105469 282.949219 188.632812 269.472656 188.632812 Z M 161.683594 188.632812 "/>
</g>
</svg>
