<?xml version="1.0" encoding="UTF-8"?>
<svg xmlns="http://www.w3.org/2000/svg" xmlns:xlink="http://www.w3.org/1999/xlink" width="512px" height="512px" viewBox="0 0 512 512" version="1.1">
<g id="surface1">
<path style=" stroke:none;fill-rule:nonzero;fill:rgb(100%,100%,100%);fill-opacity:1;" d="M 377.261719 282.949219 C 377.261719 349.917969 322.972656 404.210938 256 404.210938 C 189.027344 404.210938 134.738281 349.917969 134.738281 282.949219 C 134.738281 233.140625 164.820312 190.441406 207.761719 171.777344 L 212.507812 175.46875 L 233.363281 191.6875 C 192.3125 201.894531 161.683594 238.785156 161.683594 282.949219 C 161.683594 334.953125 203.996094 377.261719 256 377.261719 C 308.003906 377.261719 350.316406 334.953125 350.316406 282.949219 C 350.316406 238.785156 319.6875 201.894531 278.636719 191.6875 L 304.238281 171.777344 C 347.179688 190.441406 377.261719 233.140625 377.261719 282.949219 Z M 256 175.15625 L 323.367188 122.757812 L 296.421875 80.84375 L 215.578125 80.84375 L 188.632812 122.757812 L 229.050781 154.199219 Z M 256 175.15625 "/>
</g>
</svg>
