<?xml version="1.0" encoding="UTF-8"?>
<svg xmlns="http://www.w3.org/2000/svg" xmlns:xlink="http://www.w3.org/1999/xlink" width="512px" height="512px" viewBox="0 0 512 512" version="1.1">
<g id="surface1">
<path style=" stroke:none;fill-rule:nonzero;fill:rgb(100%,100%,100%);fill-opacity:1;" d="M 379.957031 133.445312 C 357.472656 110.695312 323.648438 103.414062 293.792969 114.894531 C 263.9375 126.375 243.707031 154.441406 242.257812 186.394531 L 326.925781 271.0625 C 358.859375 269.613281 386.910156 249.410156 398.40625 219.582031 C 409.902344 189.75 402.660156 155.949219 379.957031 133.445312 Z M 179.792969 276.265625 L 122.609375 333.527344 C 112.089844 344.050781 112.089844 361.109375 122.609375 371.632812 L 141.664062 390.683594 C 152.183594 401.203125 169.242188 401.203125 179.765625 390.683594 L 294.105469 276.34375 L 236.949219 219.191406 Z M 199.761719 332.503906 L 180.710938 313.453125 L 236.949219 257.292969 L 256 276.34375 Z M 199.761719 332.503906 "/>
</g>
</svg>
