<?xml version="1.0" encoding="UTF-8"?>
<svg xmlns="http://www.w3.org/2000/svg" xmlns:xlink="http://www.w3.org/1999/xlink" width="512px" height="512px" viewBox="0 0 512 512" version="1.1">
<g id="surface1">
<path style=" stroke:none;fill-rule:nonzero;fill:rgb(100%,100%,100%);fill-opacity:1;" d="M 309.894531 161.683594 C 309.894531 172.34375 306.734375 182.761719 300.8125 191.625 C 294.890625 200.488281 286.472656 207.398438 276.625 211.476562 C 266.777344 215.554688 255.941406 216.621094 245.484375 214.542969 C 235.03125 212.464844 225.429688 207.332031 217.890625 199.792969 C 210.351562 192.257812 205.21875 182.652344 203.140625 172.199219 C 201.0625 161.742188 202.128906 150.90625 206.207031 141.058594 C 210.285156 131.210938 217.195312 122.792969 226.058594 116.871094 C 234.921875 110.949219 245.339844 107.789062 256 107.789062 C 270.292969 107.789062 284.003906 113.46875 294.109375 123.574219 C 304.214844 133.683594 309.894531 147.390625 309.894531 161.683594 Z M 148.210938 269.472656 C 137.550781 269.472656 127.132812 272.632812 118.269531 278.554688 C 109.40625 284.480469 102.496094 292.894531 98.417969 302.742188 C 94.339844 312.59375 93.273438 323.425781 95.351562 333.882812 C 97.429688 344.335938 102.5625 353.941406 110.101562 361.476562 C 117.636719 369.015625 127.242188 374.148438 137.695312 376.226562 C 148.152344 378.304688 158.988281 377.238281 168.835938 373.160156 C 178.683594 369.082031 187.101562 362.171875 193.023438 353.308594 C 198.945312 344.445312 202.105469 334.027344 202.105469 323.367188 C 202.105469 309.074219 196.425781 295.367188 186.320312 285.257812 C 176.210938 275.152344 162.503906 269.472656 148.210938 269.472656 Z M 363.789062 269.472656 C 353.128906 269.472656 342.710938 272.632812 333.847656 278.554688 C 324.984375 284.480469 318.078125 292.894531 313.996094 302.742188 C 309.917969 312.59375 308.851562 323.425781 310.929688 333.882812 C 313.011719 344.335938 318.144531 353.941406 325.679688 361.476562 C 333.21875 369.015625 342.820312 374.148438 353.273438 376.226562 C 363.730469 378.304688 374.566406 377.238281 384.414062 373.160156 C 394.261719 369.082031 402.679688 362.171875 408.601562 353.308594 C 414.523438 344.445312 417.683594 334.027344 417.683594 323.367188 C 417.683594 309.074219 412.007812 295.367188 401.898438 285.257812 C 391.789062 275.152344 378.082031 269.472656 363.789062 269.472656 Z M 363.789062 269.472656 "/>
</g>
</svg>
