<?xml version="1.0" encoding="UTF-8"?>
<svg xmlns="http://www.w3.org/2000/svg" xmlns:xlink="http://www.w3.org/1999/xlink" width="512px" height="512px" viewBox="0 0 512 512" version="1.1">
<g id="surface1">
<path style=" stroke:none;fill-rule:nonzero;fill:rgb(100%,100%,100%);fill-opacity:1;" d="M 390.738281 377.261719 L 377.261719 377.261719 L 377.261719 363.789062 C 377.261719 355.707031 371.875 350.316406 363.789062 350.316406 L 350.316406 350.316406 L 350.316406 215.578125 L 377.261719 215.578125 L 404.210938 161.683594 C 377.261719 164.378906 350.316406 164.378906 323.367188 161.683594 C 301.808594 145.515625 285.640625 129.347656 269.472656 107.789062 L 269.472656 94.316406 C 269.472656 86.230469 264.085938 80.84375 256 80.84375 C 247.914062 80.84375 242.527344 86.230469 242.527344 94.316406 L 242.527344 107.789062 C 226.359375 129.347656 210.191406 145.515625 188.632812 161.683594 C 161.683594 164.378906 134.738281 164.378906 107.789062 161.683594 L 134.738281 215.578125 L 161.683594 215.578125 L 161.683594 350.316406 C 161.683594 350.316406 148.210938 350.316406 148.210938 350.316406 C 140.125 350.316406 134.738281 355.707031 134.738281 363.789062 L 134.738281 377.261719 L 121.261719 377.261719 C 113.179688 377.261719 107.789062 382.652344 107.789062 390.738281 L 107.789062 404.210938 L 404.210938 404.210938 L 404.210938 390.738281 C 404.210938 382.652344 398.820312 377.261719 390.738281 377.261719 Z M 242.527344 350.316406 L 188.632812 350.316406 L 188.632812 215.578125 L 242.527344 215.578125 Z M 323.367188 350.316406 L 269.472656 350.316406 L 269.472656 215.578125 L 323.367188 215.578125 Z M 323.367188 350.316406 "/>
</g>
</svg>
