<?xml version="1.0" encoding="UTF-8"?>
<svg xmlns="http://www.w3.org/2000/svg" xmlns:xlink="http://www.w3.org/1999/xlink" width="512px" height="512px" viewBox="0 0 512 512" version="1.1">
<g id="surface1">
<path style=" stroke:none;fill-rule:nonzero;fill:rgb(100%,100%,100%);fill-opacity:1;" d="M 294.023438 130.804688 C 294.773438 131.429688 295.375 132.210938 295.789062 133.097656 C 296.203125 133.980469 296.417969 134.945312 296.421875 135.921875 L 296.421875 235.789062 C 296.421875 237.578125 295.710938 239.289062 294.449219 240.554688 C 293.183594 241.816406 291.472656 242.527344 289.683594 242.527344 L 222.316406 242.527344 C 220.527344 242.527344 218.816406 241.816406 217.550781 240.554688 C 216.289062 239.289062 215.578125 237.578125 215.578125 235.789062 L 215.578125 188.632812 L 188.632812 188.632812 L 188.632812 235.789062 C 188.632812 237.578125 187.921875 239.289062 186.660156 240.554688 C 185.394531 241.816406 183.679688 242.527344 181.894531 242.527344 L 114.527344 242.527344 C 112.738281 242.527344 111.027344 241.816406 109.761719 240.554688 C 108.5 239.289062 107.789062 237.578125 107.789062 235.789062 L 107.789062 136.085938 C 107.789062 135.109375 108.007812 134.144531 108.421875 133.257812 C 108.835938 132.375 109.4375 131.589844 110.1875 130.964844 L 197.875 57.453125 C 199.0625 56.453125 200.566406 55.90625 202.117188 55.90625 C 203.671875 55.90625 205.171875 56.453125 206.363281 57.453125 Z M 262.789062 282.949219 C 261.464844 282.949219 260.171875 283.34375 259.070312 284.078125 L 188.632812 336.84375 L 161.683594 336.84375 L 161.683594 282.949219 C 161.683594 279.375 160.265625 275.945312 157.738281 273.421875 C 155.210938 270.894531 151.785156 269.472656 148.210938 269.472656 C 144.636719 269.472656 141.210938 270.894531 138.683594 273.421875 C 136.15625 275.945312 134.738281 279.375 134.738281 282.949219 L 134.738281 336.84375 L 107.789062 336.84375 L 107.789062 282.949219 C 107.789062 279.375 106.371094 275.945312 103.84375 273.421875 C 101.316406 270.894531 97.890625 269.472656 94.316406 269.472656 C 90.742188 269.472656 87.316406 270.894531 84.789062 273.421875 C 82.261719 275.945312 80.84375 279.375 80.84375 282.949219 L 80.84375 397.472656 C 80.84375 399.261719 81.550781 400.972656 82.816406 402.238281 C 84.078125 403.5 85.792969 404.210938 87.578125 404.210938 L 262.738281 404.210938 C 264.523438 404.210938 266.238281 403.5 267.5 402.238281 C 268.765625 400.972656 269.472656 399.261719 269.472656 397.472656 L 269.472656 289.683594 C 269.480469 288.800781 269.3125 287.925781 268.980469 287.109375 C 268.648438 286.292969 268.15625 285.550781 267.535156 284.925781 C 266.914062 284.296875 266.175781 283.800781 265.359375 283.460938 C 264.546875 283.121094 263.671875 282.949219 262.789062 282.949219 Z M 431.15625 195.234375 L 431.15625 370.390625 C 431.15625 372.199219 430.4375 373.933594 429.160156 375.210938 C 427.882812 376.492188 426.148438 377.210938 424.339844 377.210938 L 330.1875 377.210938 C 328.386719 377.210938 326.660156 376.496094 325.382812 375.230469 C 324.105469 373.964844 323.382812 372.246094 323.367188 370.445312 L 323.367188 195.367188 C 323.363281 194.484375 323.535156 193.605469 323.875 192.785156 C 324.210938 191.96875 324.707031 191.222656 325.332031 190.597656 C 325.960938 189.972656 326.703125 189.476562 327.523438 189.136719 C 328.34375 188.800781 329.21875 188.628906 330.105469 188.632812 L 350.316406 188.632812 L 350.316406 168.394531 C 350.316406 166.613281 351.023438 164.90625 352.28125 163.648438 C 353.539062 162.390625 355.246094 161.683594 357.027344 161.683594 L 397.445312 161.683594 C 399.246094 161.699219 400.964844 162.421875 402.234375 163.699219 C 403.5 164.976562 404.210938 166.703125 404.210938 168.503906 L 404.210938 188.632812 L 424.554688 188.632812 C 426.308594 188.632812 427.984375 189.328125 429.222656 190.566406 C 430.460938 191.804688 431.15625 193.484375 431.15625 195.234375 Z M 404.210938 323.367188 L 350.316406 323.367188 L 350.316406 350.316406 L 404.210938 350.316406 Z M 404.210938 269.472656 L 350.316406 269.472656 L 350.316406 296.421875 L 404.210938 296.421875 Z M 404.210938 215.578125 L 350.316406 215.578125 L 350.316406 242.527344 L 404.210938 242.527344 Z M 404.210938 215.578125 "/>
</g>
</svg>
