<?xml version="1.0" encoding="UTF-8"?>
<svg xmlns="http://www.w3.org/2000/svg" xmlns:xlink="http://www.w3.org/1999/xlink" width="512px" height="512px" viewBox="0 0 512 512" version="1.1">
<g id="surface1">
<path style=" stroke:none;fill-rule:nonzero;fill:rgb(100%,100%,100%);fill-opacity:1;" d="M 269.472656 80.84375 L 215.578125 134.738281 L 134.738281 134.738281 C 134.738281 134.738281 107.789062 134.738281 107.789062 161.683594 L 107.789062 404.210938 C 107.789062 431.15625 134.738281 431.15625 134.738281 431.15625 L 377.261719 431.15625 C 377.261719 431.15625 404.210938 431.15625 404.210938 404.210938 L 404.210938 107.789062 C 404.210938 80.84375 377.261719 80.84375 377.261719 80.84375 C 377.261719 80.84375 269.472656 80.84375 269.472656 80.84375 Z M 282.949219 107.789062 L 336.84375 107.789062 C 344.304688 107.789062 350.316406 113.796875 350.316406 121.261719 C 350.316406 128.726562 344.304688 134.738281 336.84375 134.738281 L 282.949219 134.738281 C 275.484375 134.738281 269.472656 128.726562 269.472656 121.261719 C 269.472656 113.796875 275.484375 107.789062 282.949219 107.789062 Z M 256 215.578125 C 300.648438 215.578125 336.84375 251.773438 336.84375 296.421875 C 336.84375 341.070312 300.648438 377.261719 256 377.261719 C 211.351562 377.261719 175.15625 341.070312 175.15625 296.421875 C 175.15625 251.773438 211.351562 215.578125 256 215.578125 Z M 256 215.578125 "/>
</g>
</svg>
