<?xml version="1.0" encoding="UTF-8"?>
<svg xmlns="http://www.w3.org/2000/svg" xmlns:xlink="http://www.w3.org/1999/xlink" width="512px" height="512px" viewBox="0 0 512 512" version="1.1">
<g id="surface1">
<path style=" stroke:none;fill-rule:nonzero;fill:rgb(100%,100%,100%);fill-opacity:1;" d="M 83.050781 321.71875 C 80.496094 319.785156 80.859375 316.574219 80.859375 316.574219 L 95.015625 148.210938 C 95.015625 148.210938 95.234375 146.355469 96.058594 145.40625 C 96.578125 144.816406 97.238281 143.953125 98.476562 143.445312 C 112.710938 137.625 190.078125 95.714844 229.050781 134.738281 C 235.511719 142.21875 242.523438 153.265625 242.523438 161.683594 L 242.523438 304.179688 C 242.523438 304.179688 242.691406 307.203125 239.957031 309.03125 C 239.3125 309.464844 236.613281 310.691406 233.433594 309.101562 C 173.46875 279.097656 106.484375 313.269531 89.585938 322.230469 C 86.195312 324.027344 83.554688 322.105469 83.050781 321.71875 Z M 422.410156 322.230469 C 405.511719 313.269531 338.527344 279.097656 278.5625 309.101562 C 275.382812 310.691406 272.6875 309.464844 272.042969 309.03125 C 269.308594 307.203125 269.476562 304.179688 269.476562 304.179688 L 269.476562 161.683594 C 269.476562 153.265625 276.488281 142.21875 282.949219 134.738281 C 321.921875 95.714844 398.796875 137.621094 413.03125 143.445312 C 414.269531 143.953125 414.925781 144.816406 415.449219 145.40625 C 416.273438 146.355469 416.492188 148.210938 416.492188 148.210938 L 431.140625 316.574219 C 431.140625 316.574219 431.503906 319.785156 428.949219 321.71875 C 428.445312 322.105469 425.804688 324.027344 422.410156 322.230469 Z M 292.773438 395.757812 C 293.722656 395.527344 295.371094 394.5625 295.953125 393.667969 C 296.589844 392.6875 296.972656 392.007812 297.09375 390.738281 C 298.425781 365.464844 340.867188 341.910156 422.335938 389.933594 C 424.421875 391.121094 426.824219 391 428.871094 389.515625 C 431.195312 387.828125 431.15625 384.96875 431.15625 384.96875 L 431.15625 370.03125 C 431.15625 370.03125 431.164062 367.972656 430.425781 366.84375 C 429.871094 366 429.140625 365.109375 427.929688 364.53125 C 373.351562 329.109375 304.355469 313.40625 269.332031 360.242188 C 268.847656 361.378906 268.382812 361.890625 267.371094 362.679688 C 265.847656 363.863281 263.988281 363.789062 263.988281 363.789062 L 248.210938 363.789062 C 248.210938 363.789062 246.351562 363.863281 244.824219 362.679688 C 243.8125 361.890625 243.351562 361.378906 242.863281 360.242188 C 207.84375 313.40625 138.847656 328.367188 84.265625 363.789062 C 83.054688 364.367188 82.324219 365.261719 81.773438 366.101562 C 81.03125 367.234375 81.039062 369.292969 81.039062 369.292969 L 81.039062 384.226562 C 81.039062 384.226562 81 387.085938 83.328125 388.773438 C 85.371094 390.261719 87.773438 390.382812 89.863281 389.191406 C 171.328125 341.167969 213.769531 365.464844 215.105469 390.738281 C 215.226562 392.007812 215.609375 392.6875 216.246094 393.667969 C 216.824219 394.5625 218.472656 395.527344 219.421875 395.757812 C 238.875 400.589844 267.082031 402.492188 292.773438 395.757812 Z M 292.773438 395.757812 "/>
</g>
</svg>
