<?xml version="1.0" encoding="UTF-8"?>
<svg xmlns="http://www.w3.org/2000/svg" xmlns:xlink="http://www.w3.org/1999/xlink" width="512px" height="512px" viewBox="0 0 512 512" version="1.1">
<g id="surface1">
<path style=" stroke:none;fill-rule:nonzero;fill:rgb(100%,100%,100%);fill-opacity:1;" d="M 80.84375 161.683594 C 80.84375 131.917969 104.972656 107.789062 134.738281 107.789062 C 164.503906 107.789062 188.632812 131.917969 188.632812 161.683594 L 188.632812 377.261719 C 188.632812 392.144531 176.566406 404.210938 161.683594 404.210938 L 107.789062 404.210938 C 92.90625 404.210938 80.84375 392.144531 80.84375 377.261719 Z M 161.683594 161.683594 C 161.683594 146.800781 149.621094 134.738281 134.738281 134.738281 C 119.855469 134.738281 107.789062 146.800781 107.789062 161.683594 C 107.789062 176.566406 119.855469 188.632812 134.738281 188.632812 C 149.621094 188.632812 161.683594 176.566406 161.683594 161.683594 Z M 282.949219 215.578125 L 242.527344 134.738281 L 215.578125 134.738281 L 215.578125 215.578125 Z M 323.367188 215.578125 L 363.789062 215.578125 L 323.367188 134.738281 L 282.949219 134.738281 Z M 410.949219 215.578125 L 404.210938 215.578125 L 363.789062 134.738281 L 410.949219 134.738281 C 422.109375 134.738281 431.15625 143.785156 431.15625 154.949219 L 431.15625 195.367188 C 431.15625 206.53125 422.109375 215.578125 410.949219 215.578125 Z M 410.949219 215.578125 "/>
</g>
</svg>
