<?xml version="1.0" encoding="UTF-8"?>
<svg xmlns="http://www.w3.org/2000/svg" xmlns:xlink="http://www.w3.org/1999/xlink" width="512px" height="512px" viewBox="0 0 512 512" version="1.1">
<g id="surface1">
<path style=" stroke:none;fill-rule:nonzero;fill:rgb(100%,100%,100%);fill-opacity:1;" d="M 175.15625 215.578125 L 53.894531 242.527344 L 53.894531 229.050781 L 175.15625 202.105469 Z M 175.15625 148.210938 L 53.894531 121.261719 L 53.894531 134.738281 L 175.15625 161.683594 Z M 336.84375 148.210938 L 336.84375 161.683594 L 458.105469 134.738281 L 458.105469 121.261719 Z M 336.84375 215.578125 L 458.105469 242.527344 L 458.105469 229.050781 L 336.84375 202.105469 Z M 269.472656 242.527344 L 269.472656 107.789062 L 336.84375 107.789062 C 344.28125 109.277344 351.523438 104.449219 353.011719 97.011719 C 354.496094 89.570312 349.671875 82.328125 342.230469 80.84375 L 261.390625 53.894531 C 257.875 52.316406 253.855469 52.316406 250.339844 53.894531 L 169.5 80.84375 C 162.058594 82.328125 157.234375 89.570312 158.71875 97.011719 C 160.207031 104.449219 167.449219 109.277344 174.886719 107.789062 L 242.527344 107.789062 L 242.527344 242.527344 L 188.632812 242.527344 L 134.738281 431.15625 L 377.261719 431.15625 L 323.367188 242.527344 Z M 269.472656 242.527344 "/>
</g>
</svg>
