<?xml version="1.0" encoding="UTF-8"?>
<svg xmlns="http://www.w3.org/2000/svg" xmlns:xlink="http://www.w3.org/1999/xlink" width="512px" height="512px" viewBox="0 0 512 512" version="1.1">
<g id="surface1">
<path style=" stroke:none;fill-rule:nonzero;fill:rgb(100%,100%,100%);fill-opacity:1;" d="M 309.894531 253.304688 C 309.894531 282.949219 285.640625 307.199219 256 307.199219 C 226.359375 307.199219 202.105469 282.949219 202.105469 253.304688 C 202.105469 223.664062 226.359375 199.410156 256 199.410156 C 285.640625 199.410156 309.894531 223.664062 309.894531 253.304688 Z M 431.15625 256 C 431.15625 264.085938 425.769531 269.472656 417.683594 269.472656 L 374.570312 269.472656 C 371.875 293.726562 366.1875 312.105469 350.019531 330.96875 L 378.691406 359.640625 C 384.082031 365.027344 383.972656 373.222656 378.582031 378.609375 C 372.953125 384.242188 365.109375 384.1875 359.613281 378.71875 L 331.453125 350.316406 C 315.285156 363.789062 293.726562 371.875 269.472656 374.570312 L 269.472656 417.683594 C 269.472656 425.769531 264.085938 431.15625 256 431.15625 C 247.914062 431.15625 242.527344 425.769531 242.527344 417.683594 L 242.527344 374.570312 C 218.273438 371.875 196.714844 363.789062 180.546875 350.316406 L 150.90625 379.957031 C 145.328125 385.535156 137.96875 385.699219 132.148438 379.851562 C 126.761719 374.460938 126.570312 366.375 131.960938 360.988281 L 161.683594 331.453125 C 148.210938 315.285156 137.429688 293.726562 134.738281 269.472656 L 94.316406 269.472656 C 86.230469 269.472656 80.84375 264.085938 80.84375 256 C 80.84375 247.914062 86.230469 242.527344 94.316406 242.527344 L 134.738281 242.527344 C 137.429688 218.273438 145.515625 196.714844 161.683594 177.851562 L 134.738281 150.90625 C 129.347656 145.515625 129.347656 137.429688 134.738281 132.042969 C 140.125 126.652344 148.210938 126.652344 153.601562 132.042969 L 180.546875 158.988281 C 196.714844 145.515625 218.273438 137.429688 242.527344 134.738281 L 242.527344 94.316406 C 242.527344 86.230469 247.914062 80.84375 256 80.84375 C 264.085938 80.84375 269.472656 86.230469 269.472656 94.316406 L 269.472656 134.738281 C 293.726562 137.429688 315.285156 148.210938 331.453125 161.683594 L 361.09375 132.042969 C 366.484375 126.652344 374.570312 126.652344 379.957031 132.042969 C 385.347656 137.429688 385.347656 145.515625 379.957031 150.90625 L 350.316406 180.546875 C 363.789062 199.410156 371.875 218.273438 374.570312 242.527344 L 417.683594 242.527344 C 425.769531 242.527344 431.15625 247.914062 431.15625 256 Z M 353.011719 253.304688 C 353.011719 199.410156 309.894531 156.292969 256 156.292969 C 202.105469 156.292969 156.292969 202.105469 156.292969 253.304688 C 156.292969 304.503906 199.410156 350.316406 253.304688 350.316406 C 307.199219 350.316406 353.011719 307.199219 353.011719 253.304688 Z M 353.011719 253.304688 "/>
</g>
</svg>
