<?xml version="1.0" encoding="UTF-8"?>
<svg xmlns="http://www.w3.org/2000/svg" xmlns:xlink="http://www.w3.org/1999/xlink" width="512px" height="512px" viewBox="0 0 512 512" version="1.1">
<g id="surface1">
<path style=" stroke:none;fill-rule:nonzero;fill:rgb(100%,100%,100%);fill-opacity:1;" d="M 67.367188 121.261719 C 59.285156 121.261719 53.894531 126.652344 53.894531 134.738281 L 53.894531 390.738281 C 53.894531 398.820312 59.285156 404.210938 67.367188 404.210938 C 75.453125 404.210938 80.84375 398.820312 80.84375 390.738281 L 80.84375 350.316406 L 431.15625 350.316406 L 431.15625 390.738281 C 431.15625 398.820312 436.546875 404.210938 444.632812 404.210938 C 452.714844 404.210938 458.105469 398.820312 458.105469 390.738281 L 458.105469 336.84375 C 458.105469 328.757812 452.714844 323.367188 444.632812 323.367188 L 80.84375 323.367188 L 80.84375 134.738281 C 80.84375 126.652344 75.453125 121.261719 67.367188 121.261719 Z M 148.210938 134.738281 C 126.652344 134.738281 107.789062 153.601562 107.789062 175.15625 C 107.789062 196.714844 126.652344 215.578125 148.210938 215.578125 C 169.769531 215.578125 188.632812 196.714844 188.632812 175.15625 C 188.632812 153.601562 169.769531 134.738281 148.210938 134.738281 Z M 242.527344 161.683594 C 202.105469 161.683594 202.105469 202.105469 202.105469 202.105469 L 202.105469 242.527344 L 121.261719 242.527344 C 113.179688 242.527344 107.789062 247.914062 107.789062 256 L 107.789062 282.949219 C 107.789062 291.03125 113.179688 296.421875 121.261719 296.421875 L 458.105469 296.421875 L 458.105469 229.050781 C 458.105469 161.683594 390.738281 161.683594 390.738281 161.683594 Z M 242.527344 161.683594 "/>
</g>
</svg>
