<?xml version="1.0" encoding="UTF-8"?>
<svg xmlns="http://www.w3.org/2000/svg" xmlns:xlink="http://www.w3.org/1999/xlink" width="512px" height="512px" viewBox="0 0 512 512" version="1.1">
<g id="surface1">
<path style=" stroke:none;fill-rule:nonzero;fill:rgb(100%,100%,100%);fill-opacity:1;" d="M 428.734375 145.785156 L 417.683594 134.738281 L 423.074219 127.191406 C 423.613281 126.382812 424.152344 125.84375 424.691406 125.035156 C 428.929688 120.195312 431.234375 113.957031 431.15625 107.519531 C 431.007812 97.261719 425.046875 87.976562 415.78125 83.574219 C 406.515625 79.167969 395.550781 80.410156 387.503906 86.769531 C 386.695312 87.308594 385.886719 88.117188 385.078125 88.65625 L 377.261719 94.316406 L 366.863281 83.914062 C 363.320312 80.039062 357.3125 79.757812 353.421875 83.277344 C 349.53125 86.800781 349.214844 92.804688 352.714844 96.714844 L 363.949219 107.949219 L 350.476562 121.425781 L 339.914062 110.863281 C 336.371094 106.988281 330.367188 106.703125 326.472656 110.226562 C 322.582031 113.746094 322.265625 119.75 325.765625 123.660156 L 336.84375 134.738281 L 323.367188 148.210938 L 313.101562 137.945312 C 309.589844 134.015625 303.558594 133.675781 299.628906 137.1875 C 295.699219 140.703125 295.359375 146.734375 298.875 150.664062 L 309.894531 161.683594 L 296.421875 175.15625 L 285.777344 164.515625 C 282.136719 160.894531 276.289062 160.804688 272.539062 164.308594 C 268.789062 167.8125 268.484375 173.652344 271.84375 177.527344 L 282.949219 188.632812 L 269.472656 202.105469 L 259.636719 192.269531 C 256.371094 188.132812 250.367188 187.425781 246.230469 190.691406 C 242.09375 193.960938 241.386719 199.960938 244.65625 204.097656 C 245.222656 204.800781 256.214844 215.578125 256.214844 215.578125 L 242.527344 229.050781 L 231.910156 218.488281 C 228.183594 215.027344 222.523438 214.710938 218.433594 217.734375 C 214.886719 221.421875 214.566406 227.148438 217.679688 231.207031 L 218.273438 231.746094 L 229.050781 242.527344 L 215.578125 256 L 204.800781 245.222656 C 200.988281 241.726562 195.136719 241.726562 191.328125 245.222656 L 222.261719 276.050781 L 379.6875 118.839844 L 390.738281 107.789062 L 404.210938 107.789062 L 404.210938 121.261719 L 235.816406 289.65625 L 266.777344 320.671875 C 270.476562 316.945312 270.476562 310.929688 266.777344 307.199219 L 266.5625 306.957031 L 256 296.421875 L 269.472656 282.949219 L 279.820312 293.296875 C 283.332031 297.222656 289.367188 297.5625 293.296875 294.050781 C 297.222656 290.539062 297.5625 284.503906 294.050781 280.574219 L 282.949219 269.472656 L 296.421875 256 L 306.660156 266.238281 C 310.171875 270.167969 316.207031 270.507812 320.132812 266.996094 C 324.0625 263.480469 324.402344 257.449219 320.890625 253.519531 L 320.351562 252.980469 L 309.894531 242.527344 L 323.367188 229.050781 L 333.527344 239.210938 C 335.296875 241.289062 337.882812 242.5 340.613281 242.527344 C 344.523438 242.695312 348.121094 240.410156 349.636719 236.804688 C 351.152344 233.199219 350.261719 229.03125 347.40625 226.359375 L 336.84375 215.578125 L 350.316406 202.105469 L 360.554688 212.34375 C 364.066406 216.273438 370.101562 216.613281 374.03125 213.101562 C 377.957031 209.585938 378.296875 203.554688 374.785156 199.625 L 374.03125 198.871094 L 363.789062 188.632812 L 377.261719 175.15625 L 387.53125 185.425781 C 391.042969 189.355469 397.074219 189.691406 401.003906 186.179688 C 404.933594 182.667969 405.269531 176.632812 401.757812 172.707031 L 401.085938 172.03125 L 390.738281 161.683594 L 404.210938 148.210938 L 414.503906 158.503906 C 418.015625 162.433594 424.050781 162.769531 427.976562 159.257812 C 431.90625 155.746094 432.246094 149.714844 428.734375 145.785156 Z M 172.195312 267.210938 C 158.800781 253.816406 152.011719 242.527344 134.738281 242.527344 L 94.316406 242.527344 C 86.875 242.527344 80.84375 248.558594 80.84375 256 L 80.84375 336.84375 C 80.144531 351.523438 84.949219 365.9375 94.316406 377.261719 L 116.277344 399.117188 C 138.519531 424.175781 176.863281 426.453125 201.917969 404.210938 L 256 350.316406 Z M 148.210938 323.367188 L 114.851562 356.730469 C 110.507812 350.984375 108.042969 344.039062 107.789062 336.84375 L 107.789062 269.472656 L 134.738281 269.472656 C 138.285156 270.054688 141.496094 271.914062 143.765625 274.703125 C 147.125 277.410156 148.816406 281.691406 148.210938 285.964844 Z M 148.210938 323.367188 "/>
</g>
</svg>
