<?xml version="1.0" encoding="UTF-8"?>
<svg xmlns="http://www.w3.org/2000/svg" xmlns:xlink="http://www.w3.org/1999/xlink" width="512px" height="512px" viewBox="0 0 512 512" version="1.1">
<g id="surface1">
<path style=" stroke:none;fill-rule:nonzero;fill:rgb(100%,100%,100%);fill-opacity:1;" d="M 191.785156 129.820312 C 209.367188 114.945312 233.148438 107.789062 256 107.789062 C 278.851562 107.789062 302.632812 114.945312 320.214844 129.820312 C 337.042969 144.054688 350.316406 167.078125 350.316406 203.925781 C 350.316406 213.96875 346.167969 229.703125 337.125 250.378906 C 328.378906 270.378906 316.234375 292.402344 302.957031 314.15625 C 286.765625 340.683594 269.445312 365.925781 255.511719 385.609375 C 241.453125 365.941406 224.09375 340.164062 208.019531 313.207031 C 194.945312 291.285156 183.054688 269.128906 174.511719 249.222656 C 165.648438 228.558594 161.683594 213.210938 161.683594 203.925781 C 161.683594 167.078125 174.957031 144.054688 191.785156 129.820312 Z M 272.375 408.398438 C 308.789062 357.410156 377.261719 257.125 377.261719 203.925781 C 377.261719 115.558594 311.964844 80.84375 256 80.84375 C 200.035156 80.84375 134.738281 115.558594 134.738281 203.925781 C 134.738281 254.632812 201.441406 357.246094 238.957031 408.714844 C 245.804688 418.105469 251.679688 425.796875 256 431.15625 C 257.515625 429.042969 259.296875 426.574219 261.308594 423.789062 C 264.480469 419.398438 268.21875 414.21875 272.375 408.398438 Z M 272.375 408.398438 "/>
</g>
</svg>
