<?xml version="1.0" encoding="UTF-8"?>
<svg xmlns="http://www.w3.org/2000/svg" xmlns:xlink="http://www.w3.org/1999/xlink" width="512px" height="512px" viewBox="0 0 512 512" version="1.1">
<g id="surface1">
<path style=" stroke:none;fill-rule:nonzero;fill:rgb(100%,100%,100%);fill-opacity:1;" d="M 323.367188 107.789062 L 323.367188 94.316406 C 323.367188 86.875 317.335938 80.84375 309.894531 80.84375 C 302.453125 80.84375 296.421875 86.875 296.421875 94.316406 L 296.421875 107.789062 L 188.632812 107.789062 C 173.75 107.789062 161.683594 119.855469 161.683594 134.738281 L 161.683594 404.210938 C 161.683594 419.09375 173.75 431.15625 188.632812 431.15625 L 323.367188 431.15625 C 338.25 431.15625 350.316406 419.09375 350.316406 404.210938 L 350.316406 134.738281 C 350.316406 119.855469 338.25 107.789062 323.367188 107.789062 Z M 215.578125 404.210938 L 188.632812 404.210938 L 188.632812 377.261719 L 215.578125 377.261719 Z M 215.578125 350.316406 L 188.632812 350.316406 L 188.632812 323.367188 L 215.578125 323.367188 Z M 215.578125 296.421875 L 188.632812 296.421875 L 188.632812 269.472656 L 215.578125 269.472656 Z M 269.472656 404.210938 L 242.527344 404.210938 L 242.527344 377.261719 L 269.472656 377.261719 Z M 269.472656 350.316406 L 242.527344 350.316406 L 242.527344 323.367188 L 269.472656 323.367188 Z M 269.472656 296.421875 L 242.527344 296.421875 L 242.527344 269.472656 L 269.472656 269.472656 Z M 323.367188 404.210938 L 296.421875 404.210938 L 296.421875 377.261719 L 323.367188 377.261719 Z M 323.367188 350.316406 L 296.421875 350.316406 L 296.421875 323.367188 L 323.367188 323.367188 Z M 323.367188 296.421875 L 296.421875 296.421875 L 296.421875 269.472656 L 323.367188 269.472656 Z M 323.367188 229.050781 C 323.367188 236.492188 317.335938 242.527344 309.894531 242.527344 L 202.105469 242.527344 C 194.664062 242.527344 188.632812 236.492188 188.632812 229.050781 L 188.632812 148.210938 C 188.632812 140.769531 194.664062 134.738281 202.105469 134.738281 L 309.894531 134.738281 C 317.335938 134.738281 323.367188 140.769531 323.367188 148.210938 Z M 323.367188 229.050781 "/>
</g>
</svg>
