<?xml version="1.0" encoding="UTF-8"?>
<svg xmlns="http://www.w3.org/2000/svg" xmlns:xlink="http://www.w3.org/1999/xlink" width="512px" height="512px" viewBox="0 0 512 512" version="1.1">
<g id="surface1">
<path style=" stroke:none;fill-rule:nonzero;fill:rgb(100%,100%,100%);fill-opacity:1;" d="M 377.261719 404.210938 L 161.683594 404.210938 C 148.210938 404.210938 134.738281 390.738281 134.738281 377.261719 L 134.738281 188.632812 C 134.738281 134.738281 156.292969 80.84375 242.527344 80.84375 C 326.0625 80.84375 350.316406 134.738281 350.316406 188.632812 L 350.316406 350.316406 L 377.261719 350.316406 C 390.738281 350.316406 404.210938 363.789062 404.210938 377.261719 C 404.210938 390.738281 390.738281 404.210938 377.261719 404.210938 Z M 188.632812 350.316406 L 296.421875 350.316406 L 296.421875 188.632812 C 296.421875 161.683594 296.421875 134.738281 242.527344 134.738281 C 188.632812 134.738281 188.632812 161.683594 188.632812 188.632812 Z M 188.632812 350.316406 "/>
</g>
</svg>
