<?xml version="1.0" encoding="UTF-8"?>
<svg xmlns="http://www.w3.org/2000/svg" xmlns:xlink="http://www.w3.org/1999/xlink" width="512px" height="512px" viewBox="0 0 512 512" version="1.1">
<g id="surface1">
<path style=" stroke:none;fill-rule:nonzero;fill:rgb(100%,100%,100%);fill-opacity:1;" d="M 256 80.84375 C 247.914062 80.84375 245.222656 86.230469 239.832031 91.621094 L 83.535156 347.621094 C 80.84375 350.316406 80.84375 355.707031 80.84375 358.398438 C 80.84375 371.875 91.621094 377.261719 99.707031 377.261719 L 412.292969 377.261719 C 423.074219 377.261719 431.15625 371.875 431.15625 358.398438 C 431.15625 353.011719 431.15625 353.011719 428.464844 347.621094 L 274.863281 91.621094 C 269.472656 86.230469 264.085938 80.84375 256 80.84375 Z M 256 121.261719 L 344.925781 269.472656 L 323.367188 269.472656 L 282.949219 229.050781 L 256 269.472656 L 229.050781 229.050781 L 188.632812 269.472656 L 164.378906 269.472656 Z M 256 121.261719 "/>
</g>
</svg>
