<?xml version="1.0" encoding="UTF-8"?>
<svg xmlns="http://www.w3.org/2000/svg" xmlns:xlink="http://www.w3.org/1999/xlink" width="512px" height="512px" viewBox="0 0 512 512" version="1.1">
<g id="surface1">
<path style=" stroke:none;fill-rule:nonzero;fill:rgb(100%,100%,100%);fill-opacity:1;" d="M 390.738281 53.894531 C 388.570312 53.917969 386.441406 54.472656 384.539062 55.511719 L 148.210938 121.261719 C 140.769531 121.261719 134.738281 127.296875 134.738281 134.738281 L 134.738281 303.964844 C 126.574219 299.121094 117.28125 296.519531 107.789062 296.421875 C 78.023438 296.421875 53.894531 320.550781 53.894531 350.316406 C 53.894531 380.082031 78.023438 404.210938 107.789062 404.210938 C 137.554688 404.210938 161.683594 380.082031 161.683594 350.316406 L 161.683594 225.28125 L 377.261719 165.457031 L 377.261719 263.546875 C 369.101562 258.699219 359.808594 256.101562 350.316406 256 C 320.550781 256 296.421875 280.128906 296.421875 309.894531 C 296.421875 339.660156 320.550781 363.789062 350.316406 363.789062 C 380.082031 363.789062 404.210938 339.660156 404.210938 309.894531 L 404.210938 67.367188 C 404.210938 59.929688 398.175781 53.894531 390.738281 53.894531 Z M 377.261719 138.507812 L 161.683594 198.332031 L 161.683594 144.4375 L 377.261719 84.613281 Z M 377.261719 138.507812 "/>
</g>
</svg>
