<?xml version="1.0" encoding="UTF-8"?>
<svg xmlns="http://www.w3.org/2000/svg" xmlns:xlink="http://www.w3.org/1999/xlink" width="512px" height="512px" viewBox="0 0 512 512" version="1.1">
<g id="surface1">
<path style=" stroke:none;fill-rule:nonzero;fill:rgb(100%,100%,100%);fill-opacity:1;" d="M 289.765625 223.070312 C 285.527344 225.582031 280.257812 225.582031 276.023438 223.070312 C 250.65625 205.71875 233.640625 178.601562 229.050781 148.210938 C 227.894531 133.40625 222.359375 119.28125 213.152344 107.628906 L 212.640625 106.898438 C 211.753906 105.792969 211.226562 104.4375 211.132812 103.019531 C 211.03125 101.203125 211.707031 99.429688 212.992188 98.144531 C 214.28125 96.855469 216.054688 96.179688 217.871094 96.28125 C 218.390625 96.324219 218.90625 96.425781 219.40625 96.578125 C 233.375 101.816406 245.910156 110.273438 256 121.261719 L 277.019531 79.226562 C 278.140625 76.980469 280.4375 75.5625 282.949219 75.5625 C 285.457031 75.5625 287.753906 76.980469 288.875 79.226562 L 309.894531 121.261719 C 319.78125 110.332031 332.160156 101.949219 345.976562 96.820312 C 346.832031 96.472656 347.746094 96.28125 348.671875 96.257812 C 353.386719 96.5 354.386719 99.460938 354.628906 102.964844 C 354.515625 104.300781 354.121094 105.59375 353.46875 106.765625 C 345.746094 119.601562 340.132812 133.59375 336.84375 148.210938 C 332.214844 178.613281 315.164062 205.730469 289.765625 223.070312 Z M 188.632812 269.472656 L 223.367188 269.472656 C 227.085938 269.472656 230.105469 266.457031 230.105469 262.738281 C 230.039062 261.238281 229.457031 259.8125 228.460938 258.695312 L 180.546875 194.964844 C 179.242188 193.40625 177.3125 192.503906 175.277344 192.503906 C 173.246094 192.503906 171.316406 193.40625 170.011719 194.964844 L 121.75 258.398438 C 120.738281 259.625 120.152344 261.148438 120.078125 262.738281 C 120.078125 266.457031 123.09375 269.472656 126.8125 269.472656 L 161.683594 269.472656 L 89.871094 339.535156 C 88.945312 340.710938 88.398438 342.140625 88.304688 343.632812 C 88.335938 347.355469 91.375 350.34375 95.097656 350.316406 L 134.738281 350.316406 L 92.5625 392.488281 C 90.605469 394.453125 90.019531 397.402344 91.082031 399.964844 C 92.144531 402.53125 94.640625 404.203125 97.414062 404.210938 L 161.683594 404.210938 L 161.683594 431.15625 L 188.632812 431.15625 L 188.632812 404.210938 L 252.902344 404.210938 C 255.675781 404.203125 258.171875 402.53125 259.234375 399.964844 C 260.292969 397.402344 259.710938 394.453125 257.75 392.488281 L 215.578125 350.316406 L 255.21875 350.316406 C 258.9375 350.316406 261.957031 347.300781 261.957031 343.578125 C 261.925781 342.097656 261.371094 340.675781 260.390625 339.5625 Z M 440.453125 370.472656 C 440.453125 374.222656 437.414062 377.261719 433.664062 377.261719 L 293.941406 377.261719 C 291.582031 377.269531 289.390625 376.054688 288.148438 374.046875 C 286.90625 372.042969 286.792969 369.535156 287.851562 367.425781 L 357.589844 227.730469 C 358.742188 225.429688 361.09375 223.972656 363.667969 223.972656 C 366.242188 223.972656 368.59375 225.429688 369.746094 227.730469 L 439.808594 367.425781 C 440.257812 368.378906 440.480469 369.421875 440.453125 370.472656 Z M 397.472656 323.367188 L 363.789062 256 L 330.105469 323.367188 Z M 397.472656 323.367188 "/>
</g>
</svg>
