<?xml version="1.0" encoding="UTF-8"?>
<svg xmlns="http://www.w3.org/2000/svg" xmlns:xlink="http://www.w3.org/1999/xlink" width="512px" height="512px" viewBox="0 0 512 512" version="1.1">
<g id="surface1">
<path style=" stroke:none;fill-rule:nonzero;fill:rgb(100%,100%,100%);fill-opacity:1;" d="M 377.261719 390.738281 L 363.789062 390.738281 L 323.367188 296.421875 L 323.367188 242.527344 C 350.183594 242.527344 350.183594 222.316406 350.183594 222.316406 L 363.789062 134.738281 C 363.789062 134.738281 363.789062 121.261719 350.316406 121.261719 L 323.367188 121.261719 C 323.367188 121.261719 323.367188 107.789062 309.894531 107.789062 L 282.949219 107.789062 L 282.949219 94.316406 C 282.949219 94.316406 282.949219 67.367188 256 67.367188 C 229.050781 67.367188 229.050781 94.316406 229.050781 94.316406 L 229.050781 107.789062 L 202.105469 107.789062 C 188.632812 107.789062 188.632812 121.261719 188.632812 121.261719 L 161.683594 121.261719 C 148.210938 121.261719 148.210938 134.738281 148.210938 134.738281 L 161.816406 222.316406 C 161.816406 222.316406 161.816406 242.527344 188.632812 242.527344 L 188.632812 296.421875 L 148.210938 390.738281 L 134.738281 390.738281 C 134.738281 390.738281 107.789062 390.738281 107.789062 410.949219 C 107.789062 431.15625 134.738281 431.15625 134.738281 431.15625 L 377.261719 431.15625 C 377.261719 431.15625 404.210938 431.15625 404.210938 410.949219 C 404.210938 390.738281 377.261719 390.738281 377.261719 390.738281 Z M 330.105469 148.210938 L 323.367188 188.632812 L 188.632812 188.632812 L 181.894531 148.132812 Z M 282.949219 242.527344 L 282.949219 269.472656 L 229.050781 269.472656 L 229.050781 242.527344 Z M 229.070312 309.816406 L 282.929688 309.816406 L 309.894531 390.738281 L 202.105469 390.738281 Z M 229.070312 309.816406 "/>
</g>
</svg>
