<?xml version="1.0" encoding="UTF-8"?>
<svg xmlns="http://www.w3.org/2000/svg" xmlns:xlink="http://www.w3.org/1999/xlink" width="512px" height="512px" viewBox="0 0 512 512" version="1.1">
<g id="surface1">
<path style=" stroke:none;fill-rule:nonzero;fill:rgb(100%,100%,100%);fill-opacity:1;" d="M 101.992188 156.609375 C 108.699219 143.203125 122.402344 134.738281 137.394531 134.738281 C 147.894531 134.738281 157.960938 138.90625 165.386719 146.332031 L 184.683594 165.628906 C 189.945312 170.890625 189.945312 179.421875 184.683594 184.683594 C 179.421875 189.945312 170.890625 189.945312 165.628906 184.683594 L 146.328125 165.382812 C 143.960938 163.015625 140.746094 161.683594 137.398438 161.683594 C 132.613281 161.683594 128.238281 164.386719 126.097656 168.667969 L 89.167969 242.527344 L 195.304688 242.527344 C 217.339844 242.527344 235.753906 257.769531 240.9375 278.21875 C 245.613281 277.109375 250.636719 276.210938 256 276.210938 C 261.363281 276.210938 266.386719 277.113281 271.0625 278.222656 C 276.246094 257.769531 294.652344 242.527344 316.683594 242.527344 L 422.832031 242.527344 L 385.902344 168.667969 C 383.761719 164.386719 379.386719 161.683594 374.601562 161.683594 C 371.253906 161.683594 368.039062 163.015625 365.671875 165.382812 L 346.371094 184.683594 C 341.109375 189.945312 332.578125 189.945312 327.316406 184.683594 C 322.054688 179.421875 322.054688 170.890625 327.316406 165.628906 L 346.613281 146.332031 C 354.039062 138.90625 364.109375 134.738281 374.605469 134.738281 C 389.597656 134.738281 403.300781 143.203125 410.007812 156.609375 L 456.527344 249.578125 L 456.5 249.617188 C 457.523438 251.515625 458.105469 253.691406 458.105469 256 L 458.105469 282.949219 C 458.105469 290.386719 452.070312 296.421875 444.632812 296.421875 L 431.15625 296.421875 L 431.15625 309.894531 C 431.15625 352.710938 404.15625 377.261719 357.050781 377.261719 L 343.578125 377.261719 C 296.476562 377.261719 269.472656 352.710938 269.472656 309.894531 L 269.472656 305.617188 C 265.429688 304.324219 260.5625 303.15625 256 303.15625 C 251.4375 303.15625 246.578125 304.324219 242.527344 305.617188 L 242.527344 309.894531 C 242.527344 352.710938 215.515625 377.261719 168.421875 377.261719 L 154.949219 377.261719 C 107.855469 377.261719 80.84375 352.710938 80.84375 309.894531 L 80.84375 296.421875 L 67.347656 296.421875 C 59.917969 296.421875 53.894531 290.398438 53.894531 282.964844 L 53.894531 256 C 53.894531 253.691406 54.476562 251.515625 55.5 249.617188 L 55.472656 249.578125 Z M 316.683594 269.472656 C 305.5 269.472656 296.421875 278.566406 296.421875 289.75 L 296.421875 309.894531 C 296.421875 328.710938 301.789062 350.316406 343.578125 350.316406 L 357.050781 350.316406 C 398.84375 350.316406 404.210938 328.710938 404.210938 309.894531 L 404.210938 289.761719 C 404.210938 278.578125 395.105469 269.472656 383.921875 269.472656 Z M 128.078125 269.472656 C 116.894531 269.472656 107.789062 278.566406 107.789062 289.75 L 107.789062 309.894531 C 107.789062 328.710938 113.144531 350.316406 154.949219 350.316406 L 168.421875 350.316406 C 210.222656 350.316406 215.578125 328.710938 215.578125 309.894531 L 215.578125 289.75 C 215.578125 278.566406 206.488281 269.472656 195.300781 269.472656 Z M 128.078125 269.472656 "/>
</g>
</svg>
