<?xml version="1.0" encoding="UTF-8"?>
<svg xmlns="http://www.w3.org/2000/svg" xmlns:xlink="http://www.w3.org/1999/xlink" width="512px" height="512px" viewBox="0 0 512 512" version="1.1">
<g id="surface1">
<path style=" stroke:none;fill-rule:nonzero;fill:rgb(100%,100%,100%);fill-opacity:1;" d="M 417.683594 148.210938 L 390.738281 148.210938 L 390.738281 121.335938 C 390.738281 113.851562 384.671875 107.789062 377.191406 107.789062 L 94.386719 107.789062 C 86.90625 107.789062 80.84375 113.851562 80.84375 121.335938 L 80.84375 202.03125 C 80.84375 209.511719 86.90625 215.578125 94.386719 215.578125 L 377.191406 215.578125 C 384.671875 215.578125 390.738281 209.511719 390.738281 202.03125 L 390.738281 175.15625 L 404.210938 175.15625 L 404.210938 258.75 L 239.5 296.761719 C 233.378906 298.183594 229.050781 303.632812 229.050781 309.894531 L 229.050781 350.515625 C 221.554688 351.054688 215.578125 357.144531 215.578125 364.785156 L 215.578125 443.632812 C 215.578125 451.628906 222.058594 458.105469 230.046875 458.105469 L 255.003906 458.105469 C 262.996094 458.105469 269.472656 451.628906 269.472656 443.636719 L 269.472656 364.785156 C 269.472656 357.148438 263.5 351.058594 256 350.519531 L 256 320.605469 L 420.710938 282.605469 C 426.816406 281.199219 431.15625 275.75 431.15625 269.472656 L 431.15625 161.683594 C 431.15625 154.234375 425.132812 148.210938 417.683594 148.210938 Z M 417.683594 148.210938 "/>
</g>
</svg>
