<?xml version="1.0" encoding="UTF-8"?>
<svg xmlns="http://www.w3.org/2000/svg" xmlns:xlink="http://www.w3.org/1999/xlink" width="512px" height="512px" viewBox="0 0 512 512" version="1.1">
<g id="surface1">
<path style=" stroke:none;fill-rule:nonzero;fill:rgb(100%,100%,100%);fill-opacity:1;" d="M 307.953125 334.929688 C 306.707031 333.617188 305.996094 331.886719 305.960938 330.078125 C 305.976562 326.410156 308.921875 323.425781 312.589844 323.367188 L 351.582031 323.367188 C 355.304688 323.367188 358.320312 320.351562 358.320312 316.632812 C 358.269531 314.804688 357.503906 313.074219 356.191406 311.808594 L 298.308594 253.816406 C 297.28125 252.5 296.691406 250.902344 296.609375 249.234375 C 296.609375 247.453125 297.320312 245.742188 298.585938 244.480469 C 299.847656 243.222656 301.5625 242.519531 303.347656 242.527344 L 334.148438 242.527344 C 337.871094 242.511719 340.882812 239.488281 340.882812 235.761719 C 340.875 233.949219 340.125 232.214844 338.808594 230.964844 L 281.113281 173.378906 L 280.738281 173.003906 C 279.617188 171.738281 278.984375 170.113281 278.960938 168.421875 C 278.960938 164.722656 281.941406 161.714844 285.640625 161.683594 L 308.980469 161.683594 C 312.699219 161.683594 315.714844 158.667969 315.714844 154.949219 C 315.675781 153.296875 315.023438 151.722656 313.882812 150.527344 L 314.042969 150.527344 L 261.390625 87.253906 C 261.0625 86.816406 260.679688 86.417969 260.257812 86.070312 C 259.050781 85.097656 257.546875 84.574219 256 84.585938 C 254.453125 84.574219 252.949219 85.097656 251.742188 86.070312 C 251.320312 86.417969 250.9375 86.816406 250.609375 87.253906 L 198.117188 150.527344 C 196.976562 151.722656 196.324219 153.296875 196.285156 154.949219 C 196.285156 158.667969 199.300781 161.683594 203.019531 161.683594 L 226.359375 161.683594 C 229.160156 161.402344 231.824219 162.960938 232.953125 165.539062 C 234.082031 168.121094 233.421875 171.132812 231.316406 173.003906 L 230.9375 173.378906 L 173.296875 230.964844 C 171.980469 232.214844 171.230469 233.949219 171.222656 235.761719 C 171.222656 239.445312 174.167969 242.453125 177.851562 242.527344 L 208.707031 242.527344 C 210.492188 242.519531 212.207031 243.222656 213.46875 244.480469 C 214.734375 245.742188 215.445312 247.453125 215.445312 249.234375 C 215.363281 250.902344 214.769531 252.5 213.746094 253.816406 L 155.808594 311.808594 C 154.464844 313.0625 153.671875 314.792969 153.601562 316.632812 C 153.601562 320.351562 156.617188 323.367188 160.335938 323.367188 L 199.410156 323.367188 C 203.101562 323.398438 206.078125 326.390625 206.09375 330.078125 C 206.058594 331.886719 205.347656 333.617188 204.097656 334.929688 L 146.433594 392.378906 L 146.191406 392.625 C 144.933594 393.875 144.226562 395.578125 144.226562 397.351562 C 144.226562 399.125 144.933594 400.828125 146.191406 402.082031 C 147.457031 403.410156 149.203125 404.175781 151.039062 404.210938 L 242.527344 404.210938 L 242.527344 431.15625 L 269.472656 430.941406 L 269.472656 404.210938 L 360.851562 404.210938 C 364.640625 404.167969 367.730469 401.152344 367.859375 397.367188 C 367.882812 395.585938 367.191406 393.867188 365.945312 392.597656 Z M 307.953125 334.929688 "/>
</g>
</svg>
