<?xml version="1.0" encoding="UTF-8"?>
<svg xmlns="http://www.w3.org/2000/svg" xmlns:xlink="http://www.w3.org/1999/xlink" width="512px" height="512px" viewBox="0 0 512 512" version="1.1">
<g id="surface1">
<path style=" stroke:none;fill-rule:nonzero;fill:rgb(100%,100%,100%);fill-opacity:1;" d="M 80.84375 404.210938 L 80.84375 107.789062 L 202.105469 107.789062 C 239.648438 107.78125 273.621094 130.039062 288.605469 164.460938 C 283.332031 169.9375 278.769531 176.058594 275.023438 182.675781 C 268.828125 193.726562 268.773438 205.230469 270.335938 213.773438 L 278.421875 257.5625 C 260.683594 282 232.300781 296.453125 202.105469 296.421875 L 134.738281 296.421875 L 134.738281 404.210938 Z M 202.105469 242.527344 C 224.429688 242.527344 242.527344 224.429688 242.527344 202.105469 C 242.527344 179.78125 224.429688 161.683594 202.105469 161.683594 L 134.738281 161.683594 L 134.738281 242.527344 Z M 296.851562 208.894531 C 295.863281 204.488281 296.457031 199.871094 298.523438 195.851562 C 304.910156 184.535156 322.777344 161.683594 363.789062 161.683594 C 404.777344 161.683594 422.667969 184.507812 429.027344 195.851562 C 431.113281 199.863281 431.722656 204.480469 430.753906 208.894531 L 404.722656 350.316406 L 377.261719 350.316406 L 377.261719 404.210938 L 350.316406 404.210938 L 350.316406 350.316406 L 322.855469 350.316406 Z M 397.472656 242.527344 L 404.210938 206.28125 C 399.628906 199.652344 388.582031 188.632812 363.789062 188.632812 C 338.996094 188.632812 327.949219 199.679688 323.367188 206.28125 L 330.105469 242.527344 Z M 397.472656 242.527344 "/>
</g>
</svg>
