<?xml version="1.0" encoding="UTF-8"?>
<svg xmlns="http://www.w3.org/2000/svg" xmlns:xlink="http://www.w3.org/1999/xlink" width="512px" height="512px" viewBox="0 0 512 512" version="1.1">
<g id="surface1">
<path style=" stroke:none;fill-rule:nonzero;fill:rgb(100%,100%,100%);fill-opacity:1;" d="M 336.84375 327.140625 C 318.957031 340.042969 297.144531 346.332031 275.132812 344.925781 L 223.933594 344.925781 L 223.933594 431.15625 L 172.734375 431.15625 L 172.734375 188.632812 L 278.367188 188.632812 C 299.386719 187.515625 320.089844 194.132812 336.574219 207.226562 C 352.144531 222.300781 360.152344 243.558594 358.398438 265.160156 C 361.207031 288.046875 353.246094 310.941406 336.84375 327.140625 Z M 296.421875 239.832031 C 288.632812 234.121094 279.117188 231.269531 269.472656 231.746094 L 223.933594 231.746094 L 223.933594 303.15625 L 269.472656 303.15625 C 279.207031 303.671875 288.796875 300.605469 296.421875 294.535156 C 303.316406 287.328125 306.839844 277.535156 306.121094 267.585938 C 307.394531 257.328125 303.804688 247.0625 296.421875 239.832031 Z M 442.207031 167.34375 C 445.277344 160.644531 442.394531 152.71875 435.738281 149.558594 L 256 66.019531 L 75.183594 149.558594 C 68.410156 152.683594 65.457031 160.707031 68.582031 167.476562 C 71.707031 174.25 79.730469 177.207031 86.5 174.078125 L 256 95.664062 L 425.5 173.808594 C 432.199219 176.882812 440.125 174 443.285156 167.34375 Z M 442.207031 167.34375 "/>
</g>
</svg>
