<?xml version="1.0" encoding="UTF-8"?>
<svg xmlns="http://www.w3.org/2000/svg" xmlns:xlink="http://www.w3.org/1999/xlink" width="512px" height="512px" viewBox="0 0 512 512" version="1.1">
<g id="surface1">
<path style=" stroke:none;fill-rule:nonzero;fill:rgb(100%,100%,100%);fill-opacity:1;" d="M 431.15625 208.84375 C 431.460938 190.347656 420.921875 173.382812 404.210938 165.457031 C 402.796875 147.957031 388.078125 134.539062 370.527344 134.738281 C 367.863281 134.949219 365.238281 135.492188 362.710938 136.355469 C 361.074219 118.570312 345.332031 105.476562 327.550781 107.113281 C 320.578125 107.753906 314.007812 110.640625 308.816406 115.335938 C 308.816406 96.730469 293.738281 81.652344 275.132812 81.652344 C 256.527344 81.652344 241.449219 96.730469 241.449219 115.335938 C 241.449219 115.335938 242.527344 115.875 242.527344 116.683594 C 228.746094 104.859375 207.992188 106.449219 196.167969 120.234375 C 192.179688 124.886719 189.566406 130.5625 188.632812 136.625 C 184.367188 135.261719 179.902344 134.625 175.425781 134.738281 C 153.105469 134.550781 134.855469 152.496094 134.667969 174.816406 C 134.625 180.203125 135.65625 185.539062 137.699219 190.519531 C 116.34375 196.488281 103.871094 218.640625 109.839844 239.996094 C 113.617188 253.515625 124.179688 264.078125 137.699219 267.855469 C 144.527344 288.953125 167.164062 300.523438 188.261719 293.699219 C 202.6875 289.03125 213.253906 276.640625 215.578125 261.660156 C 220.511719 265.945312 226.609375 268.667969 233.09375 269.472656 L 233.09375 404.210938 L 188.632812 431.15625 L 323.367188 431.15625 L 280.253906 404.210938 L 280.253906 350.316406 C 300.140625 326.292969 325.835938 307.742188 354.898438 296.421875 C 376.488281 301.484375 398.09375 288.089844 403.15625 266.5 C 403.921875 263.238281 404.277344 259.890625 404.210938 256.539062 C 404.289062 255.101562 404.289062 253.664062 404.210938 252.226562 C 420.921875 244.300781 431.460938 227.335938 431.15625 208.84375 Z M 280.253906 330.375 L 280.253906 237.675781 C 287.535156 250.628906 301.230469 258.660156 316.09375 258.695312 L 323.636719 258.695312 C 324.058594 270.527344 329.679688 281.574219 338.996094 288.875 C 317.015625 298.953125 297.097656 313.027344 280.253906 330.375 Z M 280.253906 330.375 "/>
</g>
</svg>
