<?xml version="1.0" encoding="UTF-8"?>
<svg xmlns="http://www.w3.org/2000/svg" xmlns:xlink="http://www.w3.org/1999/xlink" width="512px" height="512px" viewBox="0 0 512 512" version="1.1">
<g id="surface1">
<path style=" stroke:none;fill-rule:nonzero;fill:rgb(100%,100%,100%);fill-opacity:1;" d="M 309.894531 161.683594 L 338.726562 120.183594 C 340.34375 120.308594 341.964844 120.308594 343.578125 120.183594 C 362.183594 120.175781 377.253906 105.085938 377.246094 86.484375 C 377.234375 67.878906 362.148438 52.804688 343.542969 52.816406 C 324.941406 52.828125 309.867188 67.914062 309.878906 86.515625 C 309.878906 86.871094 309.882812 87.222656 309.894531 87.578125 C 309.894531 87.578125 309.894531 89.464844 309.894531 90.273438 L 242.527344 161.683594 Z M 377.261719 215.578125 L 377.261719 188.632812 L 134.738281 188.632812 L 134.738281 215.578125 L 175.15625 309.894531 L 134.738281 404.210938 L 134.738281 431.15625 L 377.261719 431.15625 L 377.261719 404.210938 L 350.316406 309.894531 Z M 323.367188 323.367188 L 269.472656 323.367188 L 269.472656 377.261719 L 242.527344 377.261719 L 242.527344 323.367188 L 188.632812 323.367188 L 188.632812 296.421875 L 242.527344 296.421875 L 242.527344 242.527344 L 269.472656 242.527344 L 269.472656 296.421875 L 323.367188 296.421875 Z M 323.367188 323.367188 "/>
</g>
</svg>
