<?xml version="1.0" encoding="UTF-8"?>
<svg xmlns="http://www.w3.org/2000/svg" xmlns:xlink="http://www.w3.org/1999/xlink" width="512px" height="512px" viewBox="0 0 512 512" version="1.1">
<g id="surface1">
<path style=" stroke:none;fill-rule:nonzero;fill:rgb(100%,100%,100%);fill-opacity:1;" d="M 161.683594 134.738281 C 146.753906 134.738281 134.738281 146.753906 134.738281 161.683594 C 134.738281 176.613281 146.753906 188.632812 161.683594 188.632812 L 196.632812 188.632812 L 179.261719 242.527344 L 121.261719 242.527344 C 106.335938 242.527344 94.316406 254.542969 94.316406 269.472656 C 94.316406 284.402344 106.335938 296.421875 121.261719 296.421875 L 161.949219 296.421875 L 135.839844 377.527344 C 132.382812 388.140625 138.179688 399.550781 148.796875 403.011719 C 159.410156 406.472656 170.820312 400.671875 174.28125 390.058594 C 174.292969 390.023438 174.304688 389.984375 174.3125 389.949219 L 204.421875 296.421875 L 307.578125 296.421875 L 337.683594 389.949219 C 341.113281 400.574219 352.507812 406.402344 363.128906 402.972656 C 373.75 399.542969 379.585938 388.148438 376.15625 377.527344 L 350.050781 296.421875 L 390.738281 296.421875 C 405.664062 296.421875 417.683594 284.402344 417.683594 269.472656 C 417.683594 254.542969 405.664062 242.527344 390.738281 242.527344 L 332.738281 242.527344 L 315.367188 188.632812 L 350.316406 188.632812 C 365.246094 188.632812 377.261719 176.613281 377.261719 161.683594 C 377.261719 146.753906 365.246094 134.738281 350.316406 134.738281 Z M 239.105469 188.632812 L 272.894531 188.632812 L 290.261719 242.527344 L 221.738281 242.527344 Z M 239.105469 188.632812 "/>
</g>
</svg>
