<?xml version="1.0" encoding="UTF-8"?>
<svg xmlns="http://www.w3.org/2000/svg" xmlns:xlink="http://www.w3.org/1999/xlink" width="512px" height="512px" viewBox="0 0 512 512" version="1.1">
<g id="surface1">
<path style=" stroke:none;fill-rule:nonzero;fill:rgb(100%,100%,100%);fill-opacity:1;" d="M 188.632812 134.738281 C 173.75 134.738281 161.683594 122.671875 161.683594 107.789062 C 161.683594 92.90625 173.75 80.84375 188.632812 80.84375 C 203.515625 80.84375 215.578125 92.90625 215.578125 107.789062 C 215.578125 122.671875 203.515625 134.738281 188.632812 134.738281 Z M 390.738281 323.367188 L 323.367188 323.367188 L 296.421875 242.527344 L 269.472656 195.367188 L 296.421875 188.632812 L 358.398438 215.578125 C 365.839844 218.554688 374.285156 214.933594 377.261719 207.496094 C 380.242188 200.054688 376.617188 191.609375 369.179688 188.632812 L 296.421875 161.683594 L 242.527344 161.683594 L 188.632812 188.632812 L 161.683594 215.578125 L 121.261719 215.578125 C 113.824219 215.578125 107.789062 221.613281 107.789062 229.050781 C 107.789062 236.492188 113.824219 242.527344 121.261719 242.527344 L 188.632812 242.527344 L 215.578125 215.578125 L 242.527344 269.472656 L 188.632812 323.367188 L 188.632812 417.683594 C 188.632812 425.125 194.664062 431.15625 202.105469 431.15625 C 209.546875 431.15625 215.578125 425.125 215.578125 417.683594 L 215.578125 333.878906 L 269.472656 296.421875 L 296.421875 350.316406 L 390.738281 350.316406 C 398.175781 350.316406 404.210938 344.28125 404.210938 336.84375 C 404.210938 329.402344 398.175781 323.367188 390.738281 323.367188 Z M 390.738281 323.367188 "/>
</g>
</svg>
