<?xml version="1.0" encoding="UTF-8"?>
<svg xmlns="http://www.w3.org/2000/svg" xmlns:xlink="http://www.w3.org/1999/xlink" width="512px" height="512px" viewBox="0 0 512 512" version="1.1">
<g id="surface1">
<path style=" stroke:none;fill-rule:nonzero;fill:rgb(100%,100%,100%);fill-opacity:1;" d="M 256 53.894531 L 202.105469 107.789062 L 202.105469 161.683594 L 309.894531 161.683594 L 309.894531 107.789062 Z M 202.105469 175.15625 L 161.683594 215.578125 L 350.316406 215.578125 L 309.894531 175.15625 Z M 107.789062 229.050781 C 92.90625 229.050781 80.84375 241.117188 80.84375 256 L 80.84375 404.210938 L 134.738281 404.210938 L 134.738281 256 C 134.738281 241.117188 122.671875 229.050781 107.789062 229.050781 Z M 161.683594 229.050781 L 161.683594 404.210938 L 350.316406 404.210938 L 350.316406 229.050781 Z M 404.210938 229.050781 C 389.328125 229.050781 377.261719 241.117188 377.261719 256 L 377.261719 404.210938 L 431.15625 404.210938 L 431.15625 256 C 431.15625 241.117188 419.09375 229.050781 404.210938 229.050781 Z M 404.210938 229.050781 "/>
</g>
</svg>
