<?xml version="1.0" encoding="UTF-8"?>
<svg xmlns="http://www.w3.org/2000/svg" xmlns:xlink="http://www.w3.org/1999/xlink" width="512px" height="512px" viewBox="0 0 512 512" version="1.1">
<g id="surface1">
<path style=" stroke:none;fill-rule:nonzero;fill:rgb(100%,100%,100%);fill-opacity:1;" d="M 134.738281 84.882812 C 140.371094 63.28125 162.449219 50.339844 184.050781 55.972656 C 205.652344 61.605469 218.59375 83.683594 212.964844 105.285156 C 207.566406 125.984375 186.976562 138.890625 165.996094 134.738281 C 144.097656 130.398438 129.863281 109.132812 134.199219 87.230469 C 134.355469 86.445312 134.535156 85.660156 134.738281 84.882812 Z M 431.15625 385.886719 C 433.9375 400.507812 424.335938 414.613281 409.71875 417.394531 C 409.679688 417.402344 409.640625 417.410156 409.601562 417.414062 C 398.140625 419.730469 386.496094 414.398438 380.765625 404.210938 L 335.496094 313.398438 L 296.421875 321.210938 L 290.492188 323.367188 L 288.875 323.367188 L 288.875 381.304688 L 305.582031 377.261719 L 309.355469 377.261719 C 317.09375 377.410156 323.246094 383.796875 323.101562 391.539062 C 322.996094 397.097656 319.613281 402.074219 314.476562 404.210938 L 179.738281 431.15625 C 178.222656 431.414062 176.675781 431.414062 175.160156 431.15625 C 167.417969 431.15625 161.144531 424.882812 161.144531 417.144531 C 161.144531 411.488281 164.546875 406.386719 169.769531 404.210938 L 281.601562 381.84375 L 281.601562 323.367188 L 194.828125 338.996094 C 190.410156 340.136719 185.777344 340.136719 181.355469 338.996094 C 172.210938 336.660156 164.949219 329.710938 162.222656 320.671875 L 161.683594 320.671875 L 134.738281 210.996094 C 133.898438 207.183594 133.898438 203.226562 134.738281 199.410156 C 137.257812 188.980469 145.726562 181.046875 156.296875 179.199219 L 282.949219 165.1875 L 282.949219 53.894531 L 288.875 53.894531 L 288.875 164.378906 L 290.492188 164.378906 L 296.421875 163.839844 L 307.199219 161.683594 L 312.859375 161.683594 C 320.0625 163.417969 324.515625 170.640625 322.828125 177.851562 C 321.648438 184.183594 316.066406 188.742188 309.625 188.632812 L 296.421875 190.789062 L 288.875 190.789062 L 288.875 267.855469 L 290.492188 267.855469 L 296.421875 266.238281 L 345.195312 256.539062 C 356.714844 255.589844 367.558594 262.09375 372.144531 272.707031 L 426.039062 378.878906 C 428.113281 380.921875 429.839844 383.289062 431.15625 385.886719 Z M 282.949219 192.132812 L 215.578125 199.410156 L 235.519531 278.636719 L 282.949219 269.472656 Z M 282.949219 192.132812 "/>
</g>
</svg>
