<?xml version="1.0" encoding="UTF-8"?>
<svg xmlns="http://www.w3.org/2000/svg" xmlns:xlink="http://www.w3.org/1999/xlink" width="512px" height="512px" viewBox="0 0 512 512" version="1.1">
<g id="surface1">
<path style=" stroke:none;fill-rule:nonzero;fill:rgb(100%,100%,100%);fill-opacity:1;" d="M 256 80.84375 C 159.261719 80.84375 80.84375 159.261719 80.84375 256 C 80.84375 352.738281 159.261719 431.15625 256 431.15625 C 352.738281 431.15625 431.15625 352.738281 431.15625 256 C 431.15625 159.261719 352.738281 80.84375 256 80.84375 Z M 326.0625 157.371094 L 256 227.4375 L 185.9375 157.371094 C 227.765625 127.183594 284.234375 127.183594 326.0625 157.371094 Z M 157.371094 185.957031 L 227.417969 256 L 157.355469 326.042969 C 127.191406 284.21875 127.199219 227.773438 157.371094 185.957031 Z M 185.9375 354.628906 L 256 284.5625 L 326.0625 354.628906 C 284.234375 384.816406 227.765625 384.816406 185.9375 354.628906 Z M 354.628906 326.046875 L 284.582031 256 L 354.644531 185.957031 C 384.808594 227.78125 384.800781 284.226562 354.628906 326.042969 Z M 354.628906 326.046875 "/>
</g>
</svg>
