<?xml version="1.0" encoding="UTF-8"?>
<svg xmlns="http://www.w3.org/2000/svg" xmlns:xlink="http://www.w3.org/1999/xlink" width="512px" height="512px" viewBox="0 0 512 512" version="1.1">
<g id="surface1">
<path style=" stroke:none;fill-rule:nonzero;fill:rgb(100%,100%,100%);fill-opacity:1;" d="M 202.105469 80.84375 L 215.578125 107.789062 L 350.316406 107.789062 L 363.789062 80.84375 Z M 215.578125 121.261719 L 215.578125 154.949219 C 215.578125 154.949219 215.578125 229.050781 282.949219 229.050781 C 350.316406 229.050781 350.316406 154.949219 350.316406 154.949219 L 350.316406 121.261719 Z M 107.367188 161.316406 C 92.507812 161.546875 80.636719 173.769531 80.84375 188.632812 L 80.84375 296.421875 C 80.839844 313.660156 96.800781 326.472656 113.632812 322.738281 L 188.632812 306.050781 L 188.632812 431.15625 L 347.050781 244.421875 C 343.285156 243.320312 339.394531 242.527344 335.261719 242.527344 L 229.050781 242.527344 L 134.738281 262.84375 L 134.738281 188.632812 C 134.945312 173.4375 122.558594 161.078125 107.367188 161.316406 Z M 370.472656 261.683594 L 226.683594 431.15625 L 377.261719 431.15625 L 377.261719 284.527344 C 377.261719 276.078125 374.734375 268.253906 370.472656 261.683594 Z M 370.472656 261.683594 "/>
</g>
</svg>
