<?xml version="1.0" encoding="UTF-8"?>
<svg xmlns="http://www.w3.org/2000/svg" xmlns:xlink="http://www.w3.org/1999/xlink" width="512px" height="512px" viewBox="0 0 512 512" version="1.1">
<g id="surface1">
<path style=" stroke:none;fill-rule:nonzero;fill:rgb(100%,100%,100%);fill-opacity:1;" d="M 94.316406 161.683594 C 94.316406 154.539062 97.15625 147.683594 102.207031 142.628906 C 107.261719 137.574219 114.117188 134.738281 121.261719 134.738281 L 390.738281 134.738281 C 397.882812 134.738281 404.738281 137.574219 409.792969 142.628906 C 414.84375 147.683594 417.683594 154.539062 417.683594 161.683594 C 417.683594 168.832031 414.84375 175.683594 409.792969 180.738281 C 404.738281 185.792969 397.882812 188.632812 390.738281 188.632812 L 121.261719 188.632812 C 114.117188 188.632812 107.265625 185.792969 102.214844 180.742188 C 97.160156 175.691406 94.320312 168.84375 94.316406 161.699219 Z M 390.738281 229.050781 L 121.261719 229.050781 C 114.117188 229.050781 107.261719 231.890625 102.207031 236.945312 C 97.15625 242 94.316406 248.851562 94.316406 256 C 94.316406 263.148438 97.15625 270 102.207031 275.054688 C 107.261719 280.109375 114.117188 282.949219 121.261719 282.949219 L 229.050781 282.949219 L 229.050781 404.210938 C 229.050781 411.355469 231.890625 418.210938 236.945312 423.265625 C 242 428.316406 248.851562 431.15625 256 431.15625 C 263.148438 431.15625 270 428.316406 275.054688 423.265625 C 280.109375 418.210938 282.949219 411.355469 282.949219 404.210938 L 282.949219 282.949219 L 390.738281 282.949219 C 397.882812 282.949219 404.738281 280.109375 409.792969 275.054688 C 414.84375 270 417.683594 263.148438 417.683594 256 C 417.683594 248.851562 414.84375 242 409.792969 236.945312 C 404.738281 231.890625 397.882812 229.050781 390.738281 229.050781 Z M 390.738281 229.050781 "/>
</g>
</svg>
