<?xml version="1.0" encoding="UTF-8"?>
<svg xmlns="http://www.w3.org/2000/svg" xmlns:xlink="http://www.w3.org/1999/xlink" width="512px" height="512px" viewBox="0 0 512 512" version="1.1">
<g id="surface1">
<path style=" stroke:none;fill-rule:nonzero;fill:rgb(100%,100%,100%);fill-opacity:1;" d="M 417.683594 152.289062 C 417.683594 158.160156 414.753906 163.640625 409.867188 166.894531 L 256 269.472656 L 102.132812 166.894531 C 97.25 163.640625 94.316406 158.160156 94.316406 152.289062 C 94.316406 142.597656 102.175781 134.738281 111.867188 134.738281 L 400.128906 134.738281 C 409.828125 134.738281 417.683594 142.597656 417.683594 152.289062 Z M 417.683594 214.691406 L 417.683594 350.316406 C 417.683594 365.199219 405.621094 377.261719 390.738281 377.261719 L 121.261719 377.261719 C 106.378906 377.261719 94.316406 365.199219 94.316406 350.316406 L 94.316406 214.691406 C 94.316406 209.3125 100.3125 206.101562 104.789062 209.085938 L 256 309.894531 L 407.210938 209.085938 C 411.6875 206.101562 417.683594 209.3125 417.683594 214.691406 Z M 417.683594 214.691406 "/>
</g>
</svg>
