<?xml version="1.0" encoding="UTF-8"?>
<svg xmlns="http://www.w3.org/2000/svg" xmlns:xlink="http://www.w3.org/1999/xlink" width="512px" height="512px" viewBox="0 0 512 512" version="1.1">
<g id="surface1">
<path style=" stroke:none;fill-rule:nonzero;fill:rgb(100%,100%,100%);fill-opacity:1;" d="M 148.210938 80.84375 L 148.210938 431.15625 L 377.261719 431.15625 L 377.261719 80.84375 Z M 309.894531 107.789062 L 350.316406 107.789062 L 350.316406 202.105469 L 309.894531 202.105469 Z M 175.15625 109.261719 L 215.578125 109.261719 L 215.578125 242.527344 L 175.15625 242.527344 Z M 242.527344 109.261719 L 282.949219 109.261719 L 282.949219 242.527344 L 242.527344 242.527344 Z M 330.105469 229.050781 C 341.265625 229.050781 350.316406 238.101562 350.316406 249.261719 C 350.316406 260.425781 341.265625 269.472656 330.105469 269.472656 C 318.945312 269.472656 309.894531 260.425781 309.894531 249.261719 C 309.894531 238.101562 318.945312 229.050781 330.105469 229.050781 Z M 242.527344 269.472656 L 282.210938 269.472656 L 282.949219 404.210938 L 243.261719 404.210938 Z M 175.15625 273.945312 L 215.578125 273.945312 L 215.578125 404.210938 L 175.15625 404.210938 Z M 309.894531 296.421875 L 350.316406 296.421875 L 350.316406 404.210938 L 309.894531 404.210938 Z M 309.894531 296.421875 "/>
</g>
</svg>
