<?xml version="1.0" encoding="UTF-8"?>
<svg xmlns="http://www.w3.org/2000/svg" xmlns:xlink="http://www.w3.org/1999/xlink" width="512px" height="512px" viewBox="0 0 512 512" version="1.1">
<g id="surface1">
<path style=" stroke:none;fill-rule:nonzero;fill:rgb(100%,100%,100%);fill-opacity:1;" d="M 188.449219 96.53125 C 189.671875 89.191406 184.714844 82.25 177.375 81.027344 C 170.035156 79.804688 163.089844 84.761719 161.867188 92.101562 L 107.972656 415.472656 C 106.75 422.8125 111.707031 429.753906 119.046875 430.976562 C 126.386719 432.199219 133.332031 427.242188 134.554688 419.902344 L 152.609375 311.574219 C 174.335938 314.738281 197.789062 315.789062 216.28125 328.757812 C 227.71875 336.976562 240.949219 342.359375 254.878906 344.460938 C 280.898438 348.390625 304.183594 334.082031 329.890625 338.164062 L 364.625 343.390625 C 371.625 344.445312 378.902344 339.074219 379.957031 332.074219 L 403.78125 172.167969 L 403.886719 172.058594 C 404.859375 165.042969 399.394531 157.828125 392.378906 156.859375 L 357.644531 151.632812 C 331.699219 147.785156 308.371094 161.675781 282.664062 157.808594 C 271.132812 156.074219 260.160156 151.691406 250.609375 145.003906 C 230.703125 131.066406 206.988281 128.757812 183.625 125.46875 Z M 172.558594 191.878906 L 181.414062 138.738281 C 197.566406 140.925781 214.652344 142.199219 229.617188 148.667969 L 221.675781 201.625 C 206.300781 195.355469 188.976562 194.121094 172.558594 191.878906 Z M 154.824219 298.269531 L 163.6875 245.097656 C 180.398438 247.417969 198.105469 248.5625 213.773438 255.003906 L 221.851562 201.746094 C 239.582031 209.007812 253.085938 221.496094 272.867188 224.417969 L 280.953125 171.0625 C 300.839844 174.066406 317.292969 166.300781 336.410156 164.757812 L 328.328125 217.734375 C 309.191406 219.367188 292.636719 227.453125 272.816406 224.472656 L 265.109375 277.769531 C 245.269531 274.828125 231.746094 262.273438 213.933594 255.03125 L 205.851562 308.277344 C 189.824219 301.851562 171.828125 300.699219 154.824219 298.269531 Z M 265.132812 277.777344 C 284.910156 280.773438 301.542969 272.628906 320.671875 271.035156 L 328.328125 217.734375 C 345.964844 216.109375 364.023438 220.734375 381.359375 223.367188 L 373.8125 276.613281 C 356.453125 274 338.359375 269.371094 320.699219 271.035156 L 312.617188 324.285156 C 293.519531 325.570312 276.640625 333.992188 257.050781 331.019531 Z M 265.132812 277.777344 "/>
</g>
</svg>
