<?xml version="1.0" encoding="UTF-8"?>
<svg xmlns="http://www.w3.org/2000/svg" xmlns:xlink="http://www.w3.org/1999/xlink" width="512px" height="512px" viewBox="0 0 512 512" version="1.1">
<g id="surface1">
<path style=" stroke:none;fill-rule:nonzero;fill:rgb(100%,100%,100%);fill-opacity:1;" d="M 325.101562 356.132812 C 337.742188 342.324219 350.320312 328.582031 368.050781 322.671875 C 392.875 314.398438 410.902344 324.769531 418.347656 330.230469 C 437.859375 344.539062 455.816406 324.292969 434.285156 308.5 C 422.78125 300.0625 395.34375 285.171875 359.527344 297.109375 C 340.121094 303.578125 326.851562 317.769531 313.585938 331.953125 C 302.804688 343.484375 292.027344 355.011719 277.960938 362.378906 C 261.277344 371.121094 249.265625 361.664062 249.265625 345.261719 L 249.265625 344.9375 C 249.269531 323.425781 238.265625 309.894531 215.582031 309.894531 C 202.355469 309.894531 188.84375 316.851562 175.160156 323.367188 C 143.492188 338.449219 112.695312 358.019531 85.769531 380.320312 C 80.09375 385.039062 79.21875 393.660156 83.964844 399.359375 C 90.714844 407.460938 99.617188 403.726562 106.316406 398.339844 C 117.460938 389.367188 154.3125 360.847656 185.375 346.0625 C 198.214844 339.945312 208.59375 336.84375 215.582031 336.84375 C 222.316406 336.84375 222.316406 339.578125 222.316406 345.992188 C 222.261719 381.738281 257.085938 403.734375 290.464844 386.25 C 304.050781 379.132812 314.597656 367.609375 325.101562 356.132812 Z M 121.265625 296.421875 C 161.683594 269.472656 208.976562 242.527344 256 242.527344 C 276.210938 242.527344 276.210938 252.632812 276.210938 262.738281 C 276.210938 272.84375 276.210938 282.949219 296.421875 282.949219 C 364.53125 282.949219 440.945312 196.34375 444.632812 134.738281 L 377.261719 161.683594 L 314.152344 135.425781 C 297.667969 129.929688 289.148438 155.496094 305.632812 160.988281 L 336.84375 175.15625 L 296.421875 188.632812 L 188.632812 154.949219 C 182.269531 152.828125 178.15625 155.6875 175.160156 161.683594 L 134.738281 242.527344 L 80.84375 269.472656 Z M 188.632812 107.789062 C 188.632812 92.90625 200.695312 80.84375 215.578125 80.84375 C 230.464844 80.84375 242.527344 92.90625 242.527344 107.789062 C 242.527344 122.671875 230.464844 134.738281 215.578125 134.738281 C 200.695312 134.738281 188.632812 122.671875 188.632812 107.789062 Z M 188.632812 107.789062 "/>
</g>
</svg>
