<?xml version="1.0" encoding="UTF-8"?>
<svg xmlns="http://www.w3.org/2000/svg" xmlns:xlink="http://www.w3.org/1999/xlink" width="512px" height="512px" viewBox="0 0 512 512" version="1.1">
<g id="surface1">
<path style=" stroke:none;fill-rule:nonzero;fill:rgb(100%,100%,100%);fill-opacity:1;" d="M 323.367188 80.84375 C 316.222656 80.84375 309.367188 83.679688 304.3125 88.734375 C 299.261719 93.789062 296.421875 100.640625 296.421875 107.789062 C 296.421875 114.9375 299.261719 121.789062 304.3125 126.84375 C 309.367188 131.898438 316.222656 134.738281 323.367188 134.738281 C 330.515625 134.738281 337.371094 131.898438 342.421875 126.84375 C 347.476562 121.789062 350.316406 114.9375 350.316406 107.789062 C 350.316406 100.640625 347.476562 93.789062 342.421875 88.734375 C 337.371094 83.679688 330.515625 80.84375 323.367188 80.84375 Z M 202.105469 134.738281 C 195.367188 134.738281 175.15625 134.738281 188.632812 154.949219 L 222.316406 215.578125 L 175.15625 215.578125 C 167.695312 215.660156 161.226562 218.273438 154.949219 222.316406 C 133.226562 191.890625 114.3125 203.507812 94.585938 215.578125 C 83.726562 222.234375 72.597656 229.027344 60.632812 229.050781 C 58.863281 229.105469 57.179688 229.832031 55.929688 231.085938 C 54.675781 232.335938 53.949219 234.019531 53.894531 235.789062 C 53.949219 237.558594 54.675781 239.242188 55.929688 240.492188 C 57.179688 241.746094 58.863281 242.472656 60.632812 242.527344 C 70.765625 243.066406 82.378906 240.019531 93.992188 236.949219 C 111.667969 232.285156 129.292969 227.652344 141.582031 235.789062 C 139.046875 240.828125 134.738281 256 134.738281 269.472656 L 134.683594 310.164062 C 129.132812 315.660156 124.46875 313.480469 119.726562 311.242188 C 115.953125 309.492188 112.101562 307.738281 107.789062 309.894531 L 80.84375 389.390625 C 80.84375 396.125 91.433594 397.527344 94.316406 390.738281 L 114.527344 343.417969 C 134.683594 343.417969 175.15625 323.367188 188.632812 296.421875 L 296.421875 323.367188 L 363.789062 390.738281 C 369.097656 396.046875 380.496094 387.019531 376.183594 380.363281 L 323.367188 296.421875 L 377.261719 229.050781 C 383.945312 242.527344 390.601562 242.527344 403.832031 242.527344 L 404.210938 242.527344 L 420.378906 262.738281 C 430.835938 275.804688 453.253906 262.546875 444.632812 249.261719 L 399.738281 182.972656 L 404.210938 175.15625 C 405.882812 170.117188 394.429688 159.636719 390.738281 161.683594 L 336.84375 202.105469 L 293.457031 139.777344 C 292.195312 138.203125 290.59375 136.933594 288.773438 136.0625 C 286.957031 135.1875 284.964844 134.738281 282.949219 134.738281 Z M 296.421875 195.367188 L 309.894531 215.578125 L 236.515625 267.210938 C 235.046875 268.253906 233.382812 268.988281 231.621094 269.378906 C 229.859375 269.765625 228.039062 269.796875 226.269531 269.46875 C 224.496094 269.136719 222.808594 268.457031 221.300781 267.464844 C 219.796875 266.472656 218.507812 265.1875 217.507812 263.6875 C 216.507812 262.1875 215.820312 260.5 215.484375 258.730469 C 215.148438 256.957031 215.171875 255.136719 215.554688 253.375 C 215.933594 251.613281 216.664062 249.945312 217.699219 248.472656 C 218.738281 246.996094 220.058594 245.746094 221.589844 244.789062 Z M 296.421875 195.367188 "/>
</g>
</svg>
