<?xml version="1.0" encoding="UTF-8"?>
<svg xmlns="http://www.w3.org/2000/svg" xmlns:xlink="http://www.w3.org/1999/xlink" width="512px" height="512px" viewBox="0 0 512 512" version="1.1">
<g id="surface1">
<path style=" stroke:none;fill-rule:nonzero;fill:rgb(100%,100%,100%);fill-opacity:1;" d="M 269.472656 80.84375 L 350.316406 161.683594 L 377.261719 161.683594 C 431.15625 161.683594 431.15625 80.84375 377.261719 80.84375 Z M 281.949219 134.738281 C 278.722656 134.980469 275.691406 136.375 273.40625 138.671875 L 206.039062 206.039062 C 204.695312 207.382812 203.652344 208.992188 202.972656 210.765625 C 202.296875 212.539062 202.003906 214.4375 202.109375 216.332031 C 202.214844 218.226562 202.722656 220.078125 203.59375 221.765625 C 204.46875 223.449219 205.6875 224.933594 207.171875 226.117188 L 265.324219 272.625 L 230.9375 329.890625 C 229.09375 332.960938 228.546875 336.644531 229.417969 340.117188 C 230.285156 343.59375 232.5 346.585938 235.574219 348.429688 C 238.648438 350.273438 242.328125 350.820312 245.804688 349.953125 C 249.28125 349.082031 252.269531 346.867188 254.113281 343.792969 L 294.535156 276.425781 C 296.21875 273.625 296.832031 270.304688 296.25 267.089844 C 295.671875 263.871094 293.941406 260.972656 291.382812 258.9375 L 250.71875 226.410156 L 296.421875 180.734375 L 327.304688 211.644531 C 328.554688 212.894531 330.042969 213.886719 331.683594 214.5625 C 333.316406 215.234375 335.070312 215.582031 336.84375 215.578125 L 404.210938 215.578125 C 407.785156 215.578125 411.210938 214.160156 413.738281 211.632812 C 416.265625 209.105469 417.683594 205.679688 417.683594 202.105469 C 417.683594 198.53125 416.265625 195.105469 413.738281 192.578125 C 411.210938 190.050781 407.785156 188.632812 404.210938 188.632812 L 342.421875 188.632812 L 292.488281 138.671875 C 291.117188 137.296875 289.46875 136.230469 287.648438 135.550781 C 285.832031 134.871094 283.886719 134.59375 281.949219 134.738281 Z M 133.363281 242.527344 C 112.160156 242.886719 91.949219 251.5625 77.085938 266.683594 C 62.21875 281.808594 53.890625 302.164062 53.894531 323.367188 C 53.894531 344.808594 62.410156 365.371094 77.574219 380.53125 C 92.734375 395.691406 113.296875 404.210938 134.738281 404.210938 C 156.175781 404.210938 176.738281 395.691406 191.902344 380.53125 C 207.0625 365.371094 215.578125 344.808594 215.578125 323.367188 C 215.582031 312.636719 213.445312 302.015625 209.300781 292.117188 C 205.152344 282.21875 199.078125 273.246094 191.425781 265.722656 C 183.777344 258.199219 174.703125 252.273438 164.742188 248.289062 C 154.777344 244.304688 144.117188 242.347656 133.390625 242.527344 Z M 375.890625 242.527344 C 354.6875 242.886719 334.476562 251.5625 319.609375 266.683594 C 304.746094 281.808594 296.417969 302.164062 296.421875 323.367188 C 296.421875 344.808594 304.9375 365.371094 320.097656 380.53125 C 335.261719 395.691406 355.824219 404.210938 377.261719 404.210938 C 398.703125 404.210938 419.265625 395.691406 434.425781 380.53125 C 449.585938 365.371094 458.105469 344.808594 458.105469 323.367188 C 458.109375 312.636719 455.972656 302.015625 451.828125 292.117188 C 447.679688 282.21875 441.601562 273.246094 433.953125 265.722656 C 426.300781 258.199219 417.230469 252.273438 407.265625 248.289062 C 397.300781 244.304688 386.644531 242.347656 375.914062 242.527344 Z M 378.582031 269.472656 C 392.648438 269.816406 406.019531 275.648438 415.839844 285.71875 C 425.667969 295.789062 431.164062 309.300781 431.15625 323.367188 C 431.15625 337.660156 425.480469 351.371094 415.371094 361.476562 C 405.265625 371.585938 391.554688 377.261719 377.261719 377.261719 C 362.96875 377.261719 349.261719 371.585938 339.152344 361.476562 C 329.046875 351.371094 323.367188 337.660156 323.367188 323.367188 C 323.367188 316.179688 324.800781 309.058594 327.59375 302.433594 C 330.382812 295.808594 334.472656 289.808594 339.617188 284.785156 C 344.761719 279.761719 350.859375 275.820312 357.554688 273.191406 C 364.246094 270.5625 371.398438 269.296875 378.582031 269.472656 Z M 378.582031 269.472656 "/>
</g>
</svg>
