<?xml version="1.0" encoding="UTF-8"?>
<svg xmlns="http://www.w3.org/2000/svg" xmlns:xlink="http://www.w3.org/1999/xlink" width="512px" height="512px" viewBox="0 0 512 512" version="1.1">
<g id="surface1">
<path style=" stroke:none;fill-rule:nonzero;fill:rgb(100%,100%,100%);fill-opacity:1;" d="M 134.738281 80.84375 C 119.855469 80.84375 107.789062 92.90625 107.789062 107.789062 L 107.789062 323.367188 C 107.789062 338.25 119.855469 350.316406 134.738281 350.316406 L 377.261719 350.316406 C 392.144531 350.316406 404.210938 338.25 404.210938 323.367188 L 404.210938 107.789062 C 404.210938 92.90625 392.144531 80.84375 377.261719 80.84375 Z M 208.84375 94.316406 L 303.421875 94.316406 C 307.140625 94.316406 310.15625 97.332031 310.15625 101.050781 C 310.15625 104.773438 307.140625 107.789062 303.421875 107.789062 L 208.84375 107.789062 C 205.121094 107.789062 202.105469 104.773438 202.105469 101.050781 C 202.105469 97.332031 205.121094 94.316406 208.84375 94.316406 Z M 148.210938 134.738281 L 242.527344 134.738281 L 242.527344 242.527344 L 148.210938 242.527344 C 140.769531 242.527344 134.738281 236.492188 134.738281 229.050781 L 134.738281 148.210938 C 134.738281 140.769531 140.769531 134.738281 148.210938 134.738281 Z M 269.472656 134.738281 L 363.789062 134.738281 C 371.230469 134.738281 377.261719 140.769531 377.261719 148.210938 L 377.261719 229.050781 C 377.261719 236.492188 371.230469 242.527344 363.789062 242.527344 L 269.472656 242.527344 Z M 188.632812 269.472656 C 203.515625 269.472656 215.578125 281.539062 215.578125 296.421875 C 215.578125 311.304688 203.515625 323.367188 188.632812 323.367188 C 173.75 323.367188 161.683594 311.304688 161.683594 296.421875 C 161.683594 281.539062 173.75 269.472656 188.632812 269.472656 Z M 323.367188 269.472656 C 338.25 269.472656 350.316406 281.539062 350.316406 296.421875 C 350.316406 311.304688 338.25 323.367188 323.367188 323.367188 C 308.484375 323.367188 296.421875 311.304688 296.421875 296.421875 C 296.421875 281.539062 308.484375 269.472656 323.367188 269.472656 Z M 335.367188 377.105469 C 333.625 377.253906 331.855469 377.765625 330.210938 378.632812 C 324.191406 381.800781 321.488281 388.957031 323.894531 395.316406 L 328.472656 404.210938 L 183.527344 404.210938 L 187 396.949219 C 189.632812 389.988281 186.117188 382.210938 179.15625 379.578125 C 172.796875 377.175781 165.644531 379.878906 162.472656 385.894531 L 135.527344 439.789062 C 134.953125 441.339844 134.699219 442.980469 134.738281 444.632812 C 134.738281 452.070312 140.769531 458.105469 148.210938 458.105469 C 153.066406 458.078125 157.507812 455.394531 159.789062 451.105469 L 159.789062 449.738281 L 161.683594 449.738281 L 170.050781 431.15625 L 341.949219 431.15625 L 350.316406 449.738281 L 350.316406 451.105469 C 352.59375 455.394531 357.039062 458.078125 361.894531 458.105469 C 369.335938 458.105469 375.367188 452.070312 375.367188 444.632812 C 375.90625 442.507812 375.90625 440.28125 375.367188 438.15625 L 348.421875 384.261719 C 345.820312 379.324219 340.601562 376.660156 335.367188 377.105469 Z M 335.367188 377.105469 "/>
</g>
</svg>
