<?xml version="1.0" encoding="UTF-8"?>
<svg xmlns="http://www.w3.org/2000/svg" xmlns:xlink="http://www.w3.org/1999/xlink" width="512px" height="512px" viewBox="0 0 512 512" version="1.1">
<g id="surface1">
<path style=" stroke:none;fill-rule:nonzero;fill:rgb(100%,100%,100%);fill-opacity:1;" d="M 202.105469 53.894531 C 188.632812 53.894531 188.632812 67.367188 188.632812 67.367188 L 188.632812 94.316406 C 188.632812 101.78125 194.640625 107.789062 202.105469 107.789062 C 209.570312 107.789062 215.578125 101.78125 215.578125 94.316406 L 215.578125 80.84375 L 242.527344 80.84375 L 242.527344 134.738281 L 215.578125 134.738281 C 215.578125 134.738281 161.683594 134.738281 161.683594 188.632812 L 161.683594 269.472656 C 161.683594 350.316406 242.527344 350.316406 242.527344 350.316406 L 269.472656 350.316406 C 269.472656 350.316406 350.316406 350.316406 350.316406 269.472656 L 350.316406 188.632812 C 350.316406 134.738281 296.421875 134.738281 296.421875 134.738281 L 269.472656 134.738281 L 269.472656 80.84375 L 296.421875 80.84375 L 296.421875 94.316406 C 296.421875 101.78125 302.429688 107.789062 309.894531 107.789062 C 317.359375 107.789062 323.367188 101.78125 323.367188 94.316406 L 323.367188 67.367188 C 323.367188 53.894531 309.894531 53.894531 309.894531 53.894531 Z M 256 161.683594 L 311.105469 182.523438 L 323.367188 229.050781 C 326.914062 242.527344 309.894531 242.527344 309.894531 242.527344 L 202.105469 242.527344 C 202.105469 242.527344 185.085938 242.527344 188.632812 229.050781 L 200.894531 182.523438 Z M 256 269.472656 C 263.441406 269.472656 269.472656 275.507812 269.472656 282.949219 C 269.472656 290.386719 263.441406 296.421875 256 296.421875 C 248.558594 296.421875 242.527344 290.386719 242.527344 282.949219 C 242.527344 275.507812 248.558594 269.472656 256 269.472656 Z M 165.050781 377.261719 L 134.738281 458.105469 L 175.15625 458.105469 L 185.261719 431.15625 L 326.738281 431.15625 L 336.84375 458.105469 L 377.261719 458.105469 L 346.949219 377.261719 L 306.527344 377.261719 L 316.632812 404.210938 L 195.367188 404.210938 L 205.472656 377.261719 Z M 165.050781 377.261719 "/>
</g>
</svg>
