<?xml version="1.0" encoding="UTF-8"?>
<svg xmlns="http://www.w3.org/2000/svg" xmlns:xlink="http://www.w3.org/1999/xlink" width="512px" height="512px" viewBox="0 0 512 512" version="1.1">
<g id="surface1">
<path style=" stroke:none;fill-rule:nonzero;fill:rgb(100%,100%,100%);fill-opacity:1;" d="M 202.105469 53.894531 C 202.105469 53.894531 181.894531 53.894531 175.15625 80.84375 L 134.738281 229.050781 L 134.738281 323.367188 C 134.738281 350.316406 161.683594 350.316406 161.683594 350.316406 L 350.316406 350.316406 C 350.316406 350.316406 377.261719 350.316406 377.261719 323.367188 L 377.261719 229.050781 L 336.84375 80.84375 C 329.492188 53.894531 309.894531 53.894531 309.894531 53.894531 Z M 229.050781 94.316406 L 282.949219 94.316406 C 282.949219 94.316406 297.382812 94.316406 303.15625 121.261719 L 323.367188 215.578125 C 329.152344 242.570312 296.421875 242.527344 296.421875 242.527344 L 215.578125 242.527344 C 215.578125 242.527344 182.847656 242.570312 188.632812 215.578125 L 208.84375 121.261719 C 214.617188 94.316406 229.050781 94.316406 229.050781 94.316406 Z M 188.632812 269.472656 C 203.515625 269.472656 215.578125 281.539062 215.578125 296.421875 C 215.578125 311.304688 203.515625 323.367188 188.632812 323.367188 C 173.75 323.367188 161.683594 311.304688 161.683594 296.421875 C 161.683594 281.539062 173.75 269.472656 188.632812 269.472656 Z M 235.789062 269.472656 L 276.210938 269.472656 C 279.941406 269.472656 282.949219 272.476562 282.949219 276.210938 C 282.949219 279.941406 279.941406 282.949219 276.210938 282.949219 L 235.789062 282.949219 C 232.058594 282.949219 229.050781 279.941406 229.050781 276.210938 C 229.050781 272.476562 232.058594 269.472656 235.789062 269.472656 Z M 323.367188 269.472656 C 338.25 269.472656 350.316406 281.539062 350.316406 296.421875 C 350.316406 311.304688 338.25 323.367188 323.367188 323.367188 C 308.484375 323.367188 296.421875 311.304688 296.421875 296.421875 C 296.421875 281.539062 308.484375 269.472656 323.367188 269.472656 Z M 165.050781 377.261719 L 134.738281 458.105469 L 175.15625 458.105469 L 185.261719 431.15625 L 326.738281 431.15625 L 336.84375 458.105469 L 377.261719 458.105469 L 346.949219 377.261719 L 306.527344 377.261719 L 316.632812 404.210938 L 195.367188 404.210938 L 205.472656 377.261719 Z M 165.050781 377.261719 "/>
</g>
</svg>
