<?xml version="1.0" encoding="UTF-8"?>
<svg xmlns="http://www.w3.org/2000/svg" xmlns:xlink="http://www.w3.org/1999/xlink" width="512px" height="512px" viewBox="0 0 512 512" version="1.1">
<g id="surface1">
<path style=" stroke:none;fill-rule:nonzero;fill:rgb(100%,100%,100%);fill-opacity:1;" d="M 120.066406 286.003906 C 110.96875 302.113281 94.34375 331.507812 123.769531 351.15625 C 133.019531 357.269531 143.375 361.492188 154.246094 363.589844 C 162.53125 364.820312 162.941406 377.5625 153.210938 377.261719 C 142.835938 376.742188 92.320312 372.050781 84.207031 334.160156 C 80.015625 312.027344 84.757812 292.199219 97.789062 270.683594 L 116.582031 237.460938 L 81.371094 217.433594 L 175.15625 161.683594 L 175.15625 269.472656 L 139.96875 250.765625 Z M 234.441406 108.707031 C 265.566406 91.78125 283.566406 120.292969 293.484375 135.839844 L 315.199219 169.878906 L 281.089844 191.648438 L 377.261719 242.148438 L 371.953125 133.660156 L 337.894531 155.394531 L 317.414062 123.363281 C 303.351562 103.265625 293.050781 88.417969 267.964844 81.730469 C 223.851562 73.304688 196.734375 124.480469 197.011719 124.148438 C 192.59375 131.882812 202.820312 138.695312 209.164062 129.804688 C 216.125 121.179688 224.714844 114.011719 234.441406 108.707031 Z M 412.132812 275.429688 C 409.769531 270.316406 397.347656 271.621094 400.84375 282.625 C 404.378906 293.113281 405.8125 304.191406 405.074219 315.230469 C 402.566406 350.585938 368.746094 350.316406 350.316406 350.316406 L 309.894531 350.316406 L 309.894531 309.894531 L 215.578125 363.789062 L 309.570312 418.359375 L 309.695312 377.261719 L 350.316406 377.261719 C 374.316406 377.675781 393.429688 372.523438 409.601562 358.050781 C 441.9375 329.457031 412.132812 275.429688 412.132812 275.429688 Z M 412.132812 275.429688 "/>
</g>
</svg>
