<?xml version="1.0" encoding="UTF-8"?>
<svg xmlns="http://www.w3.org/2000/svg" xmlns:xlink="http://www.w3.org/1999/xlink" width="512px" height="512px" viewBox="0 0 512 512" version="1.1">
<g id="surface1">
<path style=" stroke:none;fill-rule:nonzero;fill:rgb(100%,100%,100%);fill-opacity:1;" d="M 379.855469 379.855469 C 311.453125 448.257812 200.546875 448.257812 132.144531 379.855469 C 63.742188 311.453125 63.742188 200.546875 132.144531 132.144531 C 200.546875 63.742188 311.453125 63.742188 379.855469 132.144531 C 384.472656 136.761719 388.777344 141.570312 392.769531 146.546875 C 338.367188 104.105469 259.59375 107.90625 209.554688 157.949219 C 155.402344 212.101562 155.402344 299.898438 209.554688 354.054688 C 259.59375 404.09375 338.367188 407.890625 392.769531 365.453125 C 388.777344 370.429688 384.472656 375.238281 379.855469 379.855469 Z M 326.0625 229.050781 L 269.472656 229.050781 L 315.285156 269.472656 L 296.421875 336.84375 L 350.316406 296.421875 L 404.210938 336.84375 L 385.347656 269.472656 L 431.15625 229.050781 L 374.570312 229.050781 L 350.316406 175.15625 Z M 326.0625 229.050781 "/>
</g>
</svg>
