<?xml version="1.0" encoding="UTF-8"?>
<svg xmlns="http://www.w3.org/2000/svg" xmlns:xlink="http://www.w3.org/1999/xlink" width="512px" height="512px" viewBox="0 0 512 512" version="1.1">
<g id="surface1">
<path style=" stroke:none;fill-rule:nonzero;fill:rgb(100%,100%,100%);fill-opacity:1;" d="M 417.625 242.496094 L 403.265625 242.496094 C 400.570312 212.664062 388.839844 184.363281 369.640625 161.371094 L 379.824219 151.175781 C 385.109375 145.933594 385.144531 137.402344 379.902344 132.121094 C 374.757812 126.933594 366.414062 126.792969 361.09375 131.804688 L 360.761719 132.136719 L 350.585938 142.324219 C 327.589844 123.109375 299.28125 111.371094 269.4375 108.671875 L 269.4375 94.316406 C 269.4375 86.875 263.40625 80.84375 255.964844 80.84375 C 248.523438 80.84375 242.492188 86.875 242.492188 94.316406 L 242.492188 108.671875 C 212.65625 111.375 184.359375 123.113281 161.371094 142.324219 L 151.175781 132.042969 C 145.789062 126.910156 137.257812 127.117188 132.125 132.503906 C 127.167969 137.707031 127.167969 145.886719 132.125 151.089844 L 142.324219 161.265625 C 123.09375 184.28125 111.351562 212.625 108.671875 242.496094 L 94.316406 242.496094 C 86.875 242.496094 80.84375 248.527344 80.84375 255.96875 C 80.84375 263.410156 86.875 269.445312 94.316406 269.445312 L 108.671875 269.445312 C 111.363281 299.273438 123.085938 327.574219 142.28125 350.5625 L 132.097656 360.746094 C 126.832031 366.003906 126.828125 374.535156 132.085938 379.800781 C 137.222656 384.941406 145.507812 385.085938 150.816406 380.128906 L 161.332031 369.613281 C 184.324219 388.828125 212.636719 400.570312 242.484375 403.265625 L 242.484375 417.625 C 242.484375 425.066406 248.515625 431.097656 255.957031 431.097656 C 263.398438 431.097656 269.429688 425.066406 269.429688 417.625 L 269.429688 403.265625 C 299.265625 400.5625 327.566406 388.824219 350.554688 369.613281 L 360.738281 379.796875 C 365.996094 385.0625 374.527344 385.066406 379.792969 379.808594 C 384.933594 374.671875 385.078125 366.386719 380.121094 361.078125 L 369.605469 350.5625 C 388.8125 327.574219 400.554688 299.273438 403.257812 269.4375 L 417.617188 269.4375 C 425.058594 269.292969 430.96875 263.140625 430.824219 255.703125 C 430.679688 248.472656 424.855469 242.644531 417.625 242.496094 Z M 269.4375 136.097656 C 292.039062 138.589844 313.464844 147.457031 331.21875 161.664062 L 273.28125 219.601562 C 272.023438 219.015625 270.738281 218.492188 269.429688 218.039062 L 269.429688 136.097656 Z M 242.492188 136.097656 L 242.492188 218.03125 C 241.179688 218.484375 239.894531 219.007812 238.636719 219.59375 L 180.699219 161.65625 C 198.457031 147.449219 219.890625 138.585938 242.496094 136.097656 Z M 161.648438 180.714844 L 219.585938 238.652344 C 219 239.90625 218.476562 241.195312 218.023438 242.503906 L 136.097656 242.503906 C 138.589844 219.898438 147.457031 198.46875 161.667969 180.714844 Z M 136.097656 269.4375 L 218.03125 269.4375 C 218.484375 270.75 219.007812 272.035156 219.59375 273.292969 L 161.65625 331.230469 C 147.449219 313.472656 138.582031 292.042969 136.097656 269.4375 Z M 242.496094 375.835938 C 219.894531 373.34375 198.46875 364.476562 180.71875 350.269531 L 238.652344 292.332031 C 239.910156 292.921875 241.195312 293.441406 242.507812 293.894531 L 242.507812 375.828125 Z M 269.445312 375.835938 L 269.445312 293.902344 C 270.753906 293.449219 272.042969 292.929688 273.296875 292.339844 L 331.234375 350.277344 C 313.476562 364.488281 292.042969 373.351562 269.4375 375.835938 Z M 350.285156 331.222656 L 292.347656 273.285156 C 292.9375 272.027344 293.457031 270.742188 293.914062 269.429688 L 375.871094 269.429688 C 373.371094 292.039062 364.492188 313.46875 350.265625 331.222656 Z M 293.902344 242.496094 C 293.449219 241.1875 292.929688 239.898438 292.339844 238.644531 L 350.277344 180.707031 C 364.488281 198.457031 373.355469 219.886719 375.847656 242.484375 L 293.902344 242.484375 Z M 293.902344 242.496094 "/>
</g>
</svg>
