<?xml version="1.0" encoding="UTF-8"?>
<svg xmlns="http://www.w3.org/2000/svg" xmlns:xlink="http://www.w3.org/1999/xlink" width="512px" height="512px" viewBox="0 0 512 512" version="1.1">
<g id="surface1">
<path style=" stroke:none;fill-rule:nonzero;fill:rgb(100%,100%,100%);fill-opacity:1;" d="M 390.738281 121.261719 L 121.261719 121.261719 C 113.992188 120.824219 106.878906 123.523438 101.726562 128.675781 C 96.574219 133.824219 93.875 140.9375 94.316406 148.210938 C 93.875 155.484375 96.574219 162.59375 101.726562 167.746094 C 106.878906 172.898438 113.992188 175.597656 121.261719 175.15625 L 134.738281 175.15625 L 134.738281 377.261719 C 134.296875 384.535156 136.996094 391.648438 142.148438 396.800781 C 147.300781 401.953125 154.410156 404.648438 161.683594 404.210938 C 168.957031 404.648438 176.070312 401.953125 181.222656 396.800781 C 186.371094 391.648438 189.070312 384.535156 188.632812 377.261719 L 188.632812 269.472656 L 323.367188 269.472656 L 323.367188 377.261719 C 322.929688 384.535156 325.628906 391.648438 330.777344 396.800781 C 335.929688 401.953125 343.042969 404.648438 350.316406 404.210938 C 357.589844 404.648438 364.699219 401.953125 369.851562 396.800781 C 375.003906 391.648438 377.703125 384.535156 377.261719 377.261719 L 377.261719 175.15625 L 390.738281 175.15625 C 398.007812 175.597656 405.121094 172.898438 410.273438 167.746094 C 415.425781 162.59375 418.125 155.484375 417.683594 148.210938 C 418.125 140.9375 415.425781 133.824219 410.273438 128.675781 C 405.121094 123.523438 398.007812 120.824219 390.738281 121.261719 Z M 323.367188 215.578125 L 269.472656 215.578125 L 269.472656 175.15625 L 323.367188 175.15625 Z M 242.527344 215.578125 L 188.632812 215.578125 L 188.632812 175.15625 L 242.527344 175.15625 Z M 242.527344 215.578125 "/>
</g>
</svg>
