<?xml version="1.0" encoding="UTF-8"?>
<svg xmlns="http://www.w3.org/2000/svg" xmlns:xlink="http://www.w3.org/1999/xlink" width="512px" height="512px" viewBox="0 0 512 512" version="1.1">
<g id="surface1">
<path style=" stroke:none;fill-rule:nonzero;fill:rgb(100%,100%,100%);fill-opacity:1;" d="M 371.875 390.738281 L 371.875 323.367188 C 390.738281 320.671875 404.210938 304.503906 404.210938 282.949219 C 404.210938 261.390625 385.347656 242.527344 363.789062 242.527344 C 342.230469 242.527344 323.367188 261.390625 323.367188 282.949219 C 323.367188 301.808594 336.84375 320.671875 355.707031 323.367188 L 355.707031 390.738281 L 242.527344 390.738281 L 242.527344 80.84375 L 107.789062 80.84375 L 107.789062 390.738281 L 80.84375 390.738281 L 80.84375 404.210938 L 431.15625 404.210938 L 431.15625 390.738281 Z M 215.578125 323.367188 L 134.738281 323.367188 L 134.738281 296.421875 L 215.578125 296.421875 Z M 215.578125 269.472656 L 134.738281 269.472656 L 134.738281 242.527344 L 215.578125 242.527344 Z M 215.578125 215.578125 L 134.738281 215.578125 L 134.738281 188.632812 L 215.578125 188.632812 Z M 215.578125 161.683594 L 134.738281 161.683594 L 134.738281 134.738281 L 215.578125 134.738281 Z M 215.578125 161.683594 "/>
</g>
</svg>
