<?xml version="1.0" encoding="UTF-8"?>
<svg xmlns="http://www.w3.org/2000/svg" xmlns:xlink="http://www.w3.org/1999/xlink" width="512px" height="512px" viewBox="0 0 512 512" version="1.1">
<g id="surface1">
<path style=" stroke:none;fill-rule:nonzero;fill:rgb(100%,100%,100%);fill-opacity:1;" d="M 91.433594 267.613281 L 54.570312 251.015625 C 95.519531 160.480469 170.421875 89.671875 263.113281 53.867188 L 263.839844 55.753906 L 277.613281 91.621094 L 277.53125 91.648438 C 194.925781 123.792969 128.148438 186.9375 91.433594 267.613281 Z M 386.855469 401.273438 L 119.105469 280.628906 C 152.878906 206.390625 214.324219 148.28125 290.332031 118.703125 L 290.410156 118.675781 L 312.429688 175.859375 C 311.671875 175.804688 311.027344 175.425781 310.246094 175.425781 C 297.179688 175.347656 285.71875 184.132812 282.394531 196.769531 C 279.074219 209.40625 284.734375 222.691406 296.148438 229.046875 C 307.566406 235.40625 321.839844 233.222656 330.832031 223.742188 L 395.855469 392.785156 C 396.820312 395.316406 396.164062 398.183594 394.195312 400.042969 C 392.226562 401.90625 389.332031 402.402344 386.855469 401.300781 Z M 254.007812 256.539062 C 254.304688 247.441406 249.625 238.90625 241.792969 234.269531 C 233.960938 229.632812 224.226562 229.632812 216.394531 234.269531 C 208.5625 238.90625 203.882812 247.441406 204.179688 256.539062 C 204.621094 269.980469 215.644531 280.644531 229.09375 280.644531 C 242.539062 280.644531 253.5625 269.980469 254.007812 256.539062 Z M 335.304688 311.242188 C 335.304688 298.417969 325.578125 287.6875 312.816406 286.433594 C 300.054688 285.183594 288.421875 293.816406 285.929688 306.394531 C 283.433594 318.972656 290.890625 331.390625 303.164062 335.101562 C 315.4375 338.8125 328.527344 332.605469 333.417969 320.753906 C 334.667969 317.730469 335.308594 314.488281 335.304688 311.214844 Z M 335.304688 311.242188 "/>
</g>
</svg>
