<?xml version="1.0" encoding="UTF-8"?>
<svg xmlns="http://www.w3.org/2000/svg" xmlns:xlink="http://www.w3.org/1999/xlink" width="512px" height="512px" viewBox="0 0 512 512" version="1.1">
<g id="surface1">
<path style=" stroke:none;fill-rule:nonzero;fill:rgb(100%,100%,100%);fill-opacity:1;" d="M 202.105469 134.738281 C 194.664062 134.738281 188.632812 140.769531 188.632812 148.210938 L 128 148.210938 C 86.945312 148.210938 53.894531 181.261719 53.894531 222.316406 C 53.894531 244.613281 63.832031 264.332031 79.316406 277.894531 C 64.144531 287.460938 53.894531 304.21875 53.894531 323.367188 C 53.894531 352.996094 78.164062 377.261719 107.789062 377.261719 L 323.367188 377.261719 C 352.996094 377.261719 377.261719 352.996094 377.261719 323.367188 C 377.261719 310.210938 372.242188 298.324219 364.316406 288.949219 L 423 314.894531 C 433.011719 319.832031 445.128906 315.710938 450.0625 305.699219 C 455 295.683594 450.878906 283.566406 440.867188 278.632812 C 440.359375 278.382812 439.84375 278.152344 439.316406 277.949219 L 390.527344 256.316406 L 434.476562 249 C 445.519531 247.386719 453.164062 237.125 451.550781 226.078125 C 450.085938 216.042969 441.40625 208.644531 431.265625 208.789062 C 430.117188 208.800781 428.976562 208.902344 427.84375 209.105469 L 370.421875 218.6875 C 357.308594 187.339844 324.410156 155.855469 269.472656 149.527344 L 269.472656 148.210938 C 269.472656 140.769531 263.441406 134.738281 256 134.738281 Z M 215.578125 161.683594 L 242.527344 161.683594 L 242.527344 350.316406 L 215.578125 350.316406 Z M 309.894531 269.472656 C 316.875 269.472656 322.394531 274.792969 323.105469 281.578125 L 325.15625 278 C 328.890625 271.535156 337.113281 269.375 343.578125 273.105469 C 350.042969 276.839844 352.203125 285.011719 348.472656 291.472656 L 341.527344 303.527344 C 346.886719 308.414062 350.316406 315.339844 350.316406 323.367188 C 350.316406 338.527344 338.527344 350.316406 323.367188 350.316406 L 269.472656 350.316406 L 269.472656 296.421875 L 296.421875 296.421875 L 296.421875 282.949219 C 296.421875 275.484375 302.429688 269.472656 309.894531 269.472656 Z M 119.632812 271.367188 C 124.84375 270.714844 130.152344 273.152344 132.949219 278 L 138.371094 287.371094 C 140.828125 284.691406 144.269531 282.949219 148.210938 282.949219 C 155.675781 282.949219 161.683594 288.957031 161.683594 296.421875 L 188.632812 296.421875 L 188.632812 350.316406 L 107.789062 350.316406 C 92.628906 350.316406 80.84375 338.527344 80.84375 323.367188 C 80.84375 308.207031 92.628906 296.421875 107.789062 296.421875 L 112.472656 296.421875 L 109.632812 291.472656 C 105.902344 285.007812 108.0625 276.839844 114.527344 273.105469 C 116.144531 272.171875 117.894531 271.585938 119.632812 271.367188 Z M 119.632812 271.367188 "/>
</g>
</svg>
