<?xml version="1.0" encoding="UTF-8"?>
<svg xmlns="http://www.w3.org/2000/svg" xmlns:xlink="http://www.w3.org/1999/xlink" width="512px" height="512px" viewBox="0 0 512 512" version="1.1">
<g id="surface1">
<path style=" stroke:none;fill-rule:nonzero;fill:rgb(100%,100%,100%);fill-opacity:1;" d="M 361.984375 325.765625 L 429.082031 325.765625 L 429.082031 345.972656 L 373.289062 345.972656 C 393.722656 361.820312 408.949219 383.414062 417.011719 407.984375 L 397.878906 414.511719 C 389.882812 389.777344 373.234375 368.757812 350.992188 355.304688 C 343.273438 362.304688 333.476562 366.601562 323.097656 367.53125 L 281.261719 403.8125 L 229.558594 403.8125 L 188.199219 367.105469 C 177.421875 366.164062 167.167969 362.035156 158.746094 355.246094 C 136.46875 368.699219 119.792969 389.738281 111.789062 414.5 L 92.65625 407.972656 C 100.722656 383.414062 115.945312 361.824219 136.363281 345.972656 L 80.574219 345.972656 L 80.574219 325.765625 L 147.777344 325.765625 L 171.039062 307.535156 L 143.707031 262.917969 C 141.308594 263.324219 138.886719 263.589844 136.457031 263.707031 C 121.582031 263.964844 107.246094 258.117188 96.792969 247.527344 C 86.339844 236.9375 80.679688 222.53125 81.128906 207.65625 C 81.128906 151.605469 134.460938 95.554688 134.460938 95.554688 L 114.609375 215.394531 L 161.109375 215.359375 L 188.398438 134.339844 L 188.398438 215.0625 C 187.3125 229.714844 180.550781 243.367188 169.554688 253.113281 L 192.554688 290.667969 L 194.828125 288.898438 C 230.964844 263.234375 279.378906 263.234375 315.511719 288.898438 L 317.140625 290.175781 L 340.558594 252.039062 C 330.417969 242.273438 324.242188 229.105469 323.222656 215.0625 L 323.222656 134.339844 L 349.726562 215.359375 L 397.011719 215.394531 L 377.160156 95.570312 C 377.160156 95.570312 430.570312 151.621094 430.570312 207.667969 C 431.007812 222.554688 425.332031 236.964844 414.863281 247.554688 C 404.394531 258.144531 390.046875 263.984375 375.160156 263.71875 C 372.050781 263.613281 368.949219 263.277344 365.890625 262.707031 L 338.664062 307.050781 L 361.320312 324.816406 C 361.667969 325.085938 361.683594 325.476562 361.984375 325.765625 Z M 361.984375 325.765625 "/>
</g>
</svg>
