<?xml version="1.0" encoding="UTF-8"?>
<svg xmlns="http://www.w3.org/2000/svg" xmlns:xlink="http://www.w3.org/1999/xlink" width="512px" height="512px" viewBox="0 0 512 512" version="1.1">
<g id="surface1">
<path style=" stroke:none;fill-rule:nonzero;fill:rgb(100%,100%,100%);fill-opacity:1;" d="M 148.210938 53.894531 L 121.261719 202.105469 C 117.316406 223.796875 169.269531 233.929688 168.421875 256 L 161.683594 431.15625 C 160.648438 458.085938 188.632812 458.105469 188.632812 458.105469 C 188.632812 458.105469 216.613281 458.085938 215.578125 431.15625 L 208.84375 256 C 207.996094 233.96875 255.550781 224.179688 256 202.105469 L 229.050781 53.894531 L 215.578125 53.894531 L 222.316406 161.683594 L 202.105469 175.15625 L 195.367188 53.894531 L 181.894531 53.894531 L 175.15625 175.15625 L 154.949219 161.683594 L 161.683594 53.894531 Z M 377.261719 53.894531 C 357.417969 53.894531 324.332031 71.542969 311.105469 98 C 300.082031 117.84375 296.421875 162.175781 296.421875 188.632812 L 296.421875 256 C 296.421875 278.046875 325.816406 282.949219 336.84375 282.949219 L 323.367188 431.15625 C 320.929688 457.996094 350.316406 458.105469 350.316406 458.105469 C 350.316406 458.105469 377.261719 458.105469 377.261719 431.15625 Z M 377.261719 53.894531 "/>
</g>
</svg>
