<?xml version="1.0" encoding="UTF-8"?>
<svg xmlns="http://www.w3.org/2000/svg" xmlns:xlink="http://www.w3.org/1999/xlink" width="512px" height="512px" viewBox="0 0 512 512" version="1.1">
<g id="surface1">
<path style=" stroke:none;fill-rule:nonzero;fill:rgb(100%,100%,100%);fill-opacity:1;" d="M 174 376.972656 L 80.84375 269.472656 L 80.84375 242.527344 L 431.15625 242.527344 L 431.15625 269.472656 L 336.945312 376.96875 Z M 161.367188 121.261719 C 161.367188 113.820312 155.332031 107.789062 147.890625 107.789062 C 140.453125 107.789062 134.417969 113.820312 134.417969 121.261719 L 134.417969 136.546875 L 85.996094 146.449219 C 82.34375 147.148438 79.945312 150.675781 80.648438 154.332031 C 81.347656 157.984375 84.875 160.382812 88.53125 159.683594 L 134.417969 152.203125 L 134.417969 167.460938 L 87.261719 168.421875 C 83.539062 168.421875 80.523438 171.4375 80.523438 175.15625 C 80.523438 178.878906 83.539062 181.894531 87.261719 181.894531 L 134.417969 182.855469 L 134.417969 215.523438 L 161.367188 215.523438 Z M 417.367188 161.683594 L 215.261719 168.757812 L 215.261719 134.605469 L 419.898438 105.671875 C 427.207031 104.273438 432 97.210938 430.597656 89.902344 C 429.199219 82.59375 422.140625 77.804688 414.832031 79.203125 L 215.019531 120.0625 C 214.445312 112.882812 208.285156 107.445312 201.085938 107.769531 C 193.890625 108.089844 188.242188 114.058594 188.3125 121.261719 L 188.3125 127.394531 L 175.027344 130.117188 L 175.027344 139.585938 L 188.3125 137.429688 L 188.3125 169.699219 L 175.027344 169.96875 L 175.027344 182.386719 L 417.367188 188.632812 C 424.808594 188.632812 430.839844 182.597656 430.839844 175.15625 C 430.839844 167.714844 424.808594 161.683594 417.367188 161.683594 Z M 323.367188 404.210938 L 188.632812 404.210938 L 188.632812 419.722656 L 323.367188 419.722656 Z M 323.367188 404.210938 "/>
</g>
</svg>
