<?xml version="1.0" encoding="UTF-8"?>
<svg xmlns="http://www.w3.org/2000/svg" xmlns:xlink="http://www.w3.org/1999/xlink" width="512px" height="512px" viewBox="0 0 512 512" version="1.1">
<g id="surface1">
<path style=" stroke:none;fill-rule:nonzero;fill:rgb(100%,100%,100%);fill-opacity:1;" d="M 377.710938 390.738281 L 444.632812 390.738281 L 377.261719 458.105469 L 377.261719 391.179688 C 369.164062 399.375 358.152344 404.027344 346.632812 404.132812 C 336.917969 404.136719 327.488281 400.863281 319.871094 394.839844 C 279.292969 360.078125 255.957031 309.300781 255.996094 255.871094 C 256.039062 202.4375 279.457031 151.699219 320.089844 117 C 337.285156 103.65625 361.683594 105.039062 377.261719 120.238281 L 377.261719 53.894531 L 444.632812 121.261719 L 378.234375 121.261719 C 379.398438 122.359375 380.5 123.519531 381.535156 124.738281 C 396.367188 143.832031 392.902344 171.335938 373.796875 186.15625 C 354.4375 204.160156 343.480469 229.433594 343.578125 255.867188 C 343.578125 282.652344 354.78125 308.214844 374.472656 326.367188 C 392.9375 341.710938 395.722656 369.007812 380.738281 387.761719 C 379.820312 388.890625 378.703125 389.722656 377.710938 390.738281 Z M 121.371094 53.894531 L 94.421875 202.105469 C 90.476562 223.796875 142.429688 233.929688 141.582031 256 L 134.84375 431.15625 C 134.558594 438.390625 137.304688 445.410156 142.421875 450.527344 C 147.539062 455.644531 154.5625 458.394531 161.792969 458.105469 C 169.023438 458.394531 176.046875 455.644531 181.164062 450.527344 C 186.28125 445.410156 189.027344 438.390625 188.738281 431.15625 L 182.003906 256 C 181.15625 233.96875 228.714844 224.179688 229.160156 202.105469 L 202.214844 53.894531 L 188.738281 53.894531 L 195.476562 161.683594 L 175.265625 175.15625 L 168.527344 53.894531 L 155.054688 53.894531 L 148.316406 175.15625 L 128.109375 161.683594 L 134.84375 53.894531 Z M 121.371094 53.894531 "/>
</g>
</svg>
