<?xml version="1.0" encoding="UTF-8"?>
<svg xmlns="http://www.w3.org/2000/svg" xmlns:xlink="http://www.w3.org/1999/xlink" width="512px" height="512px" viewBox="0 0 512 512" version="1.1">
<g id="surface1">
<path style=" stroke:none;fill-rule:nonzero;fill:rgb(100%,100%,100%);fill-opacity:1;" d="M 393.429688 288.335938 L 363.789062 229.050781 C 358.613281 220.632812 349.417969 215.527344 339.535156 215.578125 L 172.464844 215.578125 C 162.582031 215.527344 153.386719 220.632812 148.210938 229.050781 L 118.570312 288.335938 L 85.152344 319.378906 C 82.410156 321.925781 80.847656 325.5 80.84375 329.242188 L 80.84375 444.632812 C 80.84375 452.074219 86.875 458.105469 94.316406 458.105469 L 148.210938 458.105469 C 153.601562 458.105469 161.683594 452.714844 161.683594 447.328125 L 161.683594 431.15625 L 350.316406 431.15625 L 350.316406 444.632812 C 350.316406 450.019531 355.707031 458.105469 361.09375 458.105469 L 417.683594 458.105469 C 425.125 458.105469 431.15625 452.074219 431.15625 444.632812 L 431.15625 329.242188 C 431.152344 325.5 429.589844 321.925781 426.847656 319.378906 Z M 175.15625 242.527344 L 336.84375 242.527344 L 363.789062 296.421875 L 148.210938 296.421875 Z M 188.632812 366.484375 C 188.632812 371.875 180.546875 377.261719 175.15625 377.261719 L 118.570312 377.261719 C 113.179688 377.261719 107.789062 369.179688 107.789062 363.789062 L 107.789062 334.148438 C 110.484375 326.0625 115.875 320.671875 123.957031 323.367188 L 177.851562 334.148438 C 183.242188 334.148438 188.632812 342.230469 188.632812 347.621094 Z M 404.210938 363.789062 C 404.210938 369.179688 398.820312 377.261719 393.429688 377.261719 L 336.84375 377.261719 C 331.453125 377.261719 323.367188 371.875 323.367188 366.484375 L 323.367188 347.621094 C 323.367188 342.230469 328.757812 334.148438 334.148438 334.148438 L 388.042969 323.367188 C 396.125 320.671875 401.515625 326.0625 404.210938 334.148438 Z M 269.472656 161.683594 L 242.527344 161.683594 L 215.578125 53.894531 L 296.421875 53.894531 Z M 83.535156 102.398438 L 153.601562 61.980469 L 183.242188 169.769531 L 161.683594 180.546875 Z M 358.398438 61.980469 L 428.464844 102.398438 L 350.316406 183.242188 L 326.0625 169.769531 Z M 358.398438 61.980469 "/>
</g>
</svg>
