<?xml version="1.0" encoding="UTF-8"?>
<svg xmlns="http://www.w3.org/2000/svg" xmlns:xlink="http://www.w3.org/1999/xlink" width="512px" height="512px" viewBox="0 0 512 512" version="1.1">
<g id="surface1">
<path style=" stroke:none;fill-rule:nonzero;fill:rgb(100%,100%,100%);fill-opacity:1;" d="M 365.261719 107.789062 C 307.488281 107.789062 229.957031 147.429688 177.898438 215.578125 L 134.738281 215.578125 C 103.550781 215.578125 85.675781 238.855469 73.371094 263.472656 L 56.894531 296.421875 L 134.738281 296.421875 L 215.578125 377.261719 L 215.578125 455.105469 L 248.527344 438.632812 C 273.144531 426.324219 296.421875 408.449219 296.421875 377.261719 L 296.421875 334.105469 C 364.570312 282.042969 404.210938 204.515625 404.210938 146.738281 L 404.210938 107.789062 Z M 296.421875 188.632812 C 311.304688 188.632812 323.367188 200.695312 323.367188 215.578125 C 323.367188 230.460938 311.304688 242.527344 296.421875 242.527344 C 281.539062 242.527344 269.472656 230.460938 269.472656 215.578125 C 269.472656 200.695312 281.539062 188.632812 296.421875 188.632812 Z M 121.265625 350.316406 L 107.789062 363.789062 C 88.328125 383.25 80.84375 431.15625 80.84375 431.15625 C 80.84375 431.15625 126.597656 425.824219 148.210938 404.210938 L 161.683594 390.738281 Z M 121.265625 350.316406 "/>
</g>
</svg>
