<?xml version="1.0" encoding="UTF-8"?>
<svg xmlns="http://www.w3.org/2000/svg" xmlns:xlink="http://www.w3.org/1999/xlink" width="512px" height="512px" viewBox="0 0 512 512" version="1.1">
<g id="surface1">
<path style=" stroke:none;fill-rule:nonzero;fill:rgb(100%,100%,100%);fill-opacity:1;" d="M 203.238281 152.171875 L 137.59375 134.738281 L 149.53125 90.8125 C 151.535156 83.613281 158.96875 79.382812 166.183594 81.328125 L 205.527344 91.890625 C 208.988281 92.808594 211.945312 95.0625 213.742188 98.164062 C 215.535156 101.261719 216.023438 104.949219 215.09375 108.410156 Z M 81.433594 350.398438 C 80.6875 347.980469 80.640625 345.402344 81.300781 342.960938 L 130.316406 161.710938 L 195.933594 179.144531 L 146.917969 360.394531 C 146.261719 362.84375 144.925781 365.058594 143.0625 366.78125 L 103.800781 403.078125 C 102.769531 404.015625 101.335938 404.367188 99.988281 404.003906 C 98.640625 403.644531 97.570312 402.625 97.144531 401.300781 Z M 323.367188 188.632812 C 262.738281 188.632812 242.527344 168.421875 242.527344 107.789062 C 303.15625 107.789062 323.367188 128 323.367188 188.632812 Z M 285.640625 403.78125 C 248.722656 409.4375 201.40625 357.808594 190.789062 301.378906 L 214.742188 212.882812 C 225.496094 203.453125 239.078125 198.519531 252.980469 198.519531 C 268.054688 198.460938 282.777344 203.0625 295.128906 211.699219 C 304.027344 217.671875 315.683594 217.566406 324.472656 211.429688 C 335.851562 203 349.652344 198.46875 363.816406 198.519531 C 384.566406 198.519531 408.089844 211.699219 419.058594 230.886719 C 460.449219 303.535156 386.882812 411.675781 334.335938 403.804688 C 331.929688 403.335938 329.609375 402.492188 327.464844 401.300781 C 316.449219 395.652344 303.394531 395.652344 292.378906 401.300781 C 290.273438 402.46875 288.003906 403.304688 285.640625 403.78125 Z M 285.640625 403.78125 "/>
</g>
</svg>
