<?xml version="1.0" encoding="UTF-8"?>
<svg xmlns="http://www.w3.org/2000/svg" xmlns:xlink="http://www.w3.org/1999/xlink" width="512px" height="512px" viewBox="0 0 512 512" version="1.1">
<g id="surface1">
<path style=" stroke:none;fill-rule:nonzero;fill:rgb(100%,100%,100%);fill-opacity:1;" d="M 390.738281 134.714844 L 282.949219 134.714844 L 282.949219 107.769531 C 282.949219 92.886719 270.882812 80.820312 256 80.820312 C 241.117188 80.820312 229.050781 92.886719 229.050781 107.769531 L 229.050781 134.714844 L 121.261719 134.714844 C 106.378906 134.714844 94.316406 146.78125 94.316406 161.664062 C 94.316406 176.546875 106.378906 188.609375 121.261719 188.609375 L 139.316406 188.609375 C 150.058594 226.066406 168.203125 260.988281 192.671875 291.316406 C 201.648438 302.9375 210.441406 313.539062 219.042969 323.480469 C 197.929688 345.171875 174.347656 364.320312 148.777344 380.527344 C 135.695312 387.632812 130.851562 404 137.957031 417.082031 C 145.066406 430.164062 161.429688 435.007812 174.515625 427.902344 C 204.269531 409.640625 231.640625 387.753906 256 362.746094 C 280.359375 387.753906 307.730469 409.640625 337.484375 427.902344 C 350.566406 435.011719 366.933594 430.167969 374.039062 417.085938 C 381.144531 404.007812 376.304688 387.640625 363.222656 380.535156 C 337.65625 364.328125 314.074219 345.179688 292.964844 323.484375 C 301.5625 313.546875 310.351562 302.945312 319.328125 291.324219 C 343.800781 260.996094 361.945312 226.070312 372.683594 188.609375 L 390.738281 188.609375 C 405.621094 188.609375 417.6875 176.546875 417.6875 161.664062 C 417.6875 146.78125 405.621094 134.714844 390.738281 134.714844 Z M 276.671875 258.367188 C 269.628906 267.492188 262.78125 275.648438 256.003906 283.617188 C 249.21875 275.648438 242.375 267.492188 235.328125 258.367188 C 218.617188 237.3125 205.296875 213.773438 195.84375 188.609375 L 316.144531 188.609375 C 306.699219 213.777344 293.378906 237.3125 276.671875 258.367188 Z M 276.671875 258.367188 "/>
</g>
</svg>
