<?xml version="1.0" encoding="UTF-8"?>
<svg xmlns="http://www.w3.org/2000/svg" xmlns:xlink="http://www.w3.org/1999/xlink" width="512px" height="512px" viewBox="0 0 512 512" version="1.1">
<g id="surface1">
<path style=" stroke:none;fill-rule:nonzero;fill:rgb(100%,100%,100%);fill-opacity:1;" d="M 186.152344 377.261719 C 192.320312 394.054688 186.71875 412.902344 172.378906 423.601562 C 158.042969 434.296875 138.378906 434.296875 124.039062 423.601562 C 109.703125 412.902344 104.101562 394.054688 110.269531 377.261719 Z M 419.246094 215.578125 C 418.734375 215.578125 404.210938 215.578125 404.210938 215.578125 L 404.210938 134.738281 L 413.667969 134.738281 C 416.214844 134.503906 418.472656 133.003906 419.679688 130.75 L 426.898438 116.304688 C 427.039062 115.722656 427.121094 115.125 427.144531 114.527344 C 427.144531 112.734375 426.429688 111.015625 425.160156 109.753906 C 423.890625 108.488281 422.171875 107.78125 420.378906 107.789062 L 404.210938 107.789062 L 404.210938 99.707031 C 404.015625 96.8125 401.710938 94.511719 398.820312 94.316406 L 303.15625 94.316406 C 299.4375 94.316406 296.421875 97.332031 296.421875 101.050781 C 296.421875 104.773438 299.4375 107.789062 303.15625 107.789062 L 377.261719 107.789062 L 377.261719 231.746094 L 258.695312 323.367188 L 215.578125 323.367188 L 215.578125 256 C 215.578125 248.558594 209.546875 242.527344 202.105469 242.527344 L 188.632812 242.527344 L 188.632812 188.632812 L 235.789062 188.632812 C 239.511719 188.632812 242.527344 185.617188 242.527344 181.894531 C 242.527344 178.175781 239.511719 175.15625 235.789062 175.15625 L 114.957031 162.601562 C 114.796875 162.601562 114.6875 162.410156 114.527344 162.410156 C 110.804688 162.410156 107.789062 165.429688 107.789062 169.148438 L 107.789062 181.894531 C 107.789062 185.617188 110.804688 188.632812 114.527344 188.632812 L 134.738281 188.632812 L 134.738281 242.527344 L 121.261719 242.527344 C 99.167969 243.066406 81.382812 260.851562 80.84375 282.949219 L 80.84375 336.84375 C 80.414062 343.851562 85.742188 349.882812 92.753906 350.316406 C 93.265625 350.316406 256 350.316406 256 350.316406 L 323.367188 323.367188 L 417.683594 323.367188 C 424.691406 323.796875 430.726562 318.464844 431.15625 311.457031 C 431.15625 310.945312 431.15625 229.050781 431.15625 229.050781 C 431.585938 222.042969 426.257812 216.011719 419.246094 215.578125 Z M 390.738281 350.316406 C 368.414062 350.316406 350.316406 368.414062 350.316406 390.738281 C 350.316406 413.0625 368.414062 431.15625 390.738281 431.15625 C 413.0625 431.15625 431.15625 413.0625 431.15625 390.738281 C 430.617188 368.640625 412.832031 350.855469 390.738281 350.316406 Z M 390.738281 350.316406 "/>
</g>
</svg>
