<?xml version="1.0" encoding="UTF-8"?>
<svg xmlns="http://www.w3.org/2000/svg" xmlns:xlink="http://www.w3.org/1999/xlink" width="512px" height="512px" viewBox="0 0 512 512" version="1.1">
<g id="surface1">
<path style=" stroke:none;fill-rule:nonzero;fill:rgb(100%,100%,100%);fill-opacity:1;" d="M 309.894531 242.527344 C 297.410156 234.988281 285.558594 226.441406 274.457031 216.980469 L 215.847656 140.691406 C 212.121094 135.765625 205.765625 133.621094 199.816406 135.28125 C 193.867188 136.941406 189.539062 142.066406 188.902344 148.210938 L 188.632812 148.210938 L 188.632812 188.632812 L 140.367188 188.632812 C 136.757812 188.644531 133.292969 187.207031 130.75 184.644531 C 130.75 184.644531 121.261719 161.683594 107.789062 161.683594 L 94.316406 161.683594 C 86.875 161.683594 80.84375 167.714844 80.84375 175.15625 L 80.84375 296.421875 L 229.050781 296.421875 C 269.472656 296.421875 282.949219 323.367188 323.367188 323.367188 L 431.15625 323.367188 L 431.15625 309.894531 C 431.15625 269.472656 338.109375 258.53125 309.894531 242.527344 Z M 309.894531 350.316406 C 295.378906 349.90625 281.214844 345.757812 268.773438 338.269531 C 252.589844 328.878906 234.285156 323.75 215.578125 323.367188 L 80.84375 323.367188 L 80.84375 363.789062 C 80.84375 371.230469 86.875 377.261719 94.316406 377.261719 L 202.105469 377.261719 C 209.546875 377.261719 215.578125 371.230469 215.578125 363.789062 L 215.578125 350.316406 C 230.09375 350.730469 244.257812 354.878906 256.699219 362.359375 C 272.882812 371.753906 291.1875 376.878906 309.894531 377.261719 L 417.683594 377.261719 C 425.125 377.261719 431.15625 371.230469 431.15625 363.789062 L 431.15625 350.316406 Z M 309.894531 350.316406 "/>
</g>
</svg>
