<?xml version="1.0" encoding="UTF-8"?>
<svg xmlns="http://www.w3.org/2000/svg" xmlns:xlink="http://www.w3.org/1999/xlink" width="512px" height="512px" viewBox="0 0 512 512" version="1.1">
<g id="surface1">
<path style=" stroke:none;fill-rule:nonzero;fill:rgb(100%,100%,100%);fill-opacity:1;" d="M 413.101562 188.632812 L 363.789062 188.632812 L 353.28125 125.84375 C 348.964844 106.492188 334.371094 91.070312 315.285156 85.691406 C 305.871094 82.664062 296.066406 81.03125 286.179688 80.84375 L 225.820312 80.84375 C 215.933594 81.03125 206.128906 82.664062 196.714844 85.691406 C 177.628906 91.070312 163.035156 106.492188 158.71875 125.84375 L 148.210938 188.632812 L 98.898438 188.632812 C 91.457031 188.585938 85.386719 194.582031 85.34375 202.023438 C 85.335938 203.421875 85.542969 204.8125 85.960938 206.148438 L 136.625 375.914062 C 141.914062 392.746094 157.515625 404.199219 175.15625 404.210938 L 336.84375 404.210938 C 354.386719 404.082031 369.84375 392.652344 375.105469 375.914062 L 425.769531 206.148438 C 428.003906 199.050781 424.058594 191.484375 416.960938 189.25 C 415.710938 188.859375 414.414062 188.652344 413.101562 188.632812 Z M 175.695312 188.632812 L 185.398438 130.15625 C 187.574219 120.386719 195.464844 112.921875 205.339844 111.292969 C 211.976562 109.203125 218.863281 108.023438 225.820312 107.789062 L 286.179688 107.789062 C 293.226562 108 300.207031 109.175781 306.929688 111.292969 C 316.804688 112.921875 324.695312 120.386719 326.871094 130.15625 L 336.304688 188.632812 L 174.617188 188.632812 Z M 175.695312 188.632812 "/>
</g>
</svg>
