<?xml version="1.0" encoding="UTF-8"?>
<svg xmlns="http://www.w3.org/2000/svg" xmlns:xlink="http://www.w3.org/1999/xlink" width="512px" height="512px" viewBox="0 0 512 512" version="1.1">
<g id="surface1">
<path style=" stroke:none;fill-rule:nonzero;fill:rgb(100%,100%,100%);fill-opacity:1;" d="M 87.578125 195.367188 L 87.578125 188.632812 L 128 188.632812 L 128 195.367188 C 128 213.972656 143.082031 229.050781 161.683594 229.050781 L 350.316406 229.050781 C 368.921875 229.050781 384 213.972656 384 195.367188 L 384 188.632812 L 424.421875 188.632812 L 424.421875 195.367188 C 424.421875 236.296875 391.242188 269.472656 350.316406 269.472656 L 161.683594 269.472656 C 120.757812 269.472656 87.578125 236.296875 87.578125 195.367188 Z M 188.632812 323.367188 C 188.632812 338.25 176.566406 350.316406 161.683594 350.316406 C 146.800781 350.316406 134.738281 338.25 134.738281 323.367188 C 134.738281 308.484375 146.800781 296.421875 161.683594 296.421875 C 176.566406 296.421875 188.632812 308.484375 188.632812 323.367188 Z M 377.261719 323.367188 C 377.261719 338.25 365.199219 350.316406 350.316406 350.316406 C 335.433594 350.316406 323.367188 338.25 323.367188 323.367188 C 323.367188 308.484375 335.433594 296.421875 350.316406 296.421875 C 365.199219 296.421875 377.261719 308.484375 377.261719 323.367188 Z M 377.261719 323.367188 "/>
</g>
</svg>
