<?xml version="1.0" encoding="UTF-8"?>
<svg xmlns="http://www.w3.org/2000/svg" xmlns:xlink="http://www.w3.org/1999/xlink" width="512px" height="512px" viewBox="0 0 512 512" version="1.1">
<g id="surface1">
<path style=" stroke:none;fill-rule:nonzero;fill:rgb(100%,100%,100%);fill-opacity:1;" d="M 458.105469 175.15625 C 458.105469 197.480469 440.007812 215.578125 417.683594 215.578125 C 395.359375 215.578125 377.261719 197.480469 377.261719 175.15625 C 377.261719 152.835938 395.359375 134.738281 417.683594 134.738281 C 440.007812 134.738281 458.105469 152.835938 458.105469 175.15625 Z M 423.613281 374.300781 C 421.933594 371.074219 418 369.761719 414.71875 371.335938 C 396.273438 382.636719 373.738281 385.109375 353.28125 378.070312 L 182.703125 292.648438 L 256 256 L 256 175.15625 L 296.421875 195.367188 L 296.421875 276.210938 L 336.84375 296.421875 L 377.261719 276.210938 L 336.84375 256 L 336.84375 134.738281 L 256 94.316406 L 215.578125 114.527344 L 215.578125 235.789062 L 142.28125 272.4375 L 70.332031 236.597656 C 66.984375 234.960938 62.945312 236.347656 61.304688 239.695312 C 59.667969 243.046875 61.054688 247.085938 64.402344 248.722656 L 347.351562 390.199219 C 355.855469 393.835938 365.050781 395.582031 374.300781 395.316406 C 390.460938 395.039062 406.335938 390.980469 420.648438 383.460938 C 423.980469 381.804688 425.335938 377.757812 423.679688 374.429688 C 423.660156 374.386719 423.632812 374.34375 423.613281 374.300781 Z M 423.613281 374.300781 "/>
</g>
</svg>
