<?xml version="1.0" encoding="UTF-8"?>
<svg xmlns="http://www.w3.org/2000/svg" xmlns:xlink="http://www.w3.org/1999/xlink" width="512px" height="512px" viewBox="0 0 512 512" version="1.1">
<g id="surface1">
<path style=" stroke:none;fill-rule:nonzero;fill:rgb(100%,100%,100%);fill-opacity:1;" d="M 458.105469 218.273438 C 458.105469 255.351562 421.375 236.976562 421.375 236.976562 L 390.738281 242.527344 L 350.316406 242.527344 C 341.324219 263.453125 327.464844 281.929688 309.894531 296.421875 C 307.171875 307.332031 302.390625 317.621094 295.800781 326.738281 C 293.726562 329.1875 294.183594 332.125 293.96875 335.628906 L 296.421875 397.609375 C 296.21875 401.410156 293.058594 404.378906 289.253906 404.34375 C 286.089844 404.277344 283.429688 401.949219 282.949219 398.820312 L 269.472656 309.894531 L 161.683594 309.894531 L 161.683594 397.554688 C 161.683594 401.230469 158.703125 404.210938 155.027344 404.210938 C 151.878906 404.148438 149.191406 401.910156 148.5625 398.820312 L 134.738281 323.367188 L 134.738281 309.894531 C 121.875 310.117188 109.015625 309.214844 96.308594 307.199219 C 96.160156 322.046875 89.523438 336.085938 78.148438 345.625 C 74.699219 347.863281 74.160156 351.3125 74.5625 356.027344 L 79.683594 397.472656 C 79.683594 401.195312 76.667969 404.210938 72.945312 404.210938 C 70.0625 404.21875 67.523438 402.300781 66.75 399.523438 L 55.242188 353.710938 C 54.472656 350.929688 55.019531 347.953125 56.722656 345.625 C 68.5 327.304688 55.402344 276.910156 55.402344 276.910156 C 54.480469 273.8125 53.972656 270.605469 53.894531 267.371094 L 53.894531 202.105469 C 53.761719 184.132812 62.476562 167.246094 77.203125 156.941406 C 91.933594 146.640625 110.785156 144.242188 127.621094 150.527344 C 127.621094 150.527344 130.316406 151.335938 131.449219 151.847656 C 165.527344 156.519531 200.0625 156.863281 234.226562 152.871094 L 239.078125 151.203125 C 250.042969 147.210938 262.066406 147.210938 273.03125 151.203125 C 275.132812 151.742188 277.179688 152.550781 279.121094 153.601562 C 281.816406 154.921875 284.402344 156.457031 286.855469 158.207031 C 294.136719 161.222656 302.046875 162.414062 309.894531 161.683594 L 336.84375 161.683594 L 336.84375 134.738281 L 350.316406 148.210938 C 363.789062 107.789062 417.683594 121.261719 417.683594 121.261719 C 400.136719 121.691406 384.40625 132.179688 377.261719 148.210938 L 444.632812 202.105469 C 446.191406 201.21875 447.882812 200.589844 449.644531 200.246094 C 454.367188 200.304688 458.148438 204.171875 458.105469 208.894531 Z M 458.105469 218.273438 "/>
</g>
</svg>
