<?xml version="1.0" encoding="UTF-8"?>
<svg xmlns="http://www.w3.org/2000/svg" xmlns:xlink="http://www.w3.org/1999/xlink" width="512px" height="512px" viewBox="0 0 512 512" version="1.1">
<g id="surface1">
<path style=" stroke:none;fill-rule:nonzero;fill:rgb(100%,100%,100%);fill-opacity:1;" d="M 107.789062 323.367188 L 431.15625 363.65625 L 431.15625 377.261719 L 107.789062 377.261719 Z M 431.15625 215.578125 L 404.210938 242.527344 L 404.210938 258.238281 L 193.914062 170.628906 L 195.609375 167.261719 L 232.015625 130.558594 L 254.410156 130.558594 C 259.617188 130.558594 263.839844 126.335938 263.839844 121.128906 C 263.839844 115.917969 259.617188 111.695312 254.410156 111.695312 L 228.109375 111.695312 C 225.601562 111.703125 223.199219 112.699219 221.425781 114.472656 L 181.167969 155.027344 C 180.457031 155.742188 179.855469 156.558594 179.386719 157.453125 L 176.453125 163.355469 L 107.789062 134.738281 C 107.789062 188.632812 106.980469 241.394531 184.859375 256 C 223.125 263.140625 404.210938 296.421875 404.210938 296.421875 L 458.105469 242.527344 Z M 431.15625 215.578125 "/>
</g>
</svg>
