<?xml version="1.0" encoding="UTF-8"?>
<svg xmlns="http://www.w3.org/2000/svg" xmlns:xlink="http://www.w3.org/1999/xlink" width="512px" height="512px" viewBox="0 0 512 512" version="1.1">
<g id="surface1">
<path style=" stroke:none;fill-rule:nonzero;fill:rgb(100%,100%,100%);fill-opacity:1;" d="M 458.105469 323.367188 C 458.105469 338.25 446.039062 350.316406 431.15625 350.316406 L 307.578125 350.316406 C 300.429688 350.3125 293.578125 347.472656 288.527344 342.421875 L 246.460938 300.355469 C 243.9375 297.835938 240.515625 296.417969 236.949219 296.421875 L 143.738281 296.421875 C 137.898438 296.425781 132.214844 294.535156 127.542969 291.03125 L 91.242188 263.761719 C 84.730469 258.628906 80.90625 250.816406 80.84375 242.527344 C 80.863281 233.257812 85.675781 224.65625 93.5625 219.78125 L 188.632812 161.683594 L 216.601562 116.089844 C 219.0625 110.144531 225.382812 106.769531 231.691406 108.027344 C 238 109.289062 242.535156 114.832031 242.527344 121.261719 L 242.527344 215.578125 L 269.472656 242.527344 L 296.421875 242.527344 L 442.261719 215.792969 C 448.605469 214.660156 454.867188 218.175781 457.195312 224.183594 C 459.527344 230.191406 457.277344 237.011719 451.828125 240.453125 L 404.210938 269.472656 L 448.160156 302.457031 C 454.484375 307.550781 458.144531 315.246094 458.105469 323.367188 Z M 202.105469 323.367188 L 140.800781 323.367188 C 127.21875 323.367188 113.878906 319.945312 101.996094 313.453125 L 73.835938 298.089844 C 67.332031 294.714844 59.324219 297.152344 55.804688 303.578125 C 52.289062 310.007812 54.550781 318.066406 60.902344 321.726562 L 95.097656 340.398438 C 106.980469 346.921875 120.347656 350.316406 133.902344 350.316406 L 202.105469 350.316406 C 209.546875 350.316406 215.578125 344.285156 215.578125 336.84375 C 215.578125 329.402344 209.546875 323.367188 202.105469 323.367188 Z M 202.105469 323.367188 "/>
</g>
</svg>
