<?xml version="1.0" encoding="UTF-8"?>
<svg xmlns="http://www.w3.org/2000/svg" xmlns:xlink="http://www.w3.org/1999/xlink" width="512px" height="512px" viewBox="0 0 512 512" version="1.1">
<g id="surface1">
<path style=" stroke:none;fill-rule:nonzero;fill:rgb(100%,100%,100%);fill-opacity:1;" d="M 350.316406 94.316406 C 350.316406 116.640625 332.21875 134.738281 309.894531 134.738281 C 287.570312 134.738281 269.472656 116.640625 269.472656 94.316406 C 269.472656 71.992188 287.570312 53.894531 309.894531 53.894531 C 332.21875 53.894531 350.316406 71.992188 350.316406 94.316406 Z M 350.316406 350.316406 C 335.433594 350.316406 323.367188 362.378906 323.367188 377.261719 C 323.367188 392.144531 335.433594 404.210938 350.316406 404.210938 C 365.199219 404.210938 377.261719 392.144531 377.261719 377.261719 C 377.261719 362.378906 365.199219 350.316406 350.316406 350.316406 Z M 399.898438 218.003906 L 348.429688 166.535156 C 346 163.503906 342.34375 161.722656 338.457031 161.683594 L 148.210938 161.683594 C 140.769531 161.683594 134.738281 167.71875 134.738281 175.15625 C 134.738281 182.597656 140.769531 188.632812 148.210938 188.632812 L 220.96875 188.632812 L 134.738281 358.398438 C 134.363281 360.179688 134.363281 362.011719 134.738281 363.789062 C 133.175781 371.230469 137.941406 378.53125 145.382812 380.09375 C 152.820312 381.65625 160.121094 376.886719 161.683594 369.449219 L 188.632812 323.367188 L 242.527344 323.367188 L 190.519531 437.625 C 189.246094 439.738281 188.59375 442.164062 188.632812 444.632812 C 187.144531 452.070312 191.96875 459.3125 199.410156 460.800781 C 206.851562 462.289062 214.089844 457.460938 215.578125 450.019531 L 342.230469 197.253906 L 381.035156 237.136719 C 386.722656 241.9375 395.222656 241.222656 400.023438 235.539062 C 404.308594 230.460938 404.257812 223.019531 399.898438 218.003906 Z M 399.898438 218.003906 "/>
</g>
</svg>
