<?xml version="1.0" encoding="UTF-8"?>
<svg xmlns="http://www.w3.org/2000/svg" xmlns:xlink="http://www.w3.org/1999/xlink" width="512px" height="512px" viewBox="0 0 512 512" version="1.1">
<g id="surface1">
<path style=" stroke:none;fill-rule:nonzero;fill:rgb(100%,100%,100%);fill-opacity:1;" d="M 242.527344 80.84375 L 242.527344 188.894531 C 166.25 191.425781 107.847656 214.675781 107.789062 242.527344 L 107.789062 363.789062 C 107.789062 393.554688 174.144531 417.683594 256 417.683594 C 337.855469 417.683594 404.210938 393.554688 404.210938 363.789062 L 404.210938 242.527344 C 404.152344 214.675781 345.75 191.425781 269.472656 188.894531 L 269.472656 163.367188 L 350.316406 128 Z M 134.738281 273.421875 C 148.609375 280.617188 167.113281 286.472656 188.632812 290.472656 L 188.632812 370.421875 C 156.15625 363.167969 134.738281 350.851562 134.738281 336.84375 Z M 377.261719 273.472656 L 377.261719 336.84375 C 377.261719 350.851562 355.84375 363.167969 323.367188 370.421875 L 323.367188 290.523438 C 344.886719 286.527344 363.390625 280.671875 377.261719 273.472656 Z M 215.578125 294.316406 C 228.722656 295.695312 242.324219 296.398438 256 296.421875 C 269.671875 296.417969 283.273438 295.726562 296.421875 294.367188 L 296.421875 374.789062 C 283.722656 376.292969 270.25 377.261719 256 377.261719 C 241.75 377.261719 228.277344 376.292969 215.578125 374.789062 Z M 215.578125 294.316406 "/>
</g>
</svg>
