<?xml version="1.0" encoding="UTF-8"?>
<svg xmlns="http://www.w3.org/2000/svg" xmlns:xlink="http://www.w3.org/1999/xlink" width="512px" height="512px" viewBox="0 0 512 512" version="1.1">
<g id="surface1">
<path style=" stroke:none;fill-rule:nonzero;fill:rgb(100%,100%,100%);fill-opacity:1;" d="M 256 126.382812 L 284.832031 198.601562 L 291.570312 215.578125 L 372.414062 215.578125 L 318.519531 262.738281 L 305.042969 274.59375 L 311.242188 291.570312 L 338.191406 375.914062 L 271.359375 328.21875 L 256 317.441406 L 240.640625 328.21875 L 172.734375 375.914062 L 199.679688 291.570312 L 205.339844 274.59375 L 191.867188 262.738281 L 137.96875 215.578125 L 218.8125 215.578125 L 225.550781 198.601562 Z M 256 53.894531 L 202.105469 188.632812 L 67.367188 188.632812 L 175.15625 282.949219 L 121.261719 444.632812 L 256 350.316406 L 390.738281 444.632812 L 336.84375 282.949219 L 444.632812 188.632812 L 309.894531 188.632812 Z M 256 53.894531 "/>
</g>
</svg>
