<?xml version="1.0" encoding="UTF-8"?>
<svg xmlns="http://www.w3.org/2000/svg" xmlns:xlink="http://www.w3.org/1999/xlink" width="512px" height="512px" viewBox="0 0 512 512" version="1.1">
<g id="surface1">
<path style=" stroke:none;fill-rule:nonzero;fill:rgb(100%,100%,100%);fill-opacity:1;" d="M 175.15625 161.683594 L 175.15625 107.789062 C 175.15625 92.90625 187.222656 80.84375 202.105469 80.84375 L 309.894531 80.84375 C 324.777344 80.84375 336.84375 92.90625 336.84375 107.789062 L 336.84375 161.683594 L 377.261719 161.683594 C 392.144531 161.683594 404.210938 173.75 404.210938 188.632812 L 404.210938 350.316406 C 404.210938 365.199219 392.144531 377.261719 377.261719 377.261719 L 134.738281 377.261719 C 119.855469 377.261719 107.789062 365.199219 107.789062 350.316406 L 107.789062 188.632812 C 107.789062 173.75 119.855469 161.683594 134.738281 161.683594 Z M 202.105469 107.789062 L 202.105469 161.683594 L 309.894531 161.683594 L 309.894531 107.789062 Z M 202.105469 107.789062 "/>
</g>
</svg>
