<?xml version="1.0" encoding="UTF-8"?>
<svg xmlns="http://www.w3.org/2000/svg" xmlns:xlink="http://www.w3.org/1999/xlink" width="512px" height="512px" viewBox="0 0 512 512" version="1.1">
<g id="surface1">
<path style=" stroke:none;fill-rule:nonzero;fill:rgb(100%,100%,100%);fill-opacity:1;" d="M 326.367188 107.789062 C 323.339844 107.789062 314.632812 111.738281 314.632812 111.738281 L 225.105469 157 C 213.183594 161.75 208.460938 180.765625 215.632812 190.261719 L 241.789062 228.210938 L 134.789062 282.894531 L 188.632812 323.316406 L 256.054688 282.894531 L 323.421875 323.316406 L 350.421875 296.3125 L 269.582031 188.523438 L 338.476562 147.3125 C 352.71875 140.140625 350.421875 128.328125 350.421875 121.15625 C 350.3125 115.5 340.714844 107.789062 326.367188 107.789062 Z M 384.054688 188.632812 C 357.988281 188.632812 336.84375 209.722656 336.84375 235.789062 C 336.84375 261.855469 357.988281 283 384.054688 283 C 410.121094 283 431.210938 261.855469 431.210938 235.789062 C 431.210938 209.722656 410.117188 188.632812 384.054688 188.632812 Z M 121.261719 323.367188 L 53.894531 363.789062 L 53.894531 404.210938 L 121.261719 363.789062 L 188.632812 404.210938 L 256.054688 363.789062 L 323.421875 404.210938 L 377.261719 363.789062 L 458.105469 404.210938 L 458.105469 363.789062 L 377.261719 323.367188 L 323.421875 363.789062 L 256.054688 323.367188 L 188.632812 363.789062 Z M 121.261719 323.367188 "/>
</g>
</svg>
