<?xml version="1.0" encoding="UTF-8"?>
<svg xmlns="http://www.w3.org/2000/svg" xmlns:xlink="http://www.w3.org/1999/xlink" width="512px" height="512px" viewBox="0 0 512 512" version="1.1">
<g id="surface1">
<path style=" stroke:none;fill-rule:nonzero;fill:rgb(100%,100%,100%);fill-opacity:1;" d="M 376.390625 329.5 C 362.113281 343.089844 344.222656 352.289062 324.859375 355.992188 L 155.425781 186.847656 C 159.640625 167.628906 169 149.921875 182.5 135.609375 C 243.335938 74.765625 322.828125 59.917969 387.453125 124.546875 C 452.074219 189.179688 437.234375 268.664062 376.390625 329.5 Z M 188.109375 372.867188 C 197.675781 366.101562 208.324219 361.007812 219.59375 357.808594 C 236.351562 355.847656 253.335938 357.382812 269.472656 362.3125 L 149.4375 242.527344 C 154.652344 259.269531 156.101562 276.960938 153.675781 294.328125 C 150.726562 305.070312 145.980469 315.238281 139.640625 324.398438 C 110.753906 358.433594 82.191406 370.9375 82.191406 383.355469 C 83.695312 408.359375 103.640625 428.304688 128.644531 429.808594 C 141.0625 429.808594 153.375 402.507812 188.109375 372.867188 Z M 188.109375 372.867188 "/>
</g>
</svg>
