<?xml version="1.0" encoding="UTF-8"?>
<svg xmlns="http://www.w3.org/2000/svg" xmlns:xlink="http://www.w3.org/1999/xlink" width="512px" height="512px" viewBox="0 0 512 512" version="1.1">
<g id="surface1">
<path style=" stroke:none;fill-rule:nonzero;fill:rgb(100%,100%,100%);fill-opacity:1;" d="M 269.472656 188.632812 C 269.472656 188.632812 323.367188 185.9375 323.367188 145.515625 C 323.367188 120.347656 301.203125 113.410156 282.300781 107.496094 C 268.25 103.101562 256 99.269531 256 88.925781 C 256 64.320312 269.472656 53.894531 269.472656 53.894531 C 269.472656 53.894531 242.527344 68.21875 242.527344 94.316406 C 242.527344 113.464844 257.089844 120.234375 271.078125 126.730469 C 283.996094 132.734375 296.421875 138.507812 296.421875 153.601562 C 296.421875 180.546875 269.472656 188.632812 269.472656 188.632812 Z M 372.875 233.753906 C 360.433594 286.199219 344.53125 353.207031 296.421875 377.261719 L 296.421875 431.15625 L 215.578125 431.15625 L 215.578125 377.261719 C 167.464844 353.207031 151.566406 286.199219 139.121094 233.753906 C 137.628906 227.453125 136.183594 221.359375 134.738281 215.578125 L 377.261719 215.578125 C 375.820312 221.359375 374.371094 227.453125 372.875 233.753906 Z M 242.527344 161.683594 C 242.527344 188.632812 202.105469 188.632812 202.105469 188.632812 C 202.105469 188.632812 223.472656 185.9375 223.472656 169.769531 C 223.472656 162.363281 216.011719 157.773438 207.992188 152.839844 C 198.6875 147.113281 188.632812 140.929688 188.632812 129.347656 C 188.632812 106.875 215.578125 94.316406 215.578125 94.316406 C 215.578125 94.316406 202.105469 101.683594 202.105469 121.261719 C 202.105469 131.726562 211.625 135.839844 221.421875 140.078125 C 231.816406 144.570312 242.527344 149.199219 242.527344 161.683594 Z M 242.527344 161.683594 "/>
</g>
</svg>
