<?xml version="1.0" encoding="UTF-8"?>
<svg xmlns="http://www.w3.org/2000/svg" xmlns:xlink="http://www.w3.org/1999/xlink" width="512px" height="512px" viewBox="0 0 512 512" version="1.1">
<g id="surface1">
<path style=" stroke:none;fill-rule:nonzero;fill:rgb(100%,100%,100%);fill-opacity:1;" d="M 175.425781 293.1875 C 170.082031 298.550781 170.082031 307.226562 175.425781 312.589844 L 194.828125 331.992188 L 136.625 390.738281 L 126.652344 380.765625 C 115.800781 370.597656 109.082031 356.777344 107.789062 341.960938 L 107.789062 302.886719 C 109.015625 287.976562 115.738281 274.050781 126.652344 263.816406 L 263.277344 127.191406 C 273.425781 116.078125 287.363281 109.160156 302.347656 107.789062 L 341.421875 107.789062 C 356.410156 109.160156 370.347656 116.078125 380.496094 127.191406 L 390.199219 136.894531 L 331.722656 195.636719 L 312.050781 175.964844 C 306.6875 170.621094 298.011719 170.621094 292.648438 175.964844 Z M 165.1875 420.378906 C 175.4375 431.167969 192.492188 431.605469 203.28125 421.355469 C 203.617188 421.039062 203.941406 420.714844 204.261719 420.378906 L 223.664062 400.976562 C 234.453125 390.726562 234.890625 373.671875 224.640625 362.882812 C 224.324219 362.546875 223.996094 362.222656 223.664062 361.902344 Z M 360.554688 224.203125 C 370.804688 234.992188 387.859375 235.429688 398.652344 225.179688 C 398.984375 224.863281 419.03125 204.800781 419.03125 204.800781 C 429.820312 194.550781 430.257812 177.496094 420.011719 166.703125 C 419.691406 166.371094 419.367188 166.042969 419.03125 165.726562 Z M 360.554688 224.203125 "/>
</g>
</svg>
