<?xml version="1.0" encoding="UTF-8"?>
<svg xmlns="http://www.w3.org/2000/svg" xmlns:xlink="http://www.w3.org/1999/xlink" width="512px" height="512px" viewBox="0 0 512 512" version="1.1">
<g id="surface1">
<path style=" stroke:none;fill-rule:nonzero;fill:rgb(100%,100%,100%);fill-opacity:1;" d="M 407.671875 104.285156 C 366.125 62.769531 284.964844 83.378906 238.441406 132.582031 C 207.804688 164.699219 189.8125 206.808594 187.78125 251.148438 C 188.753906 276.472656 183.480469 301.644531 172.421875 324.445312 C 166.015625 322.582031 159.105469 324.335938 154.367188 329.027344 L 87.265625 396.394531 C 79.992188 403.695312 79.992188 415.503906 87.265625 422.804688 L 89.152344 424.691406 C 96.515625 431.808594 108.195312 431.808594 115.5625 424.691406 L 182.929688 357.589844 C 187.613281 352.957031 189.460938 346.175781 187.78125 339.804688 C 214.585938 329.40625 243.101562 324.105469 271.855469 324.175781 C 312.441406 320.304688 350.433594 302.5 379.375 273.785156 C 434.078125 219.082031 446.761719 143.34375 407.671875 104.285156 Z M 348.386719 103.207031 C 364.703125 102.671875 380.578125 108.578125 392.578125 119.644531 C 408.207031 137.726562 413.3125 162.628906 406.054688 185.398438 L 326.558594 105.632812 C 333.730469 104.058594 341.046875 103.246094 348.386719 103.207031 Z M 225.238281 286.71875 C 209.230469 267.640625 204.328125 241.597656 212.300781 218.003906 L 294.222656 299.925781 C 270.441406 306.902344 244.757812 301.984375 225.238281 286.71875 Z M 302.84375 297.230469 L 214.996094 209.113281 C 218.265625 198.933594 222.695312 189.171875 228.199219 180.007812 L 331.949219 283.753906 C 322.761719 289.285156 313.003906 293.800781 302.84375 297.230469 Z M 338.953125 279.445312 L 232.78125 173.003906 C 238.5 164.195312 245.1875 156.0625 252.722656 148.75 L 363.207031 259.234375 C 355.839844 266.789062 347.714844 273.558594 338.953125 279.445312 Z M 368.867188 253.574219 L 258.382812 143.089844 C 265.351562 136.542969 272.933594 130.679688 281.019531 125.574219 L 386.652344 231.207031 C 381.429688 239.199219 375.476562 246.6875 368.867188 253.574219 Z M 390.964844 224.203125 L 288.292969 121.261719 C 297.414062 115.570312 307.308594 111.210938 317.667969 108.328125 L 403.898438 194.558594 C 400.667969 204.878906 396.332031 214.816406 390.964844 224.203125 Z M 390.964844 224.203125 "/>
</g>
</svg>
