<?xml version="1.0" encoding="UTF-8"?>
<svg xmlns="http://www.w3.org/2000/svg" xmlns:xlink="http://www.w3.org/1999/xlink" width="512px" height="512px" viewBox="0 0 512 512" version="1.1">
<g id="surface1">
<path style=" stroke:none;fill-rule:nonzero;fill:rgb(100%,100%,100%);fill-opacity:1;" d="M 107.789062 80.84375 C 107.789062 80.84375 80.84375 80.84375 80.84375 107.789062 L 80.84375 246.789062 C 80.84375 293.417969 90.382812 350.316406 175.15625 350.316406 L 188.632812 350.316406 L 188.632812 269.472656 L 121.261719 296.421875 C 121.261719 296.421875 121.261719 229.050781 188.632812 229.050781 L 188.632812 188.632812 C 188.632812 169.558594 190.96875 153.035156 202.105469 140.789062 C 212.386719 129.480469 229.175781 106.910156 273.683594 128.105469 L 296.421875 142.894531 L 296.421875 107.789062 C 296.421875 107.789062 296.421875 80.84375 269.472656 80.84375 C 250.398438 80.84375 216.183594 107.789062 188.632812 107.789062 C 161.082031 107.789062 128.984375 80.84375 107.789062 80.84375 Z M 134.738281 134.738281 C 149.621094 134.738281 161.683594 146.800781 161.683594 161.683594 C 161.683594 176.566406 149.621094 188.632812 134.738281 188.632812 C 119.855469 188.632812 107.789062 176.566406 107.789062 161.683594 C 107.789062 146.800781 119.855469 134.738281 134.738281 134.738281 Z M 242.527344 161.683594 C 242.527344 161.683594 215.578125 161.683594 215.578125 188.632812 L 215.578125 323.367188 C 215.578125 377.261719 242.527344 431.15625 323.367188 431.15625 C 404.210938 431.15625 431.15625 377.261719 431.15625 323.367188 L 431.15625 188.632812 C 431.15625 161.683594 404.210938 161.683594 404.210938 161.683594 C 385.136719 161.683594 350.917969 188.632812 323.367188 188.632812 C 295.816406 188.632812 263.71875 161.683594 242.527344 161.683594 Z M 269.472656 215.578125 C 284.355469 215.578125 296.421875 227.644531 296.421875 242.527344 C 296.421875 257.410156 284.355469 269.472656 269.472656 269.472656 C 254.589844 269.472656 242.527344 257.410156 242.527344 242.527344 C 242.527344 227.644531 254.589844 215.578125 269.472656 215.578125 Z M 377.261719 215.578125 C 392.144531 215.578125 404.210938 227.644531 404.210938 242.527344 C 404.210938 257.410156 392.144531 269.472656 377.261719 269.472656 C 362.378906 269.472656 350.316406 257.410156 350.316406 242.527344 C 350.316406 227.644531 362.378906 215.578125 377.261719 215.578125 Z M 256 323.367188 L 390.738281 323.367188 C 390.738281 323.367188 390.738281 390.738281 323.367188 390.738281 C 256 390.738281 256 323.367188 256 323.367188 Z M 256 323.367188 "/>
</g>
</svg>
