<?xml version="1.0" encoding="UTF-8"?>
<svg xmlns="http://www.w3.org/2000/svg" xmlns:xlink="http://www.w3.org/1999/xlink" width="512px" height="512px" viewBox="0 0 512 512" version="1.1">
<g id="surface1">
<path style=" stroke:none;fill-rule:nonzero;fill:rgb(100%,100%,100%);fill-opacity:1;" d="M 134.738281 94.316406 C 134.738281 116.640625 152.832031 134.738281 175.15625 134.738281 C 197.480469 134.738281 215.578125 116.640625 215.578125 94.316406 C 215.578125 71.992188 197.480469 53.894531 175.15625 53.894531 C 152.832031 53.894531 134.738281 71.992188 134.738281 94.316406 Z M 363.789062 53.894531 C 386.113281 53.894531 404.210938 71.992188 404.210938 94.316406 C 404.210938 116.640625 386.113281 134.738281 363.789062 134.738281 C 341.464844 134.738281 323.367188 116.640625 323.367188 94.316406 C 323.367188 71.992188 341.464844 53.894531 363.789062 53.894531 Z M 142.550781 161.683594 C 132.882812 161.6875 123.957031 166.871094 119.160156 175.265625 L 69.148438 262.789062 C 66.621094 266.976562 66.5625 272.203125 68.992188 276.445312 C 71.421875 280.691406 75.960938 283.285156 80.851562 283.222656 C 85.738281 283.164062 90.210938 280.457031 92.539062 276.15625 L 130.585938 209.542969 C 113.628906 256.332031 97.046875 303.257812 80.84375 350.316406 L 134.738281 350.316406 L 134.738281 417.683594 C 134.738281 425.125 140.769531 431.15625 148.210938 431.15625 C 155.652344 431.15625 161.683594 425.125 161.683594 417.683594 L 161.683594 350.316406 L 188.632812 350.316406 L 188.632812 417.683594 C 188.632812 425.125 194.664062 431.15625 202.105469 431.15625 C 209.546875 431.15625 215.578125 425.125 215.578125 417.683594 L 215.578125 350.316406 L 269.472656 350.316406 L 218.355469 207.144531 L 257.777344 276.15625 C 260.101562 280.457031 264.578125 283.164062 269.464844 283.222656 C 274.355469 283.285156 278.894531 280.691406 281.324219 276.445312 C 283.753906 272.203125 283.695312 266.976562 281.167969 262.789062 L 231.15625 175.265625 C 226.359375 166.871094 217.433594 161.6875 207.765625 161.683594 Z M 296.421875 175.15625 C 296.421875 167.714844 302.453125 161.683594 309.894531 161.683594 L 417.683594 161.683594 C 425.125 161.683594 431.15625 167.714844 431.15625 175.15625 L 431.15625 309.894531 C 431.15625 317.335938 425.125 323.367188 417.683594 323.367188 C 410.242188 323.367188 404.210938 317.335938 404.210938 309.894531 L 404.210938 417.683594 C 404.210938 425.125 398.179688 431.15625 390.738281 431.15625 C 383.296875 431.15625 377.261719 425.125 377.261719 417.683594 L 377.261719 309.894531 L 350.316406 309.894531 L 350.316406 417.683594 C 350.316406 425.125 344.285156 431.15625 336.84375 431.15625 C 329.402344 431.15625 323.367188 425.125 323.367188 417.683594 L 323.367188 309.894531 C 323.367188 317.335938 317.335938 323.367188 309.894531 323.367188 C 302.453125 323.367188 296.421875 317.335938 296.421875 309.894531 Z M 296.421875 175.15625 "/>
</g>
</svg>
