<?xml version="1.0" encoding="UTF-8"?>
<svg xmlns="http://www.w3.org/2000/svg" xmlns:xlink="http://www.w3.org/1999/xlink" width="512px" height="512px" viewBox="0 0 512 512" version="1.1">
<g id="surface1">
<path style=" stroke:none;fill-rule:nonzero;fill:rgb(100%,100%,100%);fill-opacity:1;" d="M 121.261719 80.84375 C 113.820312 80.84375 107.789062 86.875 107.789062 94.316406 L 107.789062 404.210938 L 94.316406 404.210938 C 86.875 404.210938 80.84375 410.242188 80.84375 417.683594 C 80.84375 425.125 86.875 431.15625 94.316406 431.15625 L 282.949219 431.15625 C 290.386719 431.15625 296.421875 425.125 296.421875 417.683594 C 296.421875 410.242188 290.386719 404.210938 282.949219 404.210938 L 242.527344 404.210938 L 242.527344 326.027344 L 425.125 203.339844 C 431.300781 199.1875 432.945312 190.816406 428.792969 184.640625 L 421.277344 173.457031 C 417.128906 167.28125 408.757812 165.636719 402.582031 169.789062 L 242.527344 277.328125 L 242.527344 107.789062 L 256 107.789062 C 263.441406 107.789062 269.472656 101.757812 269.472656 94.316406 C 269.472656 86.875 263.441406 80.84375 256 80.84375 Z M 134.738281 148.210938 C 134.738281 140.769531 140.769531 134.738281 148.210938 134.738281 L 202.105469 134.738281 C 209.546875 134.738281 215.578125 140.769531 215.578125 148.210938 L 215.578125 256 C 215.578125 263.441406 209.546875 269.472656 202.105469 269.472656 L 148.210938 269.472656 C 140.769531 269.472656 134.738281 263.441406 134.738281 256 Z M 134.738281 148.210938 "/>
</g>
</svg>
