<?xml version="1.0" encoding="UTF-8"?>
<svg xmlns="http://www.w3.org/2000/svg" xmlns:xlink="http://www.w3.org/1999/xlink" width="512px" height="512px" viewBox="0 0 512 512" version="1.1">
<g id="surface1">
<path style=" stroke:none;fill-rule:nonzero;fill:rgb(100%,100%,100%);fill-opacity:1;" d="M 340.910156 218.839844 C 339.710938 217.878906 338.21875 217.351562 336.679688 217.351562 C 335.140625 217.351562 333.648438 217.878906 332.449219 218.839844 L 271.953125 267.558594 C 271.175781 268.1875 270.550781 268.980469 270.121094 269.878906 C 269.691406 270.777344 269.472656 271.765625 269.472656 272.761719 L 269.472656 397.394531 C 269.472656 399.199219 270.191406 400.9375 271.46875 402.214844 C 272.75 403.492188 274.484375 404.210938 276.292969 404.210938 L 316.550781 404.210938 C 318.359375 404.210938 320.09375 403.492188 321.371094 402.214844 C 322.648438 400.9375 323.367188 399.199219 323.367188 397.394531 L 323.367188 350.316406 L 350.316406 350.316406 L 350.316406 397.394531 C 350.316406 399.199219 351.035156 400.9375 352.3125 402.214844 C 353.59375 403.492188 355.324219 404.210938 357.132812 404.210938 L 397.394531 404.210938 C 399.199219 404.210938 400.9375 403.492188 402.214844 402.214844 C 403.492188 400.9375 404.210938 399.199219 404.210938 397.394531 L 404.210938 272.707031 C 404.230469 271.675781 404.011719 270.652344 403.570312 269.71875 C 403.132812 268.78125 402.484375 267.960938 401.675781 267.316406 Z M 323.367188 323.367188 L 296.421875 323.367188 L 296.421875 296.421875 L 323.367188 296.421875 Z M 377.261719 323.367188 L 350.316406 323.367188 L 350.316406 296.421875 L 377.261719 296.421875 Z M 207.765625 75.855469 C 207.144531 74.921875 206.304688 74.15625 205.316406 73.628906 C 204.328125 73.097656 203.226562 72.820312 202.105469 72.820312 C 200.984375 72.820312 199.882812 73.097656 198.894531 73.628906 C 197.90625 74.15625 197.066406 74.921875 196.445312 75.855469 L 108.921875 186.90625 C 108.179688 188.023438 107.785156 189.335938 107.789062 190.679688 L 107.789062 397.394531 C 107.785156 398.285156 107.957031 399.167969 108.296875 399.992188 C 108.632812 400.816406 109.132812 401.570312 109.757812 402.203125 C 110.386719 402.835938 111.132812 403.339844 111.957031 403.683594 C 112.78125 404.027344 113.660156 404.207031 114.554688 404.210938 L 181.921875 404.210938 C 183.707031 404.1875 185.414062 403.464844 186.671875 402.191406 C 187.925781 400.921875 188.632812 399.207031 188.632812 397.417969 L 188.632812 350.316406 L 215.578125 350.316406 L 215.578125 397.417969 C 215.578125 399.21875 216.292969 400.945312 217.566406 402.222656 C 218.839844 403.496094 220.570312 404.210938 222.371094 404.210938 L 242.527344 404.210938 L 242.527344 242.527344 C 242.523438 240.503906 242.980469 238.503906 243.855469 236.679688 C 244.734375 234.855469 246.011719 233.253906 247.59375 231.988281 L 296.421875 188.632812 C 296.421875 187.285156 207.765625 75.855469 207.765625 75.855469 Z M 161.683594 296.421875 L 134.738281 296.421875 L 134.738281 269.472656 L 161.683594 269.472656 Z M 161.683594 215.578125 L 134.738281 215.578125 L 134.738281 188.632812 L 161.683594 188.632812 Z M 215.578125 296.421875 L 188.632812 296.421875 L 188.632812 269.472656 L 215.578125 269.472656 Z M 215.578125 215.578125 L 188.632812 215.578125 L 188.632812 188.632812 L 215.578125 188.632812 Z M 215.578125 215.578125 "/>
</g>
</svg>
