<?xml version="1.0" encoding="UTF-8"?>
<svg xmlns="http://www.w3.org/2000/svg" xmlns:xlink="http://www.w3.org/1999/xlink" width="512px" height="512px" viewBox="0 0 512 512" version="1.1">
<g id="surface1">
<path style=" stroke:none;fill-rule:nonzero;fill:rgb(100%,100%,100%);fill-opacity:1;" d="M 404.210938 161.683594 L 296.421875 161.683594 L 296.421875 80.84375 L 256 53.894531 L 215.578125 80.84375 L 215.578125 161.683594 L 107.789062 161.683594 L 80.84375 188.632812 L 80.84375 215.578125 L 431.15625 215.578125 L 431.15625 188.632812 Z M 256 94.316406 C 266.777344 94.316406 274.863281 102.398438 274.863281 115.875 C 274.863281 129.347656 266.777344 134.738281 256 134.738281 C 245.222656 134.738281 234.441406 126.652344 234.441406 113.179688 C 234.441406 102.398438 245.222656 94.316406 256 94.316406 Z M 404.210938 242.527344 L 107.789062 242.527344 L 107.789062 350.316406 L 80.84375 390.738281 L 80.84375 431.15625 L 431.15625 431.15625 L 431.15625 390.738281 L 404.210938 350.316406 Z M 188.632812 390.738281 L 161.683594 390.738281 L 161.683594 269.472656 L 188.632812 269.472656 Z M 269.472656 390.738281 L 242.527344 390.738281 L 242.527344 269.472656 L 269.472656 269.472656 Z M 350.316406 390.738281 L 323.367188 390.738281 L 323.367188 269.472656 L 350.316406 269.472656 Z M 350.316406 390.738281 "/>
</g>
</svg>
