<?xml version="1.0" encoding="UTF-8"?>
<svg xmlns="http://www.w3.org/2000/svg" xmlns:xlink="http://www.w3.org/1999/xlink" width="512px" height="512px" viewBox="0 0 512 512" version="1.1">
<g id="surface1">
<path style=" stroke:none;fill-rule:nonzero;fill:rgb(100%,100%,100%);fill-opacity:1;" d="M 161.683594 107.789062 C 117.035156 107.789062 80.84375 143.550781 80.84375 187.664062 L 80.84375 377.585938 C 80.84375 392.289062 92.90625 404.210938 107.789062 404.210938 L 134.738281 404.210938 L 134.738281 284.398438 C 134.738281 218.230469 189.027344 164.589844 256 164.589844 C 322.972656 164.589844 377.261719 218.230469 377.261719 284.402344 L 377.261719 404.210938 L 404.210938 404.210938 C 419.09375 404.210938 431.15625 392.289062 431.15625 377.585938 L 431.15625 187.664062 C 431.15625 143.550781 394.964844 107.789062 350.316406 107.789062 Z M 350.316406 323.367188 L 350.316406 297.714844 C 350.316406 238.894531 308.089844 191.214844 256 191.214844 C 203.910156 191.214844 161.683594 238.894531 161.683594 297.714844 L 161.683594 404.210938 Z M 350.316406 323.367188 "/>
</g>
</svg>
