<?xml version="1.0" encoding="UTF-8"?>
<svg xmlns="http://www.w3.org/2000/svg" xmlns:xlink="http://www.w3.org/1999/xlink" width="512px" height="512px" viewBox="0 0 512 512" version="1.1">
<g id="surface1">
<path style=" stroke:none;fill-rule:nonzero;fill:rgb(100%,100%,100%);fill-opacity:1;" d="M 256 215.578125 C 188.632812 215.578125 175.15625 277.019531 175.15625 309.085938 C 158.726562 314.632812 143.269531 322.726562 129.347656 333.070312 C 105.875 350.894531 101.074219 384.265625 118.570312 407.984375 C 136.890625 431.003906 169.988281 435.730469 194.019531 418.761719 C 212.289062 406.363281 233.921875 399.871094 256 400.167969 C 278.078125 399.871094 299.710938 406.363281 317.980469 418.761719 C 341.085938 437.230469 374.761719 433.621094 393.429688 410.679688 C 412.003906 388.761719 409.277344 355.933594 387.339844 337.382812 C 386.695312 336.816406 386.019531 336.277344 385.347656 335.765625 L 382.652344 333.070312 C 368.28125 323.464844 352.925781 315.425781 336.84375 309.085938 C 336.84375 277.289062 323.367188 215.578125 256 215.578125 Z M 109.945312 169.769531 C 90.144531 179.675781 81.238281 203.105469 89.464844 223.664062 C 91.1875 245.980469 110.507812 262.78125 132.851562 261.390625 C 152.652344 251.484375 161.554688 228.050781 153.332031 207.496094 C 151.605469 185.175781 132.285156 168.375 109.945312 169.769531 Z M 402.324219 169.769531 C 422.125 179.675781 431.03125 203.105469 422.804688 223.664062 C 421.082031 245.980469 401.757812 262.78125 379.417969 261.390625 C 359.617188 251.484375 350.714844 228.050781 358.9375 207.496094 C 360.664062 185.175781 379.984375 168.375 402.324219 169.769531 Z M 190.789062 88.925781 C 172.464844 91.351562 163.839844 114.257812 170.308594 139.316406 C 173.273438 161.554688 191.335938 178.714844 213.691406 180.546875 C 232.015625 178.121094 240.640625 155.21875 234.171875 130.15625 C 231.207031 107.921875 213.144531 90.757812 190.789062 88.925781 Z M 321.480469 88.925781 C 339.804688 91.351562 348.429688 114.257812 341.960938 139.316406 C 338.972656 161.644531 320.769531 178.835938 298.308594 180.546875 C 279.984375 178.390625 271.359375 155.21875 277.828125 130.15625 C 280.808594 107.824219 299.015625 90.625 321.480469 88.925781 Z M 321.480469 88.925781 "/>
</g>
</svg>
