<?xml version="1.0" encoding="UTF-8"?>
<svg xmlns="http://www.w3.org/2000/svg" xmlns:xlink="http://www.w3.org/1999/xlink" width="512px" height="512px" viewBox="0 0 512 512" version="1.1">
<g id="surface1">
<path style=" stroke:none;fill-rule:nonzero;fill:rgb(100%,100%,100%);fill-opacity:1;" d="M 216.117188 280.925781 C 211.476562 284.308594 207.304688 288.296875 203.722656 292.78125 L 81.113281 198.46875 C 92.796875 183.144531 106.480469 169.460938 121.800781 157.777344 Z M 390.199219 158.046875 L 295.882812 280.65625 C 300.445312 284.140625 304.523438 288.21875 308.007812 292.78125 L 430.886719 198.46875 C 419.199219 183.230469 405.511719 169.632812 390.199219 158.046875 Z M 250.722656 323.714844 C 228.589844 326.628906 213.007812 346.933594 215.921875 369.066406 C 218.835938 391.199219 239.140625 406.78125 261.273438 403.867188 C 283.40625 400.953125 298.988281 380.648438 296.074219 358.515625 C 293.160156 336.382812 272.855469 320.804688 250.722656 323.714844 Z M 227.167969 114.121094 C 208.078125 116.542969 189.40625 121.527344 171.65625 128.941406 L 230.9375 272.304688 C 236.148438 269.929688 241.691406 268.386719 247.375 267.722656 Z M 284.832031 114.390625 L 264.625 267.722656 C 270.261719 268.457031 275.785156 269.90625 281.0625 272.035156 L 340.34375 129.210938 C 322.679688 121.550781 303.96875 116.554688 284.832031 114.390625 Z M 284.832031 114.390625 "/>
</g>
</svg>
