<?xml version="1.0" encoding="UTF-8"?>
<svg xmlns="http://www.w3.org/2000/svg" xmlns:xlink="http://www.w3.org/1999/xlink" width="512px" height="512px" viewBox="0 0 512 512" version="1.1">
<g id="surface1">
<path style=" stroke:none;fill-rule:nonzero;fill:rgb(100%,100%,100%);fill-opacity:1;" d="M 220.320312 85.585938 C 217.703125 82.96875 213.457031 82.96875 210.835938 85.585938 L 92.269531 204.152344 C 90.394531 206.082031 89.851562 208.941406 90.882812 211.425781 C 91.914062 213.910156 94.320312 215.542969 97.011719 215.578125 L 134.738281 215.578125 L 134.738281 397.5 C 134.75 401.199219 137.746094 404.195312 141.445312 404.210938 L 235.761719 404.210938 C 237.542969 404.230469 239.261719 403.542969 240.53125 402.292969 C 241.800781 401.042969 242.519531 399.335938 242.527344 397.554688 L 242.527344 197.335938 C 242.527344 195.558594 243.226562 193.832031 244.492188 192.59375 L 282.949219 148.210938 Z M 215.578125 350.316406 L 188.632812 350.316406 L 188.632812 323.367188 L 215.578125 323.367188 Z M 215.578125 296.421875 L 188.632812 296.421875 L 188.632812 269.472656 L 215.578125 269.472656 Z M 215.578125 215.578125 L 215.578125 242.527344 L 188.632812 242.527344 L 188.632812 215.578125 Z M 397.472656 134.738281 L 384 134.738281 C 380.28125 134.738281 377.261719 137.753906 377.261719 141.472656 L 377.261719 188.632812 L 341.585938 139.480469 C 338.964844 136.863281 334.71875 136.863281 332.097656 139.480469 L 270.984375 213.746094 C 270.007812 214.929688 269.476562 216.417969 269.472656 217.949219 L 269.472656 397.417969 C 269.429688 401.125 272.398438 404.167969 276.101562 404.210938 L 316.523438 404.210938 C 320.289062 404.226562 323.355469 401.183594 323.367188 397.417969 L 323.367188 350.316406 L 350.316406 350.316406 L 350.316406 397.394531 C 350.316406 401.15625 353.367188 404.210938 357.132812 404.210938 L 397.554688 404.210938 C 401.234375 404.167969 404.195312 401.179688 404.210938 397.5 L 404.210938 141.472656 C 404.210938 137.753906 401.195312 134.738281 397.472656 134.738281 Z M 323.367188 269.472656 L 296.421875 269.472656 L 296.421875 242.527344 L 323.367188 242.527344 Z M 377.261719 269.472656 L 350.316406 269.472656 L 350.316406 242.527344 L 377.261719 242.527344 Z M 323.367188 323.367188 L 296.421875 323.367188 L 296.421875 296.421875 L 323.367188 296.421875 Z M 377.261719 323.367188 L 350.316406 323.367188 L 350.316406 296.421875 L 377.261719 296.421875 Z M 377.261719 323.367188 "/>
</g>
</svg>
