<?xml version="1.0" encoding="UTF-8"?>
<svg xmlns="http://www.w3.org/2000/svg" xmlns:xlink="http://www.w3.org/1999/xlink" width="512px" height="512px" viewBox="0 0 512 512" version="1.1">
<g id="surface1">
<path style=" stroke:none;fill-rule:nonzero;fill:rgb(100%,100%,100%);fill-opacity:1;" d="M 282.527344 80.847656 C 278.582031 80.980469 274.886719 82.816406 272.421875 85.898438 L 227.683594 141.792969 L 184.421875 100.742188 C 172.675781 89.933594 155.214844 104.90625 164.105469 118.164062 L 209 182.847656 C 214.15625 190.273438 225.019531 190.617188 230.632812 183.53125 C 235.113281 177.875 242.527344 165.269531 256 165.269531 C 269.472656 165.269531 277.367188 178.492188 281.367188 183.53125 C 286.085938 189.46875 294.769531 190.351562 300.578125 185.480469 L 345.527344 147.742188 C 357.40625 137.660156 345.542969 118.8125 331.316406 125.164062 L 296.421875 140.847656 L 296.421875 94.320312 C 296.425781 86.714844 290.132812 80.613281 282.527344 80.847656 Z M 188.632812 215.585938 L 109.84375 375.214844 C 107.769531 377.289062 107.789062 381.441406 107.789062 385.585938 C 107.789062 400.09375 118.128906 404.214844 126.421875 404.214844 L 385.578125 404.214844 C 395.941406 404.214844 404.210938 400.09375 404.210938 385.585938 C 404.210938 381.441406 404.230469 379.363281 402.15625 375.214844 L 323.367188 215.585938 C 309.894531 215.585938 296.421875 229.058594 296.421875 242.53125 L 296.421875 256.003906 C 296.421875 263.46875 290.410156 269.480469 282.949219 269.480469 C 275.484375 269.480469 269.472656 263.46875 269.472656 256.003906 L 269.472656 242.53125 C 269.472656 235.089844 263.441406 229.058594 256 229.058594 C 248.558594 229.058594 242.527344 235.089844 242.527344 242.53125 L 242.527344 296.425781 C 242.527344 303.890625 236.515625 309.898438 229.050781 309.898438 C 221.589844 309.898438 215.578125 303.890625 215.578125 296.425781 L 215.578125 242.53125 C 215.578125 229.058594 202.105469 215.585938 188.632812 215.585938 Z M 188.632812 215.585938 "/>
</g>
</svg>
