<?xml version="1.0" encoding="UTF-8"?>
<svg xmlns="http://www.w3.org/2000/svg" xmlns:xlink="http://www.w3.org/1999/xlink" width="512px" height="512px" viewBox="0 0 512 512" version="1.1">
<g id="surface1">
<path style=" stroke:none;fill-rule:nonzero;fill:rgb(100%,100%,100%);fill-opacity:1;" d="M 428.734375 267.855469 C 428.246094 276.378906 427.074219 284.851562 425.230469 293.1875 C 407.855469 276.953125 388.144531 263.417969 366.753906 253.035156 C 354.628906 246.945312 342.007812 241.898438 329.027344 237.945312 C 313.066406 233.046875 296.621094 229.882812 279.984375 228.515625 C 279.289062 228.292969 278.554688 228.199219 277.828125 228.246094 C 268.214844 212.464844 260.867188 195.410156 256 177.582031 C 255.730469 177.3125 255.730469 177.3125 256 177.042969 C 269.753906 177.039062 283.472656 178.394531 296.960938 181.085938 C 311.445312 183.941406 325.550781 188.460938 338.996094 194.558594 C 352.351562 200.066406 365.011719 207.121094 376.722656 215.578125 C 397.152344 229.628906 414.789062 247.355469 428.734375 267.855469 Z M 378.339844 133.121094 C 363.933594 118.785156 347.042969 107.191406 328.488281 98.898438 C 320.117188 94.597656 311.246094 91.335938 302.078125 89.195312 C 288.511719 85.195312 274.453125 83.109375 260.3125 82.996094 C 257.449219 82.640625 254.550781 82.640625 251.6875 82.996094 C 249.296875 95.609375 248.121094 108.425781 248.183594 121.261719 C 248.183594 126.652344 248.453125 131.773438 248.722656 136.894531 C 251.050781 136.667969 253.390625 136.578125 255.730469 136.625 C 258.25 136.578125 260.765625 136.667969 263.277344 136.894531 C 276.761719 137.113281 290.203125 138.558594 303.425781 141.203125 C 315.792969 143.578125 327.957031 146.910156 339.804688 151.175781 C 354.121094 156.128906 367.925781 162.445312 381.035156 170.039062 C 394.226562 177.695312 406.753906 186.4375 418.492188 196.175781 C 409.832031 172.496094 396.132812 150.984375 378.339844 133.121094 Z M 161.953125 289.953125 C 155.410156 278.113281 149.820312 265.769531 145.246094 253.035156 C 140.914062 240.65625 137.578125 227.953125 135.277344 215.039062 C 132.46875 200.203125 131.023438 185.140625 130.964844 170.039062 L 130.964844 169.230469 C 130.902344 157.140625 131.804688 145.066406 133.660156 133.121094 C 115.675781 151.039062 101.953125 172.773438 93.507812 196.714844 C 86.363281 215.664062 82.710938 235.75 82.726562 256 C 82.726562 260.042969 82.996094 264.085938 83.265625 267.855469 C 83.753906 276.378906 84.925781 284.851562 86.769531 293.1875 C 89.1875 304.617188 92.894531 315.738281 97.820312 326.332031 C 103.746094 324.984375 109.675781 323.367188 115.335938 321.75 C 133.363281 316.117188 150.578125 308.144531 166.535156 298.039062 C 164.917969 295.34375 163.300781 292.648438 161.953125 289.953125 Z M 232.015625 228.515625 C 224.726562 213.335938 219.039062 197.441406 215.039062 181.085938 C 211.796875 167.992188 209.632812 154.652344 208.574219 141.203125 C 208.035156 134.46875 207.765625 128 207.765625 121.261719 C 207.800781 110.539062 208.523438 99.828125 209.921875 89.195312 C 200.753906 91.335938 191.882812 94.597656 183.511719 98.898438 C 177.5 115.761719 173.695312 133.332031 172.195312 151.175781 C 171.65625 157.101562 171.386719 163.03125 171.386719 169.230469 C 171.386719 177.609375 171.925781 185.980469 173.003906 194.289062 C 174.660156 209.261719 178.007812 223.996094 182.972656 238.214844 C 187 250.257812 192.332031 261.824219 198.871094 272.707031 C 212.015625 260.105469 223.515625 245.886719 233.09375 230.398438 C 232.636719 229.832031 232.273438 229.195312 232.015625 228.515625 Z M 396.125 321.480469 C 396.125 321.480469 396.125 321.210938 395.855469 321.480469 C 382.207031 308.867188 366.769531 298.332031 350.046875 290.222656 C 348.429688 292.917969 347.082031 295.34375 345.464844 298.039062 C 338.515625 309.65625 330.582031 320.652344 321.75 330.914062 C 313.0625 341.3125 303.503906 350.960938 293.1875 359.746094 C 281.527344 369.542969 269.089844 378.375 256 386.15625 C 233.886719 399.015625 209.875 408.292969 184.859375 413.640625 C 229.996094 434.480469 282.003906 434.480469 327.140625 413.640625 C 352.949219 402.644531 375.429688 385.085938 392.355469 362.710938 C 399.339844 354.238281 405.226562 344.910156 409.871094 334.957031 C 405.558594 330.195312 400.96875 325.699219 396.125 321.480469 Z M 256.808594 267.585938 C 256.539062 267.855469 256.269531 268.394531 256 268.664062 C 246.078125 282.347656 234.792969 294.988281 222.316406 306.390625 C 212.28125 315.390625 201.558594 323.589844 190.25 330.914062 C 168.511719 345.117188 144.691406 355.847656 119.644531 362.710938 C 124.039062 368.5 128.808594 373.992188 133.929688 379.148438 C 163.273438 378.730469 192.199219 372.117188 218.8125 359.746094 C 231.972656 353.753906 244.445312 346.34375 256 337.652344 C 268.359375 328.519531 279.65625 318.035156 289.683594 306.390625 C 297.976562 296.757812 305.375 286.382812 311.78125 275.402344 C 293.914062 270.226562 275.410156 267.59375 256.808594 267.585938 Z M 256.808594 267.585938 "/>
</g>
</svg>
