<?xml version="1.0" encoding="UTF-8"?>
<svg xmlns="http://www.w3.org/2000/svg" xmlns:xlink="http://www.w3.org/1999/xlink" width="512px" height="512px" viewBox="0 0 512 512" version="1.1">
<g id="surface1">
<path style=" stroke:none;fill-rule:nonzero;fill:rgb(100%,100%,100%);fill-opacity:1;" d="M 417.683594 188.632812 C 415.628906 188.640625 413.605469 188.179688 411.753906 187.285156 L 256 107.789062 L 100.246094 186.746094 C 93.324219 190.019531 85.058594 187.0625 81.785156 180.144531 C 78.511719 173.222656 81.46875 164.957031 88.386719 161.683594 L 256 78.6875 L 423.613281 161.683594 C 431.054688 163.324219 435.761719 170.683594 434.121094 178.121094 C 432.484375 185.5625 425.125 190.269531 417.683594 188.632812 Z M 188.632812 323.367188 L 107.789062 323.367188 L 107.789062 404.210938 L 188.632812 404.210938 Z M 296.421875 323.367188 L 215.578125 323.367188 L 215.578125 404.210938 L 296.421875 404.210938 Z M 404.210938 323.367188 L 323.367188 323.367188 L 323.367188 404.210938 L 404.210938 404.210938 Z M 350.316406 215.578125 L 269.472656 215.578125 L 269.472656 296.421875 L 350.316406 296.421875 Z M 242.527344 215.578125 L 161.683594 215.578125 L 161.683594 296.421875 L 242.527344 296.421875 Z M 242.527344 215.578125 "/>
</g>
</svg>
