<?xml version="1.0" encoding="UTF-8"?>
<svg xmlns="http://www.w3.org/2000/svg" xmlns:xlink="http://www.w3.org/1999/xlink" width="512px" height="512px" viewBox="0 0 512 512" version="1.1">
<g id="surface1">
<path style=" stroke:none;fill-rule:nonzero;fill:rgb(100%,100%,100%);fill-opacity:1;" d="M 388.3125 204.261719 L 352.203125 419.839844 C 351.035156 426.222656 345.484375 430.863281 338.996094 430.886719 L 173.003906 430.886719 C 166.515625 430.863281 160.964844 426.222656 159.796875 419.839844 L 123.6875 204.261719 C 122.496094 196.914062 127.488281 189.996094 134.832031 188.804688 C 135.511719 188.695312 136.203125 188.636719 136.894531 188.632812 L 374.839844 188.632812 C 382.277344 188.535156 388.386719 194.488281 388.484375 201.929688 C 388.496094 202.710938 388.433594 203.492188 388.3125 204.261719 Z M 404.210938 148.210938 C 404.210938 155.652344 398.175781 161.683594 390.738281 161.683594 L 121.261719 161.683594 C 113.824219 161.683594 107.789062 155.652344 107.789062 148.210938 C 107.789062 140.769531 113.824219 134.738281 121.261719 134.738281 L 188.632812 134.738281 L 188.632812 94.316406 C 188.632812 86.875 194.664062 80.84375 202.105469 80.84375 L 309.894531 80.84375 C 317.335938 80.84375 323.367188 86.875 323.367188 94.316406 L 323.367188 134.738281 L 390.738281 134.738281 C 398.175781 134.738281 404.210938 140.769531 404.210938 148.210938 Z M 296.421875 134.738281 L 296.421875 107.789062 L 215.578125 107.789062 L 215.578125 134.738281 Z M 296.421875 134.738281 "/>
</g>
</svg>
