<?xml version="1.0" encoding="UTF-8"?>
<svg xmlns="http://www.w3.org/2000/svg" xmlns:xlink="http://www.w3.org/1999/xlink" width="512px" height="512px" viewBox="0 0 512 512" version="1.1">
<g id="surface1">
<path style=" stroke:none;fill-rule:nonzero;fill:rgb(100%,100%,100%);fill-opacity:1;" d="M 390.738281 242.527344 L 377.261719 242.527344 C 376.816406 242.589844 376.378906 242.679688 375.941406 242.796875 C 372.226562 207.265625 352.976562 175.203125 323.367188 155.21875 L 323.367188 94.316406 C 323.367188 86.875 317.335938 80.84375 309.894531 80.84375 L 202.105469 80.84375 C 194.664062 80.84375 188.632812 86.875 188.632812 94.316406 L 188.632812 155.21875 C 154.996094 177.722656 134.804688 215.527344 134.804688 256 C 134.804688 296.472656 154.996094 334.277344 188.632812 356.78125 L 188.632812 417.683594 C 188.632812 425.125 194.664062 431.15625 202.105469 431.15625 L 309.894531 431.15625 C 317.335938 431.15625 323.367188 425.125 323.367188 417.683594 L 323.367188 356.78125 C 352.972656 336.792969 372.21875 304.730469 375.941406 269.203125 C 376.378906 269.320312 376.816406 269.410156 377.261719 269.472656 L 390.738281 269.472656 C 398.179688 269.472656 404.210938 263.441406 404.210938 256 C 404.210938 248.558594 398.179688 242.527344 390.738281 242.527344 Z M 256 350.316406 C 203.910156 350.316406 161.683594 308.089844 161.683594 256 C 161.683594 203.910156 203.910156 161.683594 256 161.683594 C 308.089844 161.683594 350.316406 203.910156 350.316406 256 C 350.316406 308.089844 308.089844 350.316406 256 350.316406 Z M 296.421875 242.527344 L 269.472656 242.527344 L 269.472656 202.105469 C 269.472656 194.664062 263.441406 188.632812 256 188.632812 C 248.558594 188.632812 242.527344 194.664062 242.527344 202.105469 L 242.527344 256 C 242.527344 263.441406 248.558594 269.472656 256 269.472656 L 296.421875 269.472656 C 303.863281 269.472656 309.894531 263.441406 309.894531 256 C 309.894531 248.558594 303.863281 242.527344 296.421875 242.527344 Z M 296.421875 242.527344 "/>
</g>
</svg>
