<?xml version="1.0" encoding="UTF-8"?>
<svg xmlns="http://www.w3.org/2000/svg" xmlns:xlink="http://www.w3.org/1999/xlink" width="512px" height="512px" viewBox="0 0 512 512" version="1.1">
<g id="surface1">
<path style=" stroke:none;fill-rule:nonzero;fill:rgb(100%,100%,100%);fill-opacity:1;" d="M 107.789062 328.757812 L 161.683594 296.421875 L 229.050781 336.84375 L 268.554688 313.160156 C 260.289062 309.082031 252.539062 304.101562 245.84375 297.867188 L 283.921875 259.785156 C 290.148438 265.054688 297.921875 268.410156 306.527344 269.132812 L 306.527344 302.457031 L 313.261719 306.503906 L 313.261719 269.132812 C 321.867188 268.410156 329.640625 265.054688 335.867188 259.785156 L 373.945312 297.867188 C 363.007812 308.054688 349.574219 315.359375 334.796875 319.429688 L 363.789062 336.84375 L 382.609375 325.546875 C 411.925781 303.414062 431.15625 268.617188 431.15625 229.050781 C 431.15625 162.082031 376.867188 107.789062 309.894531 107.789062 C 274.640625 107.789062 243.175781 123.078125 221.015625 147.097656 L 175.15625 107.789062 L 80.84375 188.632812 L 107.789062 188.632812 Z M 378.707031 293.105469 L 340.628906 255.023438 C 345.894531 248.800781 349.253906 241.023438 349.976562 232.421875 L 403.867188 232.421875 C 403.023438 255.855469 393.671875 277.035156 378.707031 293.105469 Z M 403.871094 225.683594 L 349.980469 225.683594 C 349.257812 217.078125 345.898438 209.304688 340.632812 203.082031 L 378.710938 165 C 393.671875 181.066406 403.023438 202.25 403.871094 225.683594 Z M 313.261719 135.078125 C 336.695312 135.921875 357.878906 145.273438 373.945312 160.238281 L 335.867188 198.316406 C 329.640625 193.050781 321.863281 189.691406 313.261719 188.972656 C 313.261719 188.972656 313.261719 135.078125 313.261719 135.078125 Z M 306.527344 135.078125 L 306.527344 188.96875 C 297.925781 189.691406 290.148438 193.050781 283.921875 198.316406 L 245.84375 160.238281 C 261.910156 145.277344 283.09375 135.921875 306.527344 135.078125 Z M 241.082031 165 L 279.160156 203.082031 C 273.894531 209.304688 270.535156 217.078125 269.8125 225.683594 L 215.917969 225.683594 C 216.765625 202.25 226.117188 181.066406 241.082031 165 Z M 269.8125 232.421875 C 270.535156 241.023438 273.894531 248.800781 279.160156 255.023438 L 241.082031 293.105469 C 226.117188 277.039062 216.765625 255.855469 215.917969 232.421875 Z M 296.476562 323.367188 L 229.050781 363.789062 L 161.683594 323.367188 L 94.316406 363.789062 L 94.316406 404.210938 L 161.683594 363.789062 L 229.050781 404.210938 L 296.476562 363.789062 L 363.789062 404.210938 L 431.15625 363.789062 L 431.15625 323.367188 L 363.789062 363.789062 Z M 296.476562 323.367188 "/>
</g>
</svg>
