<?xml version="1.0" encoding="UTF-8"?>
<svg xmlns="http://www.w3.org/2000/svg" xmlns:xlink="http://www.w3.org/1999/xlink" width="512px" height="512px" viewBox="0 0 512 512" version="1.1">
<g id="surface1">
<path style=" stroke:none;fill-rule:nonzero;fill:rgb(100%,100%,100%);fill-opacity:1;" d="M 431.15625 80.84375 L 188.632812 80.84375 C 143.984375 80.84375 107.789062 117.035156 107.789062 161.683594 L 107.789062 293.164062 C 91.542969 304.035156 80.84375 322.542969 80.84375 343.578125 C 80.84375 377.066406 107.988281 404.210938 141.472656 404.210938 C 153.941406 404.210938 165.53125 400.433594 175.15625 393.996094 C 184.785156 400.433594 196.375 404.210938 208.84375 404.210938 C 223.285156 404.210938 236.550781 399.144531 246.949219 390.738281 L 256.46875 390.738281 C 269.988281 399.265625 286.019531 404.210938 303.15625 404.210938 C 351.527344 404.210938 390.738281 365 390.738281 316.632812 C 390.738281 280.191406 368.496094 248.972656 336.84375 235.773438 L 336.84375 188.632812 C 336.84375 158.867188 360.972656 134.738281 390.738281 134.738281 L 431.15625 134.738281 Z M 363.789062 316.632812 C 363.789062 350.117188 336.644531 377.261719 303.15625 377.261719 C 288.71875 377.261719 275.457031 372.214844 265.046875 363.789062 L 235.792969 363.789062 C 229.648438 371.96875 219.863281 377.261719 208.84375 377.261719 C 197.820312 377.261719 188.039062 371.96875 181.890625 363.789062 L 168.421875 363.789062 C 162.277344 371.96875 152.492188 377.261719 141.472656 377.261719 C 122.871094 377.261719 107.789062 362.183594 107.789062 343.578125 C 107.789062 327.285156 119.363281 313.691406 134.738281 310.570312 L 134.738281 208.84375 C 134.738281 197.679688 143.785156 188.632812 154.949219 188.632812 C 166.109375 188.632812 175.15625 197.679688 175.15625 208.84375 L 175.15625 296.421875 C 175.15625 303.863281 181.191406 309.894531 188.632812 309.894531 C 196.074219 309.894531 202.105469 303.863281 202.105469 296.421875 L 202.105469 235.789062 C 202.105469 224.628906 211.152344 215.578125 222.316406 215.578125 C 233.476562 215.578125 242.527344 224.628906 242.527344 235.789062 L 242.527344 296.421875 C 242.527344 303.863281 248.558594 309.894531 256 309.894531 C 263.441406 309.894531 269.472656 303.863281 269.472656 296.421875 L 269.472656 208.84375 C 269.472656 197.679688 278.523438 188.632812 289.683594 188.632812 C 300.847656 188.632812 309.894531 197.679688 309.894531 208.84375 L 309.894531 256.371094 C 340.210938 259.722656 363.789062 285.421875 363.789062 316.632812 Z M 363.789062 316.632812 "/>
</g>
</svg>
