<?xml version="1.0" encoding="UTF-8"?>
<svg xmlns="http://www.w3.org/2000/svg" xmlns:xlink="http://www.w3.org/1999/xlink" width="512px" height="512px" viewBox="0 0 512 512" version="1.1">
<g id="surface1">
<path style=" stroke:none;fill-rule:nonzero;fill:rgb(100%,100%,100%);fill-opacity:1;" d="M 93.777344 175.15625 C 105.230469 165.636719 119.871094 160.820312 134.738281 161.683594 C 167.808594 159.34375 197.128906 182.800781 202.105469 215.578125 L 223.125 341.691406 C 205.894531 333.898438 186.046875 334.394531 169.230469 343.039062 L 147.671875 215.578125 C 139.785156 192.261719 118.367188 176.199219 93.777344 175.15625 Z M 255.460938 356.78125 C 265.746094 348.496094 277.691406 342.519531 290.492188 339.265625 L 323.367188 134.738281 C 331.253906 111.417969 352.671875 95.359375 377.261719 94.316406 C 365.949219 84.925781 351.527344 80.117188 336.84375 80.84375 C 303.769531 78.5 274.449219 101.957031 269.472656 134.738281 L 234.441406 344.65625 C 241.949219 347.761719 249.015625 351.839844 255.460938 356.78125 Z M 371.875 343.308594 C 376.089844 339.867188 380.597656 336.804688 385.347656 334.148438 L 404.210938 215.578125 C 412.09375 192.261719 433.511719 176.199219 458.105469 175.15625 C 446.792969 165.765625 432.371094 160.960938 417.683594 161.683594 C 384.613281 159.34375 355.289062 182.800781 350.316406 215.578125 L 332.261719 323.367188 C 346.894531 326.683594 360.496094 333.527344 371.875 343.308594 Z M 431.15625 377.261719 C 419.445312 376.992188 408.039062 381.019531 399.089844 388.582031 L 386.425781 399.628906 C 378.753906 406.492188 367.148438 406.492188 359.476562 399.628906 C 355.4375 396.394531 351.664062 392.625 347.621094 389.121094 C 328.554688 373.039062 300.667969 373.039062 281.601562 389.121094 C 277.289062 392.625 273.246094 396.664062 268.933594 400.167969 C 261.261719 407.027344 249.660156 407.027344 241.988281 400.167969 C 237.675781 396.664062 233.632812 392.625 229.320312 389.121094 C 210.300781 373.1875 182.59375 373.1875 163.570312 389.121094 C 159.527344 392.625 155.753906 396.394531 151.714844 399.628906 C 149.308594 401.554688 146.570312 403.019531 143.628906 403.941406 C 135.753906 405.699219 127.542969 403.128906 122.070312 397.203125 C 115.402344 391.4375 108.28125 386.210938 100.78125 381.574219 C 95.222656 378.398438 88.855469 376.898438 82.457031 377.261719 L 80.84375 377.261719 C 73.402344 377.261719 67.367188 383.296875 67.367188 390.738281 C 67.367188 398.175781 73.402344 404.210938 80.84375 404.210938 C 87.472656 404.601562 93.675781 407.605469 98.089844 412.5625 L 107.789062 419.570312 C 125.890625 434.390625 151.734375 435.058594 170.578125 421.1875 C 175.695312 417.414062 180.277344 412.5625 185.398438 408.523438 C 193.070312 401.660156 204.671875 401.660156 212.34375 408.523438 L 222.855469 417.953125 C 241.546875 434.632812 269.53125 435.425781 289.144531 419.839844 C 293.1875 416.875 296.421875 413.101562 300.464844 409.871094 C 308.484375 401.683594 321.621094 401.550781 329.804688 409.570312 C 329.90625 409.671875 330.003906 409.769531 330.105469 409.871094 L 340.613281 419.300781 C 353.726562 430.414062 371.5625 434.164062 388.042969 429.273438 C 398.347656 426.480469 407.675781 420.882812 414.988281 413.101562 C 419.164062 408.328125 424.890625 405.179688 431.15625 404.210938 C 438.597656 404.210938 444.632812 398.175781 444.632812 390.738281 C 444.632812 383.296875 438.597656 377.261719 431.15625 377.261719 Z M 431.15625 377.261719 "/>
</g>
</svg>
