<?xml version="1.0" encoding="UTF-8"?>
<svg xmlns="http://www.w3.org/2000/svg" xmlns:xlink="http://www.w3.org/1999/xlink" width="512px" height="512px" viewBox="0 0 512 512" version="1.1">
<g id="surface1">
<path style=" stroke:none;fill-rule:nonzero;fill:rgb(100%,100%,100%);fill-opacity:1;" d="M 377.261719 94.316406 C 377.261719 116.640625 359.164062 134.738281 336.84375 134.738281 C 314.519531 134.738281 296.421875 116.640625 296.421875 94.316406 C 296.421875 71.992188 314.519531 53.894531 336.84375 53.894531 C 359.164062 53.894531 377.261719 71.992188 377.261719 94.316406 Z M 129.886719 185.128906 L 176.773438 139.046875 L 226.628906 173.808594 L 206.6875 207.496094 C 235.648438 216.496094 261.140625 234.183594 279.714844 258.15625 L 303.425781 217.734375 C 309.613281 206.53125 305.542969 192.429688 294.339844 186.246094 C 294.3125 186.234375 294.289062 186.21875 294.265625 186.207031 L 277.558594 176.234375 L 182.972656 110.484375 C 177.65625 106.695312 170.390625 107.265625 165.726562 111.832031 L 111.832031 165.726562 C 107.390625 171.699219 108.628906 180.136719 114.601562 184.578125 C 119.089844 187.917969 125.171875 188.136719 129.886719 185.128906 Z M 272.976562 348.699219 C 272.589844 381.867188 257.363281 413.113281 231.476562 433.851562 C 212.296875 449.492188 188.320312 458.058594 163.570312 458.105469 C 103.101562 458.105469 54.042969 409.167969 53.894531 348.699219 C 53.957031 323.824219 62.621094 299.738281 78.417969 280.523438 C 83.449219 274.269531 89.140625 268.578125 95.394531 263.546875 C 114.609375 247.75 138.695312 239.085938 163.570312 239.023438 C 224.039062 239.171875 272.976562 288.230469 272.976562 348.699219 Z M 215.578125 382.921875 C 236.273438 355.84375 231.09375 317.113281 204.015625 296.421875 C 181.898438 279.515625 151.199219 279.515625 129.078125 296.421875 C 122.027344 300.488281 116.171875 306.347656 112.101562 313.398438 C 93.445312 341.917969 101.441406 380.164062 129.960938 398.820312 C 150.480469 412.242188 177.003906 412.242188 197.523438 398.820312 C 204.273438 394.414062 210.355469 389.0625 215.578125 382.921875 Z M 436.546875 409.871094 L 369.449219 275.132812 C 366.230469 267.457031 358.636719 262.535156 350.316406 262.738281 L 283.21875 262.738281 C 292.089844 275.074219 298.996094 288.707031 303.695312 303.15625 L 337.652344 303.15625 L 399.359375 426.578125 C 404.34375 436.621094 416.53125 440.722656 426.578125 435.738281 C 436.621094 430.753906 440.722656 418.566406 435.738281 408.523438 Z M 436.546875 409.871094 "/>
</g>
</svg>
