<?xml version="1.0" encoding="UTF-8"?>
<svg xmlns="http://www.w3.org/2000/svg" xmlns:xlink="http://www.w3.org/1999/xlink" width="512px" height="512px" viewBox="0 0 512 512" version="1.1">
<g id="surface1">
<path style=" stroke:none;fill-rule:nonzero;fill:rgb(100%,100%,100%);fill-opacity:1;" d="M 215.578125 188.632812 L 148.210938 256 L 175.15625 282.949219 L 242.527344 215.578125 L 242.527344 202.105469 L 256 188.632812 L 269.472656 202.105469 L 269.472656 215.578125 L 336.84375 282.949219 L 363.789062 256 L 296.421875 188.632812 L 282.949219 188.632812 L 269.472656 175.15625 L 282.949219 161.683594 L 296.421875 161.683594 L 363.789062 94.316406 L 336.84375 67.367188 L 269.472656 134.738281 L 269.472656 148.210938 L 256 161.683594 L 242.527344 148.210938 L 242.527344 134.738281 L 175.15625 67.367188 L 148.210938 94.316406 L 215.578125 161.683594 L 229.050781 161.683594 L 242.527344 175.15625 L 229.050781 188.632812 Z M 363.789062 404.210938 L 336.84375 404.210938 L 309.894531 296.421875 L 256 242.527344 L 202.105469 296.421875 L 175.15625 404.210938 L 148.210938 404.210938 C 140.769531 404.210938 134.738281 410.242188 134.738281 417.683594 C 134.738281 425.125 140.769531 431.15625 148.210938 431.15625 L 363.789062 431.15625 C 371.230469 431.15625 377.261719 425.125 377.261719 417.683594 C 377.261719 410.242188 371.230469 404.210938 363.789062 404.210938 Z M 269.472656 404.210938 L 242.527344 404.210938 L 242.527344 363.726562 C 242.527344 356.320312 248.53125 350.316406 255.933594 350.316406 C 263.414062 350.316406 269.472656 356.375 269.472656 363.855469 Z M 269.472656 404.210938 "/>
</g>
</svg>
