<?xml version="1.0" encoding="UTF-8"?>
<svg xmlns="http://www.w3.org/2000/svg" xmlns:xlink="http://www.w3.org/1999/xlink" width="512px" height="512px" viewBox="0 0 512 512" version="1.1">
<g id="surface1">
<path style=" stroke:none;fill-rule:nonzero;fill:rgb(100%,100%,100%);fill-opacity:1;" d="M 279.925781 158.796875 C 279.925781 158.796875 260.898438 188.632812 242.527344 188.632812 L 175.15625 188.632812 C 156.785156 188.632812 140.167969 199.640625 127.386719 211.902344 L 67.367188 269.472656 C 60.121094 276.425781 54.089844 290.171875 53.894531 296.421875 C 53.472656 309.894531 53.894531 323.367188 53.894531 323.367188 C 53.894531 323.367188 80.84375 323.367188 80.84375 296.421875 L 80.84375 282.949219 L 107.789062 256 L 121.261719 256 L 125.519531 263.792969 C 125.519531 263.792969 99.828125 312.957031 99.828125 358.886719 C 99.828125 377.261719 118.203125 377.261719 118.203125 377.261719 L 136.574219 377.261719 C 136.574219 377.261719 145.761719 377.261719 136.574219 368.078125 L 127.386719 358.890625 C 127.386719 340.519531 148.214844 314.386719 161.683594 296.421875 C 161.683594 296.421875 162.136719 327.625 161.683594 350.316406 C 161.46875 361.351562 169.015625 377.261719 180.058594 377.261719 L 198.429688 377.261719 C 198.429688 377.261719 207.617188 377.261719 198.429688 368.078125 L 189.242188 358.890625 C 180.832031 343.566406 202.105469 282.949219 202.105469 282.949219 C 236.371094 282.949219 242.527344 296.421875 282.949219 296.421875 L 292.746094 358.890625 C 295.746094 378.023438 309.894531 377.261719 309.894531 377.261719 L 350.316406 377.261719 C 359.503906 377.261719 376.214844 368.867188 359.503906 356.417969 L 350.316406 350.316406 L 350.316406 296.421875 C 383.035156 291.78125 404.210938 269.472656 404.210938 242.527344 L 431.15625 242.527344 C 439.820312 242.527344 458.105469 242.527344 458.105469 229.050781 L 458.105469 202.105469 L 412.171875 156.785156 C 391.933594 136.816406 377.261719 121.261719 350.316406 121.261719 C 311.160156 121.261719 292.746094 136.589844 279.925781 158.796875 Z M 279.925781 158.796875 "/>
</g>
</svg>
